<svg width="800" height="800" viewBox="0 0 20 20" preserveAspectRatio="xMinYMin meet" xmlns="http://www.w3.org/2000/svg">
<polygon points="0 0, 0 20, 20 20, 20 0" fill="none" style="stroke:blue;stroke-width:0.1"/>
<polygon points="1.4615384615384612 7.026942902985166, 1.246153846153846 6.653885805970329, 1.4615384615384612 6.280828708955495, 1.8923076923076918 6.280828708955495, 2.107692307692307 6.653885805970329, 1.8923076923076918 7.026942902985166" fill="none" style="stroke:red;stroke-width:0.001"/>
<polygon points="0 0, 0 20, 20 20, 20 0" fill="none" style="stroke:blue;stroke-width:0.1"/>
<polygon points="0.8153846153846156 7.4, 0.6 7.026942902985166, 0.815384615384615 6.653885805970331, 1.2461538461538457 6.653885805970329, 1.4615384615384612 7.026942902985166, 1.2461538461538462 7.4" fill="none" style="stroke:red;stroke-width:0.001"/>
<polygon points="0 0, 0 20, 20 20, 20 0" fill="none" style="stroke:blue;stroke-width:0.1"/>
<polygon points="0.8153846153846156 7.4, 0.6 7.026942902985166, 0.815384615384615 6.653885805970331, 1.246153846153846 6.653885805970329, 1.4615384615384612 6.280828708955495, 1.8923076923076918 6.280828708955495, 2.107692307692307 6.653885805970329, 1.8923076923076918 7.026942902985166, 1.4615384615384612 7.026942902985166, 1.2461538461538462 7.4" fill="none" style="stroke:black;stroke-width:0.005"/>
<polygon points="0 0, 0 20, 20 20, 20 0" fill="none" style="stroke:blue;stroke-width:0.1"/>
<text x="0.0" y="8.0" font-family="Verdana" font-size="0.25">2</text>
<polygon points="0.0 8.0, 0.0 4.0, 4.0 4.0, 4.0 8.0" fill="none" style="stroke:black;stroke-width:0.001"/>
<polygon points="0 0, 0 20, 20 20, 20 0" fill="none" style="stroke:blue;stroke-width:0.1"/>
<polygon points="1.4615384615384621 11.4, 1.2461538461538462 11.026942902985166, 1.4615384615384612 10.653885805970331, 1.8923076923076922 10.65388580597033, 2.1076923076923078 10.280828708955495, 2.538461538461538 10.280828708955495, 2.7538461538461534 10.65388580597033, 2.538461538461538 11.026942902985166, 2.1076923076923078 11.026942902985166, 1.8923076923076927 11.4" fill="none" style="stroke:red;stroke-width:0.001"/>
<polygon points="0 0, 0 20, 20 20, 20 0" fill="none" style="stroke:blue;stroke-width:0.1"/>
<polygon points="0.8153846153846156 11.026942902985166, 0.6 10.653885805970331, 0.815384615384615 10.280828708955497, 1.2461538461538457 10.280828708955497, 1.4615384615384612 10.653885805970331, 1.2461538461538462 11.026942902985166" fill="none" style="stroke:red;stroke-width:0.001"/>
<polygon points="0 0, 0 20, 20 20, 20 0" fill="none" style="stroke:blue;stroke-width:0.1"/>
<polygon points="1.4615384615384621 11.4, 1.2461538461538462 11.026942902985166, 0.8153846153846156 11.026942902985166, 0.6 10.653885805970331, 0.815384615384615 10.280828708955497, 1.2461538461538457 10.280828708955497, 1.4615384615384612 10.653885805970331, 1.8923076923076922 10.65388580597033, 2.1076923076923078 10.280828708955495, 2.538461538461538 10.280828708955495, 2.7538461538461534 10.65388580597033, 2.538461538461538 11.026942902985166, 2.1076923076923078 11.026942902985166, 1.8923076923076927 11.4" fill="none" style="stroke:black;stroke-width:0.005"/>
<polygon points="0 0, 0 20, 20 20, 20 0" fill="none" style="stroke:blue;stroke-width:0.1"/>
<text x="0.0" y="12.0" font-family="Verdana" font-size="0.25">3</text>
<polygon points="0.0 12.0, 0.0 8.0, 4.0 8.0, 4.0 12.0" fill="none" style="stroke:black;stroke-width:0.001"/>
<polygon points="0 0, 0 20, 20 20, 20 0" fill="none" style="stroke:blue;stroke-width:0.1"/>
<polygon points="5.461538461538461 3.026942902985162, 5.246153846153845 2.6538858059703294, 5.461538461538461 2.280828708955493, 5.892307692307692 2.280828708955493, 6.107692307692307 1.9077716119406567, 6.538461538461537 1.9077716119406567, 6.753846153846153 2.280828708955493, 6.538461538461537 2.653885805970326, 6.107692307692307 2.653885805970326, 5.892307692307692 3.026942902985162" fill="none" style="stroke:red;stroke-width:0.001"/>
<polygon points="0 0, 0 20, 20 20, 20 0" fill="none" style="stroke:blue;stroke-width:0.1"/>
<polygon points="4.815384615384616 3.3999999999999986, 4.6 3.026942902985162, 4.815384615384614 2.6538858059703294, 5.246153846153845 2.6538858059703294, 5.461538461538461 3.026942902985162, 5.246153846153846 3.3999999999999986" fill="none" style="stroke:red;stroke-width:0.001"/>
<polygon points="0 0, 0 20, 20 20, 20 0" fill="none" style="stroke:blue;stroke-width:0.1"/>
<polygon points="4.815384615384616 3.3999999999999986, 4.6 3.026942902985162, 4.815384615384614 2.6538858059703294, 5.246153846153845 2.6538858059703294, 5.461538461538461 2.280828708955493, 5.892307692307692 2.280828708955493, 6.107692307692307 1.9077716119406567, 6.538461538461537 1.9077716119406567, 6.753846153846153 2.280828708955493, 6.538461538461537 2.653885805970326, 6.107692307692307 2.653885805970326, 5.892307692307692 3.026942902985162, 5.461538461538461 3.026942902985162, 5.246153846153846 3.3999999999999986" fill="none" style="stroke:black;stroke-width:0.005"/>
<polygon points="0 0, 0 20, 20 20, 20 0" fill="none" style="stroke:blue;stroke-width:0.1"/>
<text x="4.0" y="4.0" font-family="Verdana" font-size="0.25">3</text>
<polygon points="4.0 4.0, 4.0 0.0, 8.0 0.0, 8.0 4.0" fill="none" style="stroke:black;stroke-width:0.001"/>
<polygon points="0 0, 0 20, 20 20, 20 0" fill="none" style="stroke:blue;stroke-width:0.1"/>
<polygon points="4.815384615384616 7.4, 4.6000000000000005 7.026942902985166, 4.815384615384615 6.653885805970329, 5.246153846153846 6.653885805970329, 5.461538461538462 6.280828708955495, 5.892307692307693 6.280828708955495, 6.107692307692307 6.653885805970329, 5.892307692307693 7.026942902985166, 5.461538461538462 7.026942902985166, 5.246153846153846 7.4" fill="none" style="stroke:red;stroke-width:0.001"/>
<polygon points="0 0, 0 20, 20 20, 20 0" fill="none" style="stroke:blue;stroke-width:0.1"/>
<polygon points="4.815384615384615 6.653885805970329, 4.6 6.280828708955495, 4.815384615384615 5.90777161194066, 5.246153846153845 5.90777161194066, 5.461538461538462 6.280828708955495, 5.246153846153846 6.653885805970329" fill="none" style="stroke:red;stroke-width:0.001"/>
<polygon points="0 0, 0 20, 20 20, 20 0" fill="none" style="stroke:blue;stroke-width:0.1"/>
<polygon points="4.815384615384616 7.4, 4.6000000000000005 7.026942902985166, 4.815384615384615 6.653885805970329, 4.6 6.280828708955495, 4.815384615384615 5.90777161194066, 5.246153846153845 5.90777161194066, 5.461538461538462 6.280828708955495, 5.892307692307693 6.280828708955495, 6.107692307692307 6.653885805970329, 5.892307692307693 7.026942902985166, 5.461538461538462 7.026942902985166, 5.246153846153846 7.4" fill="none" style="stroke:black;stroke-width:0.005"/>
<polygon points="0 0, 0 20, 20 20, 20 0" fill="none" style="stroke:blue;stroke-width:0.1"/>
<text x="4.0" y="8.0" font-family="Verdana" font-size="0.25">3</text>
<polygon points="4.0 8.0, 4.0 4.0, 8.0 4.0, 8.0 8.0" fill="none" style="stroke:black;stroke-width:0.001"/>
<polygon points="0 0, 0 20, 20 20, 20 0" fill="none" style="stroke:blue;stroke-width:0.1"/>
<polygon points="5.461538461538463 11.4, 5.246153846153847 11.026942902985166, 4.815384615384616 11.026942902985166, 4.6000000000000005 10.653885805970331, 4.815384615384615 10.280828708955497, 5.246153846153846 10.280828708955495, 5.461538461538462 10.65388580597033, 5.892307692307693 10.65388580597033, 6.107692307692308 10.280828708955495, 6.538461538461539 10.280828708955495, 6.753846153846155 10.65388580597033, 6.538461538461539 11.026942902985166, 6.107692307692308 11.026942902985166, 5.892307692307694 11.4" fill="none" style="stroke:red;stroke-width:0.001"/>
<polygon points="0 0, 0 20, 20 20, 20 0" fill="none" style="stroke:blue;stroke-width:0.1"/>
<polygon points="4.815384615384615 10.280828708955497, 4.6 9.90777161194066, 4.815384615384615 9.534714514925826, 5.246153846153845 9.534714514925826, 5.461538461538462 9.90777161194066, 5.246153846153846 10.280828708955495" fill="none" style="stroke:red;stroke-width:0.001"/>
<polygon points="0 0, 0 20, 20 20, 20 0" fill="none" style="stroke:blue;stroke-width:0.1"/>
<polygon points="5.461538461538463 11.4, 5.246153846153847 11.026942902985166, 4.815384615384616 11.026942902985166, 4.6000000000000005 10.653885805970331, 4.815384615384615 10.280828708955497, 4.6 9.90777161194066, 4.815384615384615 9.534714514925826, 5.246153846153845 9.534714514925826, 5.461538461538462 9.90777161194066, 5.246153846153846 10.280828708955495, 5.461538461538462 10.65388580597033, 5.892307692307693 10.65388580597033, 6.107692307692308 10.280828708955495, 6.538461538461539 10.280828708955495, 6.753846153846155 10.65388580597033, 6.538461538461539 11.026942902985166, 6.107692307692308 11.026942902985166, 5.892307692307694 11.4" fill="none" style="stroke:black;stroke-width:0.005"/>
<polygon points="0 0, 0 20, 20 20, 20 0" fill="none" style="stroke:blue;stroke-width:0.1"/>
<text x="4.0" y="12.0" font-family="Verdana" font-size="0.25">4</text>
<polygon points="4.0 12.0, 4.0 8.0, 8.0 8.0, 8.0 12.0" fill="none" style="stroke:black;stroke-width:0.001"/>
<polygon points="0 0, 0 20, 20 20, 20 0" fill="none" style="stroke:blue;stroke-width:0.1"/>
<polygon points="9.461538461538462 3.026942902985162, 9.246153846153845 2.6538858059703294, 8.815384615384616 2.6538858059703294, 8.6 2.280828708955493, 8.815384615384614 1.9077716119406567, 9.246153846153845 1.9077716119406567, 9.461538461538462 2.280828708955493, 9.892307692307693 2.280828708955493, 10.107692307692307 1.9077716119406567, 10.538461538461538 1.9077716119406567, 10.753846153846153 2.280828708955493, 10.538461538461538 2.653885805970326, 10.107692307692307 2.653885805970326, 9.892307692307693 3.026942902985162" fill="none" style="stroke:red;stroke-width:0.001"/>
<polygon points="0 0, 0 20, 20 20, 20 0" fill="none" style="stroke:blue;stroke-width:0.1"/>
<polygon points="8.815384615384616 3.3999999999999986, 8.6 3.026942902985162, 8.815384615384616 2.6538858059703294, 9.246153846153845 2.6538858059703294, 9.461538461538462 3.026942902985162, 9.246153846153847 3.3999999999999986" fill="none" style="stroke:red;stroke-width:0.001"/>
<polygon points="0 0, 0 20, 20 20, 20 0" fill="none" style="stroke:blue;stroke-width:0.1"/>
<polygon points="8.815384615384616 3.3999999999999986, 8.6 3.026942902985162, 8.815384615384616 2.6538858059703294, 8.6 2.280828708955493, 8.815384615384614 1.9077716119406567, 9.246153846153845 1.9077716119406567, 9.461538461538462 2.280828708955493, 9.892307692307693 2.280828708955493, 10.107692307692307 1.9077716119406567, 10.538461538461538 1.9077716119406567, 10.753846153846153 2.280828708955493, 10.538461538461538 2.653885805970326, 10.107692307692307 2.653885805970326, 9.892307692307693 3.026942902985162, 9.461538461538462 3.026942902985162, 9.246153846153847 3.3999999999999986" fill="none" style="stroke:black;stroke-width:0.005"/>
<polygon points="0 0, 0 20, 20 20, 20 0" fill="none" style="stroke:blue;stroke-width:0.1"/>
<text x="8.0" y="4.0" font-family="Verdana" font-size="0.25">4</text>
<polygon points="8.0 4.0, 8.0 0.0, 12.0 0.0, 12.0 4.0" fill="none" style="stroke:black;stroke-width:0.001"/>
<polygon points="0 0, 0 20, 20 20, 20 0" fill="none" style="stroke:blue;stroke-width:0.1"/>
<polygon points="10.107692307692307 7.399999999999999, 9.892307692307693 7.026942902985164, 9.461538461538462 7.026942902985166, 9.246153846153845 6.653885805970329, 9.46153846153846 6.280828708955495, 9.892307692307691 6.280828708955495, 10.107692307692307 6.653885805970329, 10.538461538461538 6.653885805970329, 10.753846153846153 6.280828708955493, 11.184615384615384 6.280828708955493, 11.399999999999999 6.653885805970329, 11.184615384615384 7.026942902985164, 10.753846153846153 7.026942902985164, 10.538461538461538 7.399999999999999" fill="none" style="stroke:red;stroke-width:0.001"/>
<polygon points="0 0, 0 20, 20 20, 20 0" fill="none" style="stroke:blue;stroke-width:0.1"/>
<polygon points="8.815384615384616 7.4, 8.6 7.026942902985166, 8.815384615384614 6.653885805970329, 9.246153846153845 6.653885805970329, 9.461538461538462 7.026942902985166, 9.246153846153847 7.4" fill="none" style="stroke:red;stroke-width:0.001"/>
<polygon points="0 0, 0 20, 20 20, 20 0" fill="none" style="stroke:blue;stroke-width:0.1"/>
<polygon points="8.815384615384616 7.4, 8.6 7.026942902985166, 8.815384615384614 6.653885805970329, 9.246153846153845 6.653885805970329, 9.46153846153846 6.280828708955495, 9.892307692307691 6.280828708955495, 10.107692307692307 6.653885805970329, 10.538461538461538 6.653885805970329, 10.753846153846153 6.280828708955493, 11.184615384615384 6.280828708955493, 11.399999999999999 6.653885805970329, 11.184615384615384 7.026942902985164, 10.753846153846153 7.026942902985164, 10.538461538461538 7.399999999999999, 10.107692307692307 7.399999999999999, 9.892307692307693 7.026942902985164, 9.461538461538462 7.026942902985166, 9.246153846153847 7.4" fill="none" style="stroke:black;stroke-width:0.005"/>
<polygon points="0 0, 0 20, 20 20, 20 0" fill="none" style="stroke:blue;stroke-width:0.1"/>
<text x="8.0" y="8.0" font-family="Verdana" font-size="0.25">4</text>
<polygon points="8.0 8.0, 8.0 4.0, 12.0 4.0, 12.0 8.0" fill="none" style="stroke:black;stroke-width:0.001"/>
<polygon points="0 0, 0 20, 20 20, 20 0" fill="none" style="stroke:blue;stroke-width:0.1"/>
<polygon points="10.107692307692309 11.4, 9.892307692307693 11.026942902985166, 9.461538461538462 11.026942902985166, 9.246153846153847 10.653885805970331, 9.461538461538462 10.280828708955497, 9.892307692307693 10.280828708955495, 10.107692307692307 10.65388580597033, 10.538461538461538 10.65388580597033, 10.753846153846155 10.280828708955495, 11.184615384615384 10.280828708955495, 11.4 10.65388580597033, 11.184615384615384 11.026942902985166, 10.753846153846155 11.026942902985166, 10.53846153846154 11.4" fill="none" style="stroke:red;stroke-width:0.001"/>
<polygon points="0 0, 0 20, 20 20, 20 0" fill="none" style="stroke:blue;stroke-width:0.1"/>
<polygon points="8.815384615384616 10.653885805970331, 8.6 10.280828708955497, 8.815384615384614 9.907771611940662, 9.246153846153845 9.90777161194066, 9.461538461538462 10.280828708955497, 9.246153846153847 10.653885805970331" fill="none" style="stroke:red;stroke-width:0.001"/>
<polygon points="0 0, 0 20, 20 20, 20 0" fill="none" style="stroke:blue;stroke-width:0.1"/>
<polygon points="10.107692307692309 11.4, 9.892307692307693 11.026942902985166, 9.461538461538462 11.026942902985166, 9.246153846153847 10.653885805970331, 8.815384615384616 10.653885805970331, 8.6 10.280828708955497, 8.815384615384614 9.907771611940662, 9.246153846153845 9.90777161194066, 9.461538461538462 10.280828708955497, 9.892307692307693 10.280828708955495, 10.107692307692307 10.65388580597033, 10.538461538461538 10.65388580597033, 10.753846153846155 10.280828708955495, 11.184615384615384 10.280828708955495, 11.4 10.65388580597033, 11.184615384615384 11.026942902985166, 10.753846153846155 11.026942902985166, 10.53846153846154 11.4" fill="none" style="stroke:black;stroke-width:0.005"/>
<polygon points="0 0, 0 20, 20 20, 20 0" fill="none" style="stroke:blue;stroke-width:0.1"/>
<text x="8.0" y="12.0" font-family="Verdana" font-size="0.25">4</text>
<polygon points="8.0 12.0, 8.0 8.0, 12.0 8.0, 12.0 12.0" fill="none" style="stroke:black;stroke-width:0.001"/>
<polygon points="0 0, 0 20, 20 20, 20 0" fill="none" style="stroke:blue;stroke-width:0.1"/>
<polygon points="13.461538461538462 3.3999999999999986, 13.246153846153845 3.026942902985162, 12.815384615384616 3.0269429029851658, 12.6 2.6538858059703294, 12.815384615384614 2.280828708955493, 13.246153846153845 2.280828708955493, 13.461538461538462 2.6538858059703294, 13.892307692307693 2.6538858059703294, 14.107692307692307 2.280828708955493, 14.538461538461538 2.280828708955493, 14.753846153846153 2.6538858059703294, 14.538461538461538 3.026942902985162, 14.107692307692307 3.026942902985162, 13.892307692307693 3.3999999999999986" fill="none" style="stroke:red;stroke-width:0.001"/>
<polygon points="0 0, 0 20, 20 20, 20 0" fill="none" style="stroke:blue;stroke-width:0.1"/>
<polygon points="13.461538461538462 2.6538858059703294, 13.246153846153845 2.280828708955493, 13.46153846153846 1.9077716119406567, 13.892307692307691 1.9077716119406567, 14.107692307692307 2.280828708955493, 13.892307692307693 2.6538858059703294" fill="none" style="stroke:red;stroke-width:0.001"/>
<polygon points="0 0, 0 20, 20 20, 20 0" fill="none" style="stroke:blue;stroke-width:0.1"/>
<polygon points="13.461538461538462 3.3999999999999986, 13.246153846153845 3.026942902985162, 12.815384615384616 3.0269429029851658, 12.6 2.6538858059703294, 12.815384615384614 2.280828708955493, 13.246153846153845 2.280828708955493, 13.46153846153846 1.9077716119406567, 13.892307692307691 1.9077716119406567, 14.107692307692307 2.280828708955493, 14.538461538461538 2.280828708955493, 14.753846153846153 2.6538858059703294, 14.538461538461538 3.026942902985162, 14.107692307692307 3.026942902985162, 13.892307692307693 3.3999999999999986" fill="none" style="stroke:black;stroke-width:0.005"/>
<polygon points="0 0, 0 20, 20 20, 20 0" fill="none" style="stroke:blue;stroke-width:0.1"/>
<text x="12.0" y="4.0" font-family="Verdana" font-size="0.25">4</text>
<polygon points="12.0 4.0, 12.0 0.0, 16.0 0.0, 16.0 4.0" fill="none" style="stroke:black;stroke-width:0.001"/>
<polygon points="0 0, 0 20, 20 20, 20 0" fill="none" style="stroke:blue;stroke-width:0.1"/>
<polygon points="13.461538461538462 7.026942902985164, 13.246153846153845 6.653885805970329, 13.46153846153846 6.280828708955493, 13.892307692307691 6.280828708955493, 14.107692307692306 5.907771611940657, 14.538461538461537 5.907771611940657, 14.753846153846151 5.534714514925822, 15.184615384615382 5.534714514925822, 15.399999999999999 5.907771611940657, 15.184615384615382 6.280828708955493, 14.753846153846151 6.280828708955493, 14.538461538461537 6.653885805970328, 14.107692307692306 6.653885805970328, 13.892307692307691 7.026942902985162" fill="none" style="stroke:red;stroke-width:0.001"/>
<polygon points="0 0, 0 20, 20 20, 20 0" fill="none" style="stroke:blue;stroke-width:0.1"/>
<polygon points="12.815384615384616 7.4, 12.6 7.026942902985166, 12.815384615384614 6.653885805970331, 13.246153846153845 6.653885805970329, 13.461538461538462 7.026942902985164, 13.246153846153847 7.399999999999999" fill="none" style="stroke:red;stroke-width:0.001"/>
<polygon points="0 0, 0 20, 20 20, 20 0" fill="none" style="stroke:blue;stroke-width:0.1"/>
<polygon points="12.815384615384616 7.4, 12.6 7.026942902985166, 12.815384615384614 6.653885805970331, 13.246153846153845 6.653885805970329, 13.46153846153846 6.280828708955493, 13.892307692307691 6.280828708955493, 14.107692307692306 5.907771611940657, 14.538461538461537 5.907771611940657, 14.753846153846151 5.534714514925822, 15.184615384615382 5.534714514925822, 15.399999999999999 5.907771611940657, 15.184615384615382 6.280828708955493, 14.753846153846151 6.280828708955493, 14.538461538461537 6.653885805970328, 14.107692307692306 6.653885805970328, 13.892307692307691 7.026942902985162, 13.461538461538462 7.026942902985164, 13.246153846153847 7.399999999999999" fill="none" style="stroke:black;stroke-width:0.005"/>
<polygon points="0 0, 0 20, 20 20, 20 0" fill="none" style="stroke:blue;stroke-width:0.1"/>
<text x="12.0" y="8.0" font-family="Verdana" font-size="0.25">4</text>
<polygon points="12.0 8.0, 12.0 4.0, 16.0 4.0, 16.0 8.0" fill="none" style="stroke:black;stroke-width:0.001"/>
<polygon points="0 0, 0 20, 20 20, 20 0" fill="none" style="stroke:blue;stroke-width:0.1"/>
<polygon points="13.461538461538462 10.65388580597033, 13.246153846153845 10.280828708955495, 12.815384615384616 10.280828708955497, 12.6 9.90777161194066, 12.815384615384614 9.534714514925826, 13.246153846153845 9.534714514925826, 13.461538461538462 9.90777161194066, 13.892307692307693 9.90777161194066, 14.107692307692307 9.534714514925824, 14.538461538461538 9.534714514925824, 14.753846153846153 9.90777161194066, 14.538461538461538 10.280828708955495, 14.107692307692307 10.280828708955495, 13.892307692307693 10.65388580597033" fill="none" style="stroke:red;stroke-width:0.001"/>
<polygon points="0 0, 0 20, 20 20, 20 0" fill="none" style="stroke:blue;stroke-width:0.1"/>
<polygon points="13.461538461538463 11.4, 13.246153846153847 11.026942902985166, 13.461538461538462 10.65388580597033, 13.892307692307693 10.65388580597033, 14.107692307692307 11.026942902985164, 13.892307692307693 11.4" fill="none" style="stroke:red;stroke-width:0.001"/>
<polygon points="0 0, 0 20, 20 20, 20 0" fill="none" style="stroke:blue;stroke-width:0.1"/>
<polygon points="13.461538461538463 11.4, 13.246153846153847 11.026942902985166, 13.461538461538462 10.65388580597033, 13.246153846153845 10.280828708955495, 12.815384615384616 10.280828708955497, 12.6 9.90777161194066, 12.815384615384614 9.534714514925826, 13.246153846153845 9.534714514925826, 13.461538461538462 9.90777161194066, 13.892307692307693 9.90777161194066, 14.107692307692307 9.534714514925824, 14.538461538461538 9.534714514925824, 14.753846153846153 9.90777161194066, 14.538461538461538 10.280828708955495, 14.107692307692307 10.280828708955495, 13.892307692307693 10.65388580597033, 14.107692307692307 11.026942902985164, 13.892307692307693 11.4" fill="none" style="stroke:black;stroke-width:0.005"/>
<polygon points="0 0, 0 20, 20 20, 20 0" fill="none" style="stroke:blue;stroke-width:0.1"/>
<text x="12.0" y="12.0" font-family="Verdana" font-size="0.25">4</text>
<polygon points="12.0 12.0, 12.0 8.0, 16.0 8.0, 16.0 12.0" fill="none" style="stroke:black;stroke-width:0.001"/>
</svg>
