<svg width="800" height="800" viewBox="0 0 20 20" preserveAspectRatio="xMinYMin meet" xmlns="http://www.w3.org/2000/svg">
<polygon points="0 0, 0 20, 20 20, 20 0" fill="none" style="stroke:blue;stroke-width:0.1"/>
<polygon points="0.9285714285714286 5.069207934768174, 0.8035714285714286 4.852701583822066, 0.9285714285714286 4.636195232875956, 1.1785714285714284 4.636195232875956, 1.3035714285714284 4.852701583822066, 1.1785714285714284 5.069207934768174" fill="none" style="stroke:red;stroke-width:0.001"/>
<polygon points="0 0, 0 20, 20 20, 20 0" fill="none" style="stroke:blue;stroke-width:0.1"/>
<polygon points="0.5535714285714287 5.285714285714285, 0.42857142857142855 5.069207934768174, 0.5535714285714284 4.852701583822066, 0.8035714285714284 4.852701583822066, 0.9285714285714286 5.069207934768174, 0.8035714285714286 5.285714285714285" fill="none" style="stroke:red;stroke-width:0.001"/>
<polygon points="0 0, 0 20, 20 20, 20 0" fill="none" style="stroke:blue;stroke-width:0.1"/>
<polygon points="0.5535714285714287 5.285714285714285, 0.42857142857142855 5.069207934768174, 0.5535714285714284 4.852701583822066, 0.8035714285714286 4.852701583822066, 0.9285714285714286 4.636195232875956, 1.1785714285714284 4.636195232875956, 1.3035714285714284 4.852701583822066, 1.1785714285714284 5.069207934768174, 0.9285714285714286 5.069207934768174, 0.8035714285714286 5.285714285714285" fill="none" style="stroke:black;stroke-width:0.005"/>
<polygon points="0 0, 0 20, 20 20, 20 0" fill="none" style="stroke:blue;stroke-width:0.1"/>
<text x="0.0" y="5.7142857142857135" font-family="Verdana" font-size="0.25">2</text>
<polygon points="0.0 5.7142857142857135, 0.0 2.8571428571428577, 2.857142857142857 2.8571428571428577, 2.857142857142857 5.7142857142857135" fill="none" style="stroke:black;stroke-width:0.001"/>
<polygon points="0 0, 0 20, 20 20, 20 0" fill="none" style="stroke:blue;stroke-width:0.1"/>
<polygon points="0.9285714285714288 8.142857142857142, 0.8035714285714286 7.926350791911032, 0.9285714285714285 7.709844440964924, 1.1785714285714286 7.709844440964924, 1.3035714285714286 7.493338090018813, 1.5535714285714284 7.493338090018813, 1.6785714285714284 7.709844440964924, 1.5535714285714284 7.926350791911032, 1.3035714285714286 7.926350791911032, 1.1785714285714286 8.142857142857142" fill="none" style="stroke:red;stroke-width:0.001"/>
<polygon points="0 0, 0 20, 20 20, 20 0" fill="none" style="stroke:blue;stroke-width:0.1"/>
<polygon points="0.5535714285714287 7.926350791911034, 0.42857142857142855 7.709844440964924, 0.5535714285714284 7.493338090018813, 0.8035714285714284 7.493338090018813, 0.9285714285714285 7.709844440964924, 0.8035714285714286 7.926350791911032" fill="none" style="stroke:red;stroke-width:0.001"/>
<polygon points="0 0, 0 20, 20 20, 20 0" fill="none" style="stroke:blue;stroke-width:0.1"/>
<polygon points="0.9285714285714288 8.142857142857142, 0.8035714285714286 7.926350791911032, 0.5535714285714287 7.926350791911034, 0.42857142857142855 7.709844440964924, 0.5535714285714284 7.493338090018813, 0.8035714285714284 7.493338090018813, 0.9285714285714285 7.709844440964924, 1.1785714285714286 7.709844440964924, 1.3035714285714286 7.493338090018813, 1.5535714285714284 7.493338090018813, 1.6785714285714284 7.709844440964924, 1.5535714285714284 7.926350791911032, 1.3035714285714286 7.926350791911032, 1.1785714285714286 8.142857142857142" fill="none" style="stroke:black;stroke-width:0.005"/>
<polygon points="0 0, 0 20, 20 20, 20 0" fill="none" style="stroke:blue;stroke-width:0.1"/>
<text x="0.0" y="8.571428571428571" font-family="Verdana" font-size="0.25">3</text>
<polygon points="0.0 8.571428571428571, 0.0 5.7142857142857135, 2.857142857142857 5.7142857142857135, 2.857142857142857 8.571428571428571" fill="none" style="stroke:black;stroke-width:0.001"/>
<polygon points="0 0, 0 20, 20 20, 20 0" fill="none" style="stroke:blue;stroke-width:0.1"/>
<polygon points="0.9285714285714284 10.78349364905389, 0.8035714285714282 10.566987298107781, 0.928571428571428 10.350480947161671, 1.1785714285714282 10.350480947161671, 1.3035714285714282 10.13397459621556, 1.553571428571428 10.13397459621556, 1.678571428571428 10.350480947161671, 1.553571428571428 10.56698729810778, 1.3035714285714282 10.56698729810778, 1.1785714285714282 10.78349364905389" fill="none" style="stroke:red;stroke-width:0.001"/>
<polygon points="0 0, 0 20, 20 20, 20 0" fill="none" style="stroke:blue;stroke-width:0.1"/>
<polygon points="0.5535714285714289 11.0, 0.42857142857142855 10.783493649053892, 0.5535714285714283 10.566987298107781, 0.8035714285714282 10.566987298107781, 0.9285714285714284 10.78349364905389, 0.8035714285714288 11.0" fill="none" style="stroke:red;stroke-width:0.001"/>
<polygon points="0 0, 0 20, 20 20, 20 0" fill="none" style="stroke:blue;stroke-width:0.1"/>
<polygon points="0.5535714285714289 11.0, 0.42857142857142855 10.783493649053892, 0.5535714285714283 10.566987298107781, 0.8035714285714282 10.566987298107781, 0.928571428571428 10.350480947161671, 1.1785714285714282 10.350480947161671, 1.3035714285714282 10.13397459621556, 1.553571428571428 10.13397459621556, 1.678571428571428 10.350480947161671, 1.553571428571428 10.56698729810778, 1.3035714285714282 10.56698729810778, 1.1785714285714282 10.78349364905389, 0.9285714285714284 10.78349364905389, 0.8035714285714288 11.0" fill="none" style="stroke:black;stroke-width:0.005"/>
<polygon points="0 0, 0 20, 20 20, 20 0" fill="none" style="stroke:blue;stroke-width:0.1"/>
<text x="0.0" y="11.428571428571429" font-family="Verdana" font-size="0.25">3</text>
<polygon points="0.0 11.428571428571429, 0.0 8.571428571428571, 2.857142857142857 8.571428571428571, 2.857142857142857 11.428571428571429" fill="none" style="stroke:black;stroke-width:0.001"/>
<polygon points="0 0, 0 20, 20 20, 20 0" fill="none" style="stroke:blue;stroke-width:0.1"/>
<polygon points="0.553571428571429 13.857142857142858, 0.4285714285714289 13.640636506196747, 0.5535714285714287 13.424130155250637, 0.8035714285714288 13.424130155250637, 0.9285714285714288 13.207623804304529, 1.1785714285714288 13.207623804304529, 1.3035714285714288 13.424130155250637, 1.1785714285714288 13.640636506196746, 0.9285714285714288 13.640636506196746, 0.803571428571429 13.857142857142858" fill="none" style="stroke:red;stroke-width:0.001"/>
<polygon points="0 0, 0 20, 20 20, 20 0" fill="none" style="stroke:blue;stroke-width:0.1"/>
<polygon points="0.5535714285714287 13.424130155250637, 0.42857142857142855 13.207623804304529, 0.5535714285714284 12.991117453358418, 0.8035714285714284 12.991117453358418, 0.9285714285714286 13.207623804304529, 0.8035714285714287 13.424130155250637" fill="none" style="stroke:red;stroke-width:0.001"/>
<polygon points="0 0, 0 20, 20 20, 20 0" fill="none" style="stroke:blue;stroke-width:0.1"/>
<polygon points="0.553571428571429 13.857142857142858, 0.4285714285714289 13.640636506196747, 0.5535714285714287 13.424130155250637, 0.42857142857142855 13.207623804304529, 0.5535714285714284 12.991117453358418, 0.8035714285714284 12.991117453358418, 0.9285714285714288 13.207623804304529, 1.1785714285714288 13.207623804304529, 1.3035714285714288 13.424130155250637, 1.1785714285714288 13.640636506196746, 0.9285714285714288 13.640636506196746, 0.803571428571429 13.857142857142858" fill="none" style="stroke:black;stroke-width:0.005"/>
<polygon points="0 0, 0 20, 20 20, 20 0" fill="none" style="stroke:blue;stroke-width:0.1"/>
<text x="0.0" y="14.285714285714285" font-family="Verdana" font-size="0.25">3</text>
<polygon points="0.0 14.285714285714285, 0.0 11.428571428571429, 2.857142857142857 11.428571428571429, 2.857142857142857 14.285714285714285" fill="none" style="stroke:black;stroke-width:0.001"/>
<polygon points="0 0, 0 20, 20 20, 20 0" fill="none" style="stroke:blue;stroke-width:0.1"/>
<polygon points="3.7857142857142865 2.4285714285714306, 3.660714285714286 2.212065077625322, 3.410714285714286 2.212065077625322, 3.285714285714286 1.99555872667921, 3.410714285714286 1.7790523757331016, 3.660714285714286 1.7790523757331016, 3.785714285714286 1.99555872667921, 4.0357142857142865 1.99555872667921, 4.1607142857142865 1.7790523757331016, 4.4107142857142865 1.7790523757331016, 4.535714285714286 1.99555872667921, 4.4107142857142865 2.212065077625322, 4.1607142857142865 2.212065077625322, 4.0357142857142865 2.4285714285714306" fill="none" style="stroke:red;stroke-width:0.001"/>
<polygon points="0 0, 0 20, 20 20, 20 0" fill="none" style="stroke:blue;stroke-width:0.1"/>
<polygon points="3.410714285714286 1.7790523757331016, 3.2857142857142856 1.5625460247869931, 3.4107142857142856 1.3460396738408846, 3.660714285714285 1.346039673840881, 3.7857142857142856 1.5625460247869931, 3.6607142857142856 1.7790523757331016" fill="none" style="stroke:red;stroke-width:0.001"/>
<polygon points="0 0, 0 20, 20 20, 20 0" fill="none" style="stroke:blue;stroke-width:0.1"/>
<polygon points="3.7857142857142865 2.4285714285714306, 3.660714285714286 2.212065077625322, 3.410714285714286 2.212065077625322, 3.285714285714286 1.99555872667921, 3.410714285714286 1.7790523757331016, 3.2857142857142856 1.5625460247869931, 3.4107142857142856 1.3460396738408846, 3.660714285714285 1.346039673840881, 3.7857142857142856 1.5625460247869931, 3.660714285714286 1.7790523757331016, 3.785714285714286 1.99555872667921, 4.0357142857142865 1.99555872667921, 4.1607142857142865 1.7790523757331016, 4.4107142857142865 1.7790523757331016, 4.535714285714286 1.99555872667921, 4.4107142857142865 2.212065077625322, 4.1607142857142865 2.212065077625322, 4.0357142857142865 2.4285714285714306" fill="none" style="stroke:black;stroke-width:0.005"/>
<polygon points="0 0, 0 20, 20 20, 20 0" fill="none" style="stroke:blue;stroke-width:0.1"/>
<text x="2.857142857142857" y="2.8571428571428577" font-family="Verdana" font-size="0.25">4</text>
<polygon points="2.857142857142857 2.8571428571428577, 2.857142857142857 0.0, 5.714285714285714 0.0, 5.714285714285714 2.8571428571428577" fill="none" style="stroke:black;stroke-width:0.001"/>
<polygon points="0 0, 0 20, 20 20, 20 0" fill="none" style="stroke:blue;stroke-width:0.1"/>
<polygon points="3.785714285714286 5.069207934768174, 3.660714285714286 4.852701583822064, 3.4107142857142856 4.852701583822066, 3.2857142857142856 4.636195232875956, 3.4107142857142856 4.419688881929845, 3.6607142857142856 4.419688881929845, 3.7857142857142856 4.636195232875956, 4.0357142857142865 4.636195232875956, 4.1607142857142865 4.419688881929845, 4.4107142857142865 4.419688881929845, 4.5357142857142865 4.636195232875956, 4.4107142857142865 4.852701583822064, 4.1607142857142865 4.852701583822064, 4.0357142857142865 5.069207934768174" fill="none" style="stroke:red;stroke-width:0.001"/>
<polygon points="0 0, 0 20, 20 20, 20 0" fill="none" style="stroke:blue;stroke-width:0.1"/>
<polygon points="3.4107142857142865 5.285714285714285, 3.285714285714286 5.069207934768174, 3.4107142857142856 4.852701583822066, 3.6607142857142856 4.852701583822064, 3.785714285714286 5.069207934768174, 3.6607142857142865 5.285714285714285" fill="none" style="stroke:red;stroke-width:0.001"/>
<polygon points="0 0, 0 20, 20 20, 20 0" fill="none" style="stroke:blue;stroke-width:0.1"/>
<polygon points="3.4107142857142865 5.285714285714285, 3.285714285714286 5.069207934768174, 3.4107142857142856 4.852701583822066, 3.2857142857142856 4.636195232875956, 3.4107142857142856 4.419688881929845, 3.6607142857142856 4.419688881929845, 3.7857142857142856 4.636195232875956, 4.0357142857142865 4.636195232875956, 4.1607142857142865 4.419688881929845, 4.4107142857142865 4.419688881929845, 4.5357142857142865 4.636195232875956, 4.4107142857142865 4.852701583822064, 4.1607142857142865 4.852701583822064, 4.0357142857142865 5.069207934768174, 3.785714285714286 5.069207934768174, 3.6607142857142865 5.285714285714285" fill="none" style="stroke:black;stroke-width:0.005"/>
<polygon points="0 0, 0 20, 20 20, 20 0" fill="none" style="stroke:blue;stroke-width:0.1"/>
<text x="2.857142857142857" y="5.7142857142857135" font-family="Verdana" font-size="0.25">4</text>
<polygon points="2.857142857142857 5.7142857142857135, 2.857142857142857 2.8571428571428577, 5.714285714285714 2.8571428571428577, 5.714285714285714 5.7142857142857135" fill="none" style="stroke:black;stroke-width:0.001"/>
<polygon points="0 0, 0 20, 20 20, 20 0" fill="none" style="stroke:blue;stroke-width:0.1"/>
<polygon points="4.160714285714286 8.142857142857142, 4.035714285714286 7.926350791911032, 3.7857142857142856 7.926350791911032, 3.6607142857142856 7.709844440964924, 3.785714285714285 7.493338090018813, 4.035714285714286 7.493338090018813, 4.160714285714286 7.709844440964922, 4.410714285714286 7.709844440964922, 4.535714285714286 7.493338090018813, 4.785714285714286 7.493338090018813, 4.910714285714286 7.709844440964922, 4.785714285714286 7.926350791911032, 4.535714285714286 7.926350791911032, 4.410714285714286 8.142857142857142" fill="none" style="stroke:red;stroke-width:0.001"/>
<polygon points="0 0, 0 20, 20 20, 20 0" fill="none" style="stroke:blue;stroke-width:0.1"/>
<polygon points="3.4107142857142856 8.142857142857142, 3.2857142857142856 7.926350791911032, 3.4107142857142856 7.709844440964924, 3.6607142857142856 7.709844440964924, 3.7857142857142856 7.926350791911032, 3.660714285714286 8.142857142857142" fill="none" style="stroke:red;stroke-width:0.001"/>
<polygon points="0 0, 0 20, 20 20, 20 0" fill="none" style="stroke:blue;stroke-width:0.1"/>
<polygon points="3.4107142857142856 8.142857142857142, 3.2857142857142856 7.926350791911032, 3.4107142857142856 7.709844440964924, 3.6607142857142856 7.709844440964924, 3.785714285714285 7.493338090018813, 4.035714285714286 7.493338090018813, 4.160714285714286 7.709844440964922, 4.410714285714286 7.709844440964922, 4.535714285714286 7.493338090018813, 4.785714285714286 7.493338090018813, 4.910714285714286 7.709844440964922, 4.785714285714286 7.926350791911032, 4.535714285714286 7.926350791911032, 4.410714285714286 8.142857142857142, 4.160714285714286 8.142857142857142, 4.035714285714286 7.926350791911032, 3.7857142857142856 7.926350791911032, 3.660714285714286 8.142857142857142" fill="none" style="stroke:black;stroke-width:0.005"/>
<polygon points="0 0, 0 20, 20 20, 20 0" fill="none" style="stroke:blue;stroke-width:0.1"/>
<text x="2.857142857142857" y="8.571428571428571" font-family="Verdana" font-size="0.25">4</text>
<polygon points="2.857142857142857 8.571428571428571, 2.857142857142857 5.7142857142857135, 5.714285714285714 5.7142857142857135, 5.714285714285714 8.571428571428571" fill="none" style="stroke:black;stroke-width:0.001"/>
<polygon points="0 0, 0 20, 20 20, 20 0" fill="none" style="stroke:blue;stroke-width:0.1"/>
<polygon points="4.1607142857142865 11.0, 4.0357142857142865 10.78349364905389, 3.785714285714286 10.783493649053892, 3.660714285714286 10.566987298107781, 3.7857142857142856 10.350480947161671, 4.035714285714286 10.350480947161671, 4.160714285714286 10.566987298107781, 4.4107142857142865 10.566987298107781, 4.535714285714286 10.350480947161671, 4.785714285714286 10.350480947161671, 4.910714285714286 10.566987298107781, 4.785714285714286 10.78349364905389, 4.535714285714286 10.78349364905389, 4.4107142857142865 11.0" fill="none" style="stroke:red;stroke-width:0.001"/>
<polygon points="0 0, 0 20, 20 20, 20 0" fill="none" style="stroke:blue;stroke-width:0.1"/>
<polygon points="3.410714285714286 10.566987298107781, 3.2857142857142856 10.350480947161673, 3.4107142857142856 10.133974596215563, 3.6607142857142856 10.133974596215563, 3.7857142857142856 10.350480947161671, 3.660714285714286 10.566987298107781" fill="none" style="stroke:red;stroke-width:0.001"/>
<polygon points="0 0, 0 20, 20 20, 20 0" fill="none" style="stroke:blue;stroke-width:0.1"/>
<polygon points="4.1607142857142865 11.0, 4.0357142857142865 10.78349364905389, 3.785714285714286 10.783493649053892, 3.660714285714286 10.566987298107781, 3.410714285714286 10.566987298107781, 3.2857142857142856 10.350480947161673, 3.4107142857142856 10.133974596215563, 3.6607142857142856 10.133974596215563, 3.7857142857142856 10.350480947161671, 4.035714285714286 10.350480947161671, 4.160714285714286 10.566987298107781, 4.4107142857142865 10.566987298107781, 4.535714285714286 10.350480947161671, 4.785714285714286 10.350480947161671, 4.910714285714286 10.566987298107781, 4.785714285714286 10.78349364905389, 4.535714285714286 10.78349364905389, 4.4107142857142865 11.0" fill="none" style="stroke:black;stroke-width:0.005"/>
<polygon points="0 0, 0 20, 20 20, 20 0" fill="none" style="stroke:blue;stroke-width:0.1"/>
<text x="2.857142857142857" y="11.428571428571429" font-family="Verdana" font-size="0.25">4</text>
<polygon points="2.857142857142857 11.428571428571429, 2.857142857142857 8.571428571428571, 5.714285714285714 8.571428571428571, 5.714285714285714 11.428571428571429" fill="none" style="stroke:black;stroke-width:0.001"/>
<polygon points="0 0, 0 20, 20 20, 20 0" fill="none" style="stroke:blue;stroke-width:0.1"/>
<polygon points="3.785714285714286 13.857142857142858, 3.6607142857142856 13.640636506196747, 3.4107142857142856 13.640636506196747, 3.2857142857142856 13.424130155250637, 3.4107142857142856 13.207623804304529, 3.6607142857142856 13.207623804304529, 3.7857142857142856 13.424130155250637, 4.035714285714286 13.424130155250637, 4.160714285714286 13.207623804304529, 4.410714285714286 13.207623804304529, 4.535714285714286 13.424130155250637, 4.410714285714286 13.640636506196746, 4.160714285714286 13.640636506196746, 4.035714285714286 13.857142857142858" fill="none" style="stroke:red;stroke-width:0.001"/>
<polygon points="0 0, 0 20, 20 20, 20 0" fill="none" style="stroke:blue;stroke-width:0.1"/>
<polygon points="3.7857142857142856 13.424130155250637, 3.6607142857142856 13.207623804304529, 3.785714285714285 12.991117453358418, 4.035714285714285 12.991117453358417, 4.160714285714286 13.207623804304529, 4.035714285714286 13.424130155250637" fill="none" style="stroke:red;stroke-width:0.001"/>
<polygon points="0 0, 0 20, 20 20, 20 0" fill="none" style="stroke:blue;stroke-width:0.1"/>
<polygon points="3.785714285714286 13.857142857142858, 3.6607142857142856 13.640636506196747, 3.4107142857142856 13.640636506196747, 3.2857142857142856 13.424130155250637, 3.4107142857142856 13.207623804304529, 3.6607142857142856 13.207623804304529, 3.785714285714285 12.991117453358418, 4.035714285714285 12.991117453358417, 4.160714285714286 13.207623804304529, 4.410714285714286 13.207623804304529, 4.535714285714286 13.424130155250637, 4.410714285714286 13.640636506196746, 4.160714285714286 13.640636506196746, 4.035714285714286 13.857142857142858" fill="none" style="stroke:black;stroke-width:0.005"/>
<polygon points="0 0, 0 20, 20 20, 20 0" fill="none" style="stroke:blue;stroke-width:0.1"/>
<text x="2.857142857142857" y="14.285714285714285" font-family="Verdana" font-size="0.25">4</text>
<polygon points="2.857142857142857 14.285714285714285, 2.857142857142857 11.428571428571429, 5.714285714285714 11.428571428571429, 5.714285714285714 14.285714285714285" fill="none" style="stroke:black;stroke-width:0.001"/>
<polygon points="0 0, 0 20, 20 20, 20 0" fill="none" style="stroke:blue;stroke-width:0.1"/>
<polygon points="6.642857142857142 2.2120650776253186, 6.517857142857142 1.99555872667921, 6.642857142857142 1.7790523757331016, 6.892857142857142 1.7790523757331016, 7.0178571428571415 1.5625460247869896, 7.267857142857142 1.5625460247869896, 7.3928571428571415 1.346039673840881, 7.6428571428571415 1.346039673840881, 7.7678571428571415 1.5625460247869896, 7.6428571428571415 1.7790523757331016, 7.3928571428571415 1.7790523757331016, 7.267857142857142 1.99555872667921, 7.017857142857142 1.99555872667921, 6.892857142857142 2.2120650776253186" fill="none" style="stroke:red;stroke-width:0.001"/>
<polygon points="0 0, 0 20, 20 20, 20 0" fill="none" style="stroke:blue;stroke-width:0.1"/>
<polygon points="6.267857142857143 2.4285714285714306, 6.142857142857143 2.212065077625322, 6.267857142857142 1.99555872667921, 6.517857142857142 1.99555872667921, 6.642857142857142 2.2120650776253186, 6.517857142857143 2.4285714285714306" fill="none" style="stroke:red;stroke-width:0.001"/>
<polygon points="0 0, 0 20, 20 20, 20 0" fill="none" style="stroke:blue;stroke-width:0.1"/>
<polygon points="6.267857142857143 2.4285714285714306, 6.142857142857143 2.212065077625322, 6.267857142857142 1.99555872667921, 6.517857142857142 1.99555872667921, 6.642857142857142 1.7790523757331016, 6.892857142857142 1.7790523757331016, 7.0178571428571415 1.5625460247869896, 7.267857142857142 1.5625460247869896, 7.3928571428571415 1.346039673840881, 7.6428571428571415 1.346039673840881, 7.7678571428571415 1.5625460247869896, 7.6428571428571415 1.7790523757331016, 7.3928571428571415 1.7790523757331016, 7.267857142857142 1.99555872667921, 7.017857142857142 1.99555872667921, 6.892857142857142 2.2120650776253186, 6.642857142857142 2.2120650776253186, 6.517857142857143 2.4285714285714306" fill="none" style="stroke:black;stroke-width:0.005"/>
<polygon points="0 0, 0 20, 20 20, 20 0" fill="none" style="stroke:blue;stroke-width:0.1"/>
<text x="5.714285714285714" y="2.8571428571428577" font-family="Verdana" font-size="0.25">4</text>
<polygon points="5.714285714285714 2.8571428571428577, 5.714285714285714 0.0, 8.571428571428571 0.0, 8.571428571428571 2.8571428571428577" fill="none" style="stroke:black;stroke-width:0.001"/>
<polygon points="0 0, 0 20, 20 20, 20 0" fill="none" style="stroke:blue;stroke-width:0.1"/>
<polygon points="6.642857142857143 4.852701583822066, 6.517857142857143 4.636195232875956, 6.267857142857143 4.636195232875956, 6.142857142857143 4.419688881929847, 6.267857142857143 4.203182530983737, 6.517857142857143 4.203182530983737, 6.642857142857143 4.419688881929847, 6.892857142857143 4.419688881929847, 7.017857142857143 4.203182530983737, 7.267857142857142 4.203182530983737, 7.392857142857142 4.419688881929847, 7.267857142857142 4.636195232875956, 7.017857142857143 4.636195232875956, 6.892857142857143 4.852701583822066" fill="none" style="stroke:red;stroke-width:0.001"/>
<polygon points="0 0, 0 20, 20 20, 20 0" fill="none" style="stroke:blue;stroke-width:0.1"/>
<polygon points="6.642857142857144 5.285714285714285, 6.517857142857143 5.069207934768174, 6.642857142857143 4.852701583822066, 6.892857142857143 4.852701583822066, 7.017857142857143 5.069207934768174, 6.892857142857143 5.285714285714285" fill="none" style="stroke:red;stroke-width:0.001"/>
<polygon points="0 0, 0 20, 20 20, 20 0" fill="none" style="stroke:blue;stroke-width:0.1"/>
<polygon points="6.642857142857144 5.285714285714285, 6.517857142857143 5.069207934768174, 6.642857142857143 4.852701583822066, 6.517857142857143 4.636195232875956, 6.267857142857143 4.636195232875956, 6.142857142857143 4.419688881929847, 6.267857142857143 4.203182530983737, 6.517857142857143 4.203182530983737, 6.642857142857143 4.419688881929847, 6.892857142857143 4.419688881929847, 7.017857142857143 4.203182530983737, 7.267857142857142 4.203182530983737, 7.392857142857142 4.419688881929847, 7.267857142857142 4.636195232875956, 7.017857142857143 4.636195232875956, 6.892857142857143 4.852701583822066, 7.017857142857143 5.069207934768174, 6.892857142857143 5.285714285714285" fill="none" style="stroke:black;stroke-width:0.005"/>
<polygon points="0 0, 0 20, 20 20, 20 0" fill="none" style="stroke:blue;stroke-width:0.1"/>
<text x="5.714285714285714" y="5.7142857142857135" font-family="Verdana" font-size="0.25">4</text>
<polygon points="5.714285714285714 5.7142857142857135, 5.714285714285714 2.8571428571428577, 8.571428571428571 2.8571428571428577, 8.571428571428571 5.7142857142857135" fill="none" style="stroke:black;stroke-width:0.001"/>
<polygon points="0 0, 0 20, 20 20, 20 0" fill="none" style="stroke:blue;stroke-width:0.1"/>
<polygon points="7.392857142857143 8.142857142857142, 7.267857142857143 7.926350791911032, 7.017857142857143 7.926350791911034, 6.892857142857143 7.709844440964924, 6.642857142857143 7.709844440964924, 6.517857142857143 7.493338090018815, 6.642857142857142 7.276831739072705, 6.892857142857142 7.276831739072705, 7.017857142857142 7.493338090018813, 7.267857142857142 7.493338090018813, 7.392857142857142 7.709844440964924, 7.642857142857142 7.709844440964924, 7.767857142857142 7.493338090018813, 8.017857142857142 7.493338090018813, 8.142857142857142 7.709844440964924, 8.017857142857142 7.926350791911032, 7.767857142857142 7.926350791911032, 7.642857142857143 8.142857142857142" fill="none" style="stroke:red;stroke-width:0.001"/>
<polygon points="0 0, 0 20, 20 20, 20 0" fill="none" style="stroke:blue;stroke-width:0.1"/>
<polygon points="6.267857142857143 7.493338090018815, 6.142857142857143 7.276831739072705, 6.267857142857143 7.060325388126596, 6.517857142857143 7.060325388126596, 6.642857142857142 7.276831739072705, 6.517857142857143 7.493338090018815" fill="none" style="stroke:red;stroke-width:0.001"/>
<polygon points="0 0, 0 20, 20 20, 20 0" fill="none" style="stroke:blue;stroke-width:0.1"/>
<polygon points="7.392857142857143 8.142857142857142, 7.267857142857143 7.926350791911032, 7.017857142857143 7.926350791911034, 6.892857142857143 7.709844440964924, 6.642857142857143 7.709844440964924, 6.517857142857143 7.493338090018815, 6.267857142857143 7.493338090018815, 6.142857142857143 7.276831739072705, 6.267857142857143 7.060325388126596, 6.517857142857143 7.060325388126596, 6.642857142857142 7.276831739072705, 6.892857142857142 7.276831739072705, 7.017857142857142 7.493338090018813, 7.267857142857142 7.493338090018813, 7.392857142857142 7.709844440964924, 7.642857142857142 7.709844440964924, 7.767857142857142 7.493338090018813, 8.017857142857142 7.493338090018813, 8.142857142857142 7.709844440964924, 8.017857142857142 7.926350791911032, 7.767857142857142 7.926350791911032, 7.642857142857143 8.142857142857142" fill="none" style="stroke:black;stroke-width:0.005"/>
<polygon points="0 0, 0 20, 20 20, 20 0" fill="none" style="stroke:blue;stroke-width:0.1"/>
<text x="5.714285714285714" y="8.571428571428571" font-family="Verdana" font-size="0.25">5</text>
<polygon points="5.714285714285714 8.571428571428571, 5.714285714285714 5.7142857142857135, 8.571428571428571 5.7142857142857135, 8.571428571428571 8.571428571428571" fill="none" style="stroke:black;stroke-width:0.001"/>
<polygon points="0 0, 0 20, 20 20, 20 0" fill="none" style="stroke:blue;stroke-width:0.1"/>
<polygon points="6.642857142857144 11.0, 6.517857142857144 10.78349364905389, 6.267857142857144 10.783493649053892, 6.142857142857143 10.566987298107781, 6.267857142857143 10.350480947161671, 6.142857142857143 10.133974596215563, 6.267857142857143 9.917468245269452, 6.517857142857142 9.917468245269452, 6.642857142857143 10.133974596215563, 6.517857142857143 10.350480947161671, 6.642857142857143 10.566987298107781, 6.892857142857143 10.566987298107781, 7.017857142857143 10.350480947161671, 7.267857142857143 10.350480947161671, 7.392857142857143 10.566987298107781, 7.267857142857143 10.78349364905389, 7.017857142857143 10.78349364905389, 6.892857142857143 11.0" fill="none" style="stroke:red;stroke-width:0.001"/>
<polygon points="0 0, 0 20, 20 20, 20 0" fill="none" style="stroke:blue;stroke-width:0.1"/>
<polygon points="6.642857142857143 10.133974596215563, 6.517857142857142 9.917468245269452, 6.642857142857142 9.700961894323342, 6.892857142857142 9.700961894323342, 7.017857142857142 9.91746824526945, 6.892857142857143 10.13397459621556" fill="none" style="stroke:red;stroke-width:0.001"/>
<polygon points="0 0, 0 20, 20 20, 20 0" fill="none" style="stroke:blue;stroke-width:0.1"/>
<polygon points="6.642857142857144 11.0, 6.517857142857144 10.78349364905389, 6.267857142857144 10.783493649053892, 6.142857142857143 10.566987298107781, 6.267857142857143 10.350480947161671, 6.142857142857143 10.133974596215563, 6.267857142857143 9.917468245269452, 6.517857142857142 9.917468245269452, 6.642857142857142 9.700961894323342, 6.892857142857142 9.700961894323342, 7.017857142857142 9.91746824526945, 6.892857142857143 10.13397459621556, 6.642857142857143 10.133974596215563, 6.517857142857143 10.350480947161671, 6.642857142857143 10.566987298107781, 6.892857142857143 10.566987298107781, 7.017857142857143 10.350480947161671, 7.267857142857143 10.350480947161671, 7.392857142857143 10.566987298107781, 7.267857142857143 10.78349364905389, 7.017857142857143 10.78349364905389, 6.892857142857143 11.0" fill="none" style="stroke:black;stroke-width:0.005"/>
<polygon points="0 0, 0 20, 20 20, 20 0" fill="none" style="stroke:blue;stroke-width:0.1"/>
<text x="5.714285714285714" y="11.428571428571429" font-family="Verdana" font-size="0.25">5</text>
<polygon points="5.714285714285714 11.428571428571429, 5.714285714285714 8.571428571428571, 8.571428571428571 8.571428571428571, 8.571428571428571 11.428571428571429" fill="none" style="stroke:black;stroke-width:0.001"/>
<polygon points="0 0, 0 20, 20 20, 20 0" fill="none" style="stroke:blue;stroke-width:0.1"/>
<polygon points="6.267857142857144 13.857142857142858, 6.142857142857143 13.640636506196747, 6.267857142857143 13.424130155250637, 6.142857142857143 13.207623804304529, 6.267857142857143 12.991117453358418, 6.517857142857143 12.991117453358418, 6.642857142857143 13.207623804304529, 6.892857142857143 13.207623804304529, 7.017857142857143 12.991117453358418, 7.267857142857142 12.991117453358418, 7.392857142857142 13.207623804304529, 7.267857142857142 13.424130155250637, 7.017857142857143 13.424130155250637, 6.892857142857143 13.640636506196746, 6.642857142857143 13.640636506196746, 6.517857142857144 13.857142857142858" fill="none" style="stroke:red;stroke-width:0.001"/>
<polygon points="0 0, 0 20, 20 20, 20 0" fill="none" style="stroke:blue;stroke-width:0.1"/>
<polygon points="7.017857142857143 13.857142857142856, 6.892857142857143 13.640636506196746, 7.017857142857143 13.424130155250637, 7.267857142857142 13.424130155250637, 7.392857142857142 13.640636506196746, 7.267857142857142 13.857142857142856" fill="none" style="stroke:red;stroke-width:0.001"/>
<polygon points="0 0, 0 20, 20 20, 20 0" fill="none" style="stroke:blue;stroke-width:0.1"/>
<polygon points="6.267857142857144 13.857142857142858, 6.142857142857143 13.640636506196747, 6.267857142857143 13.424130155250637, 6.142857142857143 13.207623804304529, 6.267857142857143 12.991117453358418, 6.517857142857143 12.991117453358418, 6.642857142857143 13.207623804304529, 6.892857142857143 13.207623804304529, 7.017857142857143 12.991117453358418, 7.267857142857142 12.991117453358418, 7.392857142857142 13.207623804304529, 7.267857142857142 13.424130155250637, 7.392857142857142 13.640636506196746, 7.267857142857142 13.857142857142856, 7.017857142857143 13.857142857142856, 6.892857142857143 13.640636506196746, 6.642857142857143 13.640636506196746, 6.517857142857144 13.857142857142858" fill="none" style="stroke:black;stroke-width:0.005"/>
<polygon points="0 0, 0 20, 20 20, 20 0" fill="none" style="stroke:blue;stroke-width:0.1"/>
<text x="5.714285714285714" y="14.285714285714285" font-family="Verdana" font-size="0.25">5</text>
<polygon points="5.714285714285714 14.285714285714285, 5.714285714285714 11.428571428571429, 8.571428571428571 11.428571428571429, 8.571428571428571 14.285714285714285" fill="none" style="stroke:black;stroke-width:0.001"/>
<polygon points="0 0, 0 20, 20 20, 20 0" fill="none" style="stroke:blue;stroke-width:0.1"/>
<polygon points="9.125 2.212065077625322, 9.0 1.9955587266792136, 9.125 1.7790523757331016, 9.0 1.5625460247869931, 9.125 1.3460396738408846, 9.375 1.346039673840881, 9.5 1.5625460247869931, 9.75 1.5625460247869931, 9.875 1.346039673840881, 10.125 1.346039673840881, 10.25 1.5625460247869931, 10.125 1.7790523757331016, 9.875 1.7790523757331016, 9.75 1.99555872667921, 9.5 1.99555872667921, 9.375 2.212065077625322" fill="none" style="stroke:red;stroke-width:0.001"/>
<polygon points="0 0, 0 20, 20 20, 20 0" fill="none" style="stroke:blue;stroke-width:0.1"/>
<polygon points="9.5 2.4285714285714306, 9.375 2.212065077625322, 9.5 1.99555872667921, 9.75 1.99555872667921, 9.875 2.212065077625322, 9.75 2.4285714285714306" fill="none" style="stroke:red;stroke-width:0.001"/>
<polygon points="0 0, 0 20, 20 20, 20 0" fill="none" style="stroke:blue;stroke-width:0.1"/>
<polygon points="9.5 2.4285714285714306, 9.375 2.212065077625322, 9.125 2.212065077625322, 9.0 1.9955587266792136, 9.125 1.7790523757331016, 9.0 1.5625460247869931, 9.125 1.3460396738408846, 9.375 1.346039673840881, 9.5 1.5625460247869931, 9.75 1.5625460247869931, 9.875 1.346039673840881, 10.125 1.346039673840881, 10.25 1.5625460247869931, 10.125 1.7790523757331016, 9.875 1.7790523757331016, 9.75 1.99555872667921, 9.875 2.212065077625322, 9.75 2.4285714285714306" fill="none" style="stroke:black;stroke-width:0.005"/>
<polygon points="0 0, 0 20, 20 20, 20 0" fill="none" style="stroke:blue;stroke-width:0.1"/>
<text x="8.571428571428571" y="2.8571428571428577" font-family="Verdana" font-size="0.25">5</text>
<polygon points="8.571428571428571 2.8571428571428577, 8.571428571428571 0.0, 11.428571428571429 0.0, 11.428571428571429 2.8571428571428577" fill="none" style="stroke:black;stroke-width:0.001"/>
<polygon points="0 0, 0 20, 20 20, 20 0" fill="none" style="stroke:blue;stroke-width:0.1"/>
<polygon points="9.500000000000002 5.285714285714285, 9.375 5.069207934768176, 9.5 4.852701583822066, 9.375 4.636195232875956, 9.5 4.419688881929845, 9.75 4.419688881929845, 9.875 4.636195232875956, 10.125 4.636195232875956, 10.25 4.419688881929845, 10.5 4.419688881929845, 10.625 4.636195232875956, 10.5 4.852701583822064, 10.25 4.852701583822064, 10.125 5.069207934768174, 9.875 5.069207934768174, 9.750000000000002 5.285714285714285" fill="none" style="stroke:red;stroke-width:0.001"/>
<polygon points="0 0, 0 20, 20 20, 20 0" fill="none" style="stroke:blue;stroke-width:0.1"/>
<polygon points="9.125 4.636195232875956, 9.0 4.419688881929847, 9.125 4.203182530983737, 9.375 4.203182530983737, 9.5 4.419688881929845, 9.375 4.636195232875956" fill="none" style="stroke:red;stroke-width:0.001"/>
<polygon points="0 0, 0 20, 20 20, 20 0" fill="none" style="stroke:blue;stroke-width:0.1"/>
<polygon points="9.500000000000002 5.285714285714285, 9.375 5.069207934768176, 9.5 4.852701583822066, 9.375 4.636195232875956, 9.125 4.636195232875956, 9.0 4.419688881929847, 9.125 4.203182530983737, 9.375 4.203182530983737, 9.5 4.419688881929845, 9.75 4.419688881929845, 9.875 4.636195232875956, 10.125 4.636195232875956, 10.25 4.419688881929845, 10.5 4.419688881929845, 10.625 4.636195232875956, 10.5 4.852701583822064, 10.25 4.852701583822064, 10.125 5.069207934768174, 9.875 5.069207934768174, 9.750000000000002 5.285714285714285" fill="none" style="stroke:black;stroke-width:0.005"/>
<polygon points="0 0, 0 20, 20 20, 20 0" fill="none" style="stroke:blue;stroke-width:0.1"/>
<text x="8.571428571428571" y="5.7142857142857135" font-family="Verdana" font-size="0.25">5</text>
<polygon points="8.571428571428571 5.7142857142857135, 8.571428571428571 2.8571428571428577, 11.428571428571429 2.8571428571428577, 11.428571428571429 5.7142857142857135" fill="none" style="stroke:black;stroke-width:0.001"/>
<polygon points="0 0, 0 20, 20 20, 20 0" fill="none" style="stroke:blue;stroke-width:0.1"/>
<polygon points="9.125 8.142857142857142, 9.0 7.926350791911034, 9.125 7.709844440964924, 9.0 7.493338090018813, 9.125 7.276831739072703, 9.375 7.276831739072703, 9.5 7.493338090018813, 9.75 7.493338090018813, 9.875 7.276831739072703, 10.125 7.276831739072703, 10.25 7.493338090018813, 10.125 7.709844440964922, 9.875 7.709844440964922, 9.75 7.926350791911032, 9.5 7.926350791911032, 9.375 8.142857142857142" fill="none" style="stroke:red;stroke-width:0.001"/>
<polygon points="0 0, 0 20, 20 20, 20 0" fill="none" style="stroke:blue;stroke-width:0.1"/>
<polygon points="10.25 7.926350791911032, 10.125 7.709844440964922, 10.25 7.493338090018813, 10.5 7.493338090018813, 10.625 7.709844440964922, 10.5 7.926350791911032" fill="none" style="stroke:red;stroke-width:0.001"/>
<polygon points="0 0, 0 20, 20 20, 20 0" fill="none" style="stroke:blue;stroke-width:0.1"/>
<polygon points="9.125 8.142857142857142, 9.0 7.926350791911034, 9.125 7.709844440964924, 9.0 7.493338090018813, 9.125 7.276831739072703, 9.375 7.276831739072703, 9.5 7.493338090018813, 9.75 7.493338090018813, 9.875 7.276831739072703, 10.125 7.276831739072703, 10.25 7.493338090018813, 10.5 7.493338090018813, 10.625 7.709844440964922, 10.5 7.926350791911032, 10.25 7.926350791911032, 10.125 7.709844440964922, 9.875 7.709844440964922, 9.75 7.926350791911032, 9.5 7.926350791911032, 9.375 8.142857142857142" fill="none" style="stroke:black;stroke-width:0.005"/>
<polygon points="0 0, 0 20, 20 20, 20 0" fill="none" style="stroke:blue;stroke-width:0.1"/>
<text x="8.571428571428571" y="8.571428571428571" font-family="Verdana" font-size="0.25">5</text>
<polygon points="8.571428571428571 8.571428571428571, 8.571428571428571 5.7142857142857135, 11.428571428571429 5.7142857142857135, 11.428571428571429 8.571428571428571" fill="none" style="stroke:black;stroke-width:0.001"/>
<polygon points="0 0, 0 20, 20 20, 20 0" fill="none" style="stroke:blue;stroke-width:0.1"/>
<polygon points="9.5 11.0, 9.375 10.78349364905389, 9.5 10.566987298107781, 9.75 10.566987298107781, 9.875 10.350480947161671, 10.125 10.350480947161671, 10.25 10.56698729810778, 10.5 10.56698729810778, 10.625 10.350480947161671, 10.875 10.350480947161671, 11.0 10.56698729810778, 10.875 10.78349364905389, 10.625 10.78349364905389, 10.5 11.0, 10.25 11.0, 10.125 10.78349364905389, 9.875 10.78349364905389, 9.75 11.0" fill="none" style="stroke:red;stroke-width:0.001"/>
<polygon points="0 0, 0 20, 20 20, 20 0" fill="none" style="stroke:blue;stroke-width:0.1"/>
<polygon points="9.125 10.78349364905389, 9.0 10.566987298107781, 9.125 10.350480947161671, 9.375 10.350480947161671, 9.5 10.566987298107781, 9.375 10.78349364905389" fill="none" style="stroke:red;stroke-width:0.001"/>
<polygon points="0 0, 0 20, 20 20, 20 0" fill="none" style="stroke:blue;stroke-width:0.1"/>
<polygon points="9.5 11.0, 9.375 10.78349364905389, 9.125 10.78349364905389, 9.0 10.566987298107781, 9.125 10.350480947161671, 9.375 10.350480947161671, 9.5 10.566987298107781, 9.75 10.566987298107781, 9.875 10.350480947161671, 10.125 10.350480947161671, 10.25 10.56698729810778, 10.5 10.56698729810778, 10.625 10.350480947161671, 10.875 10.350480947161671, 11.0 10.56698729810778, 10.875 10.78349364905389, 10.625 10.78349364905389, 10.5 11.0, 10.25 11.0, 10.125 10.78349364905389, 9.875 10.78349364905389, 9.75 11.0" fill="none" style="stroke:black;stroke-width:0.005"/>
<polygon points="0 0, 0 20, 20 20, 20 0" fill="none" style="stroke:blue;stroke-width:0.1"/>
<text x="8.571428571428571" y="11.428571428571429" font-family="Verdana" font-size="0.25">5</text>
<polygon points="8.571428571428571 11.428571428571429, 8.571428571428571 8.571428571428571, 11.428571428571429 8.571428571428571, 11.428571428571429 11.428571428571429" fill="none" style="stroke:black;stroke-width:0.001"/>
<polygon points="0 0, 0 20, 20 20, 20 0" fill="none" style="stroke:blue;stroke-width:0.1"/>
<polygon points="9.875 13.857142857142858, 9.75 13.640636506196747, 9.5 13.640636506196747, 9.375 13.424130155250637, 9.125 13.424130155250637, 9.0 13.207623804304529, 9.125 12.99111745335842, 9.375 12.991117453358418, 9.5 13.207623804304529, 9.75 13.207623804304529, 9.875 13.424130155250637, 10.125 13.424130155250637, 10.25 13.207623804304529, 10.5 13.207623804304529, 10.625 13.424130155250637, 10.5 13.640636506196746, 10.25 13.640636506196746, 10.125 13.857142857142858" fill="none" style="stroke:red;stroke-width:0.001"/>
<polygon points="0 0, 0 20, 20 20, 20 0" fill="none" style="stroke:blue;stroke-width:0.1"/>
<polygon points="9.125 12.99111745335842, 9.0 12.77461110241231, 9.125 12.5581047514662, 9.375 12.5581047514662, 9.5 12.774611102412308, 9.375 12.991117453358418" fill="none" style="stroke:red;stroke-width:0.001"/>
<polygon points="0 0, 0 20, 20 20, 20 0" fill="none" style="stroke:blue;stroke-width:0.1"/>
<polygon points="9.875 13.857142857142858, 9.75 13.640636506196747, 9.5 13.640636506196747, 9.375 13.424130155250637, 9.125 13.424130155250637, 9.0 13.207623804304529, 9.125 12.99111745335842, 9.0 12.77461110241231, 9.125 12.5581047514662, 9.375 12.5581047514662, 9.5 12.774611102412308, 9.375 12.991117453358418, 9.5 13.207623804304529, 9.75 13.207623804304529, 9.875 13.424130155250637, 10.125 13.424130155250637, 10.25 13.207623804304529, 10.5 13.207623804304529, 10.625 13.424130155250637, 10.5 13.640636506196746, 10.25 13.640636506196746, 10.125 13.857142857142858" fill="none" style="stroke:black;stroke-width:0.005"/>
<polygon points="0 0, 0 20, 20 20, 20 0" fill="none" style="stroke:blue;stroke-width:0.1"/>
<text x="8.571428571428571" y="14.285714285714285" font-family="Verdana" font-size="0.25">5</text>
<polygon points="8.571428571428571 14.285714285714285, 8.571428571428571 11.428571428571429, 11.428571428571429 11.428571428571429, 11.428571428571429 14.285714285714285" fill="none" style="stroke:black;stroke-width:0.001"/>
<polygon points="0 0, 0 20, 20 20, 20 0" fill="none" style="stroke:blue;stroke-width:0.1"/>
<polygon points="12.357142857142858 2.4285714285714306, 12.232142857142858 2.212065077625322, 12.357142857142858 1.99555872667921, 12.232142857142858 1.7790523757331016, 12.357142857142858 1.5625460247869931, 12.607142857142858 1.5625460247869931, 12.732142857142858 1.7790523757331016, 12.982142857142858 1.7790523757331016, 13.107142857142858 1.5625460247869931, 13.357142857142858 1.5625460247869931, 13.482142857142858 1.7790523757331016, 13.357142857142858 1.99555872667921, 13.107142857142858 1.99555872667921, 12.982142857142858 2.2120650776253186, 12.732142857142858 2.212065077625322, 12.607142857142858 2.4285714285714306" fill="none" style="stroke:red;stroke-width:0.001"/>
<polygon points="0 0, 0 20, 20 20, 20 0" fill="none" style="stroke:blue;stroke-width:0.1"/>
<polygon points="11.982142857142858 2.212065077625322, 11.857142857142858 1.9955587266792136, 11.982142857142858 1.7790523757331016, 12.232142857142858 1.7790523757331016, 12.357142857142858 1.99555872667921, 12.232142857142858 2.212065077625322" fill="none" style="stroke:red;stroke-width:0.001"/>
<polygon points="0 0, 0 20, 20 20, 20 0" fill="none" style="stroke:blue;stroke-width:0.1"/>
<polygon points="12.357142857142858 2.4285714285714306, 12.232142857142858 2.212065077625322, 11.982142857142858 2.212065077625322, 11.857142857142858 1.9955587266792136, 11.982142857142858 1.7790523757331016, 12.232142857142858 1.7790523757331016, 12.357142857142858 1.5625460247869931, 12.607142857142858 1.5625460247869931, 12.732142857142858 1.7790523757331016, 12.982142857142858 1.7790523757331016, 13.107142857142858 1.5625460247869931, 13.357142857142858 1.5625460247869931, 13.482142857142858 1.7790523757331016, 13.357142857142858 1.99555872667921, 13.107142857142858 1.99555872667921, 12.982142857142858 2.2120650776253186, 12.732142857142858 2.212065077625322, 12.607142857142858 2.4285714285714306" fill="none" style="stroke:black;stroke-width:0.005"/>
<polygon points="0 0, 0 20, 20 20, 20 0" fill="none" style="stroke:blue;stroke-width:0.1"/>
<text x="11.428571428571429" y="2.8571428571428577" font-family="Verdana" font-size="0.25">5</text>
<polygon points="11.428571428571429 2.8571428571428577, 11.428571428571429 0.0, 14.285714285714286 0.0, 14.285714285714286 2.8571428571428577" fill="none" style="stroke:black;stroke-width:0.001"/>
<polygon points="0 0, 0 20, 20 20, 20 0" fill="none" style="stroke:blue;stroke-width:0.1"/>
<polygon points="12.357142857142858 5.069207934768174, 12.232142857142858 4.852701583822066, 12.357142857142858 4.636195232875956, 12.607142857142858 4.636195232875956, 12.732142857142858 4.419688881929845, 12.982142857142858 4.419688881929845, 13.107142857142858 4.636195232875956, 13.357142857142858 4.636195232875956, 13.482142857142858 4.419688881929845, 13.732142857142858 4.419688881929845, 13.857142857142858 4.636195232875956, 13.732142857142858 4.852701583822064, 13.482142857142858 4.852701583822064, 13.357142857142858 5.069207934768174, 13.107142857142858 5.069207934768174, 12.982142857142858 4.852701583822064, 12.732142857142858 4.852701583822064, 12.607142857142858 5.069207934768174" fill="none" style="stroke:red;stroke-width:0.001"/>
<polygon points="0 0, 0 20, 20 20, 20 0" fill="none" style="stroke:blue;stroke-width:0.1"/>
<polygon points="11.982142857142858 5.285714285714285, 11.857142857142858 5.069207934768174, 11.982142857142858 4.852701583822066, 12.232142857142858 4.852701583822066, 12.357142857142858 5.069207934768174, 12.232142857142858 5.285714285714285" fill="none" style="stroke:red;stroke-width:0.001"/>
<polygon points="0 0, 0 20, 20 20, 20 0" fill="none" style="stroke:blue;stroke-width:0.1"/>
<polygon points="11.982142857142858 5.285714285714285, 11.857142857142858 5.069207934768174, 11.982142857142858 4.852701583822066, 12.232142857142858 4.852701583822066, 12.357142857142858 4.636195232875956, 12.607142857142858 4.636195232875956, 12.732142857142858 4.419688881929845, 12.982142857142858 4.419688881929845, 13.107142857142858 4.636195232875956, 13.357142857142858 4.636195232875956, 13.482142857142858 4.419688881929845, 13.732142857142858 4.419688881929845, 13.857142857142858 4.636195232875956, 13.732142857142858 4.852701583822064, 13.482142857142858 4.852701583822064, 13.357142857142858 5.069207934768174, 13.107142857142858 5.069207934768174, 12.982142857142858 4.852701583822064, 12.732142857142858 4.852701583822064, 12.607142857142858 5.069207934768174, 12.357142857142858 5.069207934768174, 12.232142857142858 5.285714285714285" fill="none" style="stroke:black;stroke-width:0.005"/>
<polygon points="0 0, 0 20, 20 20, 20 0" fill="none" style="stroke:blue;stroke-width:0.1"/>
<text x="11.428571428571429" y="5.7142857142857135" font-family="Verdana" font-size="0.25">5</text>
<polygon points="11.428571428571429 5.7142857142857135, 11.428571428571429 2.8571428571428577, 14.285714285714286 2.8571428571428577, 14.285714285714286 5.7142857142857135" fill="none" style="stroke:black;stroke-width:0.001"/>
<polygon points="0 0, 0 20, 20 20, 20 0" fill="none" style="stroke:blue;stroke-width:0.1"/>
<polygon points="13.107142857142858 8.142857142857142, 12.982142857142858 7.926350791911032, 12.732142857142858 7.926350791911034, 12.607142857142858 7.709844440964924, 12.357142857142858 7.709844440964924, 12.232142857142858 7.493338090018815, 12.357142857142858 7.276831739072705, 12.607142857142858 7.276831739072705, 12.732142857142858 7.493338090018813, 12.982142857142858 7.493338090018813, 13.107142857142858 7.709844440964924, 13.357142857142858 7.709844440964924, 13.482142857142858 7.493338090018813, 13.732142857142858 7.493338090018813, 13.857142857142858 7.709844440964924, 13.732142857142858 7.926350791911032, 13.482142857142858 7.926350791911032, 13.357142857142858 8.142857142857142" fill="none" style="stroke:red;stroke-width:0.001"/>
<polygon points="0 0, 0 20, 20 20, 20 0" fill="none" style="stroke:blue;stroke-width:0.1"/>
<polygon points="11.982142857142858 7.926350791911034, 11.857142857142858 7.709844440964925, 11.982142857142858 7.493338090018815, 12.232142857142858 7.493338090018815, 12.357142857142858 7.709844440964924, 12.232142857142858 7.926350791911034" fill="none" style="stroke:red;stroke-width:0.001"/>
<polygon points="0 0, 0 20, 20 20, 20 0" fill="none" style="stroke:blue;stroke-width:0.1"/>
<polygon points="13.107142857142858 8.142857142857142, 12.982142857142858 7.926350791911032, 12.732142857142858 7.926350791911034, 12.607142857142858 7.709844440964924, 12.357142857142858 7.709844440964924, 12.232142857142858 7.926350791911034, 11.982142857142858 7.926350791911034, 11.857142857142858 7.709844440964925, 11.982142857142858 7.493338090018815, 12.232142857142858 7.493338090018815, 12.357142857142858 7.276831739072705, 12.607142857142858 7.276831739072705, 12.732142857142858 7.493338090018813, 12.982142857142858 7.493338090018813, 13.107142857142858 7.709844440964924, 13.357142857142858 7.709844440964924, 13.482142857142858 7.493338090018813, 13.732142857142858 7.493338090018813, 13.857142857142858 7.709844440964924, 13.732142857142858 7.926350791911032, 13.482142857142858 7.926350791911032, 13.357142857142858 8.142857142857142" fill="none" style="stroke:black;stroke-width:0.005"/>
<polygon points="0 0, 0 20, 20 20, 20 0" fill="none" style="stroke:blue;stroke-width:0.1"/>
<text x="11.428571428571429" y="8.571428571428571" font-family="Verdana" font-size="0.25">5</text>
<polygon points="11.428571428571429 8.571428571428571, 11.428571428571429 5.7142857142857135, 14.285714285714286 5.7142857142857135, 14.285714285714286 8.571428571428571" fill="none" style="stroke:black;stroke-width:0.001"/>
<polygon points="0 0, 0 20, 20 20, 20 0" fill="none" style="stroke:blue;stroke-width:0.1"/>
<polygon points="12.357142857142858 10.78349364905389, 12.232142857142858 10.56698729810778, 12.357142857142858 10.350480947161671, 12.232142857142856 10.13397459621556, 12.357142857142856 9.91746824526945, 12.607142857142856 9.91746824526945, 12.732142857142856 10.13397459621556, 12.982142857142858 10.133974596215559, 13.107142857142858 9.91746824526945, 13.357142857142856 9.91746824526945, 13.482142857142856 10.133974596215559, 13.357142857142856 10.35048094716167, 13.107142857142858 10.35048094716167, 12.982142857142858 10.56698729810778, 12.732142857142858 10.56698729810778, 12.607142857142858 10.78349364905389" fill="none" style="stroke:red;stroke-width:0.001"/>
<polygon points="0 0, 0 20, 20 20, 20 0" fill="none" style="stroke:blue;stroke-width:0.1"/>
<polygon points="11.982142857142858 11.0, 11.857142857142858 10.783493649053892, 11.982142857142858 10.566987298107781, 12.232142857142858 10.56698729810778, 12.357142857142858 10.78349364905389, 12.232142857142858 11.0" fill="none" style="stroke:red;stroke-width:0.001"/>
<polygon points="0 0, 0 20, 20 20, 20 0" fill="none" style="stroke:blue;stroke-width:0.1"/>
<polygon points="11.982142857142858 11.0, 11.857142857142858 10.783493649053892, 11.982142857142858 10.566987298107781, 12.232142857142858 10.56698729810778, 12.357142857142858 10.350480947161671, 12.232142857142856 10.13397459621556, 12.357142857142856 9.91746824526945, 12.607142857142856 9.91746824526945, 12.732142857142856 10.13397459621556, 12.982142857142858 10.133974596215559, 13.107142857142858 9.91746824526945, 13.357142857142856 9.91746824526945, 13.482142857142856 10.133974596215559, 13.357142857142856 10.35048094716167, 13.107142857142858 10.35048094716167, 12.982142857142858 10.56698729810778, 12.732142857142858 10.56698729810778, 12.607142857142858 10.78349364905389, 12.357142857142858 10.78349364905389, 12.232142857142858 11.0" fill="none" style="stroke:black;stroke-width:0.005"/>
<polygon points="0 0, 0 20, 20 20, 20 0" fill="none" style="stroke:blue;stroke-width:0.1"/>
<text x="11.428571428571429" y="11.428571428571429" font-family="Verdana" font-size="0.25">5</text>
<polygon points="11.428571428571429 11.428571428571429, 11.428571428571429 8.571428571428571, 14.285714285714286 8.571428571428571, 14.285714285714286 11.428571428571429" fill="none" style="stroke:black;stroke-width:0.001"/>
<polygon points="0 0, 0 20, 20 20, 20 0" fill="none" style="stroke:blue;stroke-width:0.1"/>
<polygon points="11.982142857142858 13.857142857142858, 11.857142857142858 13.640636506196747, 11.982142857142858 13.424130155250637, 11.857142857142858 13.207623804304529, 11.982142857142858 12.991117453358418, 12.232142857142858 12.991117453358417, 12.357142857142858 13.207623804304529, 12.607142857142858 13.207623804304527, 12.732142857142858 12.991117453358417, 12.982142857142858 12.991117453358417, 13.107142857142858 13.207623804304527, 12.982142857142858 13.424130155250637, 12.732142857142858 13.424130155250637, 12.607142857142858 13.640636506196746, 12.357142857142858 13.640636506196746, 12.232142857142858 13.857142857142858" fill="none" style="stroke:red;stroke-width:0.001"/>
<polygon points="0 0, 0 20, 20 20, 20 0" fill="none" style="stroke:blue;stroke-width:0.1"/>
<polygon points="13.107142857142858 13.207623804304527, 12.982142857142858 12.991117453358417, 13.107142857142858 12.774611102412308, 13.357142857142858 12.774611102412308, 13.482142857142858 12.991117453358417, 13.357142857142858 13.207623804304527" fill="none" style="stroke:red;stroke-width:0.001"/>
<polygon points="0 0, 0 20, 20 20, 20 0" fill="none" style="stroke:blue;stroke-width:0.1"/>
<polygon points="11.982142857142858 13.857142857142858, 11.857142857142858 13.640636506196747, 11.982142857142858 13.424130155250637, 11.857142857142858 13.207623804304529, 11.982142857142858 12.991117453358418, 12.232142857142858 12.991117453358417, 12.357142857142858 13.207623804304529, 12.607142857142858 13.207623804304527, 12.732142857142858 12.991117453358417, 12.982142857142858 12.991117453358417, 13.107142857142858 12.774611102412308, 13.357142857142858 12.774611102412308, 13.482142857142858 12.991117453358417, 13.357142857142858 13.207623804304527, 13.107142857142858 13.207623804304527, 12.982142857142858 13.424130155250637, 12.732142857142858 13.424130155250637, 12.607142857142858 13.640636506196746, 12.357142857142858 13.640636506196746, 12.232142857142858 13.857142857142858" fill="none" style="stroke:black;stroke-width:0.005"/>
<polygon points="0 0, 0 20, 20 20, 20 0" fill="none" style="stroke:blue;stroke-width:0.1"/>
<text x="11.428571428571429" y="14.285714285714285" font-family="Verdana" font-size="0.25">5</text>
<polygon points="11.428571428571429 14.285714285714285, 11.428571428571429 11.428571428571429, 14.285714285714286 11.428571428571429, 14.285714285714286 14.285714285714285" fill="none" style="stroke:black;stroke-width:0.001"/>
<polygon points="0 0, 0 20, 20 20, 20 0" fill="none" style="stroke:blue;stroke-width:0.1"/>
<polygon points="15.589285714285715 2.4285714285714306, 15.464285714285715 2.212065077625322, 15.214285714285715 2.212065077625322, 15.089285714285715 1.99555872667921, 14.839285714285715 1.9955587266792136, 14.714285714285715 1.7790523757331016, 14.839285714285715 1.5625460247869931, 15.089285714285715 1.5625460247869931, 15.214285714285715 1.7790523757331016, 15.464285714285715 1.7790523757331016, 15.589285714285715 1.99555872667921, 15.839285714285715 1.99555872667921, 15.964285714285715 1.7790523757331016, 16.214285714285715 1.7790523757331016, 16.339285714285715 1.99555872667921, 16.214285714285715 2.212065077625322, 15.964285714285715 2.212065077625322, 15.839285714285715 2.4285714285714306" fill="none" style="stroke:red;stroke-width:0.001"/>
<polygon points="0 0, 0 20, 20 20, 20 0" fill="none" style="stroke:blue;stroke-width:0.1"/>
<polygon points="16.339285714285715 1.99555872667921, 16.214285714285715 1.7790523757331016, 16.339285714285715 1.5625460247869931, 16.589285714285715 1.5625460247869931, 16.714285714285715 1.7790523757331016, 16.589285714285715 1.99555872667921" fill="none" style="stroke:red;stroke-width:0.001"/>
<polygon points="0 0, 0 20, 20 20, 20 0" fill="none" style="stroke:blue;stroke-width:0.1"/>
<polygon points="15.589285714285715 2.4285714285714306, 15.464285714285715 2.212065077625322, 15.214285714285715 2.212065077625322, 15.089285714285715 1.99555872667921, 14.839285714285715 1.9955587266792136, 14.714285714285715 1.7790523757331016, 14.839285714285715 1.5625460247869931, 15.089285714285715 1.5625460247869931, 15.214285714285715 1.7790523757331016, 15.464285714285715 1.7790523757331016, 15.589285714285715 1.99555872667921, 15.839285714285715 1.99555872667921, 15.964285714285715 1.7790523757331016, 16.214285714285715 1.7790523757331016, 16.339285714285715 1.5625460247869931, 16.589285714285715 1.5625460247869931, 16.714285714285715 1.7790523757331016, 16.589285714285715 1.99555872667921, 16.339285714285715 1.99555872667921, 16.214285714285715 2.212065077625322, 15.964285714285715 2.212065077625322, 15.839285714285715 2.4285714285714306" fill="none" style="stroke:black;stroke-width:0.005"/>
<polygon points="0 0, 0 20, 20 20, 20 0" fill="none" style="stroke:blue;stroke-width:0.1"/>
<text x="14.285714285714286" y="2.8571428571428577" font-family="Verdana" font-size="0.25">5</text>
<polygon points="14.285714285714286 2.8571428571428577, 14.285714285714286 0.0, 17.142857142857142 0.0, 17.142857142857142 2.8571428571428577" fill="none" style="stroke:black;stroke-width:0.001"/>
<polygon points="0 0, 0 20, 20 20, 20 0" fill="none" style="stroke:blue;stroke-width:0.1"/>
<polygon points="15.589285714285715 5.285714285714285, 15.464285714285715 5.069207934768174, 15.214285714285715 5.069207934768176, 15.089285714285715 4.852701583822066, 15.214285714285715 4.636195232875956, 15.089285714285715 4.419688881929847, 15.214285714285715 4.203182530983737, 15.464285714285715 4.203182530983737, 15.589285714285715 4.419688881929845, 15.464285714285715 4.636195232875956, 15.589285714285715 4.852701583822066, 15.839285714285715 4.852701583822066, 15.964285714285715 4.636195232875956, 16.214285714285715 4.636195232875956, 16.339285714285715 4.852701583822066, 16.214285714285715 5.069207934768174, 15.964285714285715 5.069207934768174, 15.839285714285715 5.285714285714285" fill="none" style="stroke:red;stroke-width:0.001"/>
<polygon points="0 0, 0 20, 20 20, 20 0" fill="none" style="stroke:blue;stroke-width:0.1"/>
<polygon points="14.839285714285715 4.419688881929847, 14.714285714285715 4.203182530983737, 14.839285714285715 3.9866761800376267, 15.089285714285715 3.9866761800376267, 15.214285714285715 4.203182530983737, 15.089285714285715 4.419688881929847" fill="none" style="stroke:red;stroke-width:0.001"/>
<polygon points="0 0, 0 20, 20 20, 20 0" fill="none" style="stroke:blue;stroke-width:0.1"/>
<polygon points="15.589285714285715 5.285714285714285, 15.464285714285715 5.069207934768174, 15.214285714285715 5.069207934768176, 15.089285714285715 4.852701583822066, 15.214285714285715 4.636195232875956, 15.089285714285715 4.419688881929847, 14.839285714285715 4.419688881929847, 14.714285714285715 4.203182530983737, 14.839285714285715 3.9866761800376267, 15.089285714285715 3.9866761800376267, 15.214285714285715 4.203182530983737, 15.464285714285715 4.203182530983737, 15.589285714285715 4.419688881929845, 15.464285714285715 4.636195232875956, 15.589285714285715 4.852701583822066, 15.839285714285715 4.852701583822066, 15.964285714285715 4.636195232875956, 16.214285714285715 4.636195232875956, 16.339285714285715 4.852701583822066, 16.214285714285715 5.069207934768174, 15.964285714285715 5.069207934768174, 15.839285714285715 5.285714285714285" fill="none" style="stroke:black;stroke-width:0.005"/>
<polygon points="0 0, 0 20, 20 20, 20 0" fill="none" style="stroke:blue;stroke-width:0.1"/>
<text x="14.285714285714286" y="5.7142857142857135" font-family="Verdana" font-size="0.25">5</text>
<polygon points="14.285714285714286 5.7142857142857135, 14.285714285714286 2.8571428571428577, 17.142857142857142 2.8571428571428577, 17.142857142857142 5.7142857142857135" fill="none" style="stroke:black;stroke-width:0.001"/>
<polygon points="0 0, 0 20, 20 20, 20 0" fill="none" style="stroke:blue;stroke-width:0.1"/>
<polygon points="15.214285714285717 8.142857142857142, 15.089285714285717 7.926350791911032, 14.839285714285717 7.926350791911034, 14.714285714285715 7.709844440964924, 14.839285714285715 7.493338090018813, 14.714285714285715 7.276831739072705, 14.839285714285715 7.060325388126595, 15.089285714285715 7.060325388126595, 15.214285714285715 7.276831739072703, 15.089285714285715 7.493338090018813, 15.214285714285715 7.709844440964924, 15.464285714285717 7.709844440964924, 15.589285714285715 7.493338090018813, 15.839285714285715 7.493338090018813, 15.964285714285715 7.709844440964924, 15.839285714285715 7.926350791911032, 15.589285714285715 7.926350791911032, 15.464285714285717 8.142857142857142" fill="none" style="stroke:red;stroke-width:0.001"/>
<polygon points="0 0, 0 20, 20 20, 20 0" fill="none" style="stroke:blue;stroke-width:0.1"/>
<polygon points="14.839285714285715 7.060325388126595, 14.714285714285715 6.843819037180486, 14.839285714285715 6.627312686234376, 15.089285714285715 6.627312686234376, 15.214285714285715 6.843819037180484, 15.089285714285715 7.060325388126595" fill="none" style="stroke:red;stroke-width:0.001"/>
<polygon points="0 0, 0 20, 20 20, 20 0" fill="none" style="stroke:blue;stroke-width:0.1"/>
<polygon points="15.214285714285717 8.142857142857142, 15.089285714285717 7.926350791911032, 14.839285714285717 7.926350791911034, 14.714285714285715 7.709844440964924, 14.839285714285715 7.493338090018813, 14.714285714285715 7.276831739072705, 14.839285714285715 7.060325388126595, 14.714285714285715 6.843819037180486, 14.839285714285715 6.627312686234376, 15.089285714285715 6.627312686234376, 15.214285714285715 6.843819037180484, 15.089285714285715 7.060325388126595, 15.214285714285715 7.276831739072703, 15.089285714285715 7.493338090018813, 15.214285714285715 7.709844440964924, 15.464285714285717 7.709844440964924, 15.589285714285715 7.493338090018813, 15.839285714285715 7.493338090018813, 15.964285714285715 7.709844440964924, 15.839285714285715 7.926350791911032, 15.589285714285715 7.926350791911032, 15.464285714285717 8.142857142857142" fill="none" style="stroke:black;stroke-width:0.005"/>
<polygon points="0 0, 0 20, 20 20, 20 0" fill="none" style="stroke:blue;stroke-width:0.1"/>
<text x="14.285714285714286" y="8.571428571428571" font-family="Verdana" font-size="0.25">5</text>
<polygon points="14.285714285714286 8.571428571428571, 14.285714285714286 5.7142857142857135, 17.142857142857142 5.7142857142857135, 17.142857142857142 8.571428571428571" fill="none" style="stroke:black;stroke-width:0.001"/>
<polygon points="0 0, 0 20, 20 20, 20 0" fill="none" style="stroke:blue;stroke-width:0.1"/>
<polygon points="15.589285714285715 11.0, 15.464285714285715 10.78349364905389, 15.214285714285715 10.78349364905389, 15.089285714285715 10.566987298107781, 15.214285714285715 10.350480947161671, 15.089285714285715 10.13397459621556, 15.214285714285715 9.917468245269452, 15.464285714285715 9.91746824526945, 15.589285714285715 10.13397459621556, 15.464285714285715 10.350480947161671, 15.589285714285715 10.56698729810778, 15.839285714285715 10.56698729810778, 15.964285714285715 10.350480947161671, 16.214285714285715 10.350480947161671, 16.339285714285715 10.56698729810778, 16.214285714285715 10.78349364905389, 15.964285714285715 10.78349364905389, 15.839285714285715 11.0" fill="none" style="stroke:red;stroke-width:0.001"/>
<polygon points="0 0, 0 20, 20 20, 20 0" fill="none" style="stroke:blue;stroke-width:0.1"/>
<polygon points="14.839285714285715 11.0, 14.714285714285715 10.78349364905389, 14.839285714285715 10.566987298107781, 15.089285714285715 10.566987298107781, 15.214285714285715 10.78349364905389, 15.089285714285715 11.0" fill="none" style="stroke:red;stroke-width:0.001"/>
<polygon points="0 0, 0 20, 20 20, 20 0" fill="none" style="stroke:blue;stroke-width:0.1"/>
<polygon points="14.839285714285715 11.0, 14.714285714285715 10.78349364905389, 14.839285714285715 10.566987298107781, 15.089285714285715 10.566987298107781, 15.214285714285715 10.350480947161671, 15.089285714285715 10.13397459621556, 15.214285714285715 9.917468245269452, 15.464285714285715 9.91746824526945, 15.589285714285715 10.13397459621556, 15.464285714285715 10.350480947161671, 15.589285714285715 10.56698729810778, 15.839285714285715 10.56698729810778, 15.964285714285715 10.350480947161671, 16.214285714285715 10.350480947161671, 16.339285714285715 10.56698729810778, 16.214285714285715 10.78349364905389, 15.964285714285715 10.78349364905389, 15.839285714285715 11.0, 15.589285714285715 11.0, 15.464285714285715 10.78349364905389, 15.214285714285715 10.78349364905389, 15.089285714285715 11.0" fill="none" style="stroke:black;stroke-width:0.005"/>
<polygon points="0 0, 0 20, 20 20, 20 0" fill="none" style="stroke:blue;stroke-width:0.1"/>
<text x="14.285714285714286" y="11.428571428571429" font-family="Verdana" font-size="0.25">5</text>
<polygon points="14.285714285714286 11.428571428571429, 14.285714285714286 8.571428571428571, 17.142857142857142 8.571428571428571, 17.142857142857142 11.428571428571429" fill="none" style="stroke:black;stroke-width:0.001"/>
<polygon points="0 0, 0 20, 20 20, 20 0" fill="none" style="stroke:blue;stroke-width:0.1"/>
<polygon points="15.214285714285715 13.857142857142858, 15.089285714285715 13.640636506196747, 14.839285714285715 13.640636506196747, 14.714285714285715 13.424130155250637, 14.839285714285715 13.207623804304529, 14.714285714285715 12.991117453358418, 14.839285714285715 12.774611102412308, 15.089285714285715 12.774611102412308, 15.214285714285715 12.991117453358418, 15.089285714285715 13.207623804304529, 15.214285714285715 13.424130155250637, 15.464285714285715 13.424130155250637, 15.589285714285715 13.207623804304529, 15.839285714285715 13.207623804304529, 15.964285714285715 13.424130155250637, 15.839285714285715 13.640636506196746, 15.589285714285715 13.640636506196746, 15.464285714285715 13.857142857142858" fill="none" style="stroke:red;stroke-width:0.001"/>
<polygon points="0 0, 0 20, 20 20, 20 0" fill="none" style="stroke:blue;stroke-width:0.1"/>
<polygon points="15.214285714285715 13.424130155250637, 15.089285714285715 13.207623804304529, 15.214285714285715 12.991117453358418, 15.464285714285715 12.991117453358417, 15.589285714285715 13.207623804304529, 15.464285714285715 13.424130155250637" fill="none" style="stroke:red;stroke-width:0.001"/>
<polygon points="0 0, 0 20, 20 20, 20 0" fill="none" style="stroke:blue;stroke-width:0.1"/>
<polygon points="15.214285714285715 13.857142857142858, 15.089285714285715 13.640636506196747, 14.839285714285715 13.640636506196747, 14.714285714285715 13.424130155250637, 14.839285714285715 13.207623804304529, 14.714285714285715 12.991117453358418, 14.839285714285715 12.774611102412308, 15.089285714285715 12.774611102412308, 15.214285714285715 12.991117453358418, 15.464285714285715 12.991117453358417, 15.589285714285715 13.207623804304529, 15.839285714285715 13.207623804304529, 15.964285714285715 13.424130155250637, 15.839285714285715 13.640636506196746, 15.589285714285715 13.640636506196746, 15.464285714285715 13.857142857142858" fill="none" style="stroke:black;stroke-width:0.005"/>
<polygon points="0 0, 0 20, 20 20, 20 0" fill="none" style="stroke:blue;stroke-width:0.1"/>
<text x="14.285714285714286" y="14.285714285714285" font-family="Verdana" font-size="0.25">5</text>
<polygon points="14.285714285714286 14.285714285714285, 14.285714285714286 11.428571428571429, 17.142857142857142 11.428571428571429, 17.142857142857142 14.285714285714285" fill="none" style="stroke:black;stroke-width:0.001"/>
<polygon points="0 0, 0 20, 20 20, 20 0" fill="none" style="stroke:blue;stroke-width:0.1"/>
<polygon points="18.446428571428573 1.99555872667921, 18.32142857142857 1.7790523757331016, 18.07142857142857 1.7790523757331016, 17.94642857142857 1.5625460247869896, 17.69642857142857 1.5625460247869896, 17.57142857142857 1.346039673840881, 17.69642857142857 1.1295333228947726, 17.94642857142857 1.1295333228947726, 18.07142857142857 1.346039673840881, 18.32142857142857 1.346039673840881, 18.446428571428573 1.5625460247869896, 18.696428571428573 1.5625460247869896, 18.821428571428573 1.346039673840881, 19.071428571428573 1.346039673840881, 19.196428571428573 1.5625460247869896, 19.071428571428573 1.7790523757331016, 18.821428571428573 1.7790523757331016, 18.696428571428573 1.99555872667921" fill="none" style="stroke:red;stroke-width:0.001"/>
<polygon points="0 0, 0 20, 20 20, 20 0" fill="none" style="stroke:blue;stroke-width:0.1"/>
<polygon points="18.446428571428573 2.4285714285714306, 18.321428571428573 2.212065077625322, 18.446428571428573 1.99555872667921, 18.696428571428573 1.99555872667921, 18.821428571428573 2.2120650776253186, 18.696428571428573 2.4285714285714306" fill="none" style="stroke:red;stroke-width:0.001"/>
<polygon points="0 0, 0 20, 20 20, 20 0" fill="none" style="stroke:blue;stroke-width:0.1"/>
<polygon points="18.446428571428573 2.4285714285714306, 18.321428571428573 2.212065077625322, 18.446428571428573 1.99555872667921, 18.32142857142857 1.7790523757331016, 18.07142857142857 1.7790523757331016, 17.94642857142857 1.5625460247869896, 17.69642857142857 1.5625460247869896, 17.57142857142857 1.346039673840881, 17.69642857142857 1.1295333228947726, 17.94642857142857 1.1295333228947726, 18.07142857142857 1.346039673840881, 18.32142857142857 1.346039673840881, 18.446428571428573 1.5625460247869896, 18.696428571428573 1.5625460247869896, 18.821428571428573 1.346039673840881, 19.071428571428573 1.346039673840881, 19.196428571428573 1.5625460247869896, 19.071428571428573 1.7790523757331016, 18.821428571428573 1.7790523757331016, 18.696428571428573 1.99555872667921, 18.821428571428573 2.2120650776253186, 18.696428571428573 2.4285714285714306" fill="none" style="stroke:black;stroke-width:0.005"/>
<polygon points="0 0, 0 20, 20 20, 20 0" fill="none" style="stroke:blue;stroke-width:0.1"/>
<text x="17.142857142857142" y="2.8571428571428577" font-family="Verdana" font-size="0.25">5</text>
<polygon points="17.142857142857142 2.8571428571428577, 17.142857142857142 0.0, 20.0 0.0, 20.0 2.8571428571428577" fill="none" style="stroke:black;stroke-width:0.001"/>
<polygon points="0 0, 0 20, 20 20, 20 0" fill="none" style="stroke:blue;stroke-width:0.1"/>
<polygon points="18.07142857142857 5.069207934768174, 17.94642857142857 4.852701583822064, 17.69642857142857 4.852701583822064, 17.57142857142857 4.636195232875954, 17.69642857142857 4.419688881929844, 17.57142857142857 4.203182530983735, 17.69642857142857 3.986676180037623, 17.94642857142857 3.986676180037623, 18.07142857142857 4.203182530983735, 17.94642857142857 4.419688881929844, 18.07142857142857 4.636195232875954, 18.321428571428573 4.636195232875954, 18.446428571428573 4.419688881929844, 18.696428571428573 4.419688881929844, 18.821428571428573 4.636195232875954, 18.696428571428573 4.852701583822064, 18.446428571428573 4.852701583822064, 18.321428571428573 5.069207934768174" fill="none" style="stroke:red;stroke-width:0.001"/>
<polygon points="0 0, 0 20, 20 20, 20 0" fill="none" style="stroke:blue;stroke-width:0.1"/>
<polygon points="17.69642857142857 5.285714285714285, 17.57142857142857 5.069207934768174, 17.69642857142857 4.852701583822064, 17.94642857142857 4.852701583822064, 18.07142857142857 5.069207934768174, 17.946428571428573 5.285714285714285" fill="none" style="stroke:red;stroke-width:0.001"/>
<polygon points="0 0, 0 20, 20 20, 20 0" fill="none" style="stroke:blue;stroke-width:0.1"/>
<polygon points="17.69642857142857 5.285714285714285, 17.57142857142857 5.069207934768174, 17.69642857142857 4.852701583822064, 17.57142857142857 4.636195232875954, 17.69642857142857 4.419688881929844, 17.57142857142857 4.203182530983735, 17.69642857142857 3.986676180037623, 17.94642857142857 3.986676180037623, 18.07142857142857 4.203182530983735, 17.94642857142857 4.419688881929844, 18.07142857142857 4.636195232875954, 18.321428571428573 4.636195232875954, 18.446428571428573 4.419688881929844, 18.696428571428573 4.419688881929844, 18.821428571428573 4.636195232875954, 18.696428571428573 4.852701583822064, 18.446428571428573 4.852701583822064, 18.321428571428573 5.069207934768174, 18.07142857142857 5.069207934768174, 17.946428571428573 5.285714285714285" fill="none" style="stroke:black;stroke-width:0.005"/>
<polygon points="0 0, 0 20, 20 20, 20 0" fill="none" style="stroke:blue;stroke-width:0.1"/>
<text x="17.142857142857142" y="5.7142857142857135" font-family="Verdana" font-size="0.25">5</text>
<polygon points="17.142857142857142 5.7142857142857135, 17.142857142857142 2.8571428571428577, 20.0 2.8571428571428577, 20.0 5.7142857142857135" fill="none" style="stroke:black;stroke-width:0.001"/>
<polygon points="0 0, 0 20, 20 20, 20 0" fill="none" style="stroke:blue;stroke-width:0.1"/>
<polygon points="18.07142857142857 7.926350791911032, 17.94642857142857 7.709844440964922, 18.07142857142857 7.493338090018812, 18.32142857142857 7.49333809001881, 18.44642857142857 7.276831739072701, 18.69642857142857 7.2768317390726995, 18.82142857142857 7.060325388126589, 19.07142857142857 7.060325388126589, 19.19642857142857 6.843819037180479, 19.44642857142857 6.843819037180479, 19.57142857142857 7.060325388126589, 19.44642857142857 7.2768317390726995, 19.19642857142857 7.2768317390726995, 19.07142857142857 7.49333809001881, 18.82142857142857 7.49333809001881, 18.69642857142857 7.70984444096492, 18.44642857142857 7.70984444096492, 18.32142857142857 7.92635079191103" fill="none" style="stroke:red;stroke-width:0.001"/>
<polygon points="0 0, 0 20, 20 20, 20 0" fill="none" style="stroke:blue;stroke-width:0.1"/>
<polygon points="17.69642857142857 8.142857142857142, 17.57142857142857 7.926350791911032, 17.69642857142857 7.709844440964922, 17.94642857142857 7.709844440964922, 18.07142857142857 7.926350791911032, 17.94642857142857 8.142857142857142" fill="none" style="stroke:red;stroke-width:0.001"/>
<polygon points="0 0, 0 20, 20 20, 20 0" fill="none" style="stroke:blue;stroke-width:0.1"/>
<polygon points="17.69642857142857 8.142857142857142, 17.57142857142857 7.926350791911032, 17.69642857142857 7.709844440964922, 17.94642857142857 7.709844440964922, 18.07142857142857 7.493338090018812, 18.32142857142857 7.49333809001881, 18.44642857142857 7.276831739072701, 18.69642857142857 7.2768317390726995, 18.82142857142857 7.060325388126589, 19.07142857142857 7.060325388126589, 19.19642857142857 6.843819037180479, 19.44642857142857 6.843819037180479, 19.57142857142857 7.060325388126589, 19.44642857142857 7.2768317390726995, 19.19642857142857 7.2768317390726995, 19.07142857142857 7.49333809001881, 18.82142857142857 7.49333809001881, 18.69642857142857 7.70984444096492, 18.44642857142857 7.70984444096492, 18.32142857142857 7.92635079191103, 18.07142857142857 7.926350791911032, 17.94642857142857 8.142857142857142" fill="none" style="stroke:black;stroke-width:0.005"/>
<polygon points="0 0, 0 20, 20 20, 20 0" fill="none" style="stroke:blue;stroke-width:0.1"/>
<text x="17.142857142857142" y="8.571428571428571" font-family="Verdana" font-size="0.25">5</text>
<polygon points="17.142857142857142 8.571428571428571, 17.142857142857142 5.7142857142857135, 20.0 5.7142857142857135, 20.0 8.571428571428571" fill="none" style="stroke:black;stroke-width:0.001"/>
<polygon points="0 0, 0 20, 20 20, 20 0" fill="none" style="stroke:blue;stroke-width:0.1"/>
<polygon points="18.446428571428573 11.0, 18.32142857142857 10.78349364905389, 18.07142857142857 10.78349364905389, 17.94642857142857 10.566987298107781, 18.07142857142857 10.350480947161671, 17.94642857142857 10.13397459621556, 18.07142857142857 9.91746824526945, 18.32142857142857 9.91746824526945, 18.44642857142857 10.13397459621556, 18.32142857142857 10.350480947161671, 18.446428571428573 10.56698729810778, 18.696428571428573 10.56698729810778, 18.821428571428573 10.35048094716167, 19.071428571428573 10.35048094716167, 19.196428571428573 10.56698729810778, 19.071428571428573 10.78349364905389, 18.821428571428573 10.78349364905389, 18.696428571428573 11.0" fill="none" style="stroke:red;stroke-width:0.001"/>
<polygon points="0 0, 0 20, 20 20, 20 0" fill="none" style="stroke:blue;stroke-width:0.1"/>
<polygon points="17.69642857142857 10.566987298107781, 17.57142857142857 10.350480947161671, 17.69642857142857 10.13397459621556, 17.94642857142857 10.13397459621556, 18.07142857142857 10.350480947161671, 17.94642857142857 10.566987298107781" fill="none" style="stroke:red;stroke-width:0.001"/>
<polygon points="0 0, 0 20, 20 20, 20 0" fill="none" style="stroke:blue;stroke-width:0.1"/>
<polygon points="18.446428571428573 11.0, 18.32142857142857 10.78349364905389, 18.07142857142857 10.78349364905389, 17.94642857142857 10.566987298107781, 17.69642857142857 10.566987298107781, 17.57142857142857 10.350480947161671, 17.69642857142857 10.13397459621556, 17.94642857142857 10.13397459621556, 18.07142857142857 9.91746824526945, 18.32142857142857 9.91746824526945, 18.44642857142857 10.13397459621556, 18.32142857142857 10.350480947161671, 18.446428571428573 10.56698729810778, 18.696428571428573 10.56698729810778, 18.821428571428573 10.35048094716167, 19.071428571428573 10.35048094716167, 19.196428571428573 10.56698729810778, 19.071428571428573 10.78349364905389, 18.821428571428573 10.78349364905389, 18.696428571428573 11.0" fill="none" style="stroke:black;stroke-width:0.005"/>
<polygon points="0 0, 0 20, 20 20, 20 0" fill="none" style="stroke:blue;stroke-width:0.1"/>
<text x="17.142857142857142" y="11.428571428571429" font-family="Verdana" font-size="0.25">5</text>
<polygon points="17.142857142857142 11.428571428571429, 17.142857142857142 8.571428571428571, 20.0 8.571428571428571, 20.0 11.428571428571429" fill="none" style="stroke:black;stroke-width:0.001"/>
</svg>
