<svg width="800" height="800" viewBox="0 0 20 20" preserveAspectRatio="xMinYMin meet" xmlns="http://www.w3.org/2000/svg">
<polygon points="0 0, 0 20, 20 20, 20 0" fill="none" style="stroke:blue;stroke-width:0.1"/>
<polygon points="10.333333333333334 4.511966128287414, 9.666666666666668 3.357265589908163, 10.333333333333334 2.202565051528911, 11.666666666666668 2.202565051528911, 12.333333333333334 3.357265589908163, 11.666666666666668 4.511966128287414" fill="none" style="stroke:red;stroke-width:0.001"/>
<polygon points="0 0, 0 20, 20 20, 20 0" fill="none" style="stroke:blue;stroke-width:0.1"/>
<polygon points="8.333333333333336 5.666666666666666, 7.666666666666667 4.5119661282874155, 8.333333333333332 3.357265589908163, 9.666666666666666 3.357265589908163, 10.333333333333334 4.511966128287414, 9.666666666666668 5.666666666666664" fill="none" style="stroke:red;stroke-width:0.001"/>
<polygon points="0 0, 0 20, 20 20, 20 0" fill="none" style="stroke:blue;stroke-width:0.1"/>
<polygon points="8.333333333333336 5.666666666666666, 7.666666666666667 4.5119661282874155, 8.333333333333332 3.357265589908163, 9.666666666666668 3.357265589908163, 10.333333333333334 2.202565051528911, 11.666666666666668 2.202565051528911, 12.333333333333334 3.357265589908163, 11.666666666666668 4.511966128287414, 10.333333333333334 4.511966128287414, 9.666666666666668 5.666666666666664" fill="none" style="stroke:black;stroke-width:0.005"/>
<polygon points="0 0, 0 20, 20 20, 20 0" fill="none" style="stroke:blue;stroke-width:0.1"/>
<text x="6.666666666666667" y="6.666666666666666" font-family="Verdana" font-size="0.25">2</text>
<polygon points="6.666666666666667 6.666666666666666, 6.666666666666667 0.0, 13.333333333333334 0.0, 13.333333333333334 6.666666666666666" fill="none" style="stroke:black;stroke-width:0.001"/>
</svg>
