<svg width="800" height="800" viewBox="0 0 20 20" preserveAspectRatio="xMinYMin meet" xmlns="http://www.w3.org/2000/svg">
<polygon points="0 0, 0 20, 20 20, 20 0" fill="none" style="stroke:blue;stroke-width:0.1"/>
<polygon points="2.1499999999999995 8.643782217350893, 1.7999999999999998 8.037564434701785, 2.1499999999999995 7.431346652052678, 2.8499999999999996 7.431346652052678, 3.1999999999999993 8.037564434701785, 2.8499999999999996 8.643782217350893" fill="none" style="stroke:red;stroke-width:0.001"/>
<polygon points="0 0, 0 20, 20 20, 20 0" fill="none" style="stroke:blue;stroke-width:0.1"/>
<polygon points="1.1000000000000005 9.25, 0.75 8.643782217350893, 1.0999999999999996 8.037564434701785, 1.7999999999999994 8.037564434701785, 2.1499999999999995 8.643782217350893, 1.8000000000000003 9.25" fill="none" style="stroke:red;stroke-width:0.001"/>
<polygon points="0 0, 0 20, 20 20, 20 0" fill="none" style="stroke:blue;stroke-width:0.1"/>
<polygon points="1.1000000000000005 9.25, 0.75 8.643782217350893, 1.0999999999999996 8.037564434701785, 1.7999999999999998 8.037564434701785, 2.1499999999999995 7.431346652052678, 2.8499999999999996 7.431346652052678, 3.1999999999999993 8.037564434701785, 2.8499999999999996 8.643782217350893, 2.1499999999999995 8.643782217350893, 1.8000000000000003 9.25" fill="none" style="stroke:black;stroke-width:0.005"/>
<polygon points="0 0, 0 20, 20 20, 20 0" fill="none" style="stroke:blue;stroke-width:0.1"/>
<text x="0.0" y="10.0" font-family="Verdana" font-size="0.25">2</text>
<polygon points="0.0 10.0, 0.0 5.0, 5.0 5.0, 5.0 10.0" fill="none" style="stroke:black;stroke-width:0.001"/>
<polygon points="0 0, 0 20, 20 20, 20 0" fill="none" style="stroke:blue;stroke-width:0.1"/>
<polygon points="7.150000000000001 4.25, 6.800000000000001 3.6437822173508927, 7.15 3.0375644347017854, 7.8500000000000005 3.0375644347017854, 8.2 2.431346652052678, 8.9 2.431346652052678, 9.25 3.0375644347017854, 8.9 3.6437822173508927, 8.2 3.6437822173508927, 7.8500000000000005 4.25" fill="none" style="stroke:red;stroke-width:0.001"/>
<polygon points="0 0, 0 20, 20 20, 20 0" fill="none" style="stroke:blue;stroke-width:0.1"/>
<polygon points="6.1000000000000005 3.6437822173508927, 5.75 3.037564434701789, 6.1 2.4313466520526816, 6.8 2.431346652052678, 7.15 3.0375644347017854, 6.800000000000001 3.6437822173508927" fill="none" style="stroke:red;stroke-width:0.001"/>
<polygon points="0 0, 0 20, 20 20, 20 0" fill="none" style="stroke:blue;stroke-width:0.1"/>
<polygon points="7.150000000000001 4.25, 6.800000000000001 3.6437822173508927, 6.1000000000000005 3.6437822173508927, 5.75 3.037564434701789, 6.1 2.4313466520526816, 6.8 2.431346652052678, 7.15 3.0375644347017854, 7.8500000000000005 3.0375644347017854, 8.2 2.431346652052678, 8.9 2.431346652052678, 9.25 3.0375644347017854, 8.9 3.6437822173508927, 8.2 3.6437822173508927, 7.8500000000000005 4.25" fill="none" style="stroke:black;stroke-width:0.005"/>
<polygon points="0 0, 0 20, 20 20, 20 0" fill="none" style="stroke:blue;stroke-width:0.1"/>
<text x="5.0" y="5.0" font-family="Verdana" font-size="0.25">3</text>
<polygon points="5.0 5.0, 5.0 0.0, 10.0 0.0, 10.0 5.0" fill="none" style="stroke:black;stroke-width:0.001"/>
<polygon points="0 0, 0 20, 20 20, 20 0" fill="none" style="stroke:blue;stroke-width:0.1"/>
<polygon points="7.1499999999999995 8.643782217350891, 6.799999999999999 8.037564434701785, 7.149999999999999 7.431346652052678, 7.85 7.431346652052678, 8.2 6.825128869403571, 8.899999999999999 6.825128869403571, 9.249999999999998 7.431346652052678, 8.899999999999999 8.037564434701784, 8.2 8.037564434701784, 7.85 8.643782217350891" fill="none" style="stroke:red;stroke-width:0.001"/>
<polygon points="0 0, 0 20, 20 20, 20 0" fill="none" style="stroke:blue;stroke-width:0.1"/>
<polygon points="6.100000000000001 9.25, 5.75 8.643782217350894, 6.1 8.037564434701785, 6.799999999999999 8.037564434701785, 7.1499999999999995 8.643782217350891, 6.800000000000001 9.249999999999998" fill="none" style="stroke:red;stroke-width:0.001"/>
<polygon points="0 0, 0 20, 20 20, 20 0" fill="none" style="stroke:blue;stroke-width:0.1"/>
<polygon points="6.100000000000001 9.25, 5.75 8.643782217350894, 6.1 8.037564434701785, 6.799999999999999 8.037564434701785, 7.149999999999999 7.431346652052678, 7.85 7.431346652052678, 8.2 6.825128869403571, 8.899999999999999 6.825128869403571, 9.249999999999998 7.431346652052678, 8.899999999999999 8.037564434701784, 8.2 8.037564434701784, 7.85 8.643782217350891, 7.1499999999999995 8.643782217350891, 6.800000000000001 9.249999999999998" fill="none" style="stroke:black;stroke-width:0.005"/>
<polygon points="0 0, 0 20, 20 20, 20 0" fill="none" style="stroke:blue;stroke-width:0.1"/>
<text x="5.0" y="10.0" font-family="Verdana" font-size="0.25">3</text>
<polygon points="5.0 10.0, 5.0 5.0, 10.0 5.0, 10.0 10.0" fill="none" style="stroke:black;stroke-width:0.001"/>
<polygon points="0 0, 0 20, 20 20, 20 0" fill="none" style="stroke:blue;stroke-width:0.1"/>
<polygon points="11.100000000000001 4.25, 10.750000000000002 3.6437822173508927, 11.1 3.0375644347017854, 11.8 3.0375644347017854, 12.15 2.431346652052678, 12.850000000000001 2.431346652052678, 13.2 3.0375644347017854, 12.850000000000001 3.6437822173508927, 12.15 3.6437822173508927, 11.8 4.25" fill="none" style="stroke:red;stroke-width:0.001"/>
<polygon points="0 0, 0 20, 20 20, 20 0" fill="none" style="stroke:blue;stroke-width:0.1"/>
<polygon points="11.1 3.0375644347017854, 10.75 2.431346652052678, 11.1 1.8251288694035708, 11.799999999999999 1.8251288694035708, 12.15 2.431346652052678, 11.8 3.0375644347017854" fill="none" style="stroke:red;stroke-width:0.001"/>
<polygon points="0 0, 0 20, 20 20, 20 0" fill="none" style="stroke:blue;stroke-width:0.1"/>
<polygon points="11.100000000000001 4.25, 10.750000000000002 3.6437822173508927, 11.1 3.0375644347017854, 10.75 2.431346652052678, 11.1 1.8251288694035708, 11.799999999999999 1.8251288694035708, 12.15 2.431346652052678, 12.850000000000001 2.431346652052678, 13.2 3.0375644347017854, 12.850000000000001 3.6437822173508927, 12.15 3.6437822173508927, 11.8 4.25" fill="none" style="stroke:black;stroke-width:0.005"/>
<polygon points="0 0, 0 20, 20 20, 20 0" fill="none" style="stroke:blue;stroke-width:0.1"/>
<text x="10.0" y="5.0" font-family="Verdana" font-size="0.25">3</text>
<polygon points="10.0 5.0, 10.0 0.0, 15.0 0.0, 15.0 5.0" fill="none" style="stroke:black;stroke-width:0.001"/>
</svg>
