<svg width="800" height="800" viewBox="0 0 20 20" preserveAspectRatio="xMinYMin meet" xmlns="http://www.w3.org/2000/svg">
<polygon points="0 0, 0 20, 20 20, 20 0" fill="none" style="stroke:blue;stroke-width:0.1"/>
<polygon points="0.75 4.25, 2.4999999999999996 2.5, 2.4999999999999996 4.25" fill="none" style="stroke:black;stroke-width:0.05"/>
<polygon points="0 0, 0 20, 20 20, 20 0" fill="none" style="stroke:blue;stroke-width:0.1"/>
<text x="0.0" y="5.0" font-family="Verdana" font-size="0.25">#blocks: 1</text>
<polygon points="0.0 5.0, 0.0 0.0, 5.0 0.0, 5.0 5.0" fill="none" style="stroke:black;stroke-width:0.01"/>
<polygon points="0 0, 0 20, 20 20, 20 0" fill="none" style="stroke:blue;stroke-width:0.1"/>
<polygon points="0.7500000000000002 9.25, 2.4999999999999996 7.5, 2.4999999999999996 9.25" fill="none" style="stroke:red;stroke-width:0.01"/>
<polygon points="0 0, 0 20, 20 20, 20 0" fill="none" style="stroke:blue;stroke-width:0.1"/>
<polygon points="0.7500000000000002 9.25, 0.75 7.5, 2.4999999999999996 7.5" fill="none" style="stroke:red;stroke-width:0.01"/>
<polygon points="0 0, 0 20, 20 20, 20 0" fill="none" style="stroke:blue;stroke-width:0.1"/>
<polygon points="0.7500000000000002 9.25, 0.75 7.5, 2.4999999999999996 7.5, 2.4999999999999996 9.25" fill="none" style="stroke:black;stroke-width:0.05"/>
<polygon points="0 0, 0 20, 20 20, 20 0" fill="none" style="stroke:blue;stroke-width:0.1"/>
<text x="0.0" y="10.0" font-family="Verdana" font-size="0.25">#blocks: 2</text>
<polygon points="0.0 10.0, 0.0 5.0, 5.0 5.0, 5.0 10.0" fill="none" style="stroke:black;stroke-width:0.01"/>
<polygon points="0 0, 0 20, 20 20, 20 0" fill="none" style="stroke:blue;stroke-width:0.1"/>
<polygon points="5.75 4.25, 7.5 2.5, 7.5 4.25" fill="none" style="stroke:red;stroke-width:0.01"/>
<polygon points="0 0, 0 20, 20 20, 20 0" fill="none" style="stroke:blue;stroke-width:0.1"/>
<polygon points="7.5 4.25, 7.499999999999999 2.5, 9.25 2.5" fill="none" style="stroke:red;stroke-width:0.01"/>
<polygon points="0 0, 0 20, 20 20, 20 0" fill="none" style="stroke:blue;stroke-width:0.1"/>
<polygon points="5.75 4.25, 7.499999999999999 2.5, 9.25 2.5, 7.5 4.25" fill="none" style="stroke:black;stroke-width:0.05"/>
<polygon points="0 0, 0 20, 20 20, 20 0" fill="none" style="stroke:blue;stroke-width:0.1"/>
<text x="5.0" y="5.0" font-family="Verdana" font-size="0.25">#blocks: 2</text>
<polygon points="5.0 5.0, 5.0 0.0, 10.0 0.0, 10.0 5.0" fill="none" style="stroke:black;stroke-width:0.01"/>
<polygon points="0 0, 0 20, 20 20, 20 0" fill="none" style="stroke:blue;stroke-width:0.1"/>
<polygon points="5.75 9.25, 7.5 7.5, 7.5 9.25" fill="none" style="stroke:red;stroke-width:0.01"/>
<polygon points="0 0, 0 20, 20 20, 20 0" fill="none" style="stroke:blue;stroke-width:0.1"/>
<polygon points="7.499999999999999 9.25, 7.5 7.5, 9.25 9.25" fill="none" style="stroke:red;stroke-width:0.01"/>
<polygon points="0 0, 0 20, 20 20, 20 0" fill="none" style="stroke:blue;stroke-width:0.1"/>
<polygon points="5.75 9.25, 7.5 7.5, 9.25 9.25, 7.5 9.25" fill="none" style="stroke:black;stroke-width:0.05"/>
<polygon points="0 0, 0 20, 20 20, 20 0" fill="none" style="stroke:blue;stroke-width:0.1"/>
<text x="5.0" y="10.0" font-family="Verdana" font-size="0.25">#blocks: 2</text>
<polygon points="5.0 10.0, 5.0 5.0, 10.0 5.0, 10.0 10.0" fill="none" style="stroke:black;stroke-width:0.01"/>
<polygon points="0 0, 0 20, 20 20, 20 0" fill="none" style="stroke:blue;stroke-width:0.1"/>
<polygon points="10.75 4.25, 12.5 2.5, 14.25 2.5, 12.5 4.25" fill="none" style="stroke:red;stroke-width:0.01"/>
<polygon points="0 0, 0 20, 20 20, 20 0" fill="none" style="stroke:blue;stroke-width:0.1"/>
<polygon points="12.5 2.5, 12.499999999999998 0.75, 14.25 2.5" fill="none" style="stroke:red;stroke-width:0.01"/>
<polygon points="0 0, 0 20, 20 20, 20 0" fill="none" style="stroke:blue;stroke-width:0.1"/>
<polygon points="10.75 4.25, 12.5 2.5, 12.499999999999998 0.75, 14.25 2.5, 12.5 4.25" fill="none" style="stroke:black;stroke-width:0.05"/>
<polygon points="0 0, 0 20, 20 20, 20 0" fill="none" style="stroke:blue;stroke-width:0.1"/>
<text x="10.0" y="5.0" font-family="Verdana" font-size="0.25">#blocks: 3</text>
<polygon points="10.0 5.0, 10.0 0.0, 15.0 0.0, 15.0 5.0" fill="none" style="stroke:black;stroke-width:0.01"/>
<polygon points="0 0, 0 20, 20 20, 20 0" fill="none" style="stroke:blue;stroke-width:0.1"/>
<polygon points="10.75 9.25, 12.5 7.5, 14.25 7.5, 12.5 9.25" fill="none" style="stroke:red;stroke-width:0.01"/>
<polygon points="0 0, 0 20, 20 20, 20 0" fill="none" style="stroke:blue;stroke-width:0.1"/>
<polygon points="12.5 7.5, 14.249999999999998 5.75, 14.25 7.5" fill="none" style="stroke:red;stroke-width:0.01"/>
<polygon points="0 0, 0 20, 20 20, 20 0" fill="none" style="stroke:blue;stroke-width:0.1"/>
<polygon points="10.75 9.25, 12.5 7.5, 14.249999999999998 5.75, 14.25 7.5, 12.5 9.25" fill="none" style="stroke:black;stroke-width:0.05"/>
<polygon points="0 0, 0 20, 20 20, 20 0" fill="none" style="stroke:blue;stroke-width:0.1"/>
<text x="10.0" y="10.0" font-family="Verdana" font-size="0.25">#blocks: 3</text>
<polygon points="10.0 10.0, 10.0 5.0, 15.0 5.0, 15.0 10.0" fill="none" style="stroke:black;stroke-width:0.01"/>
<polygon points="0 0, 0 20, 20 20, 20 0" fill="none" style="stroke:blue;stroke-width:0.1"/>
<polygon points="17.5 4.25, 17.5 2.5, 19.25 2.5, 19.25 4.25" fill="none" style="stroke:red;stroke-width:0.01"/>
<polygon points="0 0, 0 20, 20 20, 20 0" fill="none" style="stroke:blue;stroke-width:0.1"/>
<polygon points="17.5 4.25, 15.75 2.5, 17.5 2.5" fill="none" style="stroke:red;stroke-width:0.01"/>
<polygon points="0 0, 0 20, 20 20, 20 0" fill="none" style="stroke:blue;stroke-width:0.1"/>
<polygon points="17.5 4.25, 15.75 2.5, 17.5 2.5, 19.25 2.5, 19.25 4.25" fill="none" style="stroke:black;stroke-width:0.05"/>
<polygon points="0 0, 0 20, 20 20, 20 0" fill="none" style="stroke:blue;stroke-width:0.1"/>
<text x="15.0" y="5.0" font-family="Verdana" font-size="0.25">#blocks: 3</text>
<polygon points="15.0 5.0, 15.0 0.0, 20.0 0.0, 20.0 5.0" fill="none" style="stroke:black;stroke-width:0.01"/>
<polygon points="0 0, 0 20, 20 20, 20 0" fill="none" style="stroke:blue;stroke-width:0.1"/>
<polygon points="15.75 7.5, 17.5 5.75, 19.25 7.5, 17.5 7.5" fill="none" style="stroke:red;stroke-width:0.01"/>
<polygon points="0 0, 0 20, 20 20, 20 0" fill="none" style="stroke:blue;stroke-width:0.1"/>
<polygon points="17.5 9.25, 17.5 7.5, 19.25 7.5" fill="none" style="stroke:red;stroke-width:0.01"/>
<polygon points="0 0, 0 20, 20 20, 20 0" fill="none" style="stroke:blue;stroke-width:0.1"/>
<polygon points="17.5 9.25, 17.5 7.5, 15.75 7.5, 17.5 5.75, 19.25 7.5" fill="none" style="stroke:black;stroke-width:0.05"/>
<polygon points="0 0, 0 20, 20 20, 20 0" fill="none" style="stroke:blue;stroke-width:0.1"/>
<text x="15.0" y="10.0" font-family="Verdana" font-size="0.25">#blocks: 3</text>
<polygon points="15.0 10.0, 15.0 5.0, 20.0 5.0, 20.0 10.0" fill="none" style="stroke:black;stroke-width:0.01"/>
</svg>
