<svg width="800" height="800" viewBox="0 0 20 20" preserveAspectRatio="xMinYMin meet" xmlns="http://www.w3.org/2000/svg">
<polygon points="0 0, 0 20, 20 20, 20 0" fill="none" style="stroke:blue;stroke-width:0.1"/>
<polygon points="0.75 4.25, 2.5 2.5, 2.5 4.25" fill="none" style="stroke:black;stroke-width:0.05"/>
<polygon points="0 0, 0 20, 20 20, 20 0" fill="none" style="stroke:blue;stroke-width:0.1"/>
<text x="0.0" y="5.0" font-family="Verdana" font-size="0.25">#blocks: 1</text>
<polygon points="0.0 5.0, 0.0 0.0, 5.0 0.0, 5.0 5.0" fill="none" style="stroke:black;stroke-width:0.01"/>
<polygon points="0 0, 0 20, 20 20, 20 0" fill="none" style="stroke:blue;stroke-width:0.1"/>
<polygon points="0.7500000000000002 9.25, 2.5 7.5, 2.5 9.25" fill="none" style="stroke:red;stroke-width:0.01"/>
<polygon points="0 0, 0 20, 20 20, 20 0" fill="none" style="stroke:blue;stroke-width:0.1"/>
<polygon points="0.7500000000000002 9.25, 0.75 7.5, 2.5 7.5" fill="none" style="stroke:red;stroke-width:0.01"/>
<polygon points="0 0, 0 20, 20 20, 20 0" fill="none" style="stroke:blue;stroke-width:0.1"/>
<polygon points="0.7500000000000002 9.25, 0.75 7.5, 2.5 7.5, 2.5 9.25" fill="none" style="stroke:black;stroke-width:0.05"/>
<polygon points="0 0, 0 20, 20 20, 20 0" fill="none" style="stroke:blue;stroke-width:0.1"/>
<text x="0.0" y="10.0" font-family="Verdana" font-size="0.25">#blocks: 2</text>
<polygon points="0.0 10.0, 0.0 5.0, 5.0 5.0, 5.0 10.0" fill="none" style="stroke:black;stroke-width:0.01"/>
<polygon points="0 0, 0 20, 20 20, 20 0" fill="none" style="stroke:blue;stroke-width:0.1"/>
<polygon points="5.75 4.25, 7.5 2.5, 7.5 4.25" fill="none" style="stroke:red;stroke-width:0.01"/>
<polygon points="0 0, 0 20, 20 20, 20 0" fill="none" style="stroke:blue;stroke-width:0.1"/>
<polygon points="7.5 4.25, 7.5 2.5, 9.25 2.5" fill="none" style="stroke:red;stroke-width:0.01"/>
<polygon points="0 0, 0 20, 20 20, 20 0" fill="none" style="stroke:blue;stroke-width:0.1"/>
<polygon points="5.75 4.25, 7.5 2.5, 9.25 2.5, 7.5 4.25" fill="none" style="stroke:black;stroke-width:0.05"/>
<polygon points="0 0, 0 20, 20 20, 20 0" fill="none" style="stroke:blue;stroke-width:0.1"/>
<text x="5.0" y="5.0" font-family="Verdana" font-size="0.25">#blocks: 2</text>
<polygon points="5.0 5.0, 5.0 0.0, 10.0 0.0, 10.0 5.0" fill="none" style="stroke:black;stroke-width:0.01"/>
<polygon points="0 0, 0 20, 20 20, 20 0" fill="none" style="stroke:blue;stroke-width:0.1"/>
<polygon points="5.75 9.25, 7.5 7.5, 7.5 9.25" fill="none" style="stroke:red;stroke-width:0.01"/>
<polygon points="0 0, 0 20, 20 20, 20 0" fill="none" style="stroke:blue;stroke-width:0.1"/>
<polygon points="7.5 9.25, 7.5 7.5, 9.25 9.25" fill="none" style="stroke:red;stroke-width:0.01"/>
<polygon points="0 0, 0 20, 20 20, 20 0" fill="none" style="stroke:blue;stroke-width:0.1"/>
<polygon points="5.75 9.25, 7.5 7.5, 9.25 9.25, 7.5 9.25" fill="none" style="stroke:black;stroke-width:0.05"/>
<polygon points="0 0, 0 20, 20 20, 20 0" fill="none" style="stroke:blue;stroke-width:0.1"/>
<text x="5.0" y="10.0" font-family="Verdana" font-size="0.25">#blocks: 2</text>
<polygon points="5.0 10.0, 5.0 5.0, 10.0 5.0, 10.0 10.0" fill="none" style="stroke:black;stroke-width:0.01"/>
</svg>
