<svg width="800" height="800" viewBox="0 0 20 20" preserveAspectRatio="xMinYMin meet" xmlns="http://www.w3.org/2000/svg">
<polygon points="0 0, 0 20, 20 20, 20 0" fill="none" style="stroke:blue;stroke-width:0.1"/>
<polygon points="0.3333333333333333 1.8888888888888893, 0.8518518518518519 1.3703703703703702, 0.8518518518518519 1.8888888888888893" fill="none" style="stroke:black;stroke-width:0.05"/>
<polygon points="0 0, 0 20, 20 20, 20 0" fill="none" style="stroke:blue;stroke-width:0.1"/>
<text x="0.0" y="2.2222222222222214" font-family="Verdana" font-size="0.25">#blocks: 1</text>
<polygon points="0.0 2.2222222222222214, 0.0 0.0, 2.2222222222222223 0.0, 2.2222222222222223 2.2222222222222214" fill="none" style="stroke:black;stroke-width:0.01"/>
<polygon points="0 0, 0 20, 20 20, 20 0" fill="none" style="stroke:blue;stroke-width:0.1"/>
<polygon points="0.33333333333333337 4.111111111111109, 0.8518518518518516 3.5925925925925917, 0.8518518518518516 4.111111111111109" fill="none" style="stroke:red;stroke-width:0.01"/>
<polygon points="0 0, 0 20, 20 20, 20 0" fill="none" style="stroke:blue;stroke-width:0.1"/>
<polygon points="0.33333333333333337 4.111111111111109, 0.3333333333333333 3.5925925925925917, 0.8518518518518516 3.5925925925925917" fill="none" style="stroke:red;stroke-width:0.01"/>
<polygon points="0 0, 0 20, 20 20, 20 0" fill="none" style="stroke:blue;stroke-width:0.1"/>
<polygon points="0.33333333333333337 4.111111111111109, 0.3333333333333333 3.5925925925925917, 0.8518518518518516 3.5925925925925917, 0.8518518518518516 4.111111111111109" fill="none" style="stroke:black;stroke-width:0.05"/>
<polygon points="0 0, 0 20, 20 20, 20 0" fill="none" style="stroke:blue;stroke-width:0.1"/>
<text x="0.0" y="4.444444444444443" font-family="Verdana" font-size="0.25">#blocks: 2</text>
<polygon points="0.0 4.444444444444443, 0.0 2.2222222222222214, 2.2222222222222223 2.2222222222222214, 2.2222222222222223 4.444444444444443" fill="none" style="stroke:black;stroke-width:0.01"/>
<polygon points="0 0, 0 20, 20 20, 20 0" fill="none" style="stroke:blue;stroke-width:0.1"/>
<polygon points="0.3333333333333333 6.333333333333332, 0.8518518518518516 5.814814814814813, 0.8518518518518516 6.333333333333332" fill="none" style="stroke:red;stroke-width:0.01"/>
<polygon points="0 0, 0 20, 20 20, 20 0" fill="none" style="stroke:blue;stroke-width:0.1"/>
<polygon points="0.8518518518518516 6.333333333333332, 0.8518518518518514 5.814814814814813, 1.3703703703703698 5.814814814814813" fill="none" style="stroke:red;stroke-width:0.01"/>
<polygon points="0 0, 0 20, 20 20, 20 0" fill="none" style="stroke:blue;stroke-width:0.1"/>
<polygon points="0.3333333333333333 6.333333333333332, 0.8518518518518514 5.814814814814813, 1.3703703703703698 5.814814814814813, 0.8518518518518516 6.333333333333332" fill="none" style="stroke:black;stroke-width:0.05"/>
<polygon points="0 0, 0 20, 20 20, 20 0" fill="none" style="stroke:blue;stroke-width:0.1"/>
<text x="0.0" y="6.666666666666666" font-family="Verdana" font-size="0.25">#blocks: 2</text>
<polygon points="0.0 6.666666666666666, 0.0 4.444444444444443, 2.2222222222222223 4.444444444444443, 2.2222222222222223 6.666666666666666" fill="none" style="stroke:black;stroke-width:0.01"/>
<polygon points="0 0, 0 20, 20 20, 20 0" fill="none" style="stroke:blue;stroke-width:0.1"/>
<polygon points="0.3333333333333333 8.555555555555555, 0.8518518518518516 8.037037037037036, 0.8518518518518516 8.555555555555555" fill="none" style="stroke:red;stroke-width:0.01"/>
<polygon points="0 0, 0 20, 20 20, 20 0" fill="none" style="stroke:blue;stroke-width:0.1"/>
<polygon points="0.8518518518518514 8.555555555555555, 0.8518518518518516 8.037037037037036, 1.3703703703703698 8.555555555555555" fill="none" style="stroke:red;stroke-width:0.01"/>
<polygon points="0 0, 0 20, 20 20, 20 0" fill="none" style="stroke:blue;stroke-width:0.1"/>
<polygon points="0.3333333333333333 8.555555555555555, 0.8518518518518516 8.037037037037036, 1.3703703703703698 8.555555555555555, 0.8518518518518516 8.555555555555555" fill="none" style="stroke:black;stroke-width:0.05"/>
<polygon points="0 0, 0 20, 20 20, 20 0" fill="none" style="stroke:blue;stroke-width:0.1"/>
<text x="0.0" y="8.88888888888889" font-family="Verdana" font-size="0.25">#blocks: 2</text>
<polygon points="0.0 8.88888888888889, 0.0 6.666666666666666, 2.2222222222222223 6.666666666666666, 2.2222222222222223 8.88888888888889" fill="none" style="stroke:black;stroke-width:0.01"/>
<polygon points="0 0, 0 20, 20 20, 20 0" fill="none" style="stroke:blue;stroke-width:0.1"/>
<polygon points="0.3333333333333333 10.777777777777777, 0.851851851851851 10.25925925925926, 1.3703703703703687 10.25925925925926, 0.851851851851851 10.777777777777777" fill="none" style="stroke:red;stroke-width:0.01"/>
<polygon points="0 0, 0 20, 20 20, 20 0" fill="none" style="stroke:blue;stroke-width:0.1"/>
<polygon points="0.851851851851851 10.25925925925926, 0.8518518518518507 9.74074074074074, 1.3703703703703687 10.25925925925926" fill="none" style="stroke:red;stroke-width:0.01"/>
<polygon points="0 0, 0 20, 20 20, 20 0" fill="none" style="stroke:blue;stroke-width:0.1"/>
<polygon points="0.3333333333333333 10.777777777777777, 0.851851851851851 10.25925925925926, 0.8518518518518507 9.74074074074074, 1.3703703703703687 10.25925925925926, 0.851851851851851 10.777777777777777" fill="none" style="stroke:black;stroke-width:0.05"/>
<polygon points="0 0, 0 20, 20 20, 20 0" fill="none" style="stroke:blue;stroke-width:0.1"/>
<text x="0.0" y="11.11111111111111" font-family="Verdana" font-size="0.25">#blocks: 3</text>
<polygon points="0.0 11.11111111111111, 0.0 8.88888888888889, 2.2222222222222223 8.88888888888889, 2.2222222222222223 11.11111111111111" fill="none" style="stroke:black;stroke-width:0.01"/>
<polygon points="0 0, 0 20, 20 20, 20 0" fill="none" style="stroke:blue;stroke-width:0.1"/>
<polygon points="0.3333333333333333 13.0, 0.8518518518518514 12.481481481481481, 1.3703703703703698 12.481481481481481, 0.8518518518518516 13.0" fill="none" style="stroke:red;stroke-width:0.01"/>
<polygon points="0 0, 0 20, 20 20, 20 0" fill="none" style="stroke:blue;stroke-width:0.1"/>
<polygon points="0.8518518518518514 12.481481481481481, 1.3703703703703696 11.962962962962964, 1.3703703703703698 12.481481481481481" fill="none" style="stroke:red;stroke-width:0.01"/>
<polygon points="0 0, 0 20, 20 20, 20 0" fill="none" style="stroke:blue;stroke-width:0.1"/>
<polygon points="0.3333333333333333 13.0, 0.8518518518518514 12.481481481481481, 1.3703703703703696 11.962962962962964, 1.3703703703703698 12.481481481481481, 0.8518518518518516 13.0" fill="none" style="stroke:black;stroke-width:0.05"/>
<polygon points="0 0, 0 20, 20 20, 20 0" fill="none" style="stroke:blue;stroke-width:0.1"/>
<text x="0.0" y="13.333333333333332" font-family="Verdana" font-size="0.25">#blocks: 3</text>
<polygon points="0.0 13.333333333333332, 0.0 11.11111111111111, 2.2222222222222223 11.11111111111111, 2.2222222222222223 13.333333333333332" fill="none" style="stroke:black;stroke-width:0.01"/>
<polygon points="0 0, 0 20, 20 20, 20 0" fill="none" style="stroke:blue;stroke-width:0.1"/>
<polygon points="0.8518518518518521 15.222222222222221, 0.8518518518518521 14.703703703703704, 1.3703703703703705 14.703703703703704, 1.3703703703703705 15.222222222222221" fill="none" style="stroke:red;stroke-width:0.01"/>
<polygon points="0 0, 0 20, 20 20, 20 0" fill="none" style="stroke:blue;stroke-width:0.1"/>
<polygon points="0.8518518518518521 15.222222222222221, 0.3333333333333333 14.703703703703704, 0.8518518518518519 14.703703703703704" fill="none" style="stroke:red;stroke-width:0.01"/>
<polygon points="0 0, 0 20, 20 20, 20 0" fill="none" style="stroke:blue;stroke-width:0.1"/>
<polygon points="0.8518518518518521 15.222222222222221, 0.3333333333333333 14.703703703703704, 0.8518518518518521 14.703703703703704, 1.3703703703703705 14.703703703703704, 1.3703703703703705 15.222222222222221" fill="none" style="stroke:black;stroke-width:0.05"/>
<polygon points="0 0, 0 20, 20 20, 20 0" fill="none" style="stroke:blue;stroke-width:0.1"/>
<text x="0.0" y="15.555555555555555" font-family="Verdana" font-size="0.25">#blocks: 3</text>
<polygon points="0.0 15.555555555555555, 0.0 13.333333333333332, 2.2222222222222223 13.333333333333332, 2.2222222222222223 15.555555555555555" fill="none" style="stroke:black;stroke-width:0.01"/>
<polygon points="0 0, 0 20, 20 20, 20 0" fill="none" style="stroke:blue;stroke-width:0.1"/>
<polygon points="2.555555555555556 1.3703703703703702, 3.0740740740740744 0.8518518518518512, 3.5925925925925926 1.3703703703703702, 3.0740740740740744 1.3703703703703702" fill="none" style="stroke:red;stroke-width:0.01"/>
<polygon points="0 0, 0 20, 20 20, 20 0" fill="none" style="stroke:blue;stroke-width:0.1"/>
<polygon points="3.0740740740740744 1.8888888888888893, 3.0740740740740744 1.3703703703703702, 3.5925925925925926 1.3703703703703702" fill="none" style="stroke:red;stroke-width:0.01"/>
<polygon points="0 0, 0 20, 20 20, 20 0" fill="none" style="stroke:blue;stroke-width:0.1"/>
<polygon points="3.0740740740740744 1.8888888888888893, 3.0740740740740744 1.3703703703703702, 2.555555555555556 1.3703703703703702, 3.0740740740740744 0.8518518518518512, 3.5925925925925926 1.3703703703703702" fill="none" style="stroke:black;stroke-width:0.05"/>
<polygon points="0 0, 0 20, 20 20, 20 0" fill="none" style="stroke:blue;stroke-width:0.1"/>
<text x="2.2222222222222223" y="2.2222222222222214" font-family="Verdana" font-size="0.25">#blocks: 3</text>
<polygon points="2.2222222222222223 2.2222222222222214, 2.2222222222222223 0.0, 4.444444444444445 0.0, 4.444444444444445 2.2222222222222214" fill="none" style="stroke:black;stroke-width:0.01"/>
<polygon points="0 0, 0 20, 20 20, 20 0" fill="none" style="stroke:blue;stroke-width:0.1"/>
<polygon points="2.555555555555556 3.5925925925925917, 3.074074074074074 3.0740740740740726, 3.074074074074074 2.5555555555555536, 3.5925925925925926 3.0740740740740726, 3.074074074074074 3.5925925925925917" fill="none" style="stroke:red;stroke-width:0.01"/>
<polygon points="0 0, 0 20, 20 20, 20 0" fill="none" style="stroke:blue;stroke-width:0.1"/>
<polygon points="2.555555555555556 4.111111111111109, 2.555555555555556 3.5925925925925917, 3.074074074074074 3.5925925925925917" fill="none" style="stroke:red;stroke-width:0.01"/>
<polygon points="0 0, 0 20, 20 20, 20 0" fill="none" style="stroke:blue;stroke-width:0.1"/>
<polygon points="2.555555555555556 4.111111111111109, 2.555555555555556 3.5925925925925917, 3.074074074074074 3.0740740740740726, 3.074074074074074 2.5555555555555536, 3.5925925925925926 3.0740740740740726, 3.074074074074074 3.5925925925925917" fill="none" style="stroke:black;stroke-width:0.05"/>
<polygon points="0 0, 0 20, 20 20, 20 0" fill="none" style="stroke:blue;stroke-width:0.1"/>
<text x="2.2222222222222223" y="4.444444444444443" font-family="Verdana" font-size="0.25">#blocks: 4</text>
<polygon points="2.2222222222222223 4.444444444444443, 2.2222222222222223 2.2222222222222214, 4.444444444444445 2.2222222222222214, 4.444444444444445 4.444444444444443" fill="none" style="stroke:black;stroke-width:0.01"/>
<polygon points="0 0, 0 20, 20 20, 20 0" fill="none" style="stroke:blue;stroke-width:0.1"/>
<polygon points="2.555555555555556 5.814814814814813, 3.074074074074074 5.296296296296296, 3.074074074074074 4.777777777777777, 3.5925925925925926 5.296296296296296, 3.074074074074074 5.814814814814813" fill="none" style="stroke:red;stroke-width:0.01"/>
<polygon points="0 0, 0 20, 20 20, 20 0" fill="none" style="stroke:blue;stroke-width:0.1"/>
<polygon points="3.074074074074074 6.333333333333332, 2.555555555555556 5.814814814814813, 3.074074074074074 5.814814814814813" fill="none" style="stroke:red;stroke-width:0.01"/>
<polygon points="0 0, 0 20, 20 20, 20 0" fill="none" style="stroke:blue;stroke-width:0.1"/>
<polygon points="3.074074074074074 6.333333333333332, 2.555555555555556 5.814814814814813, 3.074074074074074 5.296296296296296, 3.074074074074074 4.777777777777777, 3.5925925925925926 5.296296296296296, 3.074074074074074 5.814814814814813" fill="none" style="stroke:black;stroke-width:0.05"/>
<polygon points="0 0, 0 20, 20 20, 20 0" fill="none" style="stroke:blue;stroke-width:0.1"/>
<text x="2.2222222222222223" y="6.666666666666666" font-family="Verdana" font-size="0.25">#blocks: 4</text>
<polygon points="2.2222222222222223 6.666666666666666, 2.2222222222222223 4.444444444444443, 4.444444444444445 4.444444444444443, 4.444444444444445 6.666666666666666" fill="none" style="stroke:black;stroke-width:0.01"/>
<polygon points="0 0, 0 20, 20 20, 20 0" fill="none" style="stroke:blue;stroke-width:0.1"/>
<polygon points="2.555555555555556 8.555555555555555, 3.074074074074074 8.037037037037036, 3.592592592592592 7.518518518518519, 3.5925925925925926 8.037037037037036, 3.074074074074074 8.555555555555555" fill="none" style="stroke:red;stroke-width:0.01"/>
<polygon points="0 0, 0 20, 20 20, 20 0" fill="none" style="stroke:blue;stroke-width:0.1"/>
<polygon points="3.5925925925925926 8.037037037037036, 3.592592592592592 7.518518518518519, 4.111111111111111 7.518518518518519" fill="none" style="stroke:red;stroke-width:0.01"/>
<polygon points="0 0, 0 20, 20 20, 20 0" fill="none" style="stroke:blue;stroke-width:0.1"/>
<polygon points="2.555555555555556 8.555555555555555, 3.074074074074074 8.037037037037036, 3.592592592592592 7.518518518518519, 4.111111111111111 7.518518518518519, 3.5925925925925926 8.037037037037036, 3.074074074074074 8.555555555555555" fill="none" style="stroke:black;stroke-width:0.05"/>
<polygon points="0 0, 0 20, 20 20, 20 0" fill="none" style="stroke:blue;stroke-width:0.1"/>
<text x="2.2222222222222223" y="8.88888888888889" font-family="Verdana" font-size="0.25">#blocks: 4</text>
<polygon points="2.2222222222222223 8.88888888888889, 2.2222222222222223 6.666666666666666, 4.444444444444445 6.666666666666666, 4.444444444444445 8.88888888888889" fill="none" style="stroke:black;stroke-width:0.01"/>
<polygon points="0 0, 0 20, 20 20, 20 0" fill="none" style="stroke:blue;stroke-width:0.1"/>
<polygon points="3.0740740740740735 10.777777777777777, 3.0740740740740735 10.25925925925926, 2.555555555555556 10.25925925925926, 3.0740740740740735 9.74074074074074, 3.5925925925925912 10.25925925925926" fill="none" style="stroke:red;stroke-width:0.01"/>
<polygon points="0 0, 0 20, 20 20, 20 0" fill="none" style="stroke:blue;stroke-width:0.1"/>
<polygon points="3.0740740740740735 10.777777777777777, 2.555555555555556 10.25925925925926, 3.0740740740740735 10.25925925925926" fill="none" style="stroke:red;stroke-width:0.01"/>
<polygon points="0 0, 0 20, 20 20, 20 0" fill="none" style="stroke:blue;stroke-width:0.1"/>
<polygon points="3.0740740740740735 10.777777777777777, 2.555555555555556 10.25925925925926, 3.0740740740740735 9.74074074074074, 3.5925925925925912 10.25925925925926" fill="none" style="stroke:black;stroke-width:0.05"/>
<polygon points="0 0, 0 20, 20 20, 20 0" fill="none" style="stroke:blue;stroke-width:0.1"/>
<text x="2.2222222222222223" y="11.11111111111111" font-family="Verdana" font-size="0.25">#blocks: 4</text>
<polygon points="2.2222222222222223 11.11111111111111, 2.2222222222222223 8.88888888888889, 4.444444444444445 8.88888888888889, 4.444444444444445 11.11111111111111" fill="none" style="stroke:black;stroke-width:0.01"/>
<polygon points="0 0, 0 20, 20 20, 20 0" fill="none" style="stroke:blue;stroke-width:0.1"/>
<polygon points="2.555555555555556 13.0, 3.074074074074074 12.481481481481481, 3.074074074074074 11.962962962962964, 3.5925925925925926 12.481481481481481, 3.0740740740740744 13.0" fill="none" style="stroke:red;stroke-width:0.01"/>
<polygon points="0 0, 0 20, 20 20, 20 0" fill="none" style="stroke:blue;stroke-width:0.1"/>
<polygon points="3.074074074074074 12.481481481481481, 2.555555555555556 11.962962962962964, 3.074074074074074 11.962962962962964" fill="none" style="stroke:red;stroke-width:0.01"/>
<polygon points="0 0, 0 20, 20 20, 20 0" fill="none" style="stroke:blue;stroke-width:0.1"/>
<polygon points="2.555555555555556 13.0, 3.074074074074074 12.481481481481481, 2.555555555555556 11.962962962962964, 3.074074074074074 11.962962962962964, 3.5925925925925926 12.481481481481481, 3.0740740740740744 13.0" fill="none" style="stroke:black;stroke-width:0.05"/>
<polygon points="0 0, 0 20, 20 20, 20 0" fill="none" style="stroke:blue;stroke-width:0.1"/>
<text x="2.2222222222222223" y="13.333333333333332" font-family="Verdana" font-size="0.25">#blocks: 4</text>
<polygon points="2.2222222222222223 13.333333333333332, 2.2222222222222223 11.11111111111111, 4.444444444444445 11.11111111111111, 4.444444444444445 13.333333333333332" fill="none" style="stroke:black;stroke-width:0.01"/>
<polygon points="0 0, 0 20, 20 20, 20 0" fill="none" style="stroke:blue;stroke-width:0.1"/>
<polygon points="2.555555555555556 15.222222222222221, 3.0740740740740744 14.703703703703704, 3.074074074074074 14.185185185185185, 3.5925925925925926 14.703703703703704, 3.0740740740740744 15.222222222222221" fill="none" style="stroke:red;stroke-width:0.01"/>
<polygon points="0 0, 0 20, 20 20, 20 0" fill="none" style="stroke:blue;stroke-width:0.1"/>
<polygon points="3.5925925925925926 14.703703703703702, 3.074074074074074 14.185185185185185, 3.5925925925925926 14.185185185185185" fill="none" style="stroke:red;stroke-width:0.01"/>
<polygon points="0 0, 0 20, 20 20, 20 0" fill="none" style="stroke:blue;stroke-width:0.1"/>
<polygon points="2.555555555555556 15.222222222222221, 3.0740740740740744 14.703703703703704, 3.074074074074074 14.185185185185185, 3.5925925925925926 14.185185185185185, 3.5925925925925926 14.703703703703704, 3.0740740740740744 15.222222222222221" fill="none" style="stroke:black;stroke-width:0.05"/>
<polygon points="0 0, 0 20, 20 20, 20 0" fill="none" style="stroke:blue;stroke-width:0.1"/>
<text x="2.2222222222222223" y="15.555555555555555" font-family="Verdana" font-size="0.25">#blocks: 4</text>
<polygon points="2.2222222222222223 15.555555555555555, 2.2222222222222223 13.333333333333332, 4.444444444444445 13.333333333333332, 4.444444444444445 15.555555555555555" fill="none" style="stroke:black;stroke-width:0.01"/>
<polygon points="0 0, 0 20, 20 20, 20 0" fill="none" style="stroke:blue;stroke-width:0.1"/>
<polygon points="4.777777777777778 1.8888888888888893, 5.296296296296296 1.3703703703703702, 5.296296296296296 0.8518518518518512, 5.814814814814815 1.3703703703703702, 5.296296296296297 1.8888888888888893" fill="none" style="stroke:red;stroke-width:0.01"/>
<polygon points="0 0, 0 20, 20 20, 20 0" fill="none" style="stroke:blue;stroke-width:0.1"/>
<polygon points="5.296296296296297 1.8888888888888893, 5.814814814814815 1.3703703703703702, 5.814814814814815 1.8888888888888893" fill="none" style="stroke:red;stroke-width:0.01"/>
<polygon points="0 0, 0 20, 20 20, 20 0" fill="none" style="stroke:blue;stroke-width:0.1"/>
<polygon points="4.777777777777778 1.8888888888888893, 5.296296296296296 1.3703703703703702, 5.296296296296296 0.8518518518518512, 5.814814814814815 1.3703703703703702, 5.814814814814815 1.8888888888888893, 5.296296296296297 1.8888888888888893" fill="none" style="stroke:black;stroke-width:0.05"/>
<polygon points="0 0, 0 20, 20 20, 20 0" fill="none" style="stroke:blue;stroke-width:0.1"/>
<text x="4.444444444444445" y="2.2222222222222214" font-family="Verdana" font-size="0.25">#blocks: 4</text>
<polygon points="4.444444444444445 2.2222222222222214, 4.444444444444445 0.0, 6.666666666666667 0.0, 6.666666666666667 2.2222222222222214" fill="none" style="stroke:black;stroke-width:0.01"/>
<polygon points="0 0, 0 20, 20 20, 20 0" fill="none" style="stroke:blue;stroke-width:0.1"/>
<polygon points="4.777777777777778 4.111111111111109, 5.296296296296296 3.5925925925925917, 5.296296296296296 3.0740740740740726, 5.814814814814814 3.5925925925925917, 5.296296296296296 4.111111111111109" fill="none" style="stroke:red;stroke-width:0.01"/>
<polygon points="0 0, 0 20, 20 20, 20 0" fill="none" style="stroke:blue;stroke-width:0.1"/>
<polygon points="4.777777777777778 4.111111111111109, 4.777777777777778 3.5925925925925917, 5.296296296296296 3.5925925925925917" fill="none" style="stroke:red;stroke-width:0.01"/>
<polygon points="0 0, 0 20, 20 20, 20 0" fill="none" style="stroke:blue;stroke-width:0.1"/>
<polygon points="4.777777777777778 4.111111111111109, 4.777777777777778 3.5925925925925917, 5.296296296296296 3.5925925925925917, 5.296296296296296 3.0740740740740726, 5.814814814814814 3.5925925925925917, 5.296296296296296 4.111111111111109" fill="none" style="stroke:black;stroke-width:0.05"/>
<polygon points="0 0, 0 20, 20 20, 20 0" fill="none" style="stroke:blue;stroke-width:0.1"/>
<text x="4.444444444444445" y="4.444444444444443" font-family="Verdana" font-size="0.25">#blocks: 4</text>
<polygon points="4.444444444444445 4.444444444444443, 4.444444444444445 2.2222222222222214, 6.666666666666667 2.2222222222222214, 6.666666666666667 4.444444444444443" fill="none" style="stroke:black;stroke-width:0.01"/>
<polygon points="0 0, 0 20, 20 20, 20 0" fill="none" style="stroke:blue;stroke-width:0.1"/>
<polygon points="4.777777777777778 6.333333333333332, 5.296296296296296 5.814814814814813, 5.814814814814814 5.296296296296296, 5.814814814814814 5.814814814814813, 5.296296296296296 6.333333333333332" fill="none" style="stroke:red;stroke-width:0.01"/>
<polygon points="0 0, 0 20, 20 20, 20 0" fill="none" style="stroke:blue;stroke-width:0.1"/>
<polygon points="5.296296296296296 6.333333333333332, 5.814814814814814 5.814814814814813, 5.814814814814814 6.333333333333332" fill="none" style="stroke:red;stroke-width:0.01"/>
<polygon points="0 0, 0 20, 20 20, 20 0" fill="none" style="stroke:blue;stroke-width:0.1"/>
<polygon points="4.777777777777778 6.333333333333332, 5.296296296296296 5.814814814814813, 5.814814814814814 5.296296296296296, 5.814814814814814 5.814814814814813, 5.814814814814814 6.333333333333332, 5.296296296296296 6.333333333333332" fill="none" style="stroke:black;stroke-width:0.05"/>
<polygon points="0 0, 0 20, 20 20, 20 0" fill="none" style="stroke:blue;stroke-width:0.1"/>
<text x="4.444444444444445" y="6.666666666666666" font-family="Verdana" font-size="0.25">#blocks: 4</text>
<polygon points="4.444444444444445 6.666666666666666, 4.444444444444445 4.444444444444443, 6.666666666666667 4.444444444444443, 6.666666666666667 6.666666666666666" fill="none" style="stroke:black;stroke-width:0.01"/>
<polygon points="0 0, 0 20, 20 20, 20 0" fill="none" style="stroke:blue;stroke-width:0.1"/>
<polygon points="5.296296296296296 8.555555555555555, 4.777777777777778 8.037037037037036, 5.296296296296296 8.037037037037036, 5.814814814814815 8.037037037037036, 5.814814814814815 8.555555555555555" fill="none" style="stroke:red;stroke-width:0.01"/>
<polygon points="0 0, 0 20, 20 20, 20 0" fill="none" style="stroke:blue;stroke-width:0.1"/>
<polygon points="4.777777777777778 8.555555555555555, 4.777777777777778 8.037037037037036, 5.296296296296296 8.555555555555555" fill="none" style="stroke:red;stroke-width:0.01"/>
<polygon points="0 0, 0 20, 20 20, 20 0" fill="none" style="stroke:blue;stroke-width:0.1"/>
<polygon points="4.777777777777778 8.555555555555555, 4.777777777777778 8.037037037037036, 5.296296296296296 8.037037037037036, 5.814814814814815 8.037037037037036, 5.814814814814815 8.555555555555555, 5.296296296296296 8.555555555555555" fill="none" style="stroke:black;stroke-width:0.05"/>
<polygon points="0 0, 0 20, 20 20, 20 0" fill="none" style="stroke:blue;stroke-width:0.1"/>
<text x="4.444444444444445" y="8.88888888888889" font-family="Verdana" font-size="0.25">#blocks: 4</text>
<polygon points="4.444444444444445 8.88888888888889, 4.444444444444445 6.666666666666666, 6.666666666666667 6.666666666666666, 6.666666666666667 8.88888888888889" fill="none" style="stroke:black;stroke-width:0.01"/>
<polygon points="0 0, 0 20, 20 20, 20 0" fill="none" style="stroke:blue;stroke-width:0.1"/>
<polygon points="5.296296296296296 10.777777777777777, 4.777777777777778 10.25925925925926, 5.296296296296296 10.25925925925926, 5.814814814814813 10.25925925925926, 5.814814814814813 10.777777777777777" fill="none" style="stroke:red;stroke-width:0.01"/>
<polygon points="0 0, 0 20, 20 20, 20 0" fill="none" style="stroke:blue;stroke-width:0.1"/>
<polygon points="5.296296296296296 10.25925925925926, 5.296296296296296 9.74074074074074, 5.814814814814813 10.25925925925926" fill="none" style="stroke:red;stroke-width:0.01"/>
<polygon points="0 0, 0 20, 20 20, 20 0" fill="none" style="stroke:blue;stroke-width:0.1"/>
<polygon points="5.296296296296296 10.777777777777777, 4.777777777777778 10.25925925925926, 5.296296296296296 10.25925925925926, 5.296296296296296 9.74074074074074, 5.814814814814813 10.25925925925926, 5.814814814814813 10.777777777777777" fill="none" style="stroke:black;stroke-width:0.05"/>
<polygon points="0 0, 0 20, 20 20, 20 0" fill="none" style="stroke:blue;stroke-width:0.1"/>
<text x="4.444444444444445" y="11.11111111111111" font-family="Verdana" font-size="0.25">#blocks: 4</text>
<polygon points="4.444444444444445 11.11111111111111, 4.444444444444445 8.88888888888889, 6.666666666666667 8.88888888888889, 6.666666666666667 11.11111111111111" fill="none" style="stroke:black;stroke-width:0.01"/>
<polygon points="0 0, 0 20, 20 20, 20 0" fill="none" style="stroke:blue;stroke-width:0.1"/>
<polygon points="5.296296296296296 13.0, 4.777777777777778 12.481481481481481, 5.296296296296296 12.481481481481481, 5.814814814814815 12.481481481481481, 5.814814814814815 13.0" fill="none" style="stroke:red;stroke-width:0.01"/>
<polygon points="0 0, 0 20, 20 20, 20 0" fill="none" style="stroke:blue;stroke-width:0.1"/>
<polygon points="5.814814814814815 13.0, 5.814814814814815 12.481481481481481, 6.333333333333333 13.0" fill="none" style="stroke:red;stroke-width:0.01"/>
<polygon points="0 0, 0 20, 20 20, 20 0" fill="none" style="stroke:blue;stroke-width:0.1"/>
<polygon points="5.296296296296296 13.0, 4.777777777777778 12.481481481481481, 5.296296296296296 12.481481481481481, 5.814814814814815 12.481481481481481, 6.333333333333333 13.0, 5.814814814814815 13.0" fill="none" style="stroke:black;stroke-width:0.05"/>
<polygon points="0 0, 0 20, 20 20, 20 0" fill="none" style="stroke:blue;stroke-width:0.1"/>
<text x="4.444444444444445" y="13.333333333333332" font-family="Verdana" font-size="0.25">#blocks: 4</text>
<polygon points="4.444444444444445 13.333333333333332, 4.444444444444445 11.11111111111111, 6.666666666666667 11.11111111111111, 6.666666666666667 13.333333333333332" fill="none" style="stroke:black;stroke-width:0.01"/>
<polygon points="0 0, 0 20, 20 20, 20 0" fill="none" style="stroke:blue;stroke-width:0.1"/>
<polygon points="5.296296296296297 15.222222222222221, 4.777777777777778 14.703703703703704, 5.296296296296297 14.703703703703704, 5.814814814814815 14.703703703703704, 5.814814814814815 15.222222222222221" fill="none" style="stroke:red;stroke-width:0.01"/>
<polygon points="0 0, 0 20, 20 20, 20 0" fill="none" style="stroke:blue;stroke-width:0.1"/>
<polygon points="5.814814814814815 15.222222222222221, 5.814814814814815 14.703703703703704, 6.333333333333334 14.703703703703702" fill="none" style="stroke:red;stroke-width:0.01"/>
<polygon points="0 0, 0 20, 20 20, 20 0" fill="none" style="stroke:blue;stroke-width:0.1"/>
<polygon points="5.296296296296297 15.222222222222221, 4.777777777777778 14.703703703703704, 5.296296296296297 14.703703703703704, 5.814814814814815 14.703703703703704, 6.333333333333334 14.703703703703702, 5.814814814814815 15.222222222222221" fill="none" style="stroke:black;stroke-width:0.05"/>
<polygon points="0 0, 0 20, 20 20, 20 0" fill="none" style="stroke:blue;stroke-width:0.1"/>
<text x="4.444444444444445" y="15.555555555555555" font-family="Verdana" font-size="0.25">#blocks: 4</text>
<polygon points="4.444444444444445 15.555555555555555, 4.444444444444445 13.333333333333332, 6.666666666666667 13.333333333333332, 6.666666666666667 15.555555555555555" fill="none" style="stroke:black;stroke-width:0.01"/>
<polygon points="0 0, 0 20, 20 20, 20 0" fill="none" style="stroke:blue;stroke-width:0.1"/>
<polygon points="7.0 1.8888888888888893, 7.518518518518518 1.3703703703703702, 7.518518518518518 0.8518518518518512, 8.037037037037036 1.3703703703703702, 7.518518518518518 1.8888888888888893" fill="none" style="stroke:red;stroke-width:0.01"/>
<polygon points="0 0, 0 20, 20 20, 20 0" fill="none" style="stroke:blue;stroke-width:0.1"/>
<polygon points="7.0 1.3703703703703702, 7.518518518518518 0.8518518518518512, 7.518518518518518 1.3703703703703702" fill="none" style="stroke:red;stroke-width:0.01"/>
<polygon points="0 0, 0 20, 20 20, 20 0" fill="none" style="stroke:blue;stroke-width:0.1"/>
<polygon points="7.0 1.8888888888888893, 7.518518518518518 1.3703703703703702, 7.0 1.3703703703703702, 7.518518518518518 0.8518518518518512, 8.037037037037036 1.3703703703703702, 7.518518518518518 1.8888888888888893" fill="none" style="stroke:black;stroke-width:0.05"/>
<polygon points="0 0, 0 20, 20 20, 20 0" fill="none" style="stroke:blue;stroke-width:0.1"/>
<text x="6.666666666666667" y="2.2222222222222214" font-family="Verdana" font-size="0.25">#blocks: 4</text>
<polygon points="6.666666666666667 2.2222222222222214, 6.666666666666667 0.0, 8.88888888888889 0.0, 8.88888888888889 2.2222222222222214" fill="none" style="stroke:black;stroke-width:0.01"/>
<polygon points="0 0, 0 20, 20 20, 20 0" fill="none" style="stroke:blue;stroke-width:0.1"/>
<polygon points="7.0 4.111111111111109, 7.0 3.5925925925925917, 7.518518518518518 3.0740740740740726, 7.518518518518518 2.5555555555555536, 8.037037037037036 3.0740740740740726, 7.518518518518518 3.5925925925925917" fill="none" style="stroke:red;stroke-width:0.01"/>
<polygon points="0 0, 0 20, 20 20, 20 0" fill="none" style="stroke:blue;stroke-width:0.1"/>
<polygon points="7.0 3.5925925925925917, 7.0 3.0740740740740726, 7.518518518518518 3.0740740740740726" fill="none" style="stroke:red;stroke-width:0.01"/>
<polygon points="0 0, 0 20, 20 20, 20 0" fill="none" style="stroke:blue;stroke-width:0.1"/>
<polygon points="7.0 4.111111111111109, 7.0 3.5925925925925917, 7.0 3.0740740740740726, 7.518518518518518 3.0740740740740726, 7.518518518518518 2.5555555555555536, 8.037037037037036 3.0740740740740726, 7.518518518518518 3.5925925925925917" fill="none" style="stroke:black;stroke-width:0.05"/>
<polygon points="0 0, 0 20, 20 20, 20 0" fill="none" style="stroke:blue;stroke-width:0.1"/>
<text x="6.666666666666667" y="4.444444444444443" font-family="Verdana" font-size="0.25">#blocks: 5</text>
<polygon points="6.666666666666667 4.444444444444443, 6.666666666666667 2.2222222222222214, 8.88888888888889 2.2222222222222214, 8.88888888888889 4.444444444444443" fill="none" style="stroke:black;stroke-width:0.01"/>
<polygon points="0 0, 0 20, 20 20, 20 0" fill="none" style="stroke:blue;stroke-width:0.1"/>
<polygon points="7.0 6.333333333333332, 7.0 5.814814814814813, 7.518518518518518 5.296296296296296, 7.518518518518518 4.777777777777777, 8.037037037037036 5.296296296296296, 7.518518518518518 5.814814814814813" fill="none" style="stroke:red;stroke-width:0.01"/>
<polygon points="0 0, 0 20, 20 20, 20 0" fill="none" style="stroke:blue;stroke-width:0.1"/>
<polygon points="7.0 5.296296296296296, 7.518518518518518 4.777777777777777, 7.518518518518518 5.296296296296296" fill="none" style="stroke:red;stroke-width:0.01"/>
<polygon points="0 0, 0 20, 20 20, 20 0" fill="none" style="stroke:blue;stroke-width:0.1"/>
<polygon points="7.0 6.333333333333332, 7.0 5.814814814814813, 7.518518518518518 5.296296296296296, 7.0 5.296296296296296, 7.518518518518518 4.777777777777777, 8.037037037037036 5.296296296296296, 7.518518518518518 5.814814814814813" fill="none" style="stroke:black;stroke-width:0.05"/>
<polygon points="0 0, 0 20, 20 20, 20 0" fill="none" style="stroke:blue;stroke-width:0.1"/>
<text x="6.666666666666667" y="6.666666666666666" font-family="Verdana" font-size="0.25">#blocks: 5</text>
<polygon points="6.666666666666667 6.666666666666666, 6.666666666666667 4.444444444444443, 8.88888888888889 4.444444444444443, 8.88888888888889 6.666666666666666" fill="none" style="stroke:black;stroke-width:0.01"/>
<polygon points="0 0, 0 20, 20 20, 20 0" fill="none" style="stroke:blue;stroke-width:0.1"/>
<polygon points="7.0 8.555555555555555, 7.0 8.037037037037036, 7.518518518518518 7.518518518518519, 7.518518518518518 7.0, 8.037037037037036 7.518518518518519, 7.518518518518518 8.037037037037036" fill="none" style="stroke:red;stroke-width:0.01"/>
<polygon points="0 0, 0 20, 20 20, 20 0" fill="none" style="stroke:blue;stroke-width:0.1"/>
<polygon points="7.518518518518518 8.037037037037036, 8.037037037037036 7.518518518518519, 8.037037037037036 8.037037037037036" fill="none" style="stroke:red;stroke-width:0.01"/>
<polygon points="0 0, 0 20, 20 20, 20 0" fill="none" style="stroke:blue;stroke-width:0.1"/>
<polygon points="7.0 8.555555555555555, 7.0 8.037037037037036, 7.518518518518518 7.518518518518519, 7.518518518518518 7.0, 8.037037037037036 7.518518518518519, 8.037037037037036 8.037037037037036, 7.518518518518518 8.037037037037036" fill="none" style="stroke:black;stroke-width:0.05"/>
<polygon points="0 0, 0 20, 20 20, 20 0" fill="none" style="stroke:blue;stroke-width:0.1"/>
<text x="6.666666666666667" y="8.88888888888889" font-family="Verdana" font-size="0.25">#blocks: 5</text>
<polygon points="6.666666666666667 8.88888888888889, 6.666666666666667 6.666666666666666, 8.88888888888889 6.666666666666666, 8.88888888888889 8.88888888888889" fill="none" style="stroke:black;stroke-width:0.01"/>
<polygon points="0 0, 0 20, 20 20, 20 0" fill="none" style="stroke:blue;stroke-width:0.1"/>
<polygon points="7.0 10.777777777777777, 7.0 10.25925925925926, 7.518518518518517 9.74074074074074, 7.518518518518517 9.222222222222223, 8.037037037037035 9.74074074074074, 7.518518518518517 10.25925925925926" fill="none" style="stroke:red;stroke-width:0.01"/>
<polygon points="0 0, 0 20, 20 20, 20 0" fill="none" style="stroke:blue;stroke-width:0.1"/>
<polygon points="7.0 10.777777777777777, 7.518518518518517 10.25925925925926, 7.518518518518517 10.777777777777777" fill="none" style="stroke:red;stroke-width:0.01"/>
<polygon points="0 0, 0 20, 20 20, 20 0" fill="none" style="stroke:blue;stroke-width:0.1"/>
<polygon points="7.0 10.777777777777777, 7.0 10.25925925925926, 7.518518518518517 9.74074074074074, 7.518518518518517 9.222222222222223, 8.037037037037035 9.74074074074074, 7.518518518518517 10.25925925925926, 7.518518518518517 10.777777777777777" fill="none" style="stroke:black;stroke-width:0.05"/>
<polygon points="0 0, 0 20, 20 20, 20 0" fill="none" style="stroke:blue;stroke-width:0.1"/>
<text x="6.666666666666667" y="11.11111111111111" font-family="Verdana" font-size="0.25">#blocks: 5</text>
<polygon points="6.666666666666667 11.11111111111111, 6.666666666666667 8.88888888888889, 8.88888888888889 8.88888888888889, 8.88888888888889 11.11111111111111" fill="none" style="stroke:black;stroke-width:0.01"/>
<polygon points="0 0, 0 20, 20 20, 20 0" fill="none" style="stroke:blue;stroke-width:0.1"/>
<polygon points="7.518518518518518 13.0, 7.0 12.481481481481481, 7.518518518518518 11.962962962962964, 7.518518518518518 11.444444444444445, 8.037037037037036 11.962962962962964, 7.518518518518518 12.481481481481481" fill="none" style="stroke:red;stroke-width:0.01"/>
<polygon points="0 0, 0 20, 20 20, 20 0" fill="none" style="stroke:blue;stroke-width:0.1"/>
<polygon points="7.0 12.481481481481481, 7.0 11.962962962962964, 7.518518518518518 11.962962962962964" fill="none" style="stroke:red;stroke-width:0.01"/>
<polygon points="0 0, 0 20, 20 20, 20 0" fill="none" style="stroke:blue;stroke-width:0.1"/>
<polygon points="7.518518518518518 13.0, 7.0 12.481481481481481, 7.0 11.962962962962964, 7.518518518518518 11.962962962962964, 7.518518518518518 11.444444444444445, 8.037037037037036 11.962962962962964, 7.518518518518518 12.481481481481481" fill="none" style="stroke:black;stroke-width:0.05"/>
<polygon points="0 0, 0 20, 20 20, 20 0" fill="none" style="stroke:blue;stroke-width:0.1"/>
<text x="6.666666666666667" y="13.333333333333332" font-family="Verdana" font-size="0.25">#blocks: 5</text>
<polygon points="6.666666666666667 13.333333333333332, 6.666666666666667 11.11111111111111, 8.88888888888889 11.11111111111111, 8.88888888888889 13.333333333333332" fill="none" style="stroke:black;stroke-width:0.01"/>
<polygon points="0 0, 0 20, 20 20, 20 0" fill="none" style="stroke:blue;stroke-width:0.1"/>
<polygon points="7.518518518518518 15.222222222222221, 7.0 14.703703703703704, 7.518518518518518 14.185185185185185, 7.518518518518518 13.666666666666668, 8.037037037037036 14.185185185185185, 7.518518518518518 14.703703703703704" fill="none" style="stroke:red;stroke-width:0.01"/>
<polygon points="0 0, 0 20, 20 20, 20 0" fill="none" style="stroke:blue;stroke-width:0.1"/>
<polygon points="7.518518518518518 14.185185185185185, 7.0 13.666666666666668, 7.518518518518518 13.666666666666668" fill="none" style="stroke:red;stroke-width:0.01"/>
<polygon points="0 0, 0 20, 20 20, 20 0" fill="none" style="stroke:blue;stroke-width:0.1"/>
<polygon points="7.518518518518518 15.222222222222221, 7.0 14.703703703703704, 7.518518518518518 14.185185185185185, 7.0 13.666666666666668, 7.518518518518518 13.666666666666668, 8.037037037037036 14.185185185185185, 7.518518518518518 14.703703703703704" fill="none" style="stroke:black;stroke-width:0.05"/>
<polygon points="0 0, 0 20, 20 20, 20 0" fill="none" style="stroke:blue;stroke-width:0.1"/>
<text x="6.666666666666667" y="15.555555555555555" font-family="Verdana" font-size="0.25">#blocks: 5</text>
<polygon points="6.666666666666667 15.555555555555555, 6.666666666666667 13.333333333333332, 8.88888888888889 13.333333333333332, 8.88888888888889 15.555555555555555" fill="none" style="stroke:black;stroke-width:0.01"/>
<polygon points="0 0, 0 20, 20 20, 20 0" fill="none" style="stroke:blue;stroke-width:0.1"/>
<polygon points="9.74074074074074 1.8888888888888893, 9.222222222222223 1.3703703703703702, 9.74074074074074 0.8518518518518547, 9.74074074074074 0.3333333333333357, 10.25925925925926 0.8518518518518547, 9.74074074074074 1.3703703703703702" fill="none" style="stroke:red;stroke-width:0.01"/>
<polygon points="0 0, 0 20, 20 20, 20 0" fill="none" style="stroke:blue;stroke-width:0.1"/>
<polygon points="9.222222222222223 0.8518518518518547, 9.74074074074074 0.3333333333333357, 9.74074074074074 0.8518518518518547" fill="none" style="stroke:red;stroke-width:0.01"/>
<polygon points="0 0, 0 20, 20 20, 20 0" fill="none" style="stroke:blue;stroke-width:0.1"/>
<polygon points="9.74074074074074 1.8888888888888893, 9.222222222222223 1.3703703703703702, 9.74074074074074 0.8518518518518547, 9.222222222222223 0.8518518518518547, 9.74074074074074 0.3333333333333357, 10.25925925925926 0.8518518518518547, 9.74074074074074 1.3703703703703702" fill="none" style="stroke:black;stroke-width:0.05"/>
<polygon points="0 0, 0 20, 20 20, 20 0" fill="none" style="stroke:blue;stroke-width:0.1"/>
<text x="8.88888888888889" y="2.2222222222222214" font-family="Verdana" font-size="0.25">#blocks: 5</text>
<polygon points="8.88888888888889 2.2222222222222214, 8.88888888888889 0.0, 11.11111111111111 0.0, 11.11111111111111 2.2222222222222214" fill="none" style="stroke:black;stroke-width:0.01"/>
<polygon points="0 0, 0 20, 20 20, 20 0" fill="none" style="stroke:blue;stroke-width:0.1"/>
<polygon points="9.222222222222223 4.111111111111109, 9.74074074074074 3.5925925925925917, 10.25925925925926 3.0740740740740726, 10.777777777777777 3.0740740740740726, 10.25925925925926 3.5925925925925917, 9.74074074074074 4.111111111111109" fill="none" style="stroke:red;stroke-width:0.01"/>
<polygon points="0 0, 0 20, 20 20, 20 0" fill="none" style="stroke:blue;stroke-width:0.1"/>
<polygon points="9.74074074074074 3.5925925925925917, 9.74074074074074 3.0740740740740726, 10.25925925925926 3.0740740740740726" fill="none" style="stroke:red;stroke-width:0.01"/>
<polygon points="0 0, 0 20, 20 20, 20 0" fill="none" style="stroke:blue;stroke-width:0.1"/>
<polygon points="9.222222222222223 4.111111111111109, 9.74074074074074 3.5925925925925917, 9.74074074074074 3.0740740740740726, 10.25925925925926 3.0740740740740726, 10.777777777777777 3.0740740740740726, 10.25925925925926 3.5925925925925917, 9.74074074074074 4.111111111111109" fill="none" style="stroke:black;stroke-width:0.05"/>
<polygon points="0 0, 0 20, 20 20, 20 0" fill="none" style="stroke:blue;stroke-width:0.1"/>
<text x="8.88888888888889" y="4.444444444444443" font-family="Verdana" font-size="0.25">#blocks: 5</text>
<polygon points="8.88888888888889 4.444444444444443, 8.88888888888889 2.2222222222222214, 11.11111111111111 2.2222222222222214, 11.11111111111111 4.444444444444443" fill="none" style="stroke:black;stroke-width:0.01"/>
<polygon points="0 0, 0 20, 20 20, 20 0" fill="none" style="stroke:blue;stroke-width:0.1"/>
<polygon points="9.222222222222223 6.333333333333332, 9.74074074074074 5.814814814814815, 9.222222222222223 5.296296296296296, 9.74074074074074 5.296296296296296, 10.25925925925926 5.814814814814815, 9.74074074074074 6.333333333333332" fill="none" style="stroke:red;stroke-width:0.01"/>
<polygon points="0 0, 0 20, 20 20, 20 0" fill="none" style="stroke:blue;stroke-width:0.1"/>
<polygon points="10.25925925925926 5.814814814814815, 9.74074074074074 5.296296296296296, 10.25925925925926 5.296296296296296" fill="none" style="stroke:red;stroke-width:0.01"/>
<polygon points="0 0, 0 20, 20 20, 20 0" fill="none" style="stroke:blue;stroke-width:0.1"/>
<polygon points="9.222222222222223 6.333333333333332, 9.74074074074074 5.814814814814815, 9.222222222222223 5.296296296296296, 9.74074074074074 5.296296296296296, 10.25925925925926 5.296296296296296, 10.25925925925926 5.814814814814815, 9.74074074074074 6.333333333333332" fill="none" style="stroke:black;stroke-width:0.05"/>
<polygon points="0 0, 0 20, 20 20, 20 0" fill="none" style="stroke:blue;stroke-width:0.1"/>
<text x="8.88888888888889" y="6.666666666666666" font-family="Verdana" font-size="0.25">#blocks: 5</text>
<polygon points="8.88888888888889 6.666666666666666, 8.88888888888889 4.444444444444443, 11.11111111111111 4.444444444444443, 11.11111111111111 6.666666666666666" fill="none" style="stroke:black;stroke-width:0.01"/>
<polygon points="0 0, 0 20, 20 20, 20 0" fill="none" style="stroke:blue;stroke-width:0.1"/>
<polygon points="9.222222222222223 8.555555555555555, 9.74074074074074 8.037037037037038, 9.74074074074074 7.518518518518519, 10.25925925925926 7.518518518518519, 10.25925925925926 8.037037037037038, 9.74074074074074 8.555555555555555" fill="none" style="stroke:red;stroke-width:0.01"/>
<polygon points="0 0, 0 20, 20 20, 20 0" fill="none" style="stroke:blue;stroke-width:0.1"/>
<polygon points="9.74074074074074 7.518518518518519, 10.259259259259258 7.000000000000002, 10.25925925925926 7.518518518518519" fill="none" style="stroke:red;stroke-width:0.01"/>
<polygon points="0 0, 0 20, 20 20, 20 0" fill="none" style="stroke:blue;stroke-width:0.1"/>
<polygon points="9.222222222222223 8.555555555555555, 9.74074074074074 8.037037037037038, 9.74074074074074 7.518518518518519, 10.259259259259258 7.000000000000002, 10.25925925925926 7.518518518518519, 10.25925925925926 8.037037037037038, 9.74074074074074 8.555555555555555" fill="none" style="stroke:black;stroke-width:0.05"/>
<polygon points="0 0, 0 20, 20 20, 20 0" fill="none" style="stroke:blue;stroke-width:0.1"/>
<text x="8.88888888888889" y="8.88888888888889" font-family="Verdana" font-size="0.25">#blocks: 5</text>
<polygon points="8.88888888888889 8.88888888888889, 8.88888888888889 6.666666666666666, 11.11111111111111 6.666666666666666, 11.11111111111111 8.88888888888889" fill="none" style="stroke:black;stroke-width:0.01"/>
<polygon points="0 0, 0 20, 20 20, 20 0" fill="none" style="stroke:blue;stroke-width:0.1"/>
<polygon points="9.74074074074074 10.777777777777777, 9.222222222222223 10.25925925925926, 9.74074074074074 9.74074074074074, 10.25925925925926 10.25925925925926" fill="none" style="stroke:red;stroke-width:0.01"/>
<polygon points="0 0, 0 20, 20 20, 20 0" fill="none" style="stroke:blue;stroke-width:0.1"/>
<polygon points="9.222222222222223 10.777777777777777, 9.222222222222223 10.25925925925926, 9.74074074074074 10.777777777777777" fill="none" style="stroke:red;stroke-width:0.01"/>
<polygon points="0 0, 0 20, 20 20, 20 0" fill="none" style="stroke:blue;stroke-width:0.1"/>
<polygon points="9.222222222222223 10.777777777777777, 9.222222222222223 10.25925925925926, 9.74074074074074 9.74074074074074, 10.25925925925926 10.25925925925926, 9.74074074074074 10.777777777777777" fill="none" style="stroke:black;stroke-width:0.05"/>
<polygon points="0 0, 0 20, 20 20, 20 0" fill="none" style="stroke:blue;stroke-width:0.1"/>
<text x="8.88888888888889" y="11.11111111111111" font-family="Verdana" font-size="0.25">#blocks: 5</text>
<polygon points="8.88888888888889 11.11111111111111, 8.88888888888889 8.88888888888889, 11.11111111111111 8.88888888888889, 11.11111111111111 11.11111111111111" fill="none" style="stroke:black;stroke-width:0.01"/>
<polygon points="0 0, 0 20, 20 20, 20 0" fill="none" style="stroke:blue;stroke-width:0.1"/>
<polygon points="9.222222222222223 13.0, 9.74074074074074 12.481481481481483, 9.222222222222223 11.962962962962964, 9.74074074074074 11.962962962962964, 10.25925925925926 12.481481481481481, 9.74074074074074 13.0" fill="none" style="stroke:red;stroke-width:0.01"/>
<polygon points="0 0, 0 20, 20 20, 20 0" fill="none" style="stroke:blue;stroke-width:0.1"/>
<polygon points="9.222222222222223 13.0, 9.222222222222223 12.481481481481481, 9.74074074074074 12.481481481481481" fill="none" style="stroke:red;stroke-width:0.01"/>
<polygon points="0 0, 0 20, 20 20, 20 0" fill="none" style="stroke:blue;stroke-width:0.1"/>
<polygon points="9.222222222222223 13.0, 9.222222222222223 12.481481481481481, 9.74074074074074 12.481481481481483, 9.222222222222223 11.962962962962964, 9.74074074074074 11.962962962962964, 10.25925925925926 12.481481481481481, 9.74074074074074 13.0" fill="none" style="stroke:black;stroke-width:0.05"/>
<polygon points="0 0, 0 20, 20 20, 20 0" fill="none" style="stroke:blue;stroke-width:0.1"/>
<text x="8.88888888888889" y="13.333333333333332" font-family="Verdana" font-size="0.25">#blocks: 5</text>
<polygon points="8.88888888888889 13.333333333333332, 8.88888888888889 11.11111111111111, 11.11111111111111 11.11111111111111, 11.11111111111111 13.333333333333332" fill="none" style="stroke:black;stroke-width:0.01"/>
<polygon points="0 0, 0 20, 20 20, 20 0" fill="none" style="stroke:blue;stroke-width:0.1"/>
<polygon points="9.222222222222223 15.222222222222221, 9.74074074074074 14.703703703703704, 9.74074074074074 14.185185185185187, 10.25925925925926 14.185185185185187, 10.25925925925926 14.703703703703704, 9.74074074074074 15.222222222222221" fill="none" style="stroke:red;stroke-width:0.01"/>
<polygon points="0 0, 0 20, 20 20, 20 0" fill="none" style="stroke:blue;stroke-width:0.1"/>
<polygon points="9.222222222222223 15.222222222222221, 9.222222222222223 14.703703703703704, 9.74074074074074 14.703703703703704" fill="none" style="stroke:red;stroke-width:0.01"/>
<polygon points="0 0, 0 20, 20 20, 20 0" fill="none" style="stroke:blue;stroke-width:0.1"/>
<polygon points="9.222222222222223 15.222222222222221, 9.222222222222223 14.703703703703704, 9.74074074074074 14.703703703703704, 9.74074074074074 14.185185185185187, 10.25925925925926 14.185185185185187, 10.25925925925926 14.703703703703704, 9.74074074074074 15.222222222222221" fill="none" style="stroke:black;stroke-width:0.05"/>
<polygon points="0 0, 0 20, 20 20, 20 0" fill="none" style="stroke:blue;stroke-width:0.1"/>
<text x="8.88888888888889" y="15.555555555555555" font-family="Verdana" font-size="0.25">#blocks: 5</text>
<polygon points="8.88888888888889 15.555555555555555, 8.88888888888889 13.333333333333332, 11.11111111111111 13.333333333333332, 11.11111111111111 15.555555555555555" fill="none" style="stroke:black;stroke-width:0.01"/>
<polygon points="0 0, 0 20, 20 20, 20 0" fill="none" style="stroke:blue;stroke-width:0.1"/>
<polygon points="11.444444444444445 1.8888888888888893, 11.962962962962964 1.3703703703703702, 11.962962962962964 0.8518518518518512, 12.481481481481481 0.8518518518518512, 12.481481481481481 1.3703703703703702, 11.962962962962964 1.8888888888888893" fill="none" style="stroke:red;stroke-width:0.01"/>
<polygon points="0 0, 0 20, 20 20, 20 0" fill="none" style="stroke:blue;stroke-width:0.1"/>
<polygon points="11.444444444444445 1.3703703703703702, 11.962962962962964 0.8518518518518512, 11.962962962962964 1.3703703703703702" fill="none" style="stroke:red;stroke-width:0.01"/>
<polygon points="0 0, 0 20, 20 20, 20 0" fill="none" style="stroke:blue;stroke-width:0.1"/>
<polygon points="11.444444444444445 1.8888888888888893, 11.962962962962964 1.3703703703703702, 11.444444444444445 1.3703703703703702, 11.962962962962964 0.8518518518518512, 12.481481481481481 0.8518518518518512, 12.481481481481481 1.3703703703703702, 11.962962962962964 1.8888888888888893" fill="none" style="stroke:black;stroke-width:0.05"/>
<polygon points="0 0, 0 20, 20 20, 20 0" fill="none" style="stroke:blue;stroke-width:0.1"/>
<text x="11.11111111111111" y="2.2222222222222214" font-family="Verdana" font-size="0.25">#blocks: 5</text>
<polygon points="11.11111111111111 2.2222222222222214, 11.11111111111111 0.0, 13.333333333333334 0.0, 13.333333333333334 2.2222222222222214" fill="none" style="stroke:black;stroke-width:0.01"/>
<polygon points="0 0, 0 20, 20 20, 20 0" fill="none" style="stroke:blue;stroke-width:0.1"/>
<polygon points="11.444444444444445 4.111111111111109, 11.962962962962962 3.5925925925925917, 11.962962962962962 3.0740740740740726, 12.481481481481481 3.5925925925925917, 12.481481481481481 4.111111111111109, 11.962962962962964 4.111111111111109" fill="none" style="stroke:red;stroke-width:0.01"/>
<polygon points="0 0, 0 20, 20 20, 20 0" fill="none" style="stroke:blue;stroke-width:0.1"/>
<polygon points="11.444444444444445 4.111111111111109, 11.444444444444445 3.5925925925925917, 11.962962962962964 3.5925925925925917" fill="none" style="stroke:red;stroke-width:0.01"/>
<polygon points="0 0, 0 20, 20 20, 20 0" fill="none" style="stroke:blue;stroke-width:0.1"/>
<polygon points="11.444444444444445 4.111111111111109, 11.444444444444445 3.5925925925925917, 11.962962962962962 3.5925925925925917, 11.962962962962962 3.0740740740740726, 12.481481481481481 3.5925925925925917, 12.481481481481481 4.111111111111109, 11.962962962962964 4.111111111111109" fill="none" style="stroke:black;stroke-width:0.05"/>
<polygon points="0 0, 0 20, 20 20, 20 0" fill="none" style="stroke:blue;stroke-width:0.1"/>
<text x="11.11111111111111" y="4.444444444444443" font-family="Verdana" font-size="0.25">#blocks: 5</text>
<polygon points="11.11111111111111 4.444444444444443, 11.11111111111111 2.2222222222222214, 13.333333333333334 2.2222222222222214, 13.333333333333334 4.444444444444443" fill="none" style="stroke:black;stroke-width:0.01"/>
<polygon points="0 0, 0 20, 20 20, 20 0" fill="none" style="stroke:blue;stroke-width:0.1"/>
<polygon points="11.444444444444445 6.333333333333332, 11.962962962962962 5.814814814814813, 11.962962962962962 5.296296296296296, 12.481481481481481 5.296296296296296, 12.481481481481481 5.814814814814813, 11.962962962962964 6.333333333333332" fill="none" style="stroke:red;stroke-width:0.01"/>
<polygon points="0 0, 0 20, 20 20, 20 0" fill="none" style="stroke:blue;stroke-width:0.1"/>
<polygon points="11.962962962962964 6.333333333333332, 12.481481481481481 5.814814814814813, 12.481481481481481 6.333333333333332" fill="none" style="stroke:red;stroke-width:0.01"/>
<polygon points="0 0, 0 20, 20 20, 20 0" fill="none" style="stroke:blue;stroke-width:0.1"/>
<polygon points="11.444444444444445 6.333333333333332, 11.962962962962962 5.814814814814813, 11.962962962962962 5.296296296296296, 12.481481481481481 5.296296296296296, 12.481481481481481 5.814814814814813, 12.481481481481481 6.333333333333332, 11.962962962962964 6.333333333333332" fill="none" style="stroke:black;stroke-width:0.05"/>
<polygon points="0 0, 0 20, 20 20, 20 0" fill="none" style="stroke:blue;stroke-width:0.1"/>
<text x="11.11111111111111" y="6.666666666666666" font-family="Verdana" font-size="0.25">#blocks: 5</text>
<polygon points="11.11111111111111 6.666666666666666, 11.11111111111111 4.444444444444443, 13.333333333333334 4.444444444444443, 13.333333333333334 6.666666666666666" fill="none" style="stroke:black;stroke-width:0.01"/>
<polygon points="0 0, 0 20, 20 20, 20 0" fill="none" style="stroke:blue;stroke-width:0.1"/>
<polygon points="11.444444444444445 8.555555555555555, 11.962962962962964 8.037037037037038, 11.962962962962962 7.518518518518519, 12.481481481481481 8.037037037037036, 12.481481481481481 8.555555555555555, 11.962962962962964 8.555555555555555" fill="none" style="stroke:red;stroke-width:0.01"/>
<polygon points="0 0, 0 20, 20 20, 20 0" fill="none" style="stroke:blue;stroke-width:0.1"/>
<polygon points="11.444444444444445 8.037037037037038, 11.962962962962962 7.518518518518519, 11.962962962962964 8.037037037037038" fill="none" style="stroke:red;stroke-width:0.01"/>
<polygon points="0 0, 0 20, 20 20, 20 0" fill="none" style="stroke:blue;stroke-width:0.1"/>
<polygon points="11.444444444444445 8.555555555555555, 11.962962962962964 8.037037037037038, 11.444444444444445 8.037037037037038, 11.962962962962962 7.518518518518519, 12.481481481481481 8.037037037037036, 12.481481481481481 8.555555555555555, 11.962962962962964 8.555555555555555" fill="none" style="stroke:black;stroke-width:0.05"/>
<polygon points="0 0, 0 20, 20 20, 20 0" fill="none" style="stroke:blue;stroke-width:0.1"/>
<text x="11.11111111111111" y="8.88888888888889" font-family="Verdana" font-size="0.25">#blocks: 5</text>
<polygon points="11.11111111111111 8.88888888888889, 11.11111111111111 6.666666666666666, 13.333333333333334 6.666666666666666, 13.333333333333334 8.88888888888889" fill="none" style="stroke:black;stroke-width:0.01"/>
<polygon points="0 0, 0 20, 20 20, 20 0" fill="none" style="stroke:blue;stroke-width:0.1"/>
<polygon points="11.444444444444445 10.25925925925926, 11.962962962962962 9.740740740740742, 11.962962962962962 9.222222222222223, 12.481481481481481 9.74074074074074, 12.481481481481481 10.25925925925926, 11.962962962962962 10.25925925925926" fill="none" style="stroke:red;stroke-width:0.01"/>
<polygon points="0 0, 0 20, 20 20, 20 0" fill="none" style="stroke:blue;stroke-width:0.1"/>
<polygon points="11.962962962962962 10.777777777777777, 11.962962962962962 10.25925925925926, 12.481481481481481 10.25925925925926" fill="none" style="stroke:red;stroke-width:0.01"/>
<polygon points="0 0, 0 20, 20 20, 20 0" fill="none" style="stroke:blue;stroke-width:0.1"/>
<polygon points="11.962962962962962 10.777777777777777, 11.962962962962962 10.25925925925926, 11.444444444444445 10.25925925925926, 11.962962962962962 9.740740740740742, 11.962962962962962 9.222222222222223, 12.481481481481481 9.74074074074074, 12.481481481481481 10.25925925925926" fill="none" style="stroke:black;stroke-width:0.05"/>
<polygon points="0 0, 0 20, 20 20, 20 0" fill="none" style="stroke:blue;stroke-width:0.1"/>
<text x="11.11111111111111" y="11.11111111111111" font-family="Verdana" font-size="0.25">#blocks: 5</text>
<polygon points="11.11111111111111 11.11111111111111, 11.11111111111111 8.88888888888889, 13.333333333333334 8.88888888888889, 13.333333333333334 11.11111111111111" fill="none" style="stroke:black;stroke-width:0.01"/>
<polygon points="0 0, 0 20, 20 20, 20 0" fill="none" style="stroke:blue;stroke-width:0.1"/>
<polygon points="11.962962962962964 13.0, 11.962962962962964 12.481481481481481, 12.481481481481481 12.481481481481481, 12.481481481481481 11.962962962962964, 13.0 12.481481481481481, 12.481481481481481 13.0" fill="none" style="stroke:red;stroke-width:0.01"/>
<polygon points="0 0, 0 20, 20 20, 20 0" fill="none" style="stroke:blue;stroke-width:0.1"/>
<polygon points="11.962962962962964 13.0, 11.444444444444445 12.481481481481481, 11.962962962962964 12.481481481481481" fill="none" style="stroke:red;stroke-width:0.01"/>
<polygon points="0 0, 0 20, 20 20, 20 0" fill="none" style="stroke:blue;stroke-width:0.1"/>
<polygon points="11.962962962962964 13.0, 11.444444444444445 12.481481481481481, 11.962962962962964 12.481481481481481, 12.481481481481481 12.481481481481481, 12.481481481481481 11.962962962962964, 13.0 12.481481481481481, 12.481481481481481 13.0" fill="none" style="stroke:black;stroke-width:0.05"/>
<polygon points="0 0, 0 20, 20 20, 20 0" fill="none" style="stroke:blue;stroke-width:0.1"/>
<text x="11.11111111111111" y="13.333333333333332" font-family="Verdana" font-size="0.25">#blocks: 5</text>
<polygon points="11.11111111111111 13.333333333333332, 11.11111111111111 11.11111111111111, 13.333333333333334 11.11111111111111, 13.333333333333334 13.333333333333332" fill="none" style="stroke:black;stroke-width:0.01"/>
<polygon points="0 0, 0 20, 20 20, 20 0" fill="none" style="stroke:blue;stroke-width:0.1"/>
<polygon points="11.962962962962964 15.222222222222221, 11.962962962962964 14.703703703703704, 12.481481481481481 14.703703703703704, 12.481481481481481 14.185185185185185, 13.0 14.703703703703704, 12.481481481481481 15.222222222222221" fill="none" style="stroke:red;stroke-width:0.01"/>
<polygon points="0 0, 0 20, 20 20, 20 0" fill="none" style="stroke:blue;stroke-width:0.1"/>
<polygon points="11.444444444444445 15.222222222222221, 11.962962962962964 14.703703703703704, 11.962962962962964 15.222222222222221" fill="none" style="stroke:red;stroke-width:0.01"/>
<polygon points="0 0, 0 20, 20 20, 20 0" fill="none" style="stroke:blue;stroke-width:0.1"/>
<polygon points="11.444444444444445 15.222222222222221, 11.962962962962964 14.703703703703704, 12.481481481481481 14.703703703703704, 12.481481481481481 14.185185185185185, 13.0 14.703703703703704, 12.481481481481481 15.222222222222221, 11.962962962962964 15.222222222222221" fill="none" style="stroke:black;stroke-width:0.05"/>
<polygon points="0 0, 0 20, 20 20, 20 0" fill="none" style="stroke:blue;stroke-width:0.1"/>
<text x="11.11111111111111" y="15.555555555555555" font-family="Verdana" font-size="0.25">#blocks: 5</text>
<polygon points="11.11111111111111 15.555555555555555, 11.11111111111111 13.333333333333332, 13.333333333333334 13.333333333333332, 13.333333333333334 15.555555555555555" fill="none" style="stroke:black;stroke-width:0.01"/>
<polygon points="0 0, 0 20, 20 20, 20 0" fill="none" style="stroke:blue;stroke-width:0.1"/>
<polygon points="13.666666666666668 1.8888888888888893, 14.185185185185187 1.3703703703703702, 14.703703703703704 0.8518518518518512, 14.703703703703704 1.3703703703703702, 14.703703703703704 1.8888888888888893, 14.185185185185187 1.8888888888888893" fill="none" style="stroke:red;stroke-width:0.01"/>
<polygon points="0 0, 0 20, 20 20, 20 0" fill="none" style="stroke:blue;stroke-width:0.1"/>
<polygon points="14.703703703703704 1.8888888888888893, 14.703703703703704 1.3703703703703702, 15.222222222222223 1.3703703703703702" fill="none" style="stroke:red;stroke-width:0.01"/>
<polygon points="0 0, 0 20, 20 20, 20 0" fill="none" style="stroke:blue;stroke-width:0.1"/>
<polygon points="13.666666666666668 1.8888888888888893, 14.185185185185187 1.3703703703703702, 14.703703703703704 0.8518518518518512, 14.703703703703704 1.3703703703703702, 15.222222222222223 1.3703703703703702, 14.703703703703704 1.8888888888888893, 14.185185185185187 1.8888888888888893" fill="none" style="stroke:black;stroke-width:0.05"/>
<polygon points="0 0, 0 20, 20 20, 20 0" fill="none" style="stroke:blue;stroke-width:0.1"/>
<text x="13.333333333333334" y="2.2222222222222214" font-family="Verdana" font-size="0.25">#blocks: 5</text>
<polygon points="13.333333333333334 2.2222222222222214, 13.333333333333334 0.0, 15.555555555555557 0.0, 15.555555555555557 2.2222222222222214" fill="none" style="stroke:black;stroke-width:0.01"/>
<polygon points="0 0, 0 20, 20 20, 20 0" fill="none" style="stroke:blue;stroke-width:0.1"/>
<polygon points="13.666666666666668 4.111111111111109, 14.185185185185187 3.5925925925925917, 14.703703703703704 3.0740740740740726, 15.222222222222221 3.0740740740740726, 14.703703703703704 3.5925925925925917, 14.185185185185187 4.111111111111109" fill="none" style="stroke:red;stroke-width:0.01"/>
<polygon points="0 0, 0 20, 20 20, 20 0" fill="none" style="stroke:blue;stroke-width:0.1"/>
<polygon points="14.703703703703704 3.0740740740740726, 15.222222222222221 2.5555555555555536, 15.222222222222221 3.0740740740740726" fill="none" style="stroke:red;stroke-width:0.01"/>
<polygon points="0 0, 0 20, 20 20, 20 0" fill="none" style="stroke:blue;stroke-width:0.1"/>
<polygon points="13.666666666666668 4.111111111111109, 14.185185185185187 3.5925925925925917, 14.703703703703704 3.0740740740740726, 15.222222222222221 2.5555555555555536, 15.222222222222221 3.0740740740740726, 14.703703703703704 3.5925925925925917, 14.185185185185187 4.111111111111109" fill="none" style="stroke:black;stroke-width:0.05"/>
<polygon points="0 0, 0 20, 20 20, 20 0" fill="none" style="stroke:blue;stroke-width:0.1"/>
<text x="13.333333333333334" y="4.444444444444443" font-family="Verdana" font-size="0.25">#blocks: 5</text>
<polygon points="13.333333333333334 4.444444444444443, 13.333333333333334 2.2222222222222214, 15.555555555555557 2.2222222222222214, 15.555555555555557 4.444444444444443" fill="none" style="stroke:black;stroke-width:0.01"/>
<polygon points="0 0, 0 20, 20 20, 20 0" fill="none" style="stroke:blue;stroke-width:0.1"/>
<polygon points="13.666666666666668 6.333333333333332, 13.666666666666668 5.814814814814813, 14.185185185185187 5.296296296296296, 14.185185185185187 4.777777777777777, 14.703703703703704 5.296296296296296, 14.185185185185187 5.814814814814813" fill="none" style="stroke:red;stroke-width:0.01"/>
<polygon points="0 0, 0 20, 20 20, 20 0" fill="none" style="stroke:blue;stroke-width:0.1"/>
<polygon points="14.185185185185187 5.296296296296296, 13.666666666666668 4.777777777777777, 14.185185185185187 4.777777777777777" fill="none" style="stroke:red;stroke-width:0.01"/>
<polygon points="0 0, 0 20, 20 20, 20 0" fill="none" style="stroke:blue;stroke-width:0.1"/>
<polygon points="13.666666666666668 6.333333333333332, 13.666666666666668 5.814814814814813, 14.185185185185187 5.296296296296296, 13.666666666666668 4.777777777777777, 14.185185185185187 4.777777777777777, 14.703703703703704 5.296296296296296, 14.185185185185187 5.814814814814813" fill="none" style="stroke:black;stroke-width:0.05"/>
<polygon points="0 0, 0 20, 20 20, 20 0" fill="none" style="stroke:blue;stroke-width:0.1"/>
<text x="13.333333333333334" y="6.666666666666666" font-family="Verdana" font-size="0.25">#blocks: 5</text>
<polygon points="13.333333333333334 6.666666666666666, 13.333333333333334 4.444444444444443, 15.555555555555557 4.444444444444443, 15.555555555555557 6.666666666666666" fill="none" style="stroke:black;stroke-width:0.01"/>
<polygon points="0 0, 0 20, 20 20, 20 0" fill="none" style="stroke:blue;stroke-width:0.1"/>
<polygon points="13.666666666666668 8.555555555555555, 13.666666666666668 8.037037037037036, 14.185185185185187 7.518518518518519, 14.185185185185185 7.0, 14.703703703703704 7.518518518518519, 14.185185185185187 8.037037037037036" fill="none" style="stroke:red;stroke-width:0.01"/>
<polygon points="0 0, 0 20, 20 20, 20 0" fill="none" style="stroke:blue;stroke-width:0.1"/>
<polygon points="14.703703703703704 7.518518518518519, 14.185185185185185 7.0, 14.703703703703704 7.0" fill="none" style="stroke:red;stroke-width:0.01"/>
<polygon points="0 0, 0 20, 20 20, 20 0" fill="none" style="stroke:blue;stroke-width:0.1"/>
<polygon points="13.666666666666668 8.555555555555555, 13.666666666666668 8.037037037037036, 14.185185185185187 7.518518518518519, 14.185185185185185 7.0, 14.703703703703704 7.0, 14.703703703703704 7.518518518518519, 14.185185185185187 8.037037037037036" fill="none" style="stroke:black;stroke-width:0.05"/>
<polygon points="0 0, 0 20, 20 20, 20 0" fill="none" style="stroke:blue;stroke-width:0.1"/>
<text x="13.333333333333334" y="8.88888888888889" font-family="Verdana" font-size="0.25">#blocks: 5</text>
<polygon points="13.333333333333334 8.88888888888889, 13.333333333333334 6.666666666666666, 15.555555555555557 6.666666666666666, 15.555555555555557 8.88888888888889" fill="none" style="stroke:black;stroke-width:0.01"/>
<polygon points="0 0, 0 20, 20 20, 20 0" fill="none" style="stroke:blue;stroke-width:0.1"/>
<polygon points="14.185185185185185 10.777777777777777, 14.185185185185185 10.25925925925926, 14.703703703703702 9.74074074074074, 14.703703703703702 9.222222222222223, 15.222222222222221 9.74074074074074, 14.703703703703702 10.25925925925926" fill="none" style="stroke:red;stroke-width:0.01"/>
<polygon points="0 0, 0 20, 20 20, 20 0" fill="none" style="stroke:blue;stroke-width:0.1"/>
<polygon points="13.666666666666668 10.777777777777777, 14.185185185185185 10.25925925925926, 14.185185185185185 10.777777777777777" fill="none" style="stroke:red;stroke-width:0.01"/>
<polygon points="0 0, 0 20, 20 20, 20 0" fill="none" style="stroke:blue;stroke-width:0.1"/>
<polygon points="13.666666666666668 10.777777777777777, 14.185185185185185 10.25925925925926, 14.703703703703702 9.74074074074074, 14.703703703703702 9.222222222222223, 15.222222222222221 9.74074074074074, 14.703703703703702 10.25925925925926, 14.185185185185185 10.777777777777777" fill="none" style="stroke:black;stroke-width:0.05"/>
<polygon points="0 0, 0 20, 20 20, 20 0" fill="none" style="stroke:blue;stroke-width:0.1"/>
<text x="13.333333333333334" y="11.11111111111111" font-family="Verdana" font-size="0.25">#blocks: 5</text>
<polygon points="13.333333333333334 11.11111111111111, 13.333333333333334 8.88888888888889, 15.555555555555557 8.88888888888889, 15.555555555555557 11.11111111111111" fill="none" style="stroke:black;stroke-width:0.01"/>
<polygon points="0 0, 0 20, 20 20, 20 0" fill="none" style="stroke:blue;stroke-width:0.1"/>
<polygon points="13.666666666666668 13.0, 14.185185185185187 12.481481481481481, 14.185185185185185 11.962962962962964, 14.703703703703704 11.962962962962964, 14.703703703703704 12.481481481481481, 14.185185185185187 13.0" fill="none" style="stroke:red;stroke-width:0.01"/>
<polygon points="0 0, 0 20, 20 20, 20 0" fill="none" style="stroke:blue;stroke-width:0.1"/>
<polygon points="14.185185185185185 11.962962962962964, 14.185185185185185 11.444444444444445, 14.703703703703704 11.962962962962964" fill="none" style="stroke:red;stroke-width:0.01"/>
<polygon points="0 0, 0 20, 20 20, 20 0" fill="none" style="stroke:blue;stroke-width:0.1"/>
<polygon points="13.666666666666668 13.0, 14.185185185185187 12.481481481481481, 14.185185185185185 11.962962962962964, 14.185185185185185 11.444444444444445, 14.703703703703704 11.962962962962964, 14.703703703703704 12.481481481481481, 14.185185185185187 13.0" fill="none" style="stroke:black;stroke-width:0.05"/>
<polygon points="0 0, 0 20, 20 20, 20 0" fill="none" style="stroke:blue;stroke-width:0.1"/>
<text x="13.333333333333334" y="13.333333333333332" font-family="Verdana" font-size="0.25">#blocks: 5</text>
<polygon points="13.333333333333334 13.333333333333332, 13.333333333333334 11.11111111111111, 15.555555555555557 11.11111111111111, 15.555555555555557 13.333333333333332" fill="none" style="stroke:black;stroke-width:0.01"/>
<polygon points="0 0, 0 20, 20 20, 20 0" fill="none" style="stroke:blue;stroke-width:0.1"/>
<polygon points="13.666666666666668 15.222222222222221, 14.185185185185187 14.703703703703704, 14.185185185185187 14.185185185185185, 14.703703703703704 14.703703703703704, 14.703703703703704 15.222222222222221, 14.185185185185187 15.222222222222221" fill="none" style="stroke:red;stroke-width:0.01"/>
<polygon points="0 0, 0 20, 20 20, 20 0" fill="none" style="stroke:blue;stroke-width:0.1"/>
<polygon points="14.703703703703704 15.222222222222221, 14.703703703703704 14.703703703703704, 15.222222222222223 15.222222222222221" fill="none" style="stroke:red;stroke-width:0.01"/>
<polygon points="0 0, 0 20, 20 20, 20 0" fill="none" style="stroke:blue;stroke-width:0.1"/>
<polygon points="13.666666666666668 15.222222222222221, 14.185185185185187 14.703703703703704, 14.185185185185187 14.185185185185185, 14.703703703703704 14.703703703703704, 15.222222222222223 15.222222222222221, 14.703703703703704 15.222222222222221, 14.185185185185187 15.222222222222221" fill="none" style="stroke:black;stroke-width:0.05"/>
<polygon points="0 0, 0 20, 20 20, 20 0" fill="none" style="stroke:blue;stroke-width:0.1"/>
<text x="13.333333333333334" y="15.555555555555555" font-family="Verdana" font-size="0.25">#blocks: 5</text>
<polygon points="13.333333333333334 15.555555555555555, 13.333333333333334 13.333333333333332, 15.555555555555557 13.333333333333332, 15.555555555555557 15.555555555555555" fill="none" style="stroke:black;stroke-width:0.01"/>
<polygon points="0 0, 0 20, 20 20, 20 0" fill="none" style="stroke:blue;stroke-width:0.1"/>
<polygon points="15.888888888888891 1.8888888888888893, 16.40740740740741 1.3703703703703702, 16.40740740740741 0.8518518518518512, 16.925925925925927 1.3703703703703702, 16.925925925925927 1.8888888888888893, 16.40740740740741 1.8888888888888893" fill="none" style="stroke:red;stroke-width:0.01"/>
<polygon points="0 0, 0 20, 20 20, 20 0" fill="none" style="stroke:blue;stroke-width:0.1"/>
<polygon points="16.925925925925927 1.8888888888888893, 16.925925925925927 1.3703703703703702, 17.444444444444446 1.3703703703703702" fill="none" style="stroke:red;stroke-width:0.01"/>
<polygon points="0 0, 0 20, 20 20, 20 0" fill="none" style="stroke:blue;stroke-width:0.1"/>
<polygon points="15.888888888888891 1.8888888888888893, 16.40740740740741 1.3703703703703702, 16.40740740740741 0.8518518518518512, 16.925925925925927 1.3703703703703702, 17.444444444444446 1.3703703703703702, 16.925925925925927 1.8888888888888893, 16.40740740740741 1.8888888888888893" fill="none" style="stroke:black;stroke-width:0.05"/>
<polygon points="0 0, 0 20, 20 20, 20 0" fill="none" style="stroke:blue;stroke-width:0.1"/>
<text x="15.555555555555557" y="2.2222222222222214" font-family="Verdana" font-size="0.25">#blocks: 5</text>
<polygon points="15.555555555555557 2.2222222222222214, 15.555555555555557 0.0, 17.77777777777778 0.0, 17.77777777777778 2.2222222222222214" fill="none" style="stroke:black;stroke-width:0.01"/>
<polygon points="0 0, 0 20, 20 20, 20 0" fill="none" style="stroke:blue;stroke-width:0.1"/>
<polygon points="16.40740740740741 4.111111111111109, 16.40740740740741 3.5925925925925917, 16.925925925925927 3.5925925925925917, 17.444444444444446 3.5925925925925917, 17.444444444444446 4.111111111111109, 16.925925925925927 4.111111111111109" fill="none" style="stroke:red;stroke-width:0.01"/>
<polygon points="0 0, 0 20, 20 20, 20 0" fill="none" style="stroke:blue;stroke-width:0.1"/>
<polygon points="16.40740740740741 4.111111111111109, 15.888888888888891 3.5925925925925917, 16.40740740740741 3.5925925925925917" fill="none" style="stroke:red;stroke-width:0.01"/>
<polygon points="0 0, 0 20, 20 20, 20 0" fill="none" style="stroke:blue;stroke-width:0.1"/>
<polygon points="16.40740740740741 4.111111111111109, 15.888888888888891 3.5925925925925917, 16.40740740740741 3.5925925925925917, 16.925925925925927 3.5925925925925917, 17.444444444444446 3.5925925925925917, 17.444444444444446 4.111111111111109, 16.925925925925927 4.111111111111109" fill="none" style="stroke:black;stroke-width:0.05"/>
<polygon points="0 0, 0 20, 20 20, 20 0" fill="none" style="stroke:blue;stroke-width:0.1"/>
<text x="15.555555555555557" y="4.444444444444443" font-family="Verdana" font-size="0.25">#blocks: 5</text>
<polygon points="15.555555555555557 4.444444444444443, 15.555555555555557 2.2222222222222214, 17.77777777777778 2.2222222222222214, 17.77777777777778 4.444444444444443" fill="none" style="stroke:black;stroke-width:0.01"/>
<polygon points="0 0, 0 20, 20 20, 20 0" fill="none" style="stroke:blue;stroke-width:0.1"/>
<polygon points="16.40740740740741 6.333333333333332, 16.40740740740741 5.814814814814813, 16.925925925925927 5.296296296296296, 16.925925925925927 4.777777777777777, 17.444444444444446 5.296296296296296, 16.925925925925927 5.814814814814813" fill="none" style="stroke:red;stroke-width:0.01"/>
<polygon points="0 0, 0 20, 20 20, 20 0" fill="none" style="stroke:blue;stroke-width:0.1"/>
<polygon points="16.40740740740741 6.333333333333332, 15.888888888888891 5.814814814814813, 16.40740740740741 5.814814814814813" fill="none" style="stroke:red;stroke-width:0.01"/>
<polygon points="0 0, 0 20, 20 20, 20 0" fill="none" style="stroke:blue;stroke-width:0.1"/>
<polygon points="16.40740740740741 6.333333333333332, 15.888888888888891 5.814814814814813, 16.40740740740741 5.814814814814813, 16.925925925925927 5.296296296296296, 16.925925925925927 4.777777777777777, 17.444444444444446 5.296296296296296, 16.925925925925927 5.814814814814813" fill="none" style="stroke:black;stroke-width:0.05"/>
<polygon points="0 0, 0 20, 20 20, 20 0" fill="none" style="stroke:blue;stroke-width:0.1"/>
<text x="15.555555555555557" y="6.666666666666666" font-family="Verdana" font-size="0.25">#blocks: 5</text>
<polygon points="15.555555555555557 6.666666666666666, 15.555555555555557 4.444444444444443, 17.77777777777778 4.444444444444443, 17.77777777777778 6.666666666666666" fill="none" style="stroke:black;stroke-width:0.01"/>
</svg>
