<svg width="800" height="800" viewBox="0 0 20 20" preserveAspectRatio="xMinYMin meet" xmlns="http://www.w3.org/2000/svg">
<polygon points="0 0, 0 20, 20 20, 20 0" fill="none" style="stroke:blue;stroke-width:0.1"/>
<polygon points="0.46010718635435066 2.125, 0.375 1.863067013661908, 0.5978135065625614 1.7011835253302046, 0.8206270131251227 1.863067013661908, 0.7355198267707719 2.125" fill="none" style="stroke:black;stroke-width:0.05"/>
<polygon points="0 0, 0 20, 20 20, 20 0" fill="none" style="stroke:blue;stroke-width:0.1"/>
<text x="0.0" y="2.5" font-family="Verdana" font-size="0.25">#blocks: 1</text>
<polygon points="0.0 2.5, 0.0 0.0, 2.5 0.0, 2.5 2.5" fill="none" style="stroke:black;stroke-width:0.01"/>
<polygon points="0 0, 0 20, 20 20, 20 0" fill="none" style="stroke:blue;stroke-width:0.1"/>
<polygon points="0.8206270131251228 4.463116511668298, 0.735519826770772 4.201183525330206, 0.9583333333333333 4.039300036998505, 1.1811468398958946 4.201183525330206, 1.096039653541544 4.463116511668298" fill="none" style="stroke:red;stroke-width:0.01"/>
<polygon points="0 0, 0 20, 20 20, 20 0" fill="none" style="stroke:blue;stroke-width:0.1"/>
<polygon points="0.5978135065625613 4.625, 0.375 4.463116511668298, 0.46010718635435083 4.201183525330206, 0.7355198267707721 4.201183525330206, 0.8206270131251228 4.463116511668298" fill="none" style="stroke:red;stroke-width:0.01"/>
<polygon points="0 0, 0 20, 20 20, 20 0" fill="none" style="stroke:blue;stroke-width:0.1"/>
<polygon points="0.5978135065625613 4.625, 0.375 4.463116511668298, 0.46010718635435083 4.201183525330206, 0.735519826770772 4.201183525330206, 0.9583333333333333 4.039300036998505, 1.1811468398958946 4.201183525330206, 1.096039653541544 4.463116511668298, 0.8206270131251228 4.463116511668298" fill="none" style="stroke:black;stroke-width:0.05"/>
<polygon points="0 0, 0 20, 20 20, 20 0" fill="none" style="stroke:blue;stroke-width:0.1"/>
<text x="0.0" y="5.0" font-family="Verdana" font-size="0.25">#blocks: 2</text>
<polygon points="0.0 5.0, 0.0 2.5, 2.5 2.5, 2.5 5.0" fill="none" style="stroke:black;stroke-width:0.01"/>
<polygon points="0 0, 0 20, 20 20, 20 0" fill="none" style="stroke:blue;stroke-width:0.1"/>
<polygon points="0.5978135065625613 7.125, 0.375 6.963116511668298, 0.46010718635435083 6.701183525330206, 0.735519826770772 6.701183525330206, 0.9583333333333333 6.539300036998505, 1.1811468398958946 6.701183525330206, 1.096039653541544 6.963116511668298, 0.8206270131251228 6.963116511668298" fill="none" style="stroke:red;stroke-width:0.01"/>
<polygon points="0 0, 0 20, 20 20, 20 0" fill="none" style="stroke:blue;stroke-width:0.1"/>
<polygon points="0.46010718635435083 6.701183525330206, 0.3750000000000004 6.439250538992114, 0.5978135065625618 6.277367050660413, 0.820627013125123 6.439250538992114, 0.7355198267707721 6.701183525330206" fill="none" style="stroke:red;stroke-width:0.01"/>
<polygon points="0 0, 0 20, 20 20, 20 0" fill="none" style="stroke:blue;stroke-width:0.1"/>
<polygon points="0.5978135065625613 7.125, 0.375 6.963116511668298, 0.46010718635435083 6.701183525330206, 0.3750000000000004 6.439250538992114, 0.5978135065625618 6.277367050660413, 0.820627013125123 6.439250538992114, 0.735519826770772 6.701183525330206, 0.9583333333333333 6.539300036998505, 1.1811468398958946 6.701183525330206, 1.096039653541544 6.963116511668298, 0.8206270131251228 6.963116511668298" fill="none" style="stroke:black;stroke-width:0.05"/>
<polygon points="0 0, 0 20, 20 20, 20 0" fill="none" style="stroke:blue;stroke-width:0.1"/>
<text x="0.0" y="7.5" font-family="Verdana" font-size="0.25">#blocks: 3</text>
<polygon points="0.0 7.5, 0.0 5.0, 2.5 5.0, 2.5 7.5" fill="none" style="stroke:black;stroke-width:0.01"/>
<polygon points="0 0, 0 20, 20 20, 20 0" fill="none" style="stroke:blue;stroke-width:0.1"/>
<polygon points="0.8206270131251225 9.363067013661908, 0.5978135065625614 9.201183525330206, 0.6829206929169122 8.939250538992114, 0.9583333333333333 8.939250538992114, 1.1811468398958946 8.777367050660413, 1.403960346458456 8.939250538992114, 1.3188531601041054 9.201183525330206, 1.043440519687684 9.201183525330206" fill="none" style="stroke:red;stroke-width:0.01"/>
<polygon points="0 0, 0 20, 20 20, 20 0" fill="none" style="stroke:blue;stroke-width:0.1"/>
<polygon points="0.46010718635435044 9.625, 0.375 9.363067013661908, 0.5978135065625614 9.201183525330206, 0.8206270131251225 9.363067013661908, 0.7355198267707719 9.625" fill="none" style="stroke:red;stroke-width:0.01"/>
<polygon points="0 0, 0 20, 20 20, 20 0" fill="none" style="stroke:blue;stroke-width:0.1"/>
<polygon points="0.46010718635435044 9.625, 0.375 9.363067013661908, 0.5978135065625614 9.201183525330206, 0.6829206929169122 8.939250538992114, 0.9583333333333333 8.939250538992114, 1.1811468398958946 8.777367050660413, 1.403960346458456 8.939250538992114, 1.3188531601041054 9.201183525330206, 1.043440519687684 9.201183525330206, 0.8206270131251225 9.363067013661908, 0.7355198267707719 9.625" fill="none" style="stroke:black;stroke-width:0.05"/>
<polygon points="0 0, 0 20, 20 20, 20 0" fill="none" style="stroke:blue;stroke-width:0.1"/>
<text x="0.0" y="10.0" font-family="Verdana" font-size="0.25">#blocks: 3</text>
<polygon points="0.0 10.0, 0.0 7.5, 2.5 7.5, 2.5 10.0" fill="none" style="stroke:black;stroke-width:0.01"/>
<polygon points="0 0, 0 20, 20 20, 20 0" fill="none" style="stroke:blue;stroke-width:0.1"/>
<polygon points="0.8206270131251227 11.963116511668298, 0.7355198267707722 11.701183525330206, 0.9583333333333335 11.539300036998505, 1.0434405196876844 11.277367050660413, 1.3188531601041054 11.277367050660413, 1.5416666666666667 11.115483562328711, 1.7644801732292281 11.277367050660413, 1.6793729868748775 11.539300036998505, 1.4039603464584562 11.539300036998505, 1.1811468398958949 11.701183525330206, 1.096039653541544 11.963116511668298" fill="none" style="stroke:red;stroke-width:0.01"/>
<polygon points="0 0, 0 20, 20 20, 20 0" fill="none" style="stroke:blue;stroke-width:0.1"/>
<polygon points="0.5978135065625612 12.125, 0.375 11.963116511668298, 0.46010718635435083 11.701183525330206, 0.7355198267707722 11.701183525330206, 0.8206270131251227 11.963116511668298" fill="none" style="stroke:red;stroke-width:0.01"/>
<polygon points="0 0, 0 20, 20 20, 20 0" fill="none" style="stroke:blue;stroke-width:0.1"/>
<polygon points="0.5978135065625612 12.125, 0.375 11.963116511668298, 0.46010718635435083 11.701183525330206, 0.7355198267707722 11.701183525330206, 0.9583333333333335 11.539300036998505, 1.0434405196876844 11.277367050660413, 1.3188531601041054 11.277367050660413, 1.5416666666666667 11.115483562328711, 1.7644801732292281 11.277367050660413, 1.6793729868748775 11.539300036998505, 1.4039603464584562 11.539300036998505, 1.1811468398958949 11.701183525330206, 1.096039653541544 11.963116511668298, 0.8206270131251227 11.963116511668298" fill="none" style="stroke:black;stroke-width:0.05"/>
<polygon points="0 0, 0 20, 20 20, 20 0" fill="none" style="stroke:blue;stroke-width:0.1"/>
<text x="0.0" y="12.5" font-family="Verdana" font-size="0.25">#blocks: 4</text>
<polygon points="0.0 12.5, 0.0 10.0, 2.5 10.0, 2.5 12.5" fill="none" style="stroke:black;stroke-width:0.01"/>
<polygon points="0 0, 0 20, 20 20, 20 0" fill="none" style="stroke:blue;stroke-width:0.1"/>
<polygon points="0.9583333333333331 14.625, 0.7355198267707718 14.463116511668296, 0.8206270131251227 14.201183525330206, 0.7355198267707722 13.939250538992114, 0.9583333333333337 13.777367050660413, 1.1811468398958949 13.939250538992116, 1.0960396535415438 14.201183525330206, 1.3188531601041051 14.039300036998505, 1.5416666666666665 14.201183525330206, 1.4565594803123159 14.463116511668296, 1.1811468398958944 14.463116511668296" fill="none" style="stroke:red;stroke-width:0.01"/>
<polygon points="0 0, 0 20, 20 20, 20 0" fill="none" style="stroke:blue;stroke-width:0.1"/>
<polygon points="0.46010718635435044 14.463116511668296, 0.375 14.201183525330205, 0.5978135065625614 14.039300036998505, 0.8206270131251227 14.201183525330206, 0.7355198267707718 14.463116511668296" fill="none" style="stroke:red;stroke-width:0.01"/>
<polygon points="0 0, 0 20, 20 20, 20 0" fill="none" style="stroke:blue;stroke-width:0.1"/>
<polygon points="0.9583333333333331 14.625, 0.7355198267707718 14.463116511668296, 0.46010718635435044 14.463116511668296, 0.375 14.201183525330205, 0.5978135065625614 14.039300036998505, 0.8206270131251227 14.201183525330206, 0.7355198267707722 13.939250538992114, 0.9583333333333337 13.777367050660413, 1.1811468398958949 13.939250538992116, 1.0960396535415438 14.201183525330206, 1.3188531601041051 14.039300036998505, 1.5416666666666665 14.201183525330206, 1.4565594803123159 14.463116511668296, 1.1811468398958944 14.463116511668296" fill="none" style="stroke:black;stroke-width:0.05"/>
<polygon points="0 0, 0 20, 20 20, 20 0" fill="none" style="stroke:blue;stroke-width:0.1"/>
<text x="0.0" y="15.0" font-family="Verdana" font-size="0.25">#blocks: 4</text>
<polygon points="0.0 15.0, 0.0 12.5, 2.5 12.5, 2.5 15.0" fill="none" style="stroke:black;stroke-width:0.01"/>
<polygon points="0 0, 0 20, 20 20, 20 0" fill="none" style="stroke:blue;stroke-width:0.1"/>
<polygon points="3.458333333333333 2.125, 3.235519826770772 1.9631165116682965, 3.3206270131251228 1.7011835253302046, 3.2355198267707723 1.4392505389921162, 3.458333333333334 1.2773670506604127, 3.681146839895895 1.4392505389921162, 3.5960396535415438 1.7011835253302081, 3.818853160104105 1.5393000369985046, 4.041666666666666 1.7011835253302081, 3.9565594803123156 1.9631165116682965, 3.681146839895894 1.9631165116682965" fill="none" style="stroke:red;stroke-width:0.01"/>
<polygon points="0 0, 0 20, 20 20, 20 0" fill="none" style="stroke:blue;stroke-width:0.1"/>
<polygon points="3.097813506562561 1.863067013661908, 2.875 1.7011835253302046, 2.960107186354351 1.4392505389921126, 3.2355198267707723 1.4392505389921162, 3.3206270131251228 1.7011835253302046" fill="none" style="stroke:red;stroke-width:0.01"/>
<polygon points="0 0, 0 20, 20 20, 20 0" fill="none" style="stroke:blue;stroke-width:0.1"/>
<polygon points="3.458333333333333 2.125, 3.235519826770772 1.9631165116682965, 3.3206270131251228 1.7011835253302046, 3.097813506562561 1.863067013661908, 2.875 1.7011835253302046, 2.960107186354351 1.4392505389921126, 3.2355198267707723 1.4392505389921162, 3.458333333333334 1.2773670506604127, 3.681146839895895 1.4392505389921162, 3.5960396535415438 1.7011835253302081, 3.818853160104105 1.5393000369985046, 4.041666666666666 1.7011835253302081, 3.9565594803123156 1.9631165116682965, 3.681146839895894 1.9631165116682965" fill="none" style="stroke:black;stroke-width:0.05"/>
<polygon points="0 0, 0 20, 20 20, 20 0" fill="none" style="stroke:blue;stroke-width:0.1"/>
<text x="2.5" y="2.5" font-family="Verdana" font-size="0.25">#blocks: 4</text>
<polygon points="2.5 2.5, 2.5 0.0, 5.0 0.0, 5.0 2.5" fill="none" style="stroke:black;stroke-width:0.01"/>
<polygon points="0 0, 0 20, 20 20, 20 0" fill="none" style="stroke:blue;stroke-width:0.1"/>
<polygon points="3.3206270131251228 4.363067013661908, 3.097813506562561 4.201183525330206, 3.182920692916912 3.939250538992116, 3.0978135065625616 3.6773175526540243, 3.320627013125123 3.5154340643223208, 3.5434405196876844 3.6773175526540243, 3.458333333333333 3.939250538992116, 3.6811468398958946 3.7773670506604127, 3.9039603464584562 3.939250538992116, 3.8188531601041054 4.201183525330206, 3.543440519687684 4.201183525330206" fill="none" style="stroke:red;stroke-width:0.01"/>
<polygon points="0 0, 0 20, 20 20, 20 0" fill="none" style="stroke:blue;stroke-width:0.1"/>
<polygon points="2.9601071863543504 4.625, 2.875 4.363067013661908, 3.097813506562561 4.201183525330206, 3.3206270131251228 4.363067013661908, 3.235519826770772 4.625" fill="none" style="stroke:red;stroke-width:0.01"/>
<polygon points="0 0, 0 20, 20 20, 20 0" fill="none" style="stroke:blue;stroke-width:0.1"/>
<polygon points="2.9601071863543504 4.625, 2.875 4.363067013661908, 3.097813506562561 4.201183525330206, 3.182920692916912 3.939250538992116, 3.0978135065625616 3.6773175526540243, 3.320627013125123 3.5154340643223208, 3.5434405196876844 3.6773175526540243, 3.458333333333333 3.939250538992116, 3.6811468398958946 3.7773670506604127, 3.9039603464584562 3.939250538992116, 3.8188531601041054 4.201183525330206, 3.543440519687684 4.201183525330206, 3.3206270131251228 4.363067013661908, 3.235519826770772 4.625" fill="none" style="stroke:black;stroke-width:0.05"/>
<polygon points="0 0, 0 20, 20 20, 20 0" fill="none" style="stroke:blue;stroke-width:0.1"/>
<text x="2.5" y="5.0" font-family="Verdana" font-size="0.25">#blocks: 4</text>
<polygon points="2.5 5.0, 2.5 2.5, 5.0 2.5, 5.0 5.0" fill="none" style="stroke:black;stroke-width:0.01"/>
<polygon points="0 0, 0 20, 20 20, 20 0" fill="none" style="stroke:blue;stroke-width:0.1"/>
<polygon points="3.320627013125122 7.125, 3.0978135065625607 6.963116511668298, 3.1829206929169116 6.701183525330206, 3.097813506562561 6.439250538992114, 3.3206270131251228 6.277367050660413, 3.5434405196876835 6.439250538992114, 3.458333333333333 6.701183525330206, 3.681146839895894 6.539300036998505, 3.9039603464584554 6.701183525330206, 3.818853160104105 6.963116511668298, 3.5434405196876835 6.963116511668298" fill="none" style="stroke:red;stroke-width:0.01"/>
<polygon points="0 0, 0 20, 20 20, 20 0" fill="none" style="stroke:blue;stroke-width:0.1"/>
<polygon points="3.097813506562561 6.439250538992114, 2.875 6.277367050660413, 2.960107186354351 6.015434064322321, 3.2355198267707723 6.015434064322321, 3.3206270131251228 6.277367050660413" fill="none" style="stroke:red;stroke-width:0.01"/>
<polygon points="0 0, 0 20, 20 20, 20 0" fill="none" style="stroke:blue;stroke-width:0.1"/>
<polygon points="3.320627013125122 7.125, 3.0978135065625607 6.963116511668298, 3.1829206929169116 6.701183525330206, 3.097813506562561 6.439250538992114, 2.875 6.277367050660413, 2.960107186354351 6.015434064322321, 3.2355198267707723 6.015434064322321, 3.3206270131251228 6.277367050660413, 3.5434405196876835 6.439250538992114, 3.458333333333333 6.701183525330206, 3.681146839895894 6.539300036998505, 3.9039603464584554 6.701183525330206, 3.818853160104105 6.963116511668298, 3.5434405196876835 6.963116511668298" fill="none" style="stroke:black;stroke-width:0.05"/>
<polygon points="0 0, 0 20, 20 20, 20 0" fill="none" style="stroke:blue;stroke-width:0.1"/>
<text x="2.5" y="7.5" font-family="Verdana" font-size="0.25">#blocks: 4</text>
<polygon points="2.5 7.5, 2.5 5.0, 5.0 5.0, 5.0 7.5" fill="none" style="stroke:black;stroke-width:0.01"/>
<polygon points="0 0, 0 20, 20 20, 20 0" fill="none" style="stroke:blue;stroke-width:0.1"/>
<polygon points="2.9601071863543504 9.625, 2.875 9.363067013661908, 3.097813506562561 9.201183525330206, 3.182920692916912 8.939250538992114, 3.458333333333333 8.939250538992114, 3.6811468398958946 8.777367050660413, 3.9039603464584562 8.939250538992114, 3.8188531601041054 9.201183525330206, 3.543440519687684 9.201183525330206, 3.3206270131251228 9.363067013661908, 3.235519826770772 9.625" fill="none" style="stroke:red;stroke-width:0.01"/>
<polygon points="0 0, 0 20, 20 20, 20 0" fill="none" style="stroke:blue;stroke-width:0.1"/>
<polygon points="4.041666666666666 9.363067013661908, 3.8188531601041054 9.201183525330206, 3.9039603464584562 8.939250538992114, 4.179372986874878 8.939250538992114, 4.264480173229228 9.201183525330206" fill="none" style="stroke:red;stroke-width:0.01"/>
<polygon points="0 0, 0 20, 20 20, 20 0" fill="none" style="stroke:blue;stroke-width:0.1"/>
<polygon points="2.9601071863543504 9.625, 2.875 9.363067013661908, 3.097813506562561 9.201183525330206, 3.182920692916912 8.939250538992114, 3.458333333333333 8.939250538992114, 3.6811468398958946 8.777367050660413, 3.9039603464584562 8.939250538992114, 4.179372986874878 8.939250538992114, 4.264480173229228 9.201183525330206, 4.041666666666666 9.363067013661908, 3.8188531601041054 9.201183525330206, 3.543440519687684 9.201183525330206, 3.3206270131251228 9.363067013661908, 3.235519826770772 9.625" fill="none" style="stroke:black;stroke-width:0.05"/>
<polygon points="0 0, 0 20, 20 20, 20 0" fill="none" style="stroke:blue;stroke-width:0.1"/>
<text x="2.5" y="10.0" font-family="Verdana" font-size="0.25">#blocks: 4</text>
<polygon points="2.5 10.0, 2.5 7.5, 5.0 7.5, 5.0 10.0" fill="none" style="stroke:black;stroke-width:0.01"/>
<polygon points="0 0, 0 20, 20 20, 20 0" fill="none" style="stroke:blue;stroke-width:0.1"/>
<polygon points="3.097813506562561 12.125, 2.875 11.963116511668298, 2.960107186354351 11.701183525330206, 2.8750000000000004 11.439250538992114, 3.097813506562562 11.277367050660413, 3.320627013125123 11.439250538992114, 3.235519826770772 11.701183525330206, 3.458333333333333 11.539300036998505, 3.6811468398958946 11.701183525330206, 3.5960396535415438 11.963116511668298, 3.3206270131251228 11.963116511668298" fill="none" style="stroke:red;stroke-width:0.01"/>
<polygon points="0 0, 0 20, 20 20, 20 0" fill="none" style="stroke:blue;stroke-width:0.1"/>
<polygon points="3.3206270131251228 11.439250538992114, 3.097813506562562 11.277367050660413, 3.182920692916913 11.01543406432232, 3.4583333333333344 11.01543406432232, 3.5434405196876844 11.277367050660413" fill="none" style="stroke:red;stroke-width:0.01"/>
<polygon points="0 0, 0 20, 20 20, 20 0" fill="none" style="stroke:blue;stroke-width:0.1"/>
<polygon points="3.097813506562561 12.125, 2.875 11.963116511668298, 2.960107186354351 11.701183525330206, 2.8750000000000004 11.439250538992114, 3.097813506562562 11.277367050660413, 3.182920692916913 11.01543406432232, 3.4583333333333344 11.01543406432232, 3.5434405196876844 11.277367050660413, 3.320627013125123 11.439250538992114, 3.235519826770772 11.701183525330206, 3.458333333333333 11.539300036998505, 3.6811468398958946 11.701183525330206, 3.5960396535415438 11.963116511668298, 3.3206270131251228 11.963116511668298" fill="none" style="stroke:black;stroke-width:0.05"/>
<polygon points="0 0, 0 20, 20 20, 20 0" fill="none" style="stroke:blue;stroke-width:0.1"/>
<text x="2.5" y="12.5" font-family="Verdana" font-size="0.25">#blocks: 4</text>
<polygon points="2.5 12.5, 2.5 10.0, 5.0 10.0, 5.0 12.5" fill="none" style="stroke:black;stroke-width:0.01"/>
<polygon points="0 0, 0 20, 20 20, 20 0" fill="none" style="stroke:blue;stroke-width:0.1"/>
<polygon points="2.9601071863543504 14.625, 2.875 14.363067013661908, 3.097813506562561 14.201183525330206, 3.182920692916912 13.939250538992114, 3.458333333333333 13.939250538992114, 3.6811468398958946 13.777367050660413, 3.9039603464584562 13.939250538992114, 4.179372986874878 13.939250538992114, 4.264480173229228 14.201183525330206, 4.041666666666666 14.363067013661908, 3.8188531601041054 14.201183525330206, 3.543440519687684 14.201183525330206, 3.3206270131251228 14.363067013661908, 3.235519826770772 14.625" fill="none" style="stroke:red;stroke-width:0.01"/>
<polygon points="0 0, 0 20, 20 20, 20 0" fill="none" style="stroke:blue;stroke-width:0.1"/>
<polygon points="4.126773853021017 14.625, 4.041666666666666 14.363067013661908, 4.264480173229228 14.201183525330206, 4.487293679791789 14.363067013661908, 4.402186493437439 14.625" fill="none" style="stroke:red;stroke-width:0.01"/>
<polygon points="0 0, 0 20, 20 20, 20 0" fill="none" style="stroke:blue;stroke-width:0.1"/>
<polygon points="2.9601071863543504 14.625, 2.875 14.363067013661908, 3.097813506562561 14.201183525330206, 3.182920692916912 13.939250538992114, 3.458333333333333 13.939250538992114, 3.6811468398958946 13.777367050660413, 3.9039603464584562 13.939250538992114, 4.179372986874878 13.939250538992114, 4.264480173229228 14.201183525330206, 4.487293679791789 14.363067013661908, 4.402186493437439 14.625, 4.126773853021017 14.625, 4.041666666666666 14.363067013661908, 3.8188531601041054 14.201183525330206, 3.543440519687684 14.201183525330206, 3.3206270131251228 14.363067013661908, 3.235519826770772 14.625" fill="none" style="stroke:black;stroke-width:0.05"/>
<polygon points="0 0, 0 20, 20 20, 20 0" fill="none" style="stroke:blue;stroke-width:0.1"/>
<text x="2.5" y="15.0" font-family="Verdana" font-size="0.25">#blocks: 5</text>
<polygon points="2.5 15.0, 2.5 12.5, 5.0 12.5, 5.0 15.0" fill="none" style="stroke:black;stroke-width:0.01"/>
<polygon points="0 0, 0 20, 20 20, 20 0" fill="none" style="stroke:blue;stroke-width:0.1"/>
<polygon points="5.597813506562561 2.125, 5.375 1.9631165116682965, 5.46010718635435 1.7011835253302046, 5.735519826770772 1.7011835253302081, 5.958333333333334 1.5393000369985046, 6.043440519687684 1.2773670506604127, 6.318853160104106 1.2773670506604127, 6.541666666666667 1.1154835623287092, 6.764480173229228 1.2773670506604127, 6.679372986874878 1.5393000369985046, 6.403960346458456 1.5393000369985046, 6.181146839895895 1.7011835253302081, 6.096039653541544 1.9631165116682965, 5.820627013125122 1.9631165116682965" fill="none" style="stroke:red;stroke-width:0.01"/>
<polygon points="0 0, 0 20, 20 20, 20 0" fill="none" style="stroke:blue;stroke-width:0.1"/>
<polygon points="5.46010718635435 1.7011835253302046, 5.375000000000001 1.4392505389921126, 5.597813506562562 1.2773670506604127, 5.820627013125123 1.4392505389921162, 5.735519826770772 1.7011835253302081" fill="none" style="stroke:red;stroke-width:0.01"/>
<polygon points="0 0, 0 20, 20 20, 20 0" fill="none" style="stroke:blue;stroke-width:0.1"/>
<polygon points="5.597813506562561 2.125, 5.375 1.9631165116682965, 5.46010718635435 1.7011835253302046, 5.375000000000001 1.4392505389921126, 5.597813506562562 1.2773670506604127, 5.820627013125123 1.4392505389921162, 5.735519826770772 1.7011835253302081, 5.958333333333334 1.5393000369985046, 6.043440519687684 1.2773670506604127, 6.318853160104106 1.2773670506604127, 6.541666666666667 1.1154835623287092, 6.764480173229228 1.2773670506604127, 6.679372986874878 1.5393000369985046, 6.403960346458456 1.5393000369985046, 6.181146839895895 1.7011835253302081, 6.096039653541544 1.9631165116682965, 5.820627013125122 1.9631165116682965" fill="none" style="stroke:black;stroke-width:0.05"/>
<polygon points="0 0, 0 20, 20 20, 20 0" fill="none" style="stroke:blue;stroke-width:0.1"/>
<text x="5.0" y="2.5" font-family="Verdana" font-size="0.25">#blocks: 5</text>
<polygon points="5.0 2.5, 5.0 0.0, 7.5 0.0, 7.5 2.5" fill="none" style="stroke:black;stroke-width:0.01"/>
<polygon points="0 0, 0 20, 20 20, 20 0" fill="none" style="stroke:blue;stroke-width:0.1"/>
<polygon points="5.597813506562561 4.625, 5.375 4.463116511668298, 5.46010718635435 4.201183525330206, 5.735519826770772 4.201183525330206, 5.958333333333334 4.039300036998505, 6.043440519687684 3.7773670506604127, 6.318853160104106 3.7773670506604127, 6.541666666666667 3.615483562328709, 6.764480173229228 3.7773670506604127, 6.679372986874878 4.039300036998505, 6.403960346458456 4.039300036998505, 6.181146839895895 4.201183525330206, 6.096039653541544 4.463116511668298, 5.820627013125122 4.463116511668298" fill="none" style="stroke:red;stroke-width:0.01"/>
<polygon points="0 0, 0 20, 20 20, 20 0" fill="none" style="stroke:blue;stroke-width:0.1"/>
<polygon points="5.6829206929169125 4.039300036998505, 5.597813506562562 3.7773670506604127, 5.820627013125123 3.615483562328709, 6.043440519687684 3.7773670506604127, 5.958333333333334 4.039300036998505" fill="none" style="stroke:red;stroke-width:0.01"/>
<polygon points="0 0, 0 20, 20 20, 20 0" fill="none" style="stroke:blue;stroke-width:0.1"/>
<polygon points="5.597813506562561 4.625, 5.375 4.463116511668298, 5.46010718635435 4.201183525330206, 5.735519826770772 4.201183525330206, 5.958333333333334 4.039300036998505, 5.6829206929169125 4.039300036998505, 5.597813506562562 3.7773670506604127, 5.820627013125123 3.615483562328709, 6.043440519687684 3.7773670506604127, 6.318853160104106 3.7773670506604127, 6.541666666666667 3.615483562328709, 6.764480173229228 3.7773670506604127, 6.679372986874878 4.039300036998505, 6.403960346458456 4.039300036998505, 6.181146839895895 4.201183525330206, 6.096039653541544 4.463116511668298, 5.820627013125122 4.463116511668298" fill="none" style="stroke:black;stroke-width:0.05"/>
<polygon points="0 0, 0 20, 20 20, 20 0" fill="none" style="stroke:blue;stroke-width:0.1"/>
<text x="5.0" y="5.0" font-family="Verdana" font-size="0.25">#blocks: 5</text>
<polygon points="5.0 5.0, 5.0 2.5, 7.5 2.5, 7.5 5.0" fill="none" style="stroke:black;stroke-width:0.01"/>
<polygon points="0 0, 0 20, 20 20, 20 0" fill="none" style="stroke:blue;stroke-width:0.1"/>
<polygon points="5.597813506562561 7.125, 5.375 6.963116511668298, 5.46010718635435 6.701183525330206, 5.735519826770772 6.701183525330206, 5.958333333333334 6.539300036998505, 6.043440519687684 6.277367050660413, 6.318853160104106 6.277367050660413, 6.541666666666667 6.115483562328711, 6.764480173229228 6.277367050660413, 6.679372986874878 6.539300036998505, 6.403960346458456 6.539300036998505, 6.181146839895895 6.701183525330206, 6.096039653541544 6.963116511668298, 5.820627013125122 6.963116511668298" fill="none" style="stroke:red;stroke-width:0.01"/>
<polygon points="0 0, 0 20, 20 20, 20 0" fill="none" style="stroke:blue;stroke-width:0.1"/>
<polygon points="5.735519826770772 6.701183525330206, 5.512706320208211 6.539300036998505, 5.597813506562561 6.277367050660413, 5.873226146978983 6.277367050660413, 5.958333333333334 6.539300036998505" fill="none" style="stroke:red;stroke-width:0.01"/>
<polygon points="0 0, 0 20, 20 20, 20 0" fill="none" style="stroke:blue;stroke-width:0.1"/>
<polygon points="5.597813506562561 7.125, 5.375 6.963116511668298, 5.46010718635435 6.701183525330206, 5.735519826770772 6.701183525330206, 5.512706320208211 6.539300036998505, 5.597813506562561 6.277367050660413, 5.873226146978983 6.277367050660413, 5.958333333333334 6.539300036998505, 6.043440519687684 6.277367050660413, 6.318853160104106 6.277367050660413, 6.541666666666667 6.115483562328711, 6.764480173229228 6.277367050660413, 6.679372986874878 6.539300036998505, 6.403960346458456 6.539300036998505, 6.181146839895895 6.701183525330206, 6.096039653541544 6.963116511668298, 5.820627013125122 6.963116511668298" fill="none" style="stroke:black;stroke-width:0.05"/>
<polygon points="0 0, 0 20, 20 20, 20 0" fill="none" style="stroke:blue;stroke-width:0.1"/>
<text x="5.0" y="7.5" font-family="Verdana" font-size="0.25">#blocks: 5</text>
<polygon points="5.0 7.5, 5.0 5.0, 7.5 5.0, 7.5 7.5" fill="none" style="stroke:black;stroke-width:0.01"/>
<polygon points="0 0, 0 20, 20 20, 20 0" fill="none" style="stroke:blue;stroke-width:0.1"/>
<polygon points="6.318853160104105 9.625, 6.096039653541544 9.463116511668298, 6.181146839895894 9.201183525330206, 5.958333333333333 9.363067013661908, 5.735519826770772 9.201183525330206, 5.820627013125122 8.939250538992114, 6.096039653541544 8.939250538992114, 6.318853160104106 8.777367050660413, 6.541666666666666 8.939250538992114, 6.456559480312316 9.201183525330206, 6.679372986874877 9.039300036998505, 6.902186493437438 9.201183525330206, 6.8170793070830875 9.463116511668298, 6.541666666666666 9.463116511668298" fill="none" style="stroke:red;stroke-width:0.01"/>
<polygon points="0 0, 0 20, 20 20, 20 0" fill="none" style="stroke:blue;stroke-width:0.1"/>
<polygon points="5.46010718635435 9.201183525330205, 5.375 8.939250538992114, 5.597813506562562 8.777367050660411, 5.820627013125122 8.939250538992114, 5.735519826770772 9.201183525330206" fill="none" style="stroke:red;stroke-width:0.01"/>
<polygon points="0 0, 0 20, 20 20, 20 0" fill="none" style="stroke:blue;stroke-width:0.1"/>
<polygon points="6.318853160104105 9.625, 6.096039653541544 9.463116511668298, 6.181146839895894 9.201183525330206, 5.958333333333333 9.363067013661908, 5.735519826770772 9.201183525330206, 5.46010718635435 9.201183525330205, 5.375 8.939250538992114, 5.597813506562562 8.777367050660411, 5.820627013125122 8.939250538992114, 6.096039653541544 8.939250538992114, 6.318853160104106 8.777367050660413, 6.541666666666666 8.939250538992114, 6.456559480312316 9.201183525330206, 6.679372986874877 9.039300036998505, 6.902186493437438 9.201183525330206, 6.8170793070830875 9.463116511668298, 6.541666666666666 9.463116511668298" fill="none" style="stroke:black;stroke-width:0.05"/>
<polygon points="0 0, 0 20, 20 20, 20 0" fill="none" style="stroke:blue;stroke-width:0.1"/>
<text x="5.0" y="10.0" font-family="Verdana" font-size="0.25">#blocks: 5</text>
<polygon points="5.0 10.0, 5.0 7.5, 7.5 7.5, 7.5 10.0" fill="none" style="stroke:black;stroke-width:0.01"/>
<polygon points="0 0, 0 20, 20 20, 20 0" fill="none" style="stroke:blue;stroke-width:0.1"/>
<polygon points="5.46010718635435 12.125, 5.375 11.863067013661908, 5.597813506562561 11.701183525330206, 5.6829206929169125 11.439250538992114, 5.958333333333333 11.439250538992114, 6.181146839895895 11.277367050660413, 6.403960346458456 11.439250538992114, 6.679372986874878 11.439250538992114, 6.764480173229228 11.701183525330206, 6.541666666666666 11.863067013661908, 6.318853160104105 11.701183525330206, 6.0434405196876835 11.701183525330206, 5.820627013125122 11.863067013661908, 5.735519826770772 12.125" fill="none" style="stroke:red;stroke-width:0.01"/>
<polygon points="0 0, 0 20, 20 20, 20 0" fill="none" style="stroke:blue;stroke-width:0.1"/>
<polygon points="6.181146839895895 12.125, 6.096039653541544 11.863067013661908, 6.318853160104105 11.701183525330206, 6.541666666666666 11.863067013661908, 6.4565594803123165 12.125" fill="none" style="stroke:red;stroke-width:0.01"/>
<polygon points="0 0, 0 20, 20 20, 20 0" fill="none" style="stroke:blue;stroke-width:0.1"/>
<polygon points="5.46010718635435 12.125, 5.375 11.863067013661908, 5.597813506562561 11.701183525330206, 5.6829206929169125 11.439250538992114, 5.958333333333333 11.439250538992114, 6.181146839895895 11.277367050660413, 6.403960346458456 11.439250538992114, 6.679372986874878 11.439250538992114, 6.764480173229228 11.701183525330206, 6.541666666666666 11.863067013661908, 6.4565594803123165 12.125, 6.181146839895895 12.125, 6.096039653541544 11.863067013661908, 6.318853160104105 11.701183525330206, 6.0434405196876835 11.701183525330206, 5.820627013125122 11.863067013661908, 5.735519826770772 12.125" fill="none" style="stroke:black;stroke-width:0.05"/>
<polygon points="0 0, 0 20, 20 20, 20 0" fill="none" style="stroke:blue;stroke-width:0.1"/>
<text x="5.0" y="12.5" font-family="Verdana" font-size="0.25">#blocks: 5</text>
<polygon points="5.0 12.5, 5.0 10.0, 7.5 10.0, 7.5 12.5" fill="none" style="stroke:black;stroke-width:0.01"/>
<polygon points="0 0, 0 20, 20 20, 20 0" fill="none" style="stroke:blue;stroke-width:0.1"/>
<polygon points="5.820627013125122 14.625, 5.597813506562561 14.463116511668296, 5.682920692916912 14.201183525330206, 5.597813506562561 13.939250538992114, 5.375 13.777367050660413, 5.460107186354351 13.51543406432232, 5.735519826770772 13.51543406432232, 5.820627013125122 13.777367050660413, 6.0434405196876835 13.939250538992116, 5.958333333333333 14.201183525330206, 6.181146839895894 14.039300036998505, 6.403960346458455 14.201183525330206, 6.318853160104105 14.463116511668296, 6.0434405196876835 14.463116511668296" fill="none" style="stroke:red;stroke-width:0.01"/>
<polygon points="0 0, 0 20, 20 20, 20 0" fill="none" style="stroke:blue;stroke-width:0.1"/>
<polygon points="6.403960346458455 14.201183525330206, 6.181146839895894 14.039300036998505, 6.266254026250245 13.777367050660413, 6.541666666666666 13.777367050660413, 6.6267738530210165 14.039300036998505" fill="none" style="stroke:red;stroke-width:0.01"/>
<polygon points="0 0, 0 20, 20 20, 20 0" fill="none" style="stroke:blue;stroke-width:0.1"/>
<polygon points="5.820627013125122 14.625, 5.597813506562561 14.463116511668296, 5.682920692916912 14.201183525330206, 5.597813506562561 13.939250538992114, 5.375 13.777367050660413, 5.460107186354351 13.51543406432232, 5.735519826770772 13.51543406432232, 5.820627013125122 13.777367050660413, 6.0434405196876835 13.939250538992116, 5.958333333333333 14.201183525330206, 6.181146839895894 14.039300036998505, 6.266254026250245 13.777367050660413, 6.541666666666666 13.777367050660413, 6.6267738530210165 14.039300036998505, 6.403960346458455 14.201183525330206, 6.318853160104105 14.463116511668296, 6.0434405196876835 14.463116511668296" fill="none" style="stroke:black;stroke-width:0.05"/>
<polygon points="0 0, 0 20, 20 20, 20 0" fill="none" style="stroke:blue;stroke-width:0.1"/>
<text x="5.0" y="15.0" font-family="Verdana" font-size="0.25">#blocks: 5</text>
<polygon points="5.0 15.0, 5.0 12.5, 7.5 12.5, 7.5 15.0" fill="none" style="stroke:black;stroke-width:0.01"/>
<polygon points="0 0, 0 20, 20 20, 20 0" fill="none" style="stroke:blue;stroke-width:0.1"/>
<polygon points="8.097813506562561 2.125, 7.875 1.9631165116682965, 7.96010718635435 1.7011835253302046, 8.235519826770773 1.7011835253302081, 8.458333333333334 1.5393000369985046, 8.543440519687685 1.2773670506604127, 8.818853160104105 1.2773670506604127, 9.041666666666666 1.1154835623287092, 9.264480173229227 1.2773670506604127, 9.179372986874878 1.5393000369985046, 8.903960346458456 1.5393000369985046, 8.681146839895895 1.7011835253302081, 8.596039653541544 1.9631165116682965, 8.320627013125122 1.9631165116682965" fill="none" style="stroke:red;stroke-width:0.01"/>
<polygon points="0 0, 0 20, 20 20, 20 0" fill="none" style="stroke:blue;stroke-width:0.1"/>
<polygon points="8.818853160104105 1.2773670506604127, 8.596039653541544 1.1154835623287092, 8.681146839895895 0.8535505759906172, 8.956559480312317 0.8535505759906172, 9.041666666666666 1.1154835623287092" fill="none" style="stroke:red;stroke-width:0.01"/>
<polygon points="0 0, 0 20, 20 20, 20 0" fill="none" style="stroke:blue;stroke-width:0.1"/>
<polygon points="8.097813506562561 2.125, 7.875 1.9631165116682965, 7.96010718635435 1.7011835253302046, 8.235519826770773 1.7011835253302081, 8.458333333333334 1.5393000369985046, 8.543440519687685 1.2773670506604127, 8.818853160104105 1.2773670506604127, 8.596039653541544 1.1154835623287092, 8.681146839895895 0.8535505759906172, 8.956559480312317 0.8535505759906172, 9.041666666666666 1.1154835623287092, 9.264480173229227 1.2773670506604127, 9.179372986874878 1.5393000369985046, 8.903960346458456 1.5393000369985046, 8.681146839895895 1.7011835253302081, 8.596039653541544 1.9631165116682965, 8.320627013125122 1.9631165116682965" fill="none" style="stroke:black;stroke-width:0.05"/>
<polygon points="0 0, 0 20, 20 20, 20 0" fill="none" style="stroke:blue;stroke-width:0.1"/>
<text x="7.5" y="2.5" font-family="Verdana" font-size="0.25">#blocks: 5</text>
<polygon points="7.5 2.5, 7.5 0.0, 10.0 0.0, 10.0 2.5" fill="none" style="stroke:black;stroke-width:0.01"/>
<polygon points="0 0, 0 20, 20 20, 20 0" fill="none" style="stroke:blue;stroke-width:0.1"/>
<polygon points="8.681146839895893 4.625, 8.458333333333332 4.463116511668298, 8.543440519687683 4.201183525330206, 8.458333333333332 3.939250538992116, 8.235519826770771 3.7773670506604127, 8.320627013125122 3.5154340643223208, 8.596039653541544 3.5154340643223208, 8.681146839895895 3.7773670506604127, 8.903960346458456 3.939250538992116, 8.818853160104105 4.201183525330206, 9.041666666666666 4.039300036998505, 9.264480173229227 4.201183525330206, 9.179372986874876 4.463116511668298, 8.903960346458454 4.463116511668298" fill="none" style="stroke:red;stroke-width:0.01"/>
<polygon points="0 0, 0 20, 20 20, 20 0" fill="none" style="stroke:blue;stroke-width:0.1"/>
<polygon points="7.96010718635435 3.7773670506604127, 7.875 3.5154340643223208, 8.097813506562561 3.3535505759906172, 8.320627013125122 3.5154340643223208, 8.235519826770771 3.7773670506604127" fill="none" style="stroke:red;stroke-width:0.01"/>
<polygon points="0 0, 0 20, 20 20, 20 0" fill="none" style="stroke:blue;stroke-width:0.1"/>
<polygon points="8.681146839895893 4.625, 8.458333333333332 4.463116511668298, 8.543440519687683 4.201183525330206, 8.458333333333332 3.939250538992116, 8.235519826770771 3.7773670506604127, 7.96010718635435 3.7773670506604127, 7.875 3.5154340643223208, 8.097813506562561 3.3535505759906172, 8.320627013125122 3.5154340643223208, 8.596039653541544 3.5154340643223208, 8.681146839895895 3.7773670506604127, 8.903960346458456 3.939250538992116, 8.818853160104105 4.201183525330206, 9.041666666666666 4.039300036998505, 9.264480173229227 4.201183525330206, 9.179372986874876 4.463116511668298, 8.903960346458454 4.463116511668298" fill="none" style="stroke:black;stroke-width:0.05"/>
<polygon points="0 0, 0 20, 20 20, 20 0" fill="none" style="stroke:blue;stroke-width:0.1"/>
<text x="7.5" y="5.0" font-family="Verdana" font-size="0.25">#blocks: 5</text>
<polygon points="7.5 5.0, 7.5 2.5, 10.0 2.5, 10.0 5.0" fill="none" style="stroke:black;stroke-width:0.01"/>
<polygon points="0 0, 0 20, 20 20, 20 0" fill="none" style="stroke:blue;stroke-width:0.1"/>
<polygon points="8.097813506562561 7.125, 7.875 6.963116511668298, 7.96010718635435 6.701183525330206, 8.235519826770773 6.701183525330206, 8.458333333333334 6.539300036998505, 8.543440519687685 6.277367050660413, 8.818853160104105 6.277367050660413, 9.041666666666666 6.115483562328711, 9.264480173229227 6.277367050660413, 9.179372986874878 6.539300036998505, 8.903960346458456 6.539300036998505, 8.681146839895895 6.701183525330206, 8.596039653541544 6.963116511668298, 8.320627013125122 6.963116511668298" fill="none" style="stroke:red;stroke-width:0.01"/>
<polygon points="0 0, 0 20, 20 20, 20 0" fill="none" style="stroke:blue;stroke-width:0.1"/>
<polygon points="8.543440519687685 6.277367050660413, 8.458333333333334 6.015434064322321, 8.681146839895895 5.853550575990619, 8.903960346458456 6.015434064322321, 8.818853160104105 6.277367050660413" fill="none" style="stroke:red;stroke-width:0.01"/>
<polygon points="0 0, 0 20, 20 20, 20 0" fill="none" style="stroke:blue;stroke-width:0.1"/>
<polygon points="8.097813506562561 7.125, 7.875 6.963116511668298, 7.96010718635435 6.701183525330206, 8.235519826770773 6.701183525330206, 8.458333333333334 6.539300036998505, 8.543440519687685 6.277367050660413, 8.458333333333334 6.015434064322321, 8.681146839895895 5.853550575990619, 8.903960346458456 6.015434064322321, 8.818853160104105 6.277367050660413, 9.041666666666666 6.115483562328711, 9.264480173229227 6.277367050660413, 9.179372986874878 6.539300036998505, 8.903960346458456 6.539300036998505, 8.681146839895895 6.701183525330206, 8.596039653541544 6.963116511668298, 8.320627013125122 6.963116511668298" fill="none" style="stroke:black;stroke-width:0.05"/>
<polygon points="0 0, 0 20, 20 20, 20 0" fill="none" style="stroke:blue;stroke-width:0.1"/>
<text x="7.5" y="7.5" font-family="Verdana" font-size="0.25">#blocks: 5</text>
<polygon points="7.5 7.5, 7.5 5.0, 10.0 5.0, 10.0 7.5" fill="none" style="stroke:black;stroke-width:0.01"/>
<polygon points="0 0, 0 20, 20 20, 20 0" fill="none" style="stroke:blue;stroke-width:0.1"/>
<polygon points="8.458333333333334 9.363067013661908, 8.235519826770771 9.201183525330206, 7.96010718635435 9.201183525330206, 7.875 8.939250538992114, 8.097813506562561 8.777367050660413, 8.320627013125122 8.939250538992114, 8.235519826770773 8.677317552654022, 8.458333333333334 8.51543406432232, 8.681146839895895 8.677317552654024, 8.596039653541544 8.939250538992114, 8.818853160104105 8.777367050660413, 9.041666666666666 8.939250538992114, 8.956559480312317 9.201183525330206, 8.681146839895895 9.201183525330206" fill="none" style="stroke:red;stroke-width:0.01"/>
<polygon points="0 0, 0 20, 20 20, 20 0" fill="none" style="stroke:blue;stroke-width:0.1"/>
<polygon points="8.097813506562561 9.625, 8.01270632020821 9.363067013661908, 8.235519826770771 9.201183525330206, 8.458333333333334 9.363067013661908, 8.373226146978983 9.625" fill="none" style="stroke:red;stroke-width:0.01"/>
<polygon points="0 0, 0 20, 20 20, 20 0" fill="none" style="stroke:blue;stroke-width:0.1"/>
<polygon points="8.097813506562561 9.625, 8.01270632020821 9.363067013661908, 8.235519826770771 9.201183525330206, 7.96010718635435 9.201183525330206, 7.875 8.939250538992114, 8.097813506562561 8.777367050660413, 8.320627013125122 8.939250538992114, 8.235519826770773 8.677317552654022, 8.458333333333334 8.51543406432232, 8.681146839895895 8.677317552654024, 8.596039653541544 8.939250538992114, 8.818853160104105 8.777367050660413, 9.041666666666666 8.939250538992114, 8.956559480312317 9.201183525330206, 8.681146839895895 9.201183525330206, 8.458333333333334 9.363067013661908, 8.373226146978983 9.625" fill="none" style="stroke:black;stroke-width:0.05"/>
<polygon points="0 0, 0 20, 20 20, 20 0" fill="none" style="stroke:blue;stroke-width:0.1"/>
<text x="7.5" y="10.0" font-family="Verdana" font-size="0.25">#blocks: 5</text>
<polygon points="7.5 10.0, 7.5 7.5, 10.0 7.5, 10.0 10.0" fill="none" style="stroke:black;stroke-width:0.01"/>
<polygon points="0 0, 0 20, 20 20, 20 0" fill="none" style="stroke:blue;stroke-width:0.1"/>
<polygon points="8.458333333333334 11.863067013661908, 8.235519826770773 11.701183525330206, 7.96010718635435 11.701183525330206, 7.875 11.439250538992114, 8.097813506562561 11.277367050660413, 8.320627013125122 11.439250538992114, 8.235519826770773 11.177317552654024, 8.458333333333334 11.01543406432232, 8.681146839895895 11.177317552654024, 8.596039653541544 11.439250538992114, 8.818853160104105 11.277367050660413, 9.041666666666666 11.439250538992114, 8.956559480312317 11.701183525330206, 8.681146839895895 11.701183525330206" fill="none" style="stroke:red;stroke-width:0.01"/>
<polygon points="0 0, 0 20, 20 20, 20 0" fill="none" style="stroke:blue;stroke-width:0.1"/>
<polygon points="8.097813506562561 12.125, 7.875 11.963116511668298, 7.96010718635435 11.701183525330206, 8.235519826770773 11.701183525330206, 8.320627013125122 11.963116511668298" fill="none" style="stroke:red;stroke-width:0.01"/>
<polygon points="0 0, 0 20, 20 20, 20 0" fill="none" style="stroke:blue;stroke-width:0.1"/>
<polygon points="8.097813506562561 12.125, 7.875 11.963116511668298, 7.96010718635435 11.701183525330206, 7.875 11.439250538992114, 8.097813506562561 11.277367050660413, 8.320627013125122 11.439250538992114, 8.235519826770773 11.177317552654024, 8.458333333333334 11.01543406432232, 8.681146839895895 11.177317552654024, 8.596039653541544 11.439250538992114, 8.818853160104105 11.277367050660413, 9.041666666666666 11.439250538992114, 8.956559480312317 11.701183525330206, 8.681146839895895 11.701183525330206, 8.458333333333334 11.863067013661908, 8.235519826770773 11.701183525330206, 8.320627013125122 11.963116511668298" fill="none" style="stroke:black;stroke-width:0.05"/>
<polygon points="0 0, 0 20, 20 20, 20 0" fill="none" style="stroke:blue;stroke-width:0.1"/>
<text x="7.5" y="12.5" font-family="Verdana" font-size="0.25">#blocks: 5</text>
<polygon points="7.5 12.5, 7.5 10.0, 10.0 10.0, 10.0 12.5" fill="none" style="stroke:black;stroke-width:0.01"/>
<polygon points="0 0, 0 20, 20 20, 20 0" fill="none" style="stroke:blue;stroke-width:0.1"/>
<polygon points="8.681146839895895 14.625, 8.458333333333332 14.463116511668296, 8.18292069291691 14.463116511668296, 8.097813506562561 14.201183525330205, 8.320627013125122 14.039300036998505, 8.543440519687683 14.201183525330206, 8.458333333333334 13.939250538992114, 8.681146839895895 13.777367050660413, 8.903960346458456 13.939250538992116, 8.818853160104105 14.201183525330206, 9.041666666666666 14.039300036998505, 9.264480173229227 14.201183525330206, 9.179372986874878 14.463116511668296, 8.903960346458456 14.463116511668296" fill="none" style="stroke:red;stroke-width:0.01"/>
<polygon points="0 0, 0 20, 20 20, 20 0" fill="none" style="stroke:blue;stroke-width:0.1"/>
<polygon points="8.097813506562561 14.201183525330205, 7.875 14.039300036998503, 7.96010718635435 13.777367050660413, 8.235519826770773 13.777367050660413, 8.320627013125122 14.039300036998505" fill="none" style="stroke:red;stroke-width:0.01"/>
<polygon points="0 0, 0 20, 20 20, 20 0" fill="none" style="stroke:blue;stroke-width:0.1"/>
<polygon points="8.681146839895895 14.625, 8.458333333333332 14.463116511668296, 8.18292069291691 14.463116511668296, 8.097813506562561 14.201183525330205, 7.875 14.039300036998503, 7.96010718635435 13.777367050660413, 8.235519826770773 13.777367050660413, 8.320627013125122 14.039300036998505, 8.543440519687683 14.201183525330206, 8.458333333333334 13.939250538992114, 8.681146839895895 13.777367050660413, 8.903960346458456 13.939250538992116, 8.818853160104105 14.201183525330206, 9.041666666666666 14.039300036998505, 9.264480173229227 14.201183525330206, 9.179372986874878 14.463116511668296, 8.903960346458456 14.463116511668296" fill="none" style="stroke:black;stroke-width:0.05"/>
<polygon points="0 0, 0 20, 20 20, 20 0" fill="none" style="stroke:blue;stroke-width:0.1"/>
<text x="7.5" y="15.0" font-family="Verdana" font-size="0.25">#blocks: 5</text>
<polygon points="7.5 15.0, 7.5 12.5, 10.0 12.5, 10.0 15.0" fill="none" style="stroke:black;stroke-width:0.01"/>
<polygon points="0 0, 0 20, 20 20, 20 0" fill="none" style="stroke:blue;stroke-width:0.1"/>
<polygon points="10.958333333333334 2.125, 10.735519826770771 1.9631165116682965, 10.46010718635435 1.9631165116682965, 10.375 1.7011835253302046, 10.597813506562561 1.5393000369985046, 10.820627013125122 1.7011835253302046, 10.735519826770773 1.4392505389921162, 10.958333333333334 1.2773670506604127, 11.181146839895895 1.4392505389921162, 11.096039653541544 1.7011835253302081, 11.318853160104105 1.5393000369985046, 11.541666666666666 1.7011835253302081, 11.456559480312317 1.9631165116682965, 11.181146839895895 1.9631165116682965" fill="none" style="stroke:red;stroke-width:0.01"/>
<polygon points="0 0, 0 20, 20 20, 20 0" fill="none" style="stroke:blue;stroke-width:0.1"/>
<polygon points="10.735519826770773 1.4392505389921162, 10.512706320208212 1.2773670506604127, 10.597813506562561 1.0154340643223208, 10.873226146978983 1.0154340643223208, 10.958333333333334 1.2773670506604127" fill="none" style="stroke:red;stroke-width:0.01"/>
<polygon points="0 0, 0 20, 20 20, 20 0" fill="none" style="stroke:blue;stroke-width:0.1"/>
<polygon points="10.958333333333334 2.125, 10.735519826770771 1.9631165116682965, 10.46010718635435 1.9631165116682965, 10.375 1.7011835253302046, 10.597813506562561 1.5393000369985046, 10.820627013125122 1.7011835253302046, 10.735519826770773 1.4392505389921162, 10.512706320208212 1.2773670506604127, 10.597813506562561 1.0154340643223208, 10.873226146978983 1.0154340643223208, 10.958333333333334 1.2773670506604127, 11.181146839895895 1.4392505389921162, 11.096039653541544 1.7011835253302081, 11.318853160104105 1.5393000369985046, 11.541666666666666 1.7011835253302081, 11.456559480312317 1.9631165116682965, 11.181146839895895 1.9631165116682965" fill="none" style="stroke:black;stroke-width:0.05"/>
<polygon points="0 0, 0 20, 20 20, 20 0" fill="none" style="stroke:blue;stroke-width:0.1"/>
<text x="10.0" y="2.5" font-family="Verdana" font-size="0.25">#blocks: 5</text>
<polygon points="10.0 2.5, 10.0 0.0, 12.5 0.0, 12.5 2.5" fill="none" style="stroke:black;stroke-width:0.01"/>
<polygon points="0 0, 0 20, 20 20, 20 0" fill="none" style="stroke:blue;stroke-width:0.1"/>
<polygon points="10.958333333333334 4.363067013661908, 10.735519826770771 4.201183525330206, 10.820627013125122 3.939250538992116, 10.597813506562561 4.101134027323816, 10.375 3.9392505389921126, 10.460107186354351 3.6773175526540243, 10.735519826770773 3.6773175526540243, 10.958333333333334 3.5154340643223208, 11.181146839895895 3.6773175526540243, 11.096039653541544 3.939250538992116, 11.318853160104105 3.7773670506604127, 11.541666666666666 3.939250538992116, 11.456559480312317 4.201183525330206, 11.181146839895895 4.201183525330206" fill="none" style="stroke:red;stroke-width:0.01"/>
<polygon points="0 0, 0 20, 20 20, 20 0" fill="none" style="stroke:blue;stroke-width:0.1"/>
<polygon points="10.597813506562561 4.625, 10.51270632020821 4.363067013661908, 10.735519826770771 4.201183525330206, 10.958333333333334 4.363067013661908, 10.873226146978983 4.625" fill="none" style="stroke:red;stroke-width:0.01"/>
<polygon points="0 0, 0 20, 20 20, 20 0" fill="none" style="stroke:blue;stroke-width:0.1"/>
<polygon points="10.597813506562561 4.625, 10.51270632020821 4.363067013661908, 10.735519826770771 4.201183525330206, 10.820627013125122 3.939250538992116, 10.597813506562561 4.101134027323816, 10.375 3.9392505389921126, 10.460107186354351 3.6773175526540243, 10.735519826770773 3.6773175526540243, 10.958333333333334 3.5154340643223208, 11.181146839895895 3.6773175526540243, 11.096039653541544 3.939250538992116, 11.318853160104105 3.7773670506604127, 11.541666666666666 3.939250538992116, 11.456559480312317 4.201183525330206, 11.181146839895895 4.201183525330206, 10.958333333333334 4.363067013661908, 10.873226146978983 4.625" fill="none" style="stroke:black;stroke-width:0.05"/>
<polygon points="0 0, 0 20, 20 20, 20 0" fill="none" style="stroke:blue;stroke-width:0.1"/>
<text x="10.0" y="5.0" font-family="Verdana" font-size="0.25">#blocks: 5</text>
<polygon points="10.0 5.0, 10.0 2.5, 12.5 2.5, 12.5 5.0" fill="none" style="stroke:black;stroke-width:0.01"/>
<polygon points="0 0, 0 20, 20 20, 20 0" fill="none" style="stroke:blue;stroke-width:0.1"/>
<polygon points="11.181146839895895 7.125, 10.958333333333334 6.963116511668298, 11.043440519687683 6.701183525330206, 10.820627013125122 6.863067013661908, 10.597813506562561 6.701183525330206, 10.682920692916912 6.439250538992114, 10.958333333333334 6.439250538992114, 11.181146839895895 6.277367050660413, 11.403960346458456 6.439250538992114, 11.318853160104105 6.701183525330206, 11.541666666666666 6.539300036998505, 11.764480173229227 6.701183525330206, 11.679372986874878 6.963116511668298, 11.403960346458456 6.963116511668298" fill="none" style="stroke:red;stroke-width:0.01"/>
<polygon points="0 0, 0 20, 20 20, 20 0" fill="none" style="stroke:blue;stroke-width:0.1"/>
<polygon points="10.46010718635435 7.125, 10.375 6.863067013661908, 10.597813506562561 6.701183525330206, 10.820627013125122 6.863067013661908, 10.735519826770771 7.125" fill="none" style="stroke:red;stroke-width:0.01"/>
<polygon points="0 0, 0 20, 20 20, 20 0" fill="none" style="stroke:blue;stroke-width:0.1"/>
<polygon points="10.46010718635435 7.125, 10.375 6.863067013661908, 10.597813506562561 6.701183525330206, 10.682920692916912 6.439250538992114, 10.958333333333334 6.439250538992114, 11.181146839895895 6.277367050660413, 11.403960346458456 6.439250538992114, 11.318853160104105 6.701183525330206, 11.541666666666666 6.539300036998505, 11.764480173229227 6.701183525330206, 11.679372986874878 6.963116511668298, 11.403960346458456 6.963116511668298, 11.181146839895895 7.125, 10.958333333333334 6.963116511668298, 11.043440519687683 6.701183525330206, 10.820627013125122 6.863067013661908, 10.735519826770771 7.125" fill="none" style="stroke:black;stroke-width:0.05"/>
<polygon points="0 0, 0 20, 20 20, 20 0" fill="none" style="stroke:blue;stroke-width:0.1"/>
<text x="10.0" y="7.5" font-family="Verdana" font-size="0.25">#blocks: 5</text>
<polygon points="10.0 7.5, 10.0 5.0, 12.5 5.0, 12.5 7.5" fill="none" style="stroke:black;stroke-width:0.01"/>
<polygon points="0 0, 0 20, 20 20, 20 0" fill="none" style="stroke:blue;stroke-width:0.1"/>
<polygon points="10.958333333333334 9.625, 10.735519826770771 9.463116511668298, 10.820627013125122 9.201183525330206, 10.597813506562561 9.363067013661908, 10.375 9.201183525330206, 10.460107186354351 8.939250538992114, 10.735519826770773 8.939250538992114, 10.958333333333334 8.777367050660413, 11.181146839895895 8.939250538992114, 11.096039653541544 9.201183525330206, 11.318853160104105 9.039300036998505, 11.541666666666666 9.201183525330206, 11.456559480312317 9.463116511668298, 11.181146839895895 9.463116511668298" fill="none" style="stroke:red;stroke-width:0.01"/>
<polygon points="0 0, 0 20, 20 20, 20 0" fill="none" style="stroke:blue;stroke-width:0.1"/>
<polygon points="10.460107186354351 8.939250538992114, 10.375 8.677317552654022, 10.597813506562561 8.51543406432232, 10.820627013125122 8.677317552654022, 10.735519826770773 8.939250538992114" fill="none" style="stroke:red;stroke-width:0.01"/>
<polygon points="0 0, 0 20, 20 20, 20 0" fill="none" style="stroke:blue;stroke-width:0.1"/>
<polygon points="10.958333333333334 9.625, 10.735519826770771 9.463116511668298, 10.820627013125122 9.201183525330206, 10.597813506562561 9.363067013661908, 10.375 9.201183525330206, 10.460107186354351 8.939250538992114, 10.375 8.677317552654022, 10.597813506562561 8.51543406432232, 10.820627013125122 8.677317552654022, 10.735519826770773 8.939250538992114, 10.958333333333334 8.777367050660413, 11.181146839895895 8.939250538992114, 11.096039653541544 9.201183525330206, 11.318853160104105 9.039300036998505, 11.541666666666666 9.201183525330206, 11.456559480312317 9.463116511668298, 11.181146839895895 9.463116511668298" fill="none" style="stroke:black;stroke-width:0.05"/>
<polygon points="0 0, 0 20, 20 20, 20 0" fill="none" style="stroke:blue;stroke-width:0.1"/>
<text x="10.0" y="10.0" font-family="Verdana" font-size="0.25">#blocks: 5</text>
<polygon points="10.0 10.0, 10.0 7.5, 12.5 7.5, 12.5 10.0" fill="none" style="stroke:black;stroke-width:0.01"/>
<polygon points="0 0, 0 20, 20 20, 20 0" fill="none" style="stroke:blue;stroke-width:0.1"/>
<polygon points="10.682920692916912 12.125, 10.597813506562561 11.863067013661908, 10.820627013125122 11.701183525330206, 10.905734199479474 11.439250538992114, 10.820627013125122 11.177317552654022, 11.043440519687685 11.01543406432232, 11.266254026250246 11.177317552654024, 11.181146839895895 11.439250538992114, 11.403960346458456 11.277367050660413, 11.626773853021017 11.439250538992114, 11.541666666666666 11.701183525330206, 11.266254026250245 11.701183525330206, 11.043440519687683 11.863067013661908, 10.958333333333334 12.125" fill="none" style="stroke:red;stroke-width:0.01"/>
<polygon points="0 0, 0 20, 20 20, 20 0" fill="none" style="stroke:blue;stroke-width:0.1"/>
<polygon points="10.597813506562561 11.863067013661908, 10.375 11.701183525330206, 10.460107186354351 11.439250538992114, 10.735519826770773 11.439250538992114, 10.820627013125122 11.701183525330206" fill="none" style="stroke:red;stroke-width:0.01"/>
<polygon points="0 0, 0 20, 20 20, 20 0" fill="none" style="stroke:blue;stroke-width:0.1"/>
<polygon points="10.682920692916912 12.125, 10.597813506562561 11.863067013661908, 10.375 11.701183525330206, 10.460107186354351 11.439250538992114, 10.735519826770773 11.439250538992114, 10.820627013125122 11.701183525330206, 10.905734199479474 11.439250538992114, 10.820627013125122 11.177317552654022, 11.043440519687685 11.01543406432232, 11.266254026250246 11.177317552654024, 11.181146839895895 11.439250538992114, 11.403960346458456 11.277367050660413, 11.626773853021017 11.439250538992114, 11.541666666666666 11.701183525330206, 11.266254026250245 11.701183525330206, 11.043440519687683 11.863067013661908, 10.958333333333334 12.125" fill="none" style="stroke:black;stroke-width:0.05"/>
<polygon points="0 0, 0 20, 20 20, 20 0" fill="none" style="stroke:blue;stroke-width:0.1"/>
<text x="10.0" y="12.5" font-family="Verdana" font-size="0.25">#blocks: 5</text>
<polygon points="10.0 12.5, 10.0 10.0, 12.5 10.0, 12.5 12.5" fill="none" style="stroke:black;stroke-width:0.01"/>
<polygon points="0 0, 0 20, 20 20, 20 0" fill="none" style="stroke:blue;stroke-width:0.1"/>
<polygon points="11.043440519687683 14.625, 10.820627013125122 14.463116511668296, 10.905734199479474 14.201183525330206, 10.820627013125122 13.939250538992114, 10.597813506562561 13.777367050660413, 10.682920692916912 13.51543406432232, 10.958333333333334 13.51543406432232, 11.043440519687683 13.777367050660413, 11.266254026250245 13.939250538992116, 11.181146839895895 14.201183525330206, 11.403960346458456 14.039300036998505, 11.626773853021017 14.201183525330206, 11.541666666666666 14.463116511668296, 11.266254026250245 14.463116511668296" fill="none" style="stroke:red;stroke-width:0.01"/>
<polygon points="0 0, 0 20, 20 20, 20 0" fill="none" style="stroke:blue;stroke-width:0.1"/>
<polygon points="10.46010718635435 14.201183525330205, 10.375 13.939250538992113, 10.597813506562561 13.777367050660413, 10.820627013125122 13.939250538992114, 10.735519826770771 14.201183525330206" fill="none" style="stroke:red;stroke-width:0.01"/>
<polygon points="0 0, 0 20, 20 20, 20 0" fill="none" style="stroke:blue;stroke-width:0.1"/>
<polygon points="11.043440519687683 14.625, 10.820627013125122 14.463116511668296, 10.905734199479474 14.201183525330206, 10.820627013125122 13.939250538992114, 10.735519826770771 14.201183525330206, 10.46010718635435 14.201183525330205, 10.375 13.939250538992113, 10.597813506562561 13.777367050660413, 10.682920692916912 13.51543406432232, 10.958333333333334 13.51543406432232, 11.043440519687683 13.777367050660413, 11.266254026250245 13.939250538992116, 11.181146839895895 14.201183525330206, 11.403960346458456 14.039300036998505, 11.626773853021017 14.201183525330206, 11.541666666666666 14.463116511668296, 11.266254026250245 14.463116511668296" fill="none" style="stroke:black;stroke-width:0.05"/>
<polygon points="0 0, 0 20, 20 20, 20 0" fill="none" style="stroke:blue;stroke-width:0.1"/>
<text x="10.0" y="15.0" font-family="Verdana" font-size="0.25">#blocks: 5</text>
<polygon points="10.0 15.0, 10.0 12.5, 12.5 12.5, 12.5 15.0" fill="none" style="stroke:black;stroke-width:0.01"/>
<polygon points="0 0, 0 20, 20 20, 20 0" fill="none" style="stroke:blue;stroke-width:0.1"/>
<polygon points="13.320627013125122 2.125, 13.097813506562561 1.9631165116682965, 13.182920692916912 1.7011835253302046, 13.097813506562561 1.4392505389921162, 12.875 1.2773670506604127, 12.960107186354351 1.0154340643223208, 13.235519826770773 1.0154340643223208, 13.320627013125122 1.2773670506604127, 13.543440519687683 1.4392505389921162, 13.458333333333332 1.7011835253302081, 13.681146839895893 1.5393000369985046, 13.903960346458456 1.7011835253302081, 13.818853160104105 1.9631165116682965, 13.543440519687683 1.9631165116682965" fill="none" style="stroke:red;stroke-width:0.01"/>
<polygon points="0 0, 0 20, 20 20, 20 0" fill="none" style="stroke:blue;stroke-width:0.1"/>
<polygon points="13.320627013125122 1.2773670506604127, 13.235519826770773 1.0154340643223208, 13.458333333333334 0.8535505759906172, 13.681146839895895 1.0154340643223208, 13.596039653541544 1.2773670506604127" fill="none" style="stroke:red;stroke-width:0.01"/>
<polygon points="0 0, 0 20, 20 20, 20 0" fill="none" style="stroke:blue;stroke-width:0.1"/>
<polygon points="13.320627013125122 2.125, 13.097813506562561 1.9631165116682965, 13.182920692916912 1.7011835253302046, 13.097813506562561 1.4392505389921162, 12.875 1.2773670506604127, 12.960107186354351 1.0154340643223208, 13.235519826770773 1.0154340643223208, 13.458333333333334 0.8535505759906172, 13.681146839895895 1.0154340643223208, 13.596039653541544 1.2773670506604127, 13.320627013125122 1.2773670506604127, 13.543440519687683 1.4392505389921162, 13.458333333333332 1.7011835253302081, 13.681146839895893 1.5393000369985046, 13.903960346458456 1.7011835253302081, 13.818853160104105 1.9631165116682965, 13.543440519687683 1.9631165116682965" fill="none" style="stroke:black;stroke-width:0.05"/>
<polygon points="0 0, 0 20, 20 20, 20 0" fill="none" style="stroke:blue;stroke-width:0.1"/>
<text x="12.5" y="2.5" font-family="Verdana" font-size="0.25">#blocks: 5</text>
<polygon points="12.5 2.5, 12.5 0.0, 15.0 0.0, 15.0 2.5" fill="none" style="stroke:black;stroke-width:0.01"/>
<polygon points="0 0, 0 20, 20 20, 20 0" fill="none" style="stroke:blue;stroke-width:0.1"/>
<polygon points="13.320627013125122 4.363067013661908, 13.097813506562561 4.201183525330206, 13.182920692916912 3.939250538992116, 13.458333333333334 3.939250538992116, 13.681146839895895 3.7773670506604127, 13.766254026250246 3.5154340643223208, 14.041666666666668 3.5154340643223208, 14.264480173229229 3.353550575990621, 14.48729367979179 3.5154340643223208, 14.402186493437439 3.7773670506604127, 14.126773853021017 3.7773670506604127, 13.903960346458456 3.939250538992116, 13.818853160104105 4.201183525330206, 13.543440519687683 4.201183525330206" fill="none" style="stroke:red;stroke-width:0.01"/>
<polygon points="0 0, 0 20, 20 20, 20 0" fill="none" style="stroke:blue;stroke-width:0.1"/>
<polygon points="12.96010718635435 4.625, 12.875 4.363067013661908, 13.097813506562561 4.201183525330206, 13.320627013125122 4.363067013661908, 13.235519826770771 4.625" fill="none" style="stroke:red;stroke-width:0.01"/>
<polygon points="0 0, 0 20, 20 20, 20 0" fill="none" style="stroke:blue;stroke-width:0.1"/>
<polygon points="12.96010718635435 4.625, 12.875 4.363067013661908, 13.097813506562561 4.201183525330206, 13.182920692916912 3.939250538992116, 13.458333333333334 3.939250538992116, 13.681146839895895 3.7773670506604127, 13.766254026250246 3.5154340643223208, 14.041666666666668 3.5154340643223208, 14.264480173229229 3.353550575990621, 14.48729367979179 3.5154340643223208, 14.402186493437439 3.7773670506604127, 14.126773853021017 3.7773670506604127, 13.903960346458456 3.939250538992116, 13.818853160104105 4.201183525330206, 13.543440519687683 4.201183525330206, 13.320627013125122 4.363067013661908, 13.235519826770771 4.625" fill="none" style="stroke:black;stroke-width:0.05"/>
<polygon points="0 0, 0 20, 20 20, 20 0" fill="none" style="stroke:blue;stroke-width:0.1"/>
<text x="12.5" y="5.0" font-family="Verdana" font-size="0.25">#blocks: 5</text>
<polygon points="12.5 5.0, 12.5 2.5, 15.0 2.5, 15.0 5.0" fill="none" style="stroke:black;stroke-width:0.01"/>
<polygon points="0 0, 0 20, 20 20, 20 0" fill="none" style="stroke:blue;stroke-width:0.1"/>
<polygon points="13.458333333333332 7.125, 13.235519826770771 6.963116511668298, 13.320627013125122 6.701183525330206, 13.596039653541544 6.701183525330206, 13.818853160104105 6.539300036998505, 13.903960346458456 6.277367050660413, 14.179372986874878 6.277367050660413, 14.402186493437439 6.115483562328711, 14.625 6.277367050660413, 14.539892813645649 6.539300036998505, 14.264480173229227 6.539300036998505, 14.041666666666666 6.701183525330206, 13.956559480312317 6.963116511668298, 13.681146839895895 6.963116511668298" fill="none" style="stroke:red;stroke-width:0.01"/>
<polygon points="0 0, 0 20, 20 20, 20 0" fill="none" style="stroke:blue;stroke-width:0.1"/>
<polygon points="12.96010718635435 6.9631165116682965, 12.875 6.701183525330206, 13.097813506562561 6.539300036998505, 13.320627013125122 6.701183525330206, 13.235519826770771 6.963116511668298" fill="none" style="stroke:red;stroke-width:0.01"/>
<polygon points="0 0, 0 20, 20 20, 20 0" fill="none" style="stroke:blue;stroke-width:0.1"/>
<polygon points="13.458333333333332 7.125, 13.235519826770771 6.963116511668298, 12.96010718635435 6.9631165116682965, 12.875 6.701183525330206, 13.097813506562561 6.539300036998505, 13.320627013125122 6.701183525330206, 13.596039653541544 6.701183525330206, 13.818853160104105 6.539300036998505, 13.903960346458456 6.277367050660413, 14.179372986874878 6.277367050660413, 14.402186493437439 6.115483562328711, 14.625 6.277367050660413, 14.539892813645649 6.539300036998505, 14.264480173229227 6.539300036998505, 14.041666666666666 6.701183525330206, 13.956559480312317 6.963116511668298, 13.681146839895895 6.963116511668298" fill="none" style="stroke:black;stroke-width:0.05"/>
<polygon points="0 0, 0 20, 20 20, 20 0" fill="none" style="stroke:blue;stroke-width:0.1"/>
<text x="12.5" y="7.5" font-family="Verdana" font-size="0.25">#blocks: 5</text>
<polygon points="12.5 7.5, 12.5 5.0, 15.0 5.0, 15.0 7.5" fill="none" style="stroke:black;stroke-width:0.01"/>
<polygon points="0 0, 0 20, 20 20, 20 0" fill="none" style="stroke:blue;stroke-width:0.1"/>
<polygon points="13.097813506562561 9.625, 12.875 9.463116511668298, 12.960107186354351 9.201183525330206, 12.875 8.939250538992114, 13.097813506562561 8.777367050660413, 13.182920692916912 8.51543406432232, 13.458333333333334 8.51543406432232, 13.543440519687685 8.777367050660413, 13.320627013125122 8.939250538992114, 13.235519826770773 9.201183525330206, 13.458333333333334 9.039300036998505, 13.681146839895895 9.201183525330206, 13.596039653541544 9.463116511668298, 13.320627013125122 9.463116511668298" fill="none" style="stroke:red;stroke-width:0.01"/>
<polygon points="0 0, 0 20, 20 20, 20 0" fill="none" style="stroke:blue;stroke-width:0.1"/>
<polygon points="13.681146839895895 9.201183525330206, 13.458333333333334 9.039300036998505, 13.543440519687683 8.777367050660413, 13.818853160104105 8.777367050660413, 13.903960346458456 9.039300036998505" fill="none" style="stroke:red;stroke-width:0.01"/>
<polygon points="0 0, 0 20, 20 20, 20 0" fill="none" style="stroke:blue;stroke-width:0.1"/>
<polygon points="13.097813506562561 9.625, 12.875 9.463116511668298, 12.960107186354351 9.201183525330206, 12.875 8.939250538992114, 13.097813506562561 8.777367050660413, 13.182920692916912 8.51543406432232, 13.458333333333334 8.51543406432232, 13.543440519687683 8.777367050660413, 13.818853160104105 8.777367050660413, 13.903960346458456 9.039300036998505, 13.681146839895895 9.201183525330206, 13.596039653541544 9.463116511668298, 13.320627013125122 9.463116511668298" fill="none" style="stroke:black;stroke-width:0.05"/>
<polygon points="0 0, 0 20, 20 20, 20 0" fill="none" style="stroke:blue;stroke-width:0.1"/>
<text x="12.5" y="10.0" font-family="Verdana" font-size="0.25">#blocks: 5</text>
<polygon points="12.5 10.0, 12.5 7.5, 15.0 7.5, 15.0 10.0" fill="none" style="stroke:black;stroke-width:0.01"/>
<polygon points="0 0, 0 20, 20 20, 20 0" fill="none" style="stroke:blue;stroke-width:0.1"/>
<polygon points="12.96010718635435 12.125, 12.875 11.863067013661908, 13.097813506562561 11.701183525330206, 13.182920692916912 11.439250538992114, 13.097813506562561 11.177317552654022, 13.320627013125122 11.01543406432232, 13.543440519687685 11.177317552654024, 13.458333333333334 11.439250538992114, 13.681146839895895 11.277367050660413, 13.903960346458456 11.439250538992114, 13.818853160104105 11.701183525330206, 13.543440519687683 11.701183525330206, 13.320627013125122 11.863067013661908, 13.235519826770771 12.125" fill="none" style="stroke:red;stroke-width:0.01"/>
<polygon points="0 0, 0 20, 20 20, 20 0" fill="none" style="stroke:blue;stroke-width:0.1"/>
<polygon points="13.097813506562561 11.177317552654022, 12.875 11.01543406432232, 12.960107186354351 10.753501077984229, 13.235519826770773 10.753501077984229, 13.320627013125124 11.01543406432232" fill="none" style="stroke:red;stroke-width:0.01"/>
<polygon points="0 0, 0 20, 20 20, 20 0" fill="none" style="stroke:blue;stroke-width:0.1"/>
<polygon points="12.96010718635435 12.125, 12.875 11.863067013661908, 13.097813506562561 11.701183525330206, 13.182920692916912 11.439250538992114, 13.097813506562561 11.177317552654022, 12.875 11.01543406432232, 12.960107186354351 10.753501077984229, 13.235519826770773 10.753501077984229, 13.320627013125122 11.01543406432232, 13.543440519687685 11.177317552654024, 13.458333333333334 11.439250538992114, 13.681146839895895 11.277367050660413, 13.903960346458456 11.439250538992114, 13.818853160104105 11.701183525330206, 13.543440519687683 11.701183525330206, 13.320627013125122 11.863067013661908, 13.235519826770771 12.125" fill="none" style="stroke:black;stroke-width:0.05"/>
<polygon points="0 0, 0 20, 20 20, 20 0" fill="none" style="stroke:blue;stroke-width:0.1"/>
<text x="12.5" y="12.5" font-family="Verdana" font-size="0.25">#blocks: 5</text>
<polygon points="12.5 12.5, 12.5 10.0, 15.0 10.0, 15.0 12.5" fill="none" style="stroke:black;stroke-width:0.01"/>
<polygon points="0 0, 0 20, 20 20, 20 0" fill="none" style="stroke:blue;stroke-width:0.1"/>
<polygon points="13.320627013125122 14.625, 13.097813506562561 14.463116511668296, 13.182920692916912 14.201183525330206, 13.097813506562561 13.939250538992114, 12.875 13.777367050660413, 12.960107186354351 13.51543406432232, 13.235519826770773 13.51543406432232, 13.320627013125122 13.777367050660413, 13.543440519687683 13.939250538992114, 13.458333333333332 14.201183525330206, 13.681146839895893 14.039300036998505, 13.903960346458456 14.201183525330206, 13.818853160104105 14.463116511668296, 13.543440519687683 14.463116511668296" fill="none" style="stroke:red;stroke-width:0.01"/>
<polygon points="0 0, 0 20, 20 20, 20 0" fill="none" style="stroke:blue;stroke-width:0.1"/>
<polygon points="14.041666666666666 14.625, 13.818853160104105 14.463116511668296, 13.903960346458456 14.201183525330206, 14.179372986874878 14.201183525330206, 14.264480173229227 14.463116511668296" fill="none" style="stroke:red;stroke-width:0.01"/>
<polygon points="0 0, 0 20, 20 20, 20 0" fill="none" style="stroke:blue;stroke-width:0.1"/>
<polygon points="13.320627013125122 14.625, 13.097813506562561 14.463116511668296, 13.182920692916912 14.201183525330206, 13.097813506562561 13.939250538992114, 12.875 13.777367050660413, 12.960107186354351 13.51543406432232, 13.235519826770773 13.51543406432232, 13.320627013125122 13.777367050660413, 13.543440519687683 13.939250538992114, 13.458333333333332 14.201183525330206, 13.681146839895893 14.039300036998505, 13.903960346458456 14.201183525330206, 14.179372986874878 14.201183525330206, 14.264480173229227 14.463116511668296, 14.041666666666666 14.625, 13.818853160104105 14.463116511668296, 13.543440519687683 14.463116511668296" fill="none" style="stroke:black;stroke-width:0.05"/>
<polygon points="0 0, 0 20, 20 20, 20 0" fill="none" style="stroke:blue;stroke-width:0.1"/>
<text x="12.5" y="15.0" font-family="Verdana" font-size="0.25">#blocks: 5</text>
<polygon points="12.5 15.0, 12.5 12.5, 15.0 12.5, 15.0 15.0" fill="none" style="stroke:black;stroke-width:0.01"/>
</svg>
