<svg width="800" height="800" viewBox="0 0 20 20" preserveAspectRatio="xMinYMin meet" xmlns="http://www.w3.org/2000/svg">
<polygon points="0 0, 0 20, 20 20, 20 0" fill="none" style="stroke:blue;stroke-width:0.1"/>
<polygon points="0.7715030745910965 3.3999999999999986, 0.6 2.872167810756043, 1.0490008784545988 2.5459495774470113, 1.498001756909198 2.872167810756043, 1.3264986823181013 3.3999999999999986" fill="none" style="stroke:black;stroke-width:0.05"/>
<polygon points="0 0, 0 20, 20 20, 20 0" fill="none" style="stroke:blue;stroke-width:0.1"/>
<text x="0.0" y="4.0" font-family="Verdana" font-size="0.25">#blocks: 1</text>
<polygon points="0.0 4.0, 0.0 0.0, 4.0 0.0, 4.0 4.0" fill="none" style="stroke:black;stroke-width:0.01"/>
<polygon points="0 0, 0 20, 20 20, 20 0" fill="none" style="stroke:blue;stroke-width:0.1"/>
<polygon points="1.498001756909198 7.073781766690969, 1.3264986823181015 6.545949577447011, 1.7754995607727002 6.21973134413798, 2.2245004392272993 6.545949577447011, 2.052997364636203 7.073781766690969" fill="none" style="stroke:red;stroke-width:0.01"/>
<polygon points="0 0, 0 20, 20 20, 20 0" fill="none" style="stroke:blue;stroke-width:0.1"/>
<polygon points="1.0490008784545988 7.4, 0.6 7.073781766690969, 0.7715030745910967 6.545949577447011, 1.3264986823181018 6.545949577447011, 1.498001756909198 7.073781766690969" fill="none" style="stroke:red;stroke-width:0.01"/>
<polygon points="0 0, 0 20, 20 20, 20 0" fill="none" style="stroke:blue;stroke-width:0.1"/>
<polygon points="1.0490008784545988 7.4, 0.6 7.073781766690969, 0.7715030745910967 6.545949577447011, 1.3264986823181015 6.545949577447011, 1.7754995607727002 6.21973134413798, 2.2245004392272993 6.545949577447011, 2.052997364636203 7.073781766690969, 1.498001756909198 7.073781766690969" fill="none" style="stroke:black;stroke-width:0.05"/>
<polygon points="0 0, 0 20, 20 20, 20 0" fill="none" style="stroke:blue;stroke-width:0.1"/>
<text x="0.0" y="8.0" font-family="Verdana" font-size="0.25">#blocks: 2</text>
<polygon points="0.0 8.0, 0.0 4.0, 4.0 4.0, 4.0 8.0" fill="none" style="stroke:black;stroke-width:0.01"/>
<polygon points="0 0, 0 20, 20 20, 20 0" fill="none" style="stroke:blue;stroke-width:0.1"/>
<polygon points="1.0490008784545988 11.4, 0.6 11.073781766690969, 0.7715030745910967 10.545949577447011, 1.3264986823181015 10.545949577447011, 1.7754995607727002 10.21973134413798, 2.2245004392272993 10.545949577447011, 2.052997364636203 11.073781766690969, 1.498001756909198 11.073781766690969" fill="none" style="stroke:red;stroke-width:0.01"/>
<polygon points="0 0, 0 20, 20 20, 20 0" fill="none" style="stroke:blue;stroke-width:0.1"/>
<polygon points="0.7715030745910967 10.545949577447011, 0.6000000000000009 10.018117388203054, 1.0490008784546 9.691899154894022, 1.4980017569091983 10.018117388203056, 1.3264986823181018 10.545949577447011" fill="none" style="stroke:red;stroke-width:0.01"/>
<polygon points="0 0, 0 20, 20 20, 20 0" fill="none" style="stroke:blue;stroke-width:0.1"/>
<polygon points="1.0490008784545988 11.4, 0.6 11.073781766690969, 0.7715030745910967 10.545949577447011, 0.6000000000000009 10.018117388203054, 1.0490008784546 9.691899154894022, 1.4980017569091983 10.018117388203056, 1.3264986823181015 10.545949577447011, 1.7754995607727002 10.21973134413798, 2.2245004392272993 10.545949577447011, 2.052997364636203 11.073781766690969, 1.498001756909198 11.073781766690969" fill="none" style="stroke:black;stroke-width:0.05"/>
<polygon points="0 0, 0 20, 20 20, 20 0" fill="none" style="stroke:blue;stroke-width:0.1"/>
<text x="0.0" y="12.0" font-family="Verdana" font-size="0.25">#blocks: 3</text>
<polygon points="0.0 12.0, 0.0 8.0, 4.0 8.0, 4.0 12.0" fill="none" style="stroke:black;stroke-width:0.01"/>
<polygon points="0 0, 0 20, 20 20, 20 0" fill="none" style="stroke:blue;stroke-width:0.1"/>
<polygon points="5.498001756909198 2.872167810756043, 5.049000878454598 2.545949577447008, 5.220503953045696 2.018117388203052, 5.7754995607727 2.018117388203052, 6.224500439227299 1.6918991548940205, 6.6735013176818985 2.018117388203052, 6.501998243090802 2.5459495774470113, 5.947002635363797 2.5459495774470113" fill="none" style="stroke:red;stroke-width:0.01"/>
<polygon points="0 0, 0 20, 20 20, 20 0" fill="none" style="stroke:blue;stroke-width:0.1"/>
<polygon points="4.771503074591096 3.3999999999999986, 4.6 2.872167810756043, 5.049000878454598 2.545949577447008, 5.498001756909198 2.872167810756043, 5.326498682318101 3.3999999999999986" fill="none" style="stroke:red;stroke-width:0.01"/>
<polygon points="0 0, 0 20, 20 20, 20 0" fill="none" style="stroke:blue;stroke-width:0.1"/>
<polygon points="4.771503074591096 3.3999999999999986, 4.6 2.872167810756043, 5.049000878454598 2.545949577447008, 5.220503953045696 2.018117388203052, 5.7754995607727 2.018117388203052, 6.224500439227299 1.6918991548940205, 6.6735013176818985 2.018117388203052, 6.501998243090802 2.5459495774470113, 5.947002635363797 2.5459495774470113, 5.498001756909198 2.872167810756043, 5.326498682318101 3.3999999999999986" fill="none" style="stroke:black;stroke-width:0.05"/>
<polygon points="0 0, 0 20, 20 20, 20 0" fill="none" style="stroke:blue;stroke-width:0.1"/>
<text x="4.0" y="4.0" font-family="Verdana" font-size="0.25">#blocks: 3</text>
<polygon points="4.0 4.0, 4.0 0.0, 8.0 0.0, 8.0 4.0" fill="none" style="stroke:black;stroke-width:0.01"/>
<polygon points="0 0, 0 20, 20 20, 20 0" fill="none" style="stroke:blue;stroke-width:0.1"/>
<polygon points="5.498001756909198 7.073781766690969, 5.3264986823181015 6.545949577447011, 5.775499560772701 6.21973134413798, 5.9470026353637975 5.691899154894022, 6.501998243090802 5.691899154894022, 6.950999121545401 5.365680921584991, 7.4 5.691899154894022, 7.228496925408904 6.21973134413798, 6.6735013176818985 6.21973134413798, 6.2245004392273 6.545949577447011, 6.052997364636203 7.073781766690969" fill="none" style="stroke:red;stroke-width:0.01"/>
<polygon points="0 0, 0 20, 20 20, 20 0" fill="none" style="stroke:blue;stroke-width:0.1"/>
<polygon points="5.049000878454598 7.4, 4.6 7.073781766690967, 4.771503074591096 6.545949577447011, 5.3264986823181015 6.545949577447011, 5.498001756909198 7.073781766690969" fill="none" style="stroke:red;stroke-width:0.01"/>
<polygon points="0 0, 0 20, 20 20, 20 0" fill="none" style="stroke:blue;stroke-width:0.1"/>
<polygon points="5.049000878454598 7.4, 4.6 7.073781766690967, 4.771503074591096 6.545949577447011, 5.3264986823181015 6.545949577447011, 5.775499560772701 6.21973134413798, 5.9470026353637975 5.691899154894022, 6.501998243090802 5.691899154894022, 6.950999121545401 5.365680921584991, 7.4 5.691899154894022, 7.228496925408904 6.21973134413798, 6.6735013176818985 6.21973134413798, 6.2245004392273 6.545949577447011, 6.052997364636203 7.073781766690969, 5.498001756909198 7.073781766690969" fill="none" style="stroke:black;stroke-width:0.05"/>
<polygon points="0 0, 0 20, 20 20, 20 0" fill="none" style="stroke:blue;stroke-width:0.1"/>
<text x="4.0" y="8.0" font-family="Verdana" font-size="0.25">#blocks: 4</text>
<polygon points="4.0 8.0, 4.0 4.0, 8.0 4.0, 8.0 8.0" fill="none" style="stroke:black;stroke-width:0.01"/>
<polygon points="0 0, 0 20, 20 20, 20 0" fill="none" style="stroke:blue;stroke-width:0.1"/>
<polygon points="5.775499560772699 11.4, 5.326498682318101 11.073781766690969, 5.498001756909198 10.545949577447011, 5.3264986823181015 10.018117388203054, 5.775499560772701 9.691899154894022, 6.2245004392273 10.018117388203054, 6.0529973646362025 10.545949577447011, 6.501998243090801 10.21973134413798, 6.950999121545401 10.545949577447011, 6.7794960469543035 11.073781766690969, 6.224500439227299 11.073781766690969" fill="none" style="stroke:red;stroke-width:0.01"/>
<polygon points="0 0, 0 20, 20 20, 20 0" fill="none" style="stroke:blue;stroke-width:0.1"/>
<polygon points="4.771503074591096 11.073781766690967, 4.6 10.545949577447011, 5.049000878454599 10.219731344137978, 5.498001756909198 10.545949577447011, 5.326498682318101 11.073781766690969" fill="none" style="stroke:red;stroke-width:0.01"/>
<polygon points="0 0, 0 20, 20 20, 20 0" fill="none" style="stroke:blue;stroke-width:0.1"/>
<polygon points="5.775499560772699 11.4, 5.326498682318101 11.073781766690969, 4.771503074591096 11.073781766690967, 4.6 10.545949577447011, 5.049000878454599 10.219731344137978, 5.498001756909198 10.545949577447011, 5.3264986823181015 10.018117388203054, 5.775499560772701 9.691899154894022, 6.2245004392273 10.018117388203054, 6.0529973646362025 10.545949577447011, 6.501998243090801 10.21973134413798, 6.950999121545401 10.545949577447011, 6.7794960469543035 11.073781766690969, 6.224500439227299 11.073781766690969" fill="none" style="stroke:black;stroke-width:0.05"/>
<polygon points="0 0, 0 20, 20 20, 20 0" fill="none" style="stroke:blue;stroke-width:0.1"/>
<text x="4.0" y="12.0" font-family="Verdana" font-size="0.25">#blocks: 4</text>
<polygon points="4.0 12.0, 4.0 8.0, 8.0 8.0, 8.0 12.0" fill="none" style="stroke:black;stroke-width:0.01"/>
<polygon points="0 0, 0 20, 20 20, 20 0" fill="none" style="stroke:blue;stroke-width:0.1"/>
<polygon points="9.7754995607727 3.3999999999999986, 9.326498682318102 3.073781766690967, 9.498001756909197 2.545949577447008, 9.326498682318102 2.018117388203052, 9.775499560772701 1.6918991548940205, 10.224500439227299 2.018117388203052, 10.052997364636202 2.5459495774470113, 10.501998243090801 2.2197313441379762, 10.9509991215454 2.5459495774470113, 10.779496046954304 3.073781766690967, 10.224500439227299 3.073781766690967" fill="none" style="stroke:red;stroke-width:0.01"/>
<polygon points="0 0, 0 20, 20 20, 20 0" fill="none" style="stroke:blue;stroke-width:0.1"/>
<polygon points="9.049000878454597 2.8721678107560393, 8.6 2.545949577447008, 8.771503074591097 2.018117388203052, 9.326498682318102 2.018117388203052, 9.498001756909197 2.545949577447008" fill="none" style="stroke:red;stroke-width:0.01"/>
<polygon points="0 0, 0 20, 20 20, 20 0" fill="none" style="stroke:blue;stroke-width:0.1"/>
<polygon points="9.7754995607727 3.3999999999999986, 9.326498682318102 3.073781766690967, 9.498001756909197 2.545949577447008, 9.049000878454597 2.8721678107560393, 8.6 2.545949577447008, 8.771503074591097 2.018117388203052, 9.326498682318102 2.018117388203052, 9.775499560772701 1.6918991548940205, 10.224500439227299 2.018117388203052, 10.052997364636202 2.5459495774470113, 10.501998243090801 2.2197313441379762, 10.9509991215454 2.5459495774470113, 10.779496046954304 3.073781766690967, 10.224500439227299 3.073781766690967" fill="none" style="stroke:black;stroke-width:0.05"/>
<polygon points="0 0, 0 20, 20 20, 20 0" fill="none" style="stroke:blue;stroke-width:0.1"/>
<text x="8.0" y="4.0" font-family="Verdana" font-size="0.25">#blocks: 4</text>
<polygon points="8.0 4.0, 8.0 0.0, 12.0 0.0, 12.0 4.0" fill="none" style="stroke:black;stroke-width:0.01"/>
<polygon points="0 0, 0 20, 20 20, 20 0" fill="none" style="stroke:blue;stroke-width:0.1"/>
<polygon points="9.498001756909197 6.872167810756043, 9.0490008784546 6.545949577447011, 9.220503953045695 6.018117388203054, 9.0490008784546 5.490285198959096, 9.498001756909199 5.164066965650065, 9.947002635363798 5.490285198959098, 9.775499560772701 6.018117388203054, 10.224500439227299 5.691899154894022, 10.673501317681898 6.018117388203054, 10.501998243090801 6.545949577447011, 9.947002635363797 6.545949577447011" fill="none" style="stroke:red;stroke-width:0.01"/>
<polygon points="0 0, 0 20, 20 20, 20 0" fill="none" style="stroke:blue;stroke-width:0.1"/>
<polygon points="8.771503074591095 7.4, 8.6 6.872167810756043, 9.0490008784546 6.545949577447011, 9.498001756909197 6.872167810756043, 9.326498682318102 7.4" fill="none" style="stroke:red;stroke-width:0.01"/>
<polygon points="0 0, 0 20, 20 20, 20 0" fill="none" style="stroke:blue;stroke-width:0.1"/>
<polygon points="8.771503074591095 7.4, 8.6 6.872167810756043, 9.0490008784546 6.545949577447011, 9.220503953045695 6.018117388203054, 9.0490008784546 5.490285198959096, 9.498001756909199 5.164066965650065, 9.947002635363798 5.490285198959098, 9.775499560772701 6.018117388203054, 10.224500439227299 5.691899154894022, 10.673501317681898 6.018117388203054, 10.501998243090801 6.545949577447011, 9.947002635363797 6.545949577447011, 9.498001756909197 6.872167810756043, 9.326498682318102 7.4" fill="none" style="stroke:black;stroke-width:0.05"/>
<polygon points="0 0, 0 20, 20 20, 20 0" fill="none" style="stroke:blue;stroke-width:0.1"/>
<text x="8.0" y="8.0" font-family="Verdana" font-size="0.25">#blocks: 4</text>
<polygon points="8.0 8.0, 8.0 4.0, 12.0 4.0, 12.0 8.0" fill="none" style="stroke:black;stroke-width:0.01"/>
<polygon points="0 0, 0 20, 20 20, 20 0" fill="none" style="stroke:blue;stroke-width:0.1"/>
<polygon points="9.498001756909197 11.4, 9.049000878454597 11.073781766690969, 9.220503953045695 10.545949577447011, 9.0490008784546 10.018117388203054, 9.498001756909197 9.691899154894022, 9.947002635363797 10.018117388203054, 9.7754995607727 10.545949577447011, 10.224500439227299 10.21973134413798, 10.673501317681897 10.545949577447011, 10.501998243090801 11.073781766690969, 9.947002635363795 11.073781766690969" fill="none" style="stroke:red;stroke-width:0.01"/>
<polygon points="0 0, 0 20, 20 20, 20 0" fill="none" style="stroke:blue;stroke-width:0.1"/>
<polygon points="9.0490008784546 10.018117388203054, 8.6 9.69189915489402, 8.771503074591097 9.164066965650065, 9.326498682318102 9.164066965650065, 9.498001756909197 9.691899154894022" fill="none" style="stroke:red;stroke-width:0.01"/>
<polygon points="0 0, 0 20, 20 20, 20 0" fill="none" style="stroke:blue;stroke-width:0.1"/>
<polygon points="9.498001756909197 11.4, 9.049000878454597 11.073781766690969, 9.220503953045695 10.545949577447011, 9.0490008784546 10.018117388203054, 8.6 9.69189915489402, 8.771503074591097 9.164066965650065, 9.326498682318102 9.164066965650065, 9.498001756909197 9.691899154894022, 9.947002635363797 10.018117388203054, 9.7754995607727 10.545949577447011, 10.224500439227299 10.21973134413798, 10.673501317681897 10.545949577447011, 10.501998243090801 11.073781766690969, 9.947002635363795 11.073781766690969" fill="none" style="stroke:black;stroke-width:0.05"/>
<polygon points="0 0, 0 20, 20 20, 20 0" fill="none" style="stroke:blue;stroke-width:0.1"/>
<text x="8.0" y="12.0" font-family="Verdana" font-size="0.25">#blocks: 4</text>
<polygon points="8.0 12.0, 8.0 8.0, 12.0 8.0, 12.0 12.0" fill="none" style="stroke:black;stroke-width:0.01"/>
<polygon points="0 0, 0 20, 20 20, 20 0" fill="none" style="stroke:blue;stroke-width:0.1"/>
<polygon points="12.771503074591095 3.3999999999999986, 12.6 2.872167810756043, 13.0490008784546 2.545949577447008, 13.220503953045695 2.018117388203052, 13.775499560772701 2.018117388203052, 14.224500439227299 1.6918991548940205, 14.673501317681898 2.018117388203052, 14.501998243090801 2.5459495774470113, 13.947002635363797 2.5459495774470113, 13.498001756909197 2.872167810756043, 13.326498682318102 3.3999999999999986" fill="none" style="stroke:red;stroke-width:0.01"/>
<polygon points="0 0, 0 20, 20 20, 20 0" fill="none" style="stroke:blue;stroke-width:0.1"/>
<polygon points="14.9509991215454 2.872167810756043, 14.501998243090801 2.5459495774470113, 14.673501317681898 2.018117388203052, 15.228496925408903 2.018117388203052, 15.4 2.5459495774470113" fill="none" style="stroke:red;stroke-width:0.01"/>
<polygon points="0 0, 0 20, 20 20, 20 0" fill="none" style="stroke:blue;stroke-width:0.1"/>
<polygon points="12.771503074591095 3.3999999999999986, 12.6 2.872167810756043, 13.0490008784546 2.545949577447008, 13.220503953045695 2.018117388203052, 13.775499560772701 2.018117388203052, 14.224500439227299 1.6918991548940205, 14.673501317681898 2.018117388203052, 15.228496925408903 2.018117388203052, 15.4 2.5459495774470113, 14.9509991215454 2.872167810756043, 14.501998243090801 2.5459495774470113, 13.947002635363797 2.5459495774470113, 13.498001756909197 2.872167810756043, 13.326498682318102 3.3999999999999986" fill="none" style="stroke:black;stroke-width:0.05"/>
<polygon points="0 0, 0 20, 20 20, 20 0" fill="none" style="stroke:blue;stroke-width:0.1"/>
<text x="12.0" y="4.0" font-family="Verdana" font-size="0.25">#blocks: 4</text>
<polygon points="12.0 4.0, 12.0 0.0, 16.0 0.0, 16.0 4.0" fill="none" style="stroke:black;stroke-width:0.01"/>
<polygon points="0 0, 0 20, 20 20, 20 0" fill="none" style="stroke:blue;stroke-width:0.1"/>
<polygon points="13.0490008784546 7.4, 12.6 7.073781766690969, 12.771503074591097 6.545949577447011, 12.6 6.018117388203054, 13.0490008784546 5.691899154894022, 13.498001756909199 6.018117388203054, 13.326498682318102 6.545949577447011, 13.775499560772701 6.21973134413798, 14.224500439227299 6.545949577447011, 14.052997364636203 7.073781766690969, 13.498001756909197 7.073781766690969" fill="none" style="stroke:red;stroke-width:0.01"/>
<polygon points="0 0, 0 20, 20 20, 20 0" fill="none" style="stroke:blue;stroke-width:0.1"/>
<polygon points="13.498001756909199 6.018117388203056, 13.0490008784546 5.691899154894022, 13.220503953045696 5.164066965650065, 13.775499560772703 5.164066965650065, 13.947002635363798 5.691899154894024" fill="none" style="stroke:red;stroke-width:0.01"/>
<polygon points="0 0, 0 20, 20 20, 20 0" fill="none" style="stroke:blue;stroke-width:0.1"/>
<polygon points="13.0490008784546 7.4, 12.6 7.073781766690969, 12.771503074591097 6.545949577447011, 12.6 6.018117388203054, 13.0490008784546 5.691899154894022, 13.220503953045696 5.164066965650065, 13.775499560772703 5.164066965650065, 13.947002635363798 5.691899154894024, 13.498001756909199 6.018117388203054, 13.326498682318102 6.545949577447011, 13.775499560772701 6.21973134413798, 14.224500439227299 6.545949577447011, 14.052997364636203 7.073781766690969, 13.498001756909197 7.073781766690969" fill="none" style="stroke:black;stroke-width:0.05"/>
<polygon points="0 0, 0 20, 20 20, 20 0" fill="none" style="stroke:blue;stroke-width:0.1"/>
<text x="12.0" y="8.0" font-family="Verdana" font-size="0.25">#blocks: 4</text>
<polygon points="12.0 8.0, 12.0 4.0, 16.0 4.0, 16.0 8.0" fill="none" style="stroke:black;stroke-width:0.01"/>
</svg>
