<svg width="800" height="800" viewBox="0 0 20 20" preserveAspectRatio="xMinYMin meet" xmlns="http://www.w3.org/2000/svg">
<polygon points="0 0, 0 20, 20 20, 20 0" fill="none" style="stroke:blue;stroke-width:0.1"/>
<polygon points="10.24633655433353 4.729546725864273, 9.75366344566647 3.213254810110712, 11.043498389499902 2.276134869308315, 12.333333333333334 3.213254810110712, 11.840660224666275 4.729546725864273" fill="none" style="stroke:red;stroke-width:0.001"/>
<polygon points="0 0, 0 20, 20 20, 20 0" fill="none" style="stroke:blue;stroke-width:0.1"/>
<polygon points="8.956501610500098 5.666666666666666, 7.666666666666667 4.729546725864271, 8.159339775333727 3.2132548101107083, 9.753663445666472 3.2132548101107083, 10.24633655433353 4.729546725864273" fill="none" style="stroke:red;stroke-width:0.001"/>
<polygon points="0 0, 0 20, 20 20, 20 0" fill="none" style="stroke:blue;stroke-width:0.1"/>
<polygon points="8.956501610500098 5.666666666666666, 7.666666666666667 4.729546725864271, 8.159339775333727 3.2132548101107083, 9.75366344566647 3.213254810110712, 11.043498389499902 2.276134869308315, 12.333333333333334 3.213254810110712, 11.840660224666275 4.729546725864273, 10.24633655433353 4.729546725864273" fill="none" style="stroke:black;stroke-width:0.005"/>
<polygon points="0 0, 0 20, 20 20, 20 0" fill="none" style="stroke:blue;stroke-width:0.1"/>
<text x="6.666666666666667" y="6.666666666666666" font-family="Verdana" font-size="0.25">2</text>
<polygon points="6.666666666666667 6.666666666666666, 6.666666666666667 0.0, 13.333333333333334 0.0, 13.333333333333334 6.666666666666666" fill="none" style="stroke:black;stroke-width:0.001"/>
</svg>
