<svg width="800" height="800" viewBox="0 0 20 20" preserveAspectRatio="xMinYMin meet" xmlns="http://www.w3.org/2000/svg">
<polygon points="0 0, 0 20, 20 20, 20 0" fill="none" style="stroke:blue;stroke-width:0.1"/>
<polygon points="2.265796552613703 8.699354670361116, 1.976305171079445 7.808391811259009, 2.734203447386297 7.2577464816201225, 3.4921017236931484 7.808391811259009, 3.20261034215889 8.699354670361116" fill="none" style="stroke:red;stroke-width:0.001"/>
<polygon points="0 0, 0 20, 20 20, 20 0" fill="none" style="stroke:blue;stroke-width:0.1"/>
<polygon points="1.5078982763068514 9.25, 0.75 8.699354670361114, 1.0394913815342588 7.808391811259007, 1.9763051710794457 7.808391811259009, 2.265796552613703 8.699354670361116" fill="none" style="stroke:red;stroke-width:0.001"/>
<polygon points="0 0, 0 20, 20 20, 20 0" fill="none" style="stroke:blue;stroke-width:0.1"/>
<polygon points="1.5078982763068514 9.25, 0.75 8.699354670361114, 1.0394913815342588 7.808391811259007, 1.976305171079445 7.808391811259009, 2.734203447386297 7.2577464816201225, 3.4921017236931484 7.808391811259009, 3.20261034215889 8.699354670361116, 2.265796552613703 8.699354670361116" fill="none" style="stroke:black;stroke-width:0.005"/>
<polygon points="0 0, 0 20, 20 20, 20 0" fill="none" style="stroke:blue;stroke-width:0.1"/>
<text x="0.0" y="10.0" font-family="Verdana" font-size="0.25">2</text>
<polygon points="0.0 10.0, 0.0 5.0, 5.0 5.0, 5.0 10.0" fill="none" style="stroke:black;stroke-width:0.001"/>
<polygon points="0 0, 0 20, 20 20, 20 0" fill="none" style="stroke:blue;stroke-width:0.1"/>
<polygon points="6.507898276306851 4.25, 5.75 3.6993546703611138, 6.039491381534258 2.808391811259007, 6.976305171079445 2.808391811259007, 7.734203447386297 2.2577464816201243, 8.492101723693148 2.808391811259007, 8.20261034215889 3.6993546703611138, 7.265796552613703 3.6993546703611138" fill="none" style="stroke:red;stroke-width:0.001"/>
<polygon points="0 0, 0 20, 20 20, 20 0" fill="none" style="stroke:blue;stroke-width:0.1"/>
<polygon points="6.039491381534258 2.808391811259007, 5.750000000000002 1.9174289521569001, 6.507898276306854 1.3667836225180174, 7.265796552613704 1.9174289521569037, 6.976305171079446 2.808391811259007" fill="none" style="stroke:red;stroke-width:0.001"/>
<polygon points="0 0, 0 20, 20 20, 20 0" fill="none" style="stroke:blue;stroke-width:0.1"/>
<polygon points="6.507898276306851 4.25, 5.75 3.6993546703611138, 6.039491381534258 2.808391811259007, 5.750000000000002 1.9174289521569001, 6.507898276306854 1.3667836225180174, 7.265796552613704 1.9174289521569037, 6.976305171079445 2.808391811259007, 7.734203447386297 2.2577464816201243, 8.492101723693148 2.808391811259007, 8.20261034215889 3.6993546703611138, 7.265796552613703 3.6993546703611138" fill="none" style="stroke:black;stroke-width:0.005"/>
<polygon points="0 0, 0 20, 20 20, 20 0" fill="none" style="stroke:blue;stroke-width:0.1"/>
<text x="5.0" y="5.0" font-family="Verdana" font-size="0.25">3</text>
<polygon points="5.0 5.0, 5.0 0.0, 10.0 0.0, 10.0 5.0" fill="none" style="stroke:black;stroke-width:0.001"/>
<polygon points="0 0, 0 20, 20 20, 20 0" fill="none" style="stroke:blue;stroke-width:0.1"/>
<polygon points="7.265796552613703 8.359037140897893, 6.507898276306852 7.808391811259007, 6.79738965784111 6.917428952156902, 7.734203447386297 6.917428952156902, 8.492101723693148 6.366783622518017, 9.25 6.917428952156902, 8.960508618465742 7.808391811259009, 8.023694828920554 7.808391811259009" fill="none" style="stroke:red;stroke-width:0.001"/>
<polygon points="0 0, 0 20, 20 20, 20 0" fill="none" style="stroke:blue;stroke-width:0.1"/>
<polygon points="6.0394913815342575 9.25, 5.75 8.359037140897893, 6.507898276306852 7.808391811259007, 7.265796552613703 8.359037140897893, 6.976305171079445 9.25" fill="none" style="stroke:red;stroke-width:0.001"/>
<polygon points="0 0, 0 20, 20 20, 20 0" fill="none" style="stroke:blue;stroke-width:0.1"/>
<polygon points="6.0394913815342575 9.25, 5.75 8.359037140897893, 6.507898276306852 7.808391811259007, 6.79738965784111 6.917428952156902, 7.734203447386297 6.917428952156902, 8.492101723693148 6.366783622518017, 9.25 6.917428952156902, 8.960508618465742 7.808391811259009, 8.023694828920554 7.808391811259009, 7.265796552613703 8.359037140897893, 6.976305171079445 9.25" fill="none" style="stroke:black;stroke-width:0.005"/>
<polygon points="0 0, 0 20, 20 20, 20 0" fill="none" style="stroke:blue;stroke-width:0.1"/>
<text x="5.0" y="10.0" font-family="Verdana" font-size="0.25">3</text>
<polygon points="5.0 10.0, 5.0 5.0, 10.0 5.0, 10.0 10.0" fill="none" style="stroke:black;stroke-width:0.001"/>
</svg>
