<svg width="800" height="800" viewBox="0 0 20 20" preserveAspectRatio="xMinYMin meet" xmlns="http://www.w3.org/2000/svg">
<polygon points="0 0, 0 20, 20 20, 20 0" fill="none" style="stroke:blue;stroke-width:0.1"/>
<polygon points="0.6 3.3999999999999986, 0.6 2.6999999999999993, 1.2999999999999998 2.6999999999999993, 1.2999999999999998 3.3999999999999986" fill="none" style="stroke:black;stroke-width:0.05"/>
<polygon points="0 0, 0 20, 20 20, 20 0" fill="none" style="stroke:blue;stroke-width:0.1"/>
<text x="0.0" y="4.0" font-family="Verdana" font-size="0.25">#blocks: 1</text>
<polygon points="0.0 4.0, 0.0 0.0, 4.0 0.0, 4.0 4.0" fill="none" style="stroke:black;stroke-width:0.01"/>
<polygon points="0 0, 0 20, 20 20, 20 0" fill="none" style="stroke:blue;stroke-width:0.1"/>
<polygon points="1.2999999999999998 7.4, 1.2999999999999998 6.700000000000001, 2.0 6.700000000000001, 2.0 7.4" fill="none" style="stroke:red;stroke-width:0.01"/>
<polygon points="0 0, 0 20, 20 20, 20 0" fill="none" style="stroke:blue;stroke-width:0.1"/>
<polygon points="0.6 7.4, 0.6 6.700000000000001, 1.2999999999999998 6.700000000000001, 1.2999999999999998 7.4" fill="none" style="stroke:red;stroke-width:0.01"/>
<polygon points="0 0, 0 20, 20 20, 20 0" fill="none" style="stroke:blue;stroke-width:0.1"/>
<polygon points="0.6 7.4, 0.6 6.700000000000001, 1.2999999999999998 6.700000000000001, 2.0 6.700000000000001, 2.0 7.4, 1.2999999999999998 7.4" fill="none" style="stroke:black;stroke-width:0.05"/>
<polygon points="0 0, 0 20, 20 20, 20 0" fill="none" style="stroke:blue;stroke-width:0.1"/>
<text x="0.0" y="8.0" font-family="Verdana" font-size="0.25">#blocks: 2</text>
<polygon points="0.0 8.0, 0.0 4.0, 4.0 4.0, 4.0 8.0" fill="none" style="stroke:black;stroke-width:0.01"/>
<polygon points="0 0, 0 20, 20 20, 20 0" fill="none" style="stroke:blue;stroke-width:0.1"/>
<polygon points="1.2999999999999998 11.4, 1.2999999999999998 10.700000000000001, 2.0 10.700000000000001, 2.6999999999999997 10.700000000000001, 2.6999999999999997 11.4, 2.0 11.4" fill="none" style="stroke:red;stroke-width:0.01"/>
<polygon points="0 0, 0 20, 20 20, 20 0" fill="none" style="stroke:blue;stroke-width:0.1"/>
<polygon points="0.6 11.4, 0.6 10.7, 1.2999999999999998 10.700000000000001, 1.2999999999999998 11.4" fill="none" style="stroke:red;stroke-width:0.01"/>
<polygon points="0 0, 0 20, 20 20, 20 0" fill="none" style="stroke:blue;stroke-width:0.1"/>
<polygon points="0.6 11.4, 0.6 10.7, 1.2999999999999998 10.700000000000001, 2.0 10.700000000000001, 2.6999999999999997 10.700000000000001, 2.6999999999999997 11.4, 2.0 11.4, 1.2999999999999998 11.4" fill="none" style="stroke:black;stroke-width:0.05"/>
<polygon points="0 0, 0 20, 20 20, 20 0" fill="none" style="stroke:blue;stroke-width:0.1"/>
<text x="0.0" y="12.0" font-family="Verdana" font-size="0.25">#blocks: 3</text>
<polygon points="0.0 12.0, 0.0 8.0, 4.0 8.0, 4.0 12.0" fill="none" style="stroke:black;stroke-width:0.01"/>
<polygon points="0 0, 0 20, 20 20, 20 0" fill="none" style="stroke:blue;stroke-width:0.1"/>
<polygon points="4.6 3.3999999999999986, 4.6 2.6999999999999993, 5.3 2.6999999999999993, 6.0 2.6999999999999993, 6.0 3.3999999999999986, 5.3 3.3999999999999986" fill="none" style="stroke:red;stroke-width:0.01"/>
<polygon points="0 0, 0 20, 20 20, 20 0" fill="none" style="stroke:blue;stroke-width:0.1"/>
<polygon points="4.6 2.6999999999999993, 4.6 2.0, 5.3 2.0, 5.3 2.6999999999999993" fill="none" style="stroke:red;stroke-width:0.01"/>
<polygon points="0 0, 0 20, 20 20, 20 0" fill="none" style="stroke:blue;stroke-width:0.1"/>
<polygon points="4.6 3.3999999999999986, 4.6 2.6999999999999993, 4.6 2.0, 5.3 2.0, 5.3 2.6999999999999993, 6.0 2.6999999999999993, 6.0 3.3999999999999986, 5.3 3.3999999999999986" fill="none" style="stroke:black;stroke-width:0.05"/>
<polygon points="0 0, 0 20, 20 20, 20 0" fill="none" style="stroke:blue;stroke-width:0.1"/>
<text x="4.0" y="4.0" font-family="Verdana" font-size="0.25">#blocks: 3</text>
<polygon points="4.0 4.0, 4.0 0.0, 8.0 0.0, 8.0 4.0" fill="none" style="stroke:black;stroke-width:0.01"/>
<polygon points="0 0, 0 20, 20 20, 20 0" fill="none" style="stroke:blue;stroke-width:0.1"/>
<polygon points="4.6 7.4, 4.6 6.699999999999999, 5.3 6.699999999999999, 6.0 6.699999999999999, 6.7 6.699999999999999, 6.7 7.4, 6.0 7.4, 5.3 7.4" fill="none" style="stroke:red;stroke-width:0.01"/>
<polygon points="0 0, 0 20, 20 20, 20 0" fill="none" style="stroke:blue;stroke-width:0.1"/>
<polygon points="5.3 6.699999999999999, 5.3 6.0, 6.0 6.0, 6.0 6.699999999999999" fill="none" style="stroke:red;stroke-width:0.01"/>
<polygon points="0 0, 0 20, 20 20, 20 0" fill="none" style="stroke:blue;stroke-width:0.1"/>
<polygon points="4.6 7.4, 4.6 6.699999999999999, 5.3 6.699999999999999, 5.3 6.0, 6.0 6.0, 6.0 6.699999999999999, 6.7 6.699999999999999, 6.7 7.4, 6.0 7.4, 5.3 7.4" fill="none" style="stroke:black;stroke-width:0.05"/>
<polygon points="0 0, 0 20, 20 20, 20 0" fill="none" style="stroke:blue;stroke-width:0.1"/>
<text x="4.0" y="8.0" font-family="Verdana" font-size="0.25">#blocks: 4</text>
<polygon points="4.0 8.0, 4.0 4.0, 8.0 4.0, 8.0 8.0" fill="none" style="stroke:black;stroke-width:0.01"/>
<polygon points="0 0, 0 20, 20 20, 20 0" fill="none" style="stroke:blue;stroke-width:0.1"/>
<polygon points="5.3 11.4, 5.3 10.7, 6.0 10.7, 6.7 10.7, 7.4 10.7, 7.4 11.4, 6.7 11.4, 6.0 11.4" fill="none" style="stroke:red;stroke-width:0.01"/>
<polygon points="0 0, 0 20, 20 20, 20 0" fill="none" style="stroke:blue;stroke-width:0.1"/>
<polygon points="4.6 11.4, 4.6 10.7, 5.3 10.7, 5.3 11.4" fill="none" style="stroke:red;stroke-width:0.01"/>
<polygon points="0 0, 0 20, 20 20, 20 0" fill="none" style="stroke:blue;stroke-width:0.1"/>
<polygon points="4.6 11.4, 4.6 10.7, 5.3 10.7, 6.0 10.7, 6.7 10.7, 7.4 10.7, 7.4 11.4, 6.7 11.4, 6.0 11.4, 5.3 11.4" fill="none" style="stroke:black;stroke-width:0.05"/>
<polygon points="0 0, 0 20, 20 20, 20 0" fill="none" style="stroke:blue;stroke-width:0.1"/>
<text x="4.0" y="12.0" font-family="Verdana" font-size="0.25">#blocks: 4</text>
<polygon points="4.0 12.0, 4.0 8.0, 8.0 8.0, 8.0 12.0" fill="none" style="stroke:black;stroke-width:0.01"/>
<polygon points="0 0, 0 20, 20 20, 20 0" fill="none" style="stroke:blue;stroke-width:0.1"/>
<polygon points="8.6 3.3999999999999986, 8.6 2.6999999999999993, 9.3 2.6999999999999993, 10.0 2.6999999999999993, 10.7 2.6999999999999993, 10.7 3.3999999999999986, 10.0 3.3999999999999986, 9.3 3.3999999999999986" fill="none" style="stroke:red;stroke-width:0.01"/>
<polygon points="0 0, 0 20, 20 20, 20 0" fill="none" style="stroke:blue;stroke-width:0.1"/>
<polygon points="8.6 2.6999999999999993, 8.6 1.9999999999999964, 9.3 1.9999999999999964, 9.3 2.6999999999999993" fill="none" style="stroke:red;stroke-width:0.01"/>
<polygon points="0 0, 0 20, 20 20, 20 0" fill="none" style="stroke:blue;stroke-width:0.1"/>
<polygon points="8.6 3.3999999999999986, 8.6 2.6999999999999993, 8.6 1.9999999999999964, 9.3 1.9999999999999964, 9.3 2.6999999999999993, 10.0 2.6999999999999993, 10.7 2.6999999999999993, 10.7 3.3999999999999986, 10.0 3.3999999999999986, 9.3 3.3999999999999986" fill="none" style="stroke:black;stroke-width:0.05"/>
<polygon points="0 0, 0 20, 20 20, 20 0" fill="none" style="stroke:blue;stroke-width:0.1"/>
<text x="8.0" y="4.0" font-family="Verdana" font-size="0.25">#blocks: 4</text>
<polygon points="8.0 4.0, 8.0 0.0, 12.0 0.0, 12.0 4.0" fill="none" style="stroke:black;stroke-width:0.01"/>
<polygon points="0 0, 0 20, 20 20, 20 0" fill="none" style="stroke:blue;stroke-width:0.1"/>
<polygon points="9.3 7.4, 9.3 6.699999999999999, 9.3 6.0, 10.0 6.0, 10.0 6.699999999999999, 10.7 6.699999999999999, 10.7 7.4, 10.0 7.4" fill="none" style="stroke:red;stroke-width:0.01"/>
<polygon points="0 0, 0 20, 20 20, 20 0" fill="none" style="stroke:blue;stroke-width:0.1"/>
<polygon points="8.6 6.699999999999999, 8.6 6.0, 9.3 6.0, 9.3 6.699999999999999" fill="none" style="stroke:red;stroke-width:0.01"/>
<polygon points="0 0, 0 20, 20 20, 20 0" fill="none" style="stroke:blue;stroke-width:0.1"/>
<polygon points="9.3 7.4, 9.3 6.699999999999999, 8.6 6.699999999999999, 8.6 6.0, 9.3 6.0, 10.0 6.0, 10.0 6.699999999999999, 10.7 6.699999999999999, 10.7 7.4, 10.0 7.4" fill="none" style="stroke:black;stroke-width:0.05"/>
<polygon points="0 0, 0 20, 20 20, 20 0" fill="none" style="stroke:blue;stroke-width:0.1"/>
<text x="8.0" y="8.0" font-family="Verdana" font-size="0.25">#blocks: 4</text>
<polygon points="8.0 8.0, 8.0 4.0, 12.0 4.0, 12.0 8.0" fill="none" style="stroke:black;stroke-width:0.01"/>
<polygon points="0 0, 0 20, 20 20, 20 0" fill="none" style="stroke:blue;stroke-width:0.1"/>
<polygon points="8.6 11.4, 8.6 10.7, 8.6 10.0, 9.3 10.0, 9.3 10.7, 10.0 10.7, 10.0 11.4, 9.3 11.4" fill="none" style="stroke:red;stroke-width:0.01"/>
<polygon points="0 0, 0 20, 20 20, 20 0" fill="none" style="stroke:blue;stroke-width:0.1"/>
<polygon points="9.3 10.7, 9.3 10.0, 10.0 10.0, 10.0 10.700000000000001" fill="none" style="stroke:red;stroke-width:0.01"/>
<polygon points="0 0, 0 20, 20 20, 20 0" fill="none" style="stroke:blue;stroke-width:0.1"/>
<polygon points="8.6 11.4, 8.6 10.7, 8.6 10.0, 9.3 10.0, 10.0 10.0, 10.0 10.7, 10.0 11.4, 9.3 11.4" fill="none" style="stroke:black;stroke-width:0.05"/>
<polygon points="0 0, 0 20, 20 20, 20 0" fill="none" style="stroke:blue;stroke-width:0.1"/>
<text x="8.0" y="12.0" font-family="Verdana" font-size="0.25">#blocks: 4</text>
<polygon points="8.0 12.0, 8.0 8.0, 12.0 8.0, 12.0 12.0" fill="none" style="stroke:black;stroke-width:0.01"/>
</svg>
