<svg width="800" height="800" viewBox="0 0 20 20" preserveAspectRatio="xMinYMin meet" xmlns="http://www.w3.org/2000/svg">
<polygon points="0 0, 0 20, 20 20, 20 0" fill="none" style="stroke:blue;stroke-width:0.1"/>
<polygon points="0.5 2.833333333333332, 0.5 2.366666666666667, 0.9666666666666668 2.366666666666667, 0.9666666666666668 2.833333333333332" fill="none" style="stroke:black;stroke-width:0.05"/>
<polygon points="0 0, 0 20, 20 20, 20 0" fill="none" style="stroke:blue;stroke-width:0.1"/>
<text x="0.0" y="3.333333333333332" font-family="Verdana" font-size="0.25">#blocks: 1</text>
<polygon points="0.0 3.333333333333332, 0.0 0.0, 3.3333333333333335 0.0, 3.3333333333333335 3.333333333333332" fill="none" style="stroke:black;stroke-width:0.01"/>
<polygon points="0 0, 0 20, 20 20, 20 0" fill="none" style="stroke:blue;stroke-width:0.1"/>
<polygon points="0.9666666666666667 6.166666666666666, 0.9666666666666667 5.699999999999999, 1.4333333333333333 5.699999999999999, 1.4333333333333333 6.166666666666666" fill="none" style="stroke:red;stroke-width:0.01"/>
<polygon points="0 0, 0 20, 20 20, 20 0" fill="none" style="stroke:blue;stroke-width:0.1"/>
<polygon points="0.5 6.166666666666666, 0.5 5.699999999999999, 0.9666666666666667 5.699999999999999, 0.9666666666666667 6.166666666666666" fill="none" style="stroke:red;stroke-width:0.01"/>
<polygon points="0 0, 0 20, 20 20, 20 0" fill="none" style="stroke:blue;stroke-width:0.1"/>
<polygon points="0.5 6.166666666666666, 0.5 5.699999999999999, 0.9666666666666667 5.699999999999999, 1.4333333333333333 5.699999999999999, 1.4333333333333333 6.166666666666666, 0.9666666666666667 6.166666666666666" fill="none" style="stroke:black;stroke-width:0.05"/>
<polygon points="0 0, 0 20, 20 20, 20 0" fill="none" style="stroke:blue;stroke-width:0.1"/>
<text x="0.0" y="6.666666666666666" font-family="Verdana" font-size="0.25">#blocks: 2</text>
<polygon points="0.0 6.666666666666666, 0.0 3.333333333333332, 3.3333333333333335 3.333333333333332, 3.3333333333333335 6.666666666666666" fill="none" style="stroke:black;stroke-width:0.01"/>
<polygon points="0 0, 0 20, 20 20, 20 0" fill="none" style="stroke:blue;stroke-width:0.1"/>
<polygon points="0.9666666666666667 9.5, 0.9666666666666667 9.033333333333333, 1.4333333333333333 9.033333333333333, 1.9 9.033333333333333, 1.9 9.5, 1.4333333333333333 9.5" fill="none" style="stroke:red;stroke-width:0.01"/>
<polygon points="0 0, 0 20, 20 20, 20 0" fill="none" style="stroke:blue;stroke-width:0.1"/>
<polygon points="0.5 9.5, 0.5 9.033333333333333, 0.9666666666666667 9.033333333333333, 0.9666666666666667 9.5" fill="none" style="stroke:red;stroke-width:0.01"/>
<polygon points="0 0, 0 20, 20 20, 20 0" fill="none" style="stroke:blue;stroke-width:0.1"/>
<polygon points="0.5 9.5, 0.5 9.033333333333333, 0.9666666666666667 9.033333333333333, 1.4333333333333333 9.033333333333333, 1.9 9.033333333333333, 1.9 9.5, 1.4333333333333333 9.5, 0.9666666666666667 9.5" fill="none" style="stroke:black;stroke-width:0.05"/>
<polygon points="0 0, 0 20, 20 20, 20 0" fill="none" style="stroke:blue;stroke-width:0.1"/>
<text x="0.0" y="10.0" font-family="Verdana" font-size="0.25">#blocks: 3</text>
<polygon points="0.0 10.0, 0.0 6.666666666666666, 3.3333333333333335 6.666666666666666, 3.3333333333333335 10.0" fill="none" style="stroke:black;stroke-width:0.01"/>
<polygon points="0 0, 0 20, 20 20, 20 0" fill="none" style="stroke:blue;stroke-width:0.1"/>
<polygon points="0.5 12.833333333333332, 0.5 12.366666666666667, 0.9666666666666667 12.366666666666667, 1.4333333333333333 12.366666666666667, 1.4333333333333333 12.833333333333332, 0.9666666666666667 12.833333333333332" fill="none" style="stroke:red;stroke-width:0.01"/>
<polygon points="0 0, 0 20, 20 20, 20 0" fill="none" style="stroke:blue;stroke-width:0.1"/>
<polygon points="0.5 12.366666666666667, 0.5 11.9, 0.9666666666666668 11.9, 0.9666666666666667 12.366666666666667" fill="none" style="stroke:red;stroke-width:0.01"/>
<polygon points="0 0, 0 20, 20 20, 20 0" fill="none" style="stroke:blue;stroke-width:0.1"/>
<polygon points="0.5 12.833333333333332, 0.5 12.366666666666667, 0.5 11.9, 0.9666666666666668 11.9, 0.9666666666666667 12.366666666666667, 1.4333333333333333 12.366666666666667, 1.4333333333333333 12.833333333333332, 0.9666666666666667 12.833333333333332" fill="none" style="stroke:black;stroke-width:0.05"/>
<polygon points="0 0, 0 20, 20 20, 20 0" fill="none" style="stroke:blue;stroke-width:0.1"/>
<text x="0.0" y="13.333333333333332" font-family="Verdana" font-size="0.25">#blocks: 3</text>
<polygon points="0.0 13.333333333333332, 0.0 10.0, 3.3333333333333335 10.0, 3.3333333333333335 13.333333333333332" fill="none" style="stroke:black;stroke-width:0.01"/>
<polygon points="0 0, 0 20, 20 20, 20 0" fill="none" style="stroke:blue;stroke-width:0.1"/>
<polygon points="3.8333333333333335 2.833333333333332, 3.8333333333333335 2.3666666666666636, 4.3 2.366666666666667, 4.766666666666667 2.366666666666667, 5.233333333333333 2.366666666666667, 5.233333333333333 2.833333333333332, 4.766666666666667 2.833333333333332, 4.3 2.833333333333332" fill="none" style="stroke:red;stroke-width:0.01"/>
<polygon points="0 0, 0 20, 20 20, 20 0" fill="none" style="stroke:blue;stroke-width:0.1"/>
<polygon points="4.3 2.366666666666667, 4.3 1.8999999999999986, 4.766666666666667 1.8999999999999986, 4.766666666666667 2.366666666666667" fill="none" style="stroke:red;stroke-width:0.01"/>
<polygon points="0 0, 0 20, 20 20, 20 0" fill="none" style="stroke:blue;stroke-width:0.1"/>
<polygon points="3.8333333333333335 2.833333333333332, 3.8333333333333335 2.3666666666666636, 4.3 2.366666666666667, 4.3 1.8999999999999986, 4.766666666666667 1.8999999999999986, 4.766666666666667 2.366666666666667, 5.233333333333333 2.366666666666667, 5.233333333333333 2.833333333333332, 4.766666666666667 2.833333333333332, 4.3 2.833333333333332" fill="none" style="stroke:black;stroke-width:0.05"/>
<polygon points="0 0, 0 20, 20 20, 20 0" fill="none" style="stroke:blue;stroke-width:0.1"/>
<text x="3.3333333333333335" y="3.333333333333332" font-family="Verdana" font-size="0.25">#blocks: 4</text>
<polygon points="3.3333333333333335 3.333333333333332, 3.3333333333333335 0.0, 6.666666666666667 0.0, 6.666666666666667 3.333333333333332" fill="none" style="stroke:black;stroke-width:0.01"/>
<polygon points="0 0, 0 20, 20 20, 20 0" fill="none" style="stroke:blue;stroke-width:0.1"/>
<polygon points="4.3 6.166666666666666, 4.3 5.699999999999999, 4.766666666666667 5.699999999999999, 5.233333333333333 5.699999999999999, 5.7 5.699999999999999, 5.7 6.166666666666666, 5.233333333333333 6.166666666666666, 4.766666666666667 6.166666666666666" fill="none" style="stroke:red;stroke-width:0.01"/>
<polygon points="0 0, 0 20, 20 20, 20 0" fill="none" style="stroke:blue;stroke-width:0.1"/>
<polygon points="3.8333333333333335 6.166666666666666, 3.8333333333333335 5.699999999999999, 4.300000000000001 5.699999999999999, 4.3 6.166666666666666" fill="none" style="stroke:red;stroke-width:0.01"/>
<polygon points="0 0, 0 20, 20 20, 20 0" fill="none" style="stroke:blue;stroke-width:0.1"/>
<polygon points="3.8333333333333335 6.166666666666666, 3.8333333333333335 5.699999999999999, 4.3 5.699999999999999, 4.766666666666667 5.699999999999999, 5.233333333333333 5.699999999999999, 5.7 5.699999999999999, 5.7 6.166666666666666, 5.233333333333333 6.166666666666666, 4.766666666666667 6.166666666666666, 4.3 6.166666666666666" fill="none" style="stroke:black;stroke-width:0.05"/>
<polygon points="0 0, 0 20, 20 20, 20 0" fill="none" style="stroke:blue;stroke-width:0.1"/>
<text x="3.3333333333333335" y="6.666666666666666" font-family="Verdana" font-size="0.25">#blocks: 4</text>
<polygon points="3.3333333333333335 6.666666666666666, 3.3333333333333335 3.333333333333332, 6.666666666666667 3.333333333333332, 6.666666666666667 6.666666666666666" fill="none" style="stroke:black;stroke-width:0.01"/>
<polygon points="0 0, 0 20, 20 20, 20 0" fill="none" style="stroke:blue;stroke-width:0.1"/>
<polygon points="3.8333333333333335 9.5, 3.8333333333333335 9.033333333333333, 4.3 9.033333333333333, 4.766666666666667 9.033333333333333, 5.233333333333333 9.033333333333333, 5.233333333333333 9.5, 4.766666666666667 9.5, 4.3 9.5" fill="none" style="stroke:red;stroke-width:0.01"/>
<polygon points="0 0, 0 20, 20 20, 20 0" fill="none" style="stroke:blue;stroke-width:0.1"/>
<polygon points="3.8333333333333335 9.033333333333333, 3.8333333333333335 8.566666666666666, 4.300000000000001 8.566666666666666, 4.3 9.033333333333333" fill="none" style="stroke:red;stroke-width:0.01"/>
<polygon points="0 0, 0 20, 20 20, 20 0" fill="none" style="stroke:blue;stroke-width:0.1"/>
<polygon points="3.8333333333333335 9.5, 3.8333333333333335 9.033333333333333, 3.8333333333333335 8.566666666666666, 4.300000000000001 8.566666666666666, 4.3 9.033333333333333, 4.766666666666667 9.033333333333333, 5.233333333333333 9.033333333333333, 5.233333333333333 9.5, 4.766666666666667 9.5, 4.3 9.5" fill="none" style="stroke:black;stroke-width:0.05"/>
<polygon points="0 0, 0 20, 20 20, 20 0" fill="none" style="stroke:blue;stroke-width:0.1"/>
<text x="3.3333333333333335" y="10.0" font-family="Verdana" font-size="0.25">#blocks: 4</text>
<polygon points="3.3333333333333335 10.0, 3.3333333333333335 6.666666666666666, 6.666666666666667 6.666666666666666, 6.666666666666667 10.0" fill="none" style="stroke:black;stroke-width:0.01"/>
<polygon points="0 0, 0 20, 20 20, 20 0" fill="none" style="stroke:blue;stroke-width:0.1"/>
<polygon points="4.3 12.833333333333332, 4.3 12.366666666666667, 4.3 11.9, 4.766666666666667 11.9, 4.766666666666667 12.366666666666667, 5.233333333333333 12.366666666666667, 5.233333333333333 12.833333333333332, 4.766666666666667 12.833333333333332" fill="none" style="stroke:red;stroke-width:0.01"/>
<polygon points="0 0, 0 20, 20 20, 20 0" fill="none" style="stroke:blue;stroke-width:0.1"/>
<polygon points="3.8333333333333335 12.366666666666667, 3.8333333333333335 11.899999999999999, 4.3 11.9, 4.3 12.366666666666667" fill="none" style="stroke:red;stroke-width:0.01"/>
<polygon points="0 0, 0 20, 20 20, 20 0" fill="none" style="stroke:blue;stroke-width:0.1"/>
<polygon points="4.3 12.833333333333332, 4.3 12.366666666666667, 3.8333333333333335 12.366666666666667, 3.8333333333333335 11.899999999999999, 4.3 11.9, 4.766666666666667 11.9, 4.766666666666667 12.366666666666667, 5.233333333333333 12.366666666666667, 5.233333333333333 12.833333333333332, 4.766666666666667 12.833333333333332" fill="none" style="stroke:black;stroke-width:0.05"/>
<polygon points="0 0, 0 20, 20 20, 20 0" fill="none" style="stroke:blue;stroke-width:0.1"/>
<text x="3.3333333333333335" y="13.333333333333332" font-family="Verdana" font-size="0.25">#blocks: 4</text>
<polygon points="3.3333333333333335 13.333333333333332, 3.3333333333333335 10.0, 6.666666666666667 10.0, 6.666666666666667 13.333333333333332" fill="none" style="stroke:black;stroke-width:0.01"/>
<polygon points="0 0, 0 20, 20 20, 20 0" fill="none" style="stroke:blue;stroke-width:0.1"/>
<polygon points="7.166666666666667 2.833333333333332, 7.166666666666667 2.366666666666667, 7.166666666666667 1.8999999999999986, 7.633333333333334 1.8999999999999986, 7.633333333333334 2.366666666666667, 8.1 2.366666666666667, 8.1 2.833333333333332, 7.633333333333334 2.833333333333332" fill="none" style="stroke:red;stroke-width:0.01"/>
<polygon points="0 0, 0 20, 20 20, 20 0" fill="none" style="stroke:blue;stroke-width:0.1"/>
<polygon points="7.633333333333334 2.366666666666667, 7.633333333333334 1.8999999999999986, 8.1 1.8999999999999986, 8.1 2.366666666666667" fill="none" style="stroke:red;stroke-width:0.01"/>
<polygon points="0 0, 0 20, 20 20, 20 0" fill="none" style="stroke:blue;stroke-width:0.1"/>
<polygon points="7.166666666666667 2.833333333333332, 7.166666666666667 2.366666666666667, 7.166666666666667 1.8999999999999986, 7.633333333333334 1.8999999999999986, 8.1 1.8999999999999986, 8.1 2.366666666666667, 8.1 2.833333333333332, 7.633333333333334 2.833333333333332" fill="none" style="stroke:black;stroke-width:0.05"/>
<polygon points="0 0, 0 20, 20 20, 20 0" fill="none" style="stroke:blue;stroke-width:0.1"/>
<text x="6.666666666666667" y="3.333333333333332" font-family="Verdana" font-size="0.25">#blocks: 4</text>
<polygon points="6.666666666666667 3.333333333333332, 6.666666666666667 0.0, 10.0 0.0, 10.0 3.333333333333332" fill="none" style="stroke:black;stroke-width:0.01"/>
<polygon points="0 0, 0 20, 20 20, 20 0" fill="none" style="stroke:blue;stroke-width:0.1"/>
<polygon points="7.166666666666667 5.699999999999999, 7.166666666666667 5.2333333333333325, 7.633333333333334 5.2333333333333325, 7.633333333333334 4.766666666666666, 8.1 4.766666666666666, 8.1 5.2333333333333325, 8.566666666666666 5.2333333333333325, 8.566666666666666 5.699999999999999, 8.1 5.699999999999999, 7.633333333333334 5.699999999999999" fill="none" style="stroke:red;stroke-width:0.01"/>
<polygon points="0 0, 0 20, 20 20, 20 0" fill="none" style="stroke:blue;stroke-width:0.1"/>
<polygon points="8.1 6.166666666666666, 8.1 5.699999999999999, 8.566666666666666 5.699999999999999, 8.566666666666666 6.166666666666666" fill="none" style="stroke:red;stroke-width:0.01"/>
<polygon points="0 0, 0 20, 20 20, 20 0" fill="none" style="stroke:blue;stroke-width:0.1"/>
<polygon points="8.1 6.166666666666666, 8.1 5.699999999999999, 7.633333333333334 5.699999999999999, 7.166666666666667 5.699999999999999, 7.166666666666667 5.2333333333333325, 7.633333333333334 5.2333333333333325, 7.633333333333334 4.766666666666666, 8.1 4.766666666666666, 8.1 5.2333333333333325, 8.566666666666666 5.2333333333333325, 8.566666666666666 5.699999999999999, 8.566666666666666 6.166666666666666" fill="none" style="stroke:black;stroke-width:0.05"/>
<polygon points="0 0, 0 20, 20 20, 20 0" fill="none" style="stroke:blue;stroke-width:0.1"/>
<text x="6.666666666666667" y="6.666666666666666" font-family="Verdana" font-size="0.25">#blocks: 5</text>
<polygon points="6.666666666666667 6.666666666666666, 6.666666666666667 3.333333333333332, 10.0 3.333333333333332, 10.0 6.666666666666666" fill="none" style="stroke:black;stroke-width:0.01"/>
<polygon points="0 0, 0 20, 20 20, 20 0" fill="none" style="stroke:blue;stroke-width:0.1"/>
<polygon points="7.166666666666667 9.033333333333333, 7.166666666666667 8.566666666666666, 7.633333333333334 8.566666666666666, 7.633333333333334 8.1, 8.1 8.1, 8.1 8.566666666666666, 8.566666666666666 8.566666666666666, 8.566666666666666 9.033333333333333, 8.1 9.033333333333333, 7.633333333333334 9.033333333333333" fill="none" style="stroke:red;stroke-width:0.01"/>
<polygon points="0 0, 0 20, 20 20, 20 0" fill="none" style="stroke:blue;stroke-width:0.1"/>
<polygon points="7.633333333333334 9.5, 7.633333333333334 9.033333333333333, 8.1 9.033333333333333, 8.1 9.5" fill="none" style="stroke:red;stroke-width:0.01"/>
<polygon points="0 0, 0 20, 20 20, 20 0" fill="none" style="stroke:blue;stroke-width:0.1"/>
<polygon points="7.633333333333334 9.5, 7.633333333333334 9.033333333333333, 7.166666666666667 9.033333333333333, 7.166666666666667 8.566666666666666, 7.633333333333334 8.566666666666666, 7.633333333333334 8.1, 8.1 8.1, 8.1 8.566666666666666, 8.566666666666666 8.566666666666666, 8.566666666666666 9.033333333333333, 8.1 9.033333333333333, 8.1 9.5" fill="none" style="stroke:black;stroke-width:0.05"/>
<polygon points="0 0, 0 20, 20 20, 20 0" fill="none" style="stroke:blue;stroke-width:0.1"/>
<text x="6.666666666666667" y="10.0" font-family="Verdana" font-size="0.25">#blocks: 5</text>
<polygon points="6.666666666666667 10.0, 6.666666666666667 6.666666666666666, 10.0 6.666666666666666, 10.0 10.0" fill="none" style="stroke:black;stroke-width:0.01"/>
<polygon points="0 0, 0 20, 20 20, 20 0" fill="none" style="stroke:blue;stroke-width:0.1"/>
<polygon points="7.166666666666667 12.833333333333332, 7.166666666666667 12.366666666666667, 7.166666666666667 11.9, 7.633333333333334 11.899999999999999, 7.633333333333334 12.366666666666667, 8.1 12.366666666666667, 8.566666666666666 12.366666666666667, 8.566666666666666 12.833333333333332, 8.1 12.833333333333332, 7.633333333333334 12.833333333333332" fill="none" style="stroke:red;stroke-width:0.01"/>
<polygon points="0 0, 0 20, 20 20, 20 0" fill="none" style="stroke:blue;stroke-width:0.1"/>
<polygon points="8.1 12.366666666666667, 8.1 11.9, 8.566666666666666 11.9, 8.566666666666666 12.366666666666667" fill="none" style="stroke:red;stroke-width:0.01"/>
<polygon points="0 0, 0 20, 20 20, 20 0" fill="none" style="stroke:blue;stroke-width:0.1"/>
<polygon points="7.166666666666667 12.833333333333332, 7.166666666666667 12.366666666666667, 7.166666666666667 11.9, 7.633333333333334 11.899999999999999, 7.633333333333334 12.366666666666667, 8.1 12.366666666666667, 8.1 11.9, 8.566666666666666 11.9, 8.566666666666666 12.366666666666667, 8.566666666666666 12.833333333333332, 8.1 12.833333333333332, 7.633333333333334 12.833333333333332" fill="none" style="stroke:black;stroke-width:0.05"/>
<polygon points="0 0, 0 20, 20 20, 20 0" fill="none" style="stroke:blue;stroke-width:0.1"/>
<text x="6.666666666666667" y="13.333333333333332" font-family="Verdana" font-size="0.25">#blocks: 5</text>
<polygon points="6.666666666666667 13.333333333333332, 6.666666666666667 10.0, 10.0 10.0, 10.0 13.333333333333332" fill="none" style="stroke:black;stroke-width:0.01"/>
<polygon points="0 0, 0 20, 20 20, 20 0" fill="none" style="stroke:blue;stroke-width:0.1"/>
<polygon points="10.5 2.833333333333332, 10.5 2.3666666666666636, 10.966666666666667 2.3666666666666636, 10.966666666666667 1.8999999999999986, 11.433333333333334 1.8999999999999986, 11.433333333333334 2.366666666666667, 11.9 2.366666666666667, 11.9 2.833333333333332, 11.433333333333334 2.833333333333332, 10.966666666666667 2.833333333333332" fill="none" style="stroke:red;stroke-width:0.01"/>
<polygon points="0 0, 0 20, 20 20, 20 0" fill="none" style="stroke:blue;stroke-width:0.1"/>
<polygon points="10.5 2.3666666666666636, 10.5 1.8999999999999986, 10.966666666666667 1.8999999999999986, 10.966666666666667 2.3666666666666636" fill="none" style="stroke:red;stroke-width:0.01"/>
<polygon points="0 0, 0 20, 20 20, 20 0" fill="none" style="stroke:blue;stroke-width:0.1"/>
<polygon points="10.5 2.833333333333332, 10.5 2.3666666666666636, 10.5 1.8999999999999986, 10.966666666666667 1.8999999999999986, 11.433333333333334 1.8999999999999986, 11.433333333333334 2.366666666666667, 11.9 2.366666666666667, 11.9 2.833333333333332, 11.433333333333334 2.833333333333332, 10.966666666666667 2.833333333333332" fill="none" style="stroke:black;stroke-width:0.05"/>
<polygon points="0 0, 0 20, 20 20, 20 0" fill="none" style="stroke:blue;stroke-width:0.1"/>
<text x="10.0" y="3.333333333333332" font-family="Verdana" font-size="0.25">#blocks: 5</text>
<polygon points="10.0 3.333333333333332, 10.0 0.0, 13.333333333333334 0.0, 13.333333333333334 3.333333333333332" fill="none" style="stroke:black;stroke-width:0.01"/>
<polygon points="0 0, 0 20, 20 20, 20 0" fill="none" style="stroke:blue;stroke-width:0.1"/>
<polygon points="10.966666666666667 6.166666666666666, 10.966666666666667 5.699999999999999, 11.433333333333334 5.699999999999999, 11.9 5.699999999999999, 12.366666666666667 5.699999999999999, 12.833333333333334 5.699999999999999, 12.833333333333334 6.166666666666666, 12.366666666666667 6.166666666666666, 11.9 6.166666666666666, 11.433333333333334 6.166666666666666" fill="none" style="stroke:red;stroke-width:0.01"/>
<polygon points="0 0, 0 20, 20 20, 20 0" fill="none" style="stroke:blue;stroke-width:0.1"/>
<polygon points="10.5 6.166666666666666, 10.5 5.699999999999999, 10.966666666666667 5.699999999999999, 10.966666666666667 6.166666666666666" fill="none" style="stroke:red;stroke-width:0.01"/>
<polygon points="0 0, 0 20, 20 20, 20 0" fill="none" style="stroke:blue;stroke-width:0.1"/>
<polygon points="10.5 6.166666666666666, 10.5 5.699999999999999, 10.966666666666667 5.699999999999999, 11.433333333333334 5.699999999999999, 11.9 5.699999999999999, 12.366666666666667 5.699999999999999, 12.833333333333334 5.699999999999999, 12.833333333333334 6.166666666666666, 12.366666666666667 6.166666666666666, 11.9 6.166666666666666, 11.433333333333334 6.166666666666666, 10.966666666666667 6.166666666666666" fill="none" style="stroke:black;stroke-width:0.05"/>
<polygon points="0 0, 0 20, 20 20, 20 0" fill="none" style="stroke:blue;stroke-width:0.1"/>
<text x="10.0" y="6.666666666666666" font-family="Verdana" font-size="0.25">#blocks: 5</text>
<polygon points="10.0 6.666666666666666, 10.0 3.333333333333332, 13.333333333333334 3.333333333333332, 13.333333333333334 6.666666666666666" fill="none" style="stroke:black;stroke-width:0.01"/>
<polygon points="0 0, 0 20, 20 20, 20 0" fill="none" style="stroke:blue;stroke-width:0.1"/>
<polygon points="10.966666666666667 9.5, 10.966666666666667 9.033333333333333, 11.433333333333334 9.033333333333333, 11.433333333333334 8.566666666666666, 11.9 8.566666666666666, 11.9 9.033333333333333, 12.366666666666667 9.033333333333333, 12.366666666666667 9.5, 11.9 9.5, 11.433333333333334 9.5" fill="none" style="stroke:red;stroke-width:0.01"/>
<polygon points="0 0, 0 20, 20 20, 20 0" fill="none" style="stroke:blue;stroke-width:0.1"/>
<polygon points="10.5 9.5, 10.5 9.033333333333333, 10.966666666666667 9.033333333333333, 10.966666666666667 9.5" fill="none" style="stroke:red;stroke-width:0.01"/>
<polygon points="0 0, 0 20, 20 20, 20 0" fill="none" style="stroke:blue;stroke-width:0.1"/>
<polygon points="10.5 9.5, 10.5 9.033333333333333, 10.966666666666667 9.033333333333333, 11.433333333333334 9.033333333333333, 11.433333333333334 8.566666666666666, 11.9 8.566666666666666, 11.9 9.033333333333333, 12.366666666666667 9.033333333333333, 12.366666666666667 9.5, 11.9 9.5, 11.433333333333334 9.5, 10.966666666666667 9.5" fill="none" style="stroke:black;stroke-width:0.05"/>
<polygon points="0 0, 0 20, 20 20, 20 0" fill="none" style="stroke:blue;stroke-width:0.1"/>
<text x="10.0" y="10.0" font-family="Verdana" font-size="0.25">#blocks: 5</text>
<polygon points="10.0 10.0, 10.0 6.666666666666666, 13.333333333333334 6.666666666666666, 13.333333333333334 10.0" fill="none" style="stroke:black;stroke-width:0.01"/>
<polygon points="0 0, 0 20, 20 20, 20 0" fill="none" style="stroke:blue;stroke-width:0.1"/>
<polygon points="10.966666666666667 12.833333333333332, 10.966666666666667 12.366666666666667, 10.966666666666667 11.899999999999999, 11.433333333333334 11.899999999999999, 11.433333333333334 12.366666666666667, 11.9 12.366666666666667, 12.366666666666667 12.366666666666667, 12.366666666666667 12.833333333333332, 11.9 12.833333333333332, 11.433333333333334 12.833333333333332" fill="none" style="stroke:red;stroke-width:0.01"/>
<polygon points="0 0, 0 20, 20 20, 20 0" fill="none" style="stroke:blue;stroke-width:0.1"/>
<polygon points="10.5 12.366666666666667, 10.5 11.899999999999999, 10.966666666666667 11.899999999999999, 10.966666666666667 12.366666666666667" fill="none" style="stroke:red;stroke-width:0.01"/>
<polygon points="0 0, 0 20, 20 20, 20 0" fill="none" style="stroke:blue;stroke-width:0.1"/>
<polygon points="10.966666666666667 12.833333333333332, 10.966666666666667 12.366666666666667, 10.5 12.366666666666667, 10.5 11.899999999999999, 10.966666666666667 11.899999999999999, 11.433333333333334 11.899999999999999, 11.433333333333334 12.366666666666667, 11.9 12.366666666666667, 12.366666666666667 12.366666666666667, 12.366666666666667 12.833333333333332, 11.9 12.833333333333332, 11.433333333333334 12.833333333333332" fill="none" style="stroke:black;stroke-width:0.05"/>
<polygon points="0 0, 0 20, 20 20, 20 0" fill="none" style="stroke:blue;stroke-width:0.1"/>
<text x="10.0" y="13.333333333333332" font-family="Verdana" font-size="0.25">#blocks: 5</text>
<polygon points="10.0 13.333333333333332, 10.0 10.0, 13.333333333333334 10.0, 13.333333333333334 13.333333333333332" fill="none" style="stroke:black;stroke-width:0.01"/>
<polygon points="0 0, 0 20, 20 20, 20 0" fill="none" style="stroke:blue;stroke-width:0.1"/>
<polygon points="13.833333333333334 2.833333333333332, 13.833333333333334 2.3666666666666636, 13.833333333333334 1.8999999999999986, 14.3 1.8999999999999986, 14.3 2.3666666666666636, 14.766666666666667 2.366666666666667, 15.233333333333334 2.366666666666667, 15.233333333333334 2.833333333333332, 14.766666666666667 2.833333333333332, 14.3 2.833333333333332" fill="none" style="stroke:red;stroke-width:0.01"/>
<polygon points="0 0, 0 20, 20 20, 20 0" fill="none" style="stroke:blue;stroke-width:0.1"/>
<polygon points="13.833333333333334 1.8999999999999986, 13.833333333333334 1.43333333333333, 14.3 1.43333333333333, 14.3 1.8999999999999986" fill="none" style="stroke:red;stroke-width:0.01"/>
<polygon points="0 0, 0 20, 20 20, 20 0" fill="none" style="stroke:blue;stroke-width:0.1"/>
<polygon points="13.833333333333334 2.833333333333332, 13.833333333333334 2.3666666666666636, 13.833333333333334 1.8999999999999986, 13.833333333333334 1.43333333333333, 14.3 1.43333333333333, 14.3 1.8999999999999986, 14.3 2.3666666666666636, 14.766666666666667 2.366666666666667, 15.233333333333334 2.366666666666667, 15.233333333333334 2.833333333333332, 14.766666666666667 2.833333333333332, 14.3 2.833333333333332" fill="none" style="stroke:black;stroke-width:0.05"/>
<polygon points="0 0, 0 20, 20 20, 20 0" fill="none" style="stroke:blue;stroke-width:0.1"/>
<text x="13.333333333333334" y="3.333333333333332" font-family="Verdana" font-size="0.25">#blocks: 5</text>
<polygon points="13.333333333333334 3.333333333333332, 13.333333333333334 0.0, 16.666666666666668 0.0, 16.666666666666668 3.333333333333332" fill="none" style="stroke:black;stroke-width:0.01"/>
<polygon points="0 0, 0 20, 20 20, 20 0" fill="none" style="stroke:blue;stroke-width:0.1"/>
<polygon points="13.833333333333334 5.699999999999999, 13.833333333333334 5.2333333333333325, 13.833333333333334 4.766666666666666, 14.3 4.766666666666666, 14.3 5.2333333333333325, 14.766666666666667 5.2333333333333325, 15.233333333333334 5.2333333333333325, 15.233333333333334 5.699999999999999, 14.766666666666667 5.699999999999999, 14.3 5.699999999999999" fill="none" style="stroke:red;stroke-width:0.01"/>
<polygon points="0 0, 0 20, 20 20, 20 0" fill="none" style="stroke:blue;stroke-width:0.1"/>
<polygon points="14.766666666666667 6.166666666666666, 14.766666666666667 5.699999999999999, 15.233333333333334 5.699999999999999, 15.233333333333334 6.166666666666666" fill="none" style="stroke:red;stroke-width:0.01"/>
<polygon points="0 0, 0 20, 20 20, 20 0" fill="none" style="stroke:blue;stroke-width:0.1"/>
<polygon points="14.766666666666667 6.166666666666666, 14.766666666666667 5.699999999999999, 14.3 5.699999999999999, 13.833333333333334 5.699999999999999, 13.833333333333334 5.2333333333333325, 13.833333333333334 4.766666666666666, 14.3 4.766666666666666, 14.3 5.2333333333333325, 14.766666666666667 5.2333333333333325, 15.233333333333334 5.2333333333333325, 15.233333333333334 5.699999999999999, 15.233333333333334 6.166666666666666" fill="none" style="stroke:black;stroke-width:0.05"/>
<polygon points="0 0, 0 20, 20 20, 20 0" fill="none" style="stroke:blue;stroke-width:0.1"/>
<text x="13.333333333333334" y="6.666666666666666" font-family="Verdana" font-size="0.25">#blocks: 5</text>
<polygon points="13.333333333333334 6.666666666666666, 13.333333333333334 3.333333333333332, 16.666666666666668 3.333333333333332, 16.666666666666668 6.666666666666666" fill="none" style="stroke:black;stroke-width:0.01"/>
<polygon points="0 0, 0 20, 20 20, 20 0" fill="none" style="stroke:blue;stroke-width:0.1"/>
<polygon points="13.833333333333334 9.5, 13.833333333333334 9.033333333333333, 14.3 9.033333333333333, 14.766666666666667 9.033333333333333, 15.233333333333334 9.033333333333333, 15.700000000000001 9.033333333333333, 15.700000000000001 9.5, 15.233333333333334 9.5, 14.766666666666667 9.5, 14.3 9.5" fill="none" style="stroke:red;stroke-width:0.01"/>
<polygon points="0 0, 0 20, 20 20, 20 0" fill="none" style="stroke:blue;stroke-width:0.1"/>
<polygon points="13.833333333333334 9.033333333333333, 13.833333333333334 8.566666666666666, 14.3 8.566666666666666, 14.3 9.033333333333333" fill="none" style="stroke:red;stroke-width:0.01"/>
<polygon points="0 0, 0 20, 20 20, 20 0" fill="none" style="stroke:blue;stroke-width:0.1"/>
<polygon points="13.833333333333334 9.5, 13.833333333333334 9.033333333333333, 13.833333333333334 8.566666666666666, 14.3 8.566666666666666, 14.3 9.033333333333333, 14.766666666666667 9.033333333333333, 15.233333333333334 9.033333333333333, 15.700000000000001 9.033333333333333, 15.700000000000001 9.5, 15.233333333333334 9.5, 14.766666666666667 9.5, 14.3 9.5" fill="none" style="stroke:black;stroke-width:0.05"/>
<polygon points="0 0, 0 20, 20 20, 20 0" fill="none" style="stroke:blue;stroke-width:0.1"/>
<text x="13.333333333333334" y="10.0" font-family="Verdana" font-size="0.25">#blocks: 5</text>
<polygon points="13.333333333333334 10.0, 13.333333333333334 6.666666666666666, 16.666666666666668 6.666666666666666, 16.666666666666668 10.0" fill="none" style="stroke:black;stroke-width:0.01"/>
<polygon points="0 0, 0 20, 20 20, 20 0" fill="none" style="stroke:blue;stroke-width:0.1"/>
<polygon points="14.3 12.833333333333332, 14.3 12.366666666666667, 13.833333333333334 12.366666666666667, 13.833333333333334 11.899999999999999, 14.3 11.899999999999999, 14.766666666666667 11.899999999999999, 14.766666666666667 12.366666666666667, 15.233333333333334 12.366666666666667, 15.233333333333334 12.833333333333332, 14.766666666666667 12.833333333333332" fill="none" style="stroke:red;stroke-width:0.01"/>
<polygon points="0 0, 0 20, 20 20, 20 0" fill="none" style="stroke:blue;stroke-width:0.1"/>
<polygon points="13.833333333333334 11.899999999999999, 13.833333333333334 11.433333333333332, 14.3 11.433333333333334, 14.3 11.899999999999999" fill="none" style="stroke:red;stroke-width:0.01"/>
<polygon points="0 0, 0 20, 20 20, 20 0" fill="none" style="stroke:blue;stroke-width:0.1"/>
<polygon points="14.3 12.833333333333332, 14.3 12.366666666666667, 13.833333333333334 12.366666666666667, 13.833333333333334 11.899999999999999, 13.833333333333334 11.433333333333332, 14.3 11.433333333333334, 14.3 11.899999999999999, 14.766666666666667 11.899999999999999, 14.766666666666667 12.366666666666667, 15.233333333333334 12.366666666666667, 15.233333333333334 12.833333333333332, 14.766666666666667 12.833333333333332" fill="none" style="stroke:black;stroke-width:0.05"/>
<polygon points="0 0, 0 20, 20 20, 20 0" fill="none" style="stroke:blue;stroke-width:0.1"/>
<text x="13.333333333333334" y="13.333333333333332" font-family="Verdana" font-size="0.25">#blocks: 5</text>
<polygon points="13.333333333333334 13.333333333333332, 13.333333333333334 10.0, 16.666666666666668 10.0, 16.666666666666668 13.333333333333332" fill="none" style="stroke:black;stroke-width:0.01"/>
<polygon points="0 0, 0 20, 20 20, 20 0" fill="none" style="stroke:blue;stroke-width:0.1"/>
<polygon points="17.166666666666668 2.833333333333332, 17.166666666666668 2.366666666666667, 17.633333333333333 2.366666666666667, 17.633333333333333 1.8999999999999986, 18.1 1.8999999999999986, 18.1 2.366666666666667, 18.566666666666666 2.366666666666667, 18.566666666666666 2.833333333333332, 18.1 2.833333333333332, 17.633333333333333 2.833333333333332" fill="none" style="stroke:red;stroke-width:0.01"/>
<polygon points="0 0, 0 20, 20 20, 20 0" fill="none" style="stroke:blue;stroke-width:0.1"/>
<polygon points="17.633333333333333 1.8999999999999986, 17.633333333333333 1.4333333333333336, 18.1 1.4333333333333336, 18.1 1.8999999999999986" fill="none" style="stroke:red;stroke-width:0.01"/>
<polygon points="0 0, 0 20, 20 20, 20 0" fill="none" style="stroke:blue;stroke-width:0.1"/>
<polygon points="17.166666666666668 2.833333333333332, 17.166666666666668 2.366666666666667, 17.633333333333333 2.366666666666667, 17.633333333333333 1.8999999999999986, 17.633333333333333 1.4333333333333336, 18.1 1.4333333333333336, 18.1 1.8999999999999986, 18.1 2.366666666666667, 18.566666666666666 2.366666666666667, 18.566666666666666 2.833333333333332, 18.1 2.833333333333332, 17.633333333333333 2.833333333333332" fill="none" style="stroke:black;stroke-width:0.05"/>
<polygon points="0 0, 0 20, 20 20, 20 0" fill="none" style="stroke:blue;stroke-width:0.1"/>
<text x="16.666666666666668" y="3.333333333333332" font-family="Verdana" font-size="0.25">#blocks: 5</text>
<polygon points="16.666666666666668 3.333333333333332, 16.666666666666668 0.0, 20.0 0.0, 20.0 3.333333333333332" fill="none" style="stroke:black;stroke-width:0.01"/>
</svg>
