<svg width="800" height="800" viewBox="0 0 20 20" preserveAspectRatio="xMinYMin meet" xmlns="http://www.w3.org/2000/svg">
<polygon points="0 0, 0 20, 20 20, 20 0" fill="none" style="stroke:blue;stroke-width:0.1"/>
<polygon points="10.0 5.666666666666666, 10.0 3.333333333333332, 12.333333333333334 3.333333333333332, 12.333333333333334 5.666666666666666" fill="none" style="stroke:red;stroke-width:0.001"/>
<polygon points="0 0, 0 20, 20 20, 20 0" fill="none" style="stroke:blue;stroke-width:0.1"/>
<polygon points="7.666666666666667 5.666666666666666, 7.666666666666667 3.333333333333332, 10.0 3.333333333333332, 10.0 5.666666666666666" fill="none" style="stroke:red;stroke-width:0.001"/>
<polygon points="0 0, 0 20, 20 20, 20 0" fill="none" style="stroke:blue;stroke-width:0.1"/>
<polygon points="7.666666666666667 5.666666666666666, 7.666666666666667 3.333333333333332, 10.0 3.333333333333332, 12.333333333333334 3.333333333333332, 12.333333333333334 5.666666666666666, 10.0 5.666666666666666" fill="none" style="stroke:black;stroke-width:0.005"/>
<polygon points="0 0, 0 20, 20 20, 20 0" fill="none" style="stroke:blue;stroke-width:0.1"/>
<text x="6.666666666666667" y="6.666666666666666" font-family="Verdana" font-size="0.25">2</text>
<polygon points="6.666666666666667 6.666666666666666, 6.666666666666667 0.0, 13.333333333333334 0.0, 13.333333333333334 6.666666666666666" fill="none" style="stroke:black;stroke-width:0.001"/>
</svg>
