<svg width="800" height="800" viewBox="0 0 20 20" preserveAspectRatio="xMinYMin meet" xmlns="http://www.w3.org/2000/svg">
<polygon points="0 0, 0 20, 20 20, 20 0" fill="none" style="stroke:blue;stroke-width:0.1"/>
<polygon points="1.9166666666666667 9.25, 1.9166666666666667 8.083333333333334, 3.0833333333333335 8.083333333333334, 3.0833333333333335 9.25" fill="none" style="stroke:red;stroke-width:0.001"/>
<polygon points="0 0, 0 20, 20 20, 20 0" fill="none" style="stroke:blue;stroke-width:0.1"/>
<polygon points="0.75 9.25, 0.75 8.083333333333332, 1.9166666666666667 8.083333333333334, 1.9166666666666667 9.25" fill="none" style="stroke:red;stroke-width:0.001"/>
<polygon points="0 0, 0 20, 20 20, 20 0" fill="none" style="stroke:blue;stroke-width:0.1"/>
<polygon points="0.75 9.25, 0.75 8.083333333333332, 1.9166666666666667 8.083333333333334, 3.0833333333333335 8.083333333333334, 3.0833333333333335 9.25, 1.9166666666666667 9.25" fill="none" style="stroke:black;stroke-width:0.005"/>
<polygon points="0 0, 0 20, 20 20, 20 0" fill="none" style="stroke:blue;stroke-width:0.1"/>
<text x="0.0" y="10.0" font-family="Verdana" font-size="0.25">2</text>
<polygon points="0.0 10.0, 0.0 5.0, 5.0 5.0, 5.0 10.0" fill="none" style="stroke:black;stroke-width:0.001"/>
<polygon points="0 0, 0 20, 20 20, 20 0" fill="none" style="stroke:blue;stroke-width:0.1"/>
<polygon points="6.916666666666667 4.25, 6.916666666666667 3.083333333333332, 8.083333333333334 3.083333333333332, 9.25 3.083333333333332, 9.25 4.25, 8.083333333333334 4.25" fill="none" style="stroke:red;stroke-width:0.001"/>
<polygon points="0 0, 0 20, 20 20, 20 0" fill="none" style="stroke:blue;stroke-width:0.1"/>
<polygon points="5.75 4.25, 5.75 3.083333333333332, 6.916666666666667 3.083333333333332, 6.916666666666667 4.25" fill="none" style="stroke:red;stroke-width:0.001"/>
<polygon points="0 0, 0 20, 20 20, 20 0" fill="none" style="stroke:blue;stroke-width:0.1"/>
<polygon points="5.75 4.25, 5.75 3.083333333333332, 6.916666666666667 3.083333333333332, 8.083333333333334 3.083333333333332, 9.25 3.083333333333332, 9.25 4.25, 8.083333333333334 4.25, 6.916666666666667 4.25" fill="none" style="stroke:black;stroke-width:0.005"/>
<polygon points="0 0, 0 20, 20 20, 20 0" fill="none" style="stroke:blue;stroke-width:0.1"/>
<text x="5.0" y="5.0" font-family="Verdana" font-size="0.25">3</text>
<polygon points="5.0 5.0, 5.0 0.0, 10.0 0.0, 10.0 5.0" fill="none" style="stroke:black;stroke-width:0.001"/>
<polygon points="0 0, 0 20, 20 20, 20 0" fill="none" style="stroke:blue;stroke-width:0.1"/>
<polygon points="5.75 9.25, 5.75 8.083333333333332, 6.916666666666667 8.083333333333334, 8.083333333333334 8.083333333333334, 8.083333333333334 9.25, 6.916666666666667 9.25" fill="none" style="stroke:red;stroke-width:0.001"/>
<polygon points="0 0, 0 20, 20 20, 20 0" fill="none" style="stroke:blue;stroke-width:0.1"/>
<polygon points="5.75 8.083333333333332, 5.75 6.916666666666666, 6.916666666666667 6.916666666666666, 6.916666666666667 8.083333333333334" fill="none" style="stroke:red;stroke-width:0.001"/>
<polygon points="0 0, 0 20, 20 20, 20 0" fill="none" style="stroke:blue;stroke-width:0.1"/>
<polygon points="5.75 9.25, 5.75 8.083333333333332, 5.75 6.916666666666666, 6.916666666666667 6.916666666666666, 6.916666666666667 8.083333333333334, 8.083333333333334 8.083333333333334, 8.083333333333334 9.25, 6.916666666666667 9.25" fill="none" style="stroke:black;stroke-width:0.005"/>
<polygon points="0 0, 0 20, 20 20, 20 0" fill="none" style="stroke:blue;stroke-width:0.1"/>
<text x="5.0" y="10.0" font-family="Verdana" font-size="0.25">3</text>
<polygon points="5.0 10.0, 5.0 5.0, 10.0 5.0, 10.0 10.0" fill="none" style="stroke:black;stroke-width:0.001"/>
</svg>
