<svg width="800" height="800" viewBox="0 0 20 20" preserveAspectRatio="xMinYMin meet" xmlns="http://www.w3.org/2000/svg">
<polygon points="0 0, 0 20, 20 20, 20 0" fill="none" style="stroke:blue;stroke-width:0.1"/>
<polygon points="0.8333333333333334 6.166666666666666, 1.1666666666666665 5.58931639747704, 1.4999999999999998 6.166666666666666" fill="none" style="stroke:red;stroke-width:0.001"/>
<polygon points="0 0, 0 20, 20 20, 20 0" fill="none" style="stroke:blue;stroke-width:0.1"/>
<polygon points="0.8333333333333334 6.166666666666666, 0.5 5.58931639747704, 1.1666666666666665 5.58931639747704" fill="none" style="stroke:red;stroke-width:0.001"/>
<polygon points="0 0, 0 20, 20 20, 20 0" fill="none" style="stroke:blue;stroke-width:0.1"/>
<polygon points="0.8333333333333334 6.166666666666666, 0.5 5.58931639747704, 1.1666666666666665 5.58931639747704, 1.4999999999999998 6.166666666666666" fill="none" style="stroke:black;stroke-width:0.005"/>
<polygon points="0 0, 0 20, 20 20, 20 0" fill="none" style="stroke:blue;stroke-width:0.1"/>
<text x="0.0" y="6.666666666666666" font-family="Verdana" font-size="0.25">2</text>
<polygon points="0.0 6.666666666666666, 0.0 3.333333333333332, 3.3333333333333335 3.333333333333332, 3.3333333333333335 6.666666666666666" fill="none" style="stroke:black;stroke-width:0.001"/>
<polygon points="0 0, 0 20, 20 20, 20 0" fill="none" style="stroke:blue;stroke-width:0.1"/>
<polygon points="1.1666666666666665 9.5, 0.8333333333333333 8.922649730810374, 1.4999999999999998 8.922649730810374, 1.8333333333333328 9.5" fill="none" style="stroke:red;stroke-width:0.001"/>
<polygon points="0 0, 0 20, 20 20, 20 0" fill="none" style="stroke:blue;stroke-width:0.1"/>
<polygon points="0.5 9.5, 0.8333333333333329 8.922649730810374, 1.1666666666666665 9.5" fill="none" style="stroke:red;stroke-width:0.001"/>
<polygon points="0 0, 0 20, 20 20, 20 0" fill="none" style="stroke:blue;stroke-width:0.1"/>
<polygon points="0.5 9.5, 0.8333333333333333 8.922649730810374, 1.4999999999999998 8.922649730810374, 1.8333333333333328 9.5, 1.1666666666666665 9.5" fill="none" style="stroke:black;stroke-width:0.005"/>
<polygon points="0 0, 0 20, 20 20, 20 0" fill="none" style="stroke:blue;stroke-width:0.1"/>
<text x="0.0" y="10.0" font-family="Verdana" font-size="0.25">3</text>
<polygon points="0.0 10.0, 0.0 6.666666666666666, 3.3333333333333335 6.666666666666666, 3.3333333333333335 10.0" fill="none" style="stroke:black;stroke-width:0.001"/>
<polygon points="0 0, 0 20, 20 20, 20 0" fill="none" style="stroke:blue;stroke-width:0.1"/>
<polygon points="0.5 12.255983064143708, 0.8333333333333333 11.678632794954082, 1.4999999999999998 11.678632794954082, 1.8333333333333328 12.255983064143708, 1.1666666666666665 12.255983064143708" fill="none" style="stroke:red;stroke-width:0.001"/>
<polygon points="0 0, 0 20, 20 20, 20 0" fill="none" style="stroke:blue;stroke-width:0.1"/>
<polygon points="1.4999999999999998 12.833333333333332, 1.1666666666666665 12.255983064143708, 1.8333333333333328 12.255983064143708" fill="none" style="stroke:red;stroke-width:0.001"/>
<polygon points="0 0, 0 20, 20 20, 20 0" fill="none" style="stroke:blue;stroke-width:0.1"/>
<polygon points="1.4999999999999998 12.833333333333332, 1.1666666666666665 12.255983064143708, 0.5 12.255983064143708, 0.8333333333333333 11.678632794954082, 1.4999999999999998 11.678632794954082, 1.8333333333333328 12.255983064143708" fill="none" style="stroke:black;stroke-width:0.005"/>
<polygon points="0 0, 0 20, 20 20, 20 0" fill="none" style="stroke:blue;stroke-width:0.1"/>
<text x="0.0" y="13.333333333333332" font-family="Verdana" font-size="0.25">4</text>
<polygon points="0.0 13.333333333333332, 0.0 10.0, 3.3333333333333335 10.0, 3.3333333333333335 13.333333333333332" fill="none" style="stroke:black;stroke-width:0.001"/>
<polygon points="0 0, 0 20, 20 20, 20 0" fill="none" style="stroke:blue;stroke-width:0.1"/>
<polygon points="3.8333333333333335 2.833333333333332, 4.166666666666667 2.255983064143706, 4.833333333333333 2.255983064143706, 5.166666666666666 2.833333333333332, 4.5 2.833333333333332" fill="none" style="stroke:red;stroke-width:0.001"/>
<polygon points="0 0, 0 20, 20 20, 20 0" fill="none" style="stroke:blue;stroke-width:0.1"/>
<polygon points="4.166666666666667 2.255983064143706, 4.5 1.6786327949540798, 4.833333333333333 2.255983064143706" fill="none" style="stroke:red;stroke-width:0.001"/>
<polygon points="0 0, 0 20, 20 20, 20 0" fill="none" style="stroke:blue;stroke-width:0.1"/>
<polygon points="3.8333333333333335 2.833333333333332, 4.166666666666667 2.255983064143706, 4.5 1.6786327949540798, 4.833333333333333 2.255983064143706, 5.166666666666666 2.833333333333332, 4.5 2.833333333333332" fill="none" style="stroke:black;stroke-width:0.005"/>
<polygon points="0 0, 0 20, 20 20, 20 0" fill="none" style="stroke:blue;stroke-width:0.1"/>
<text x="3.3333333333333335" y="3.333333333333332" font-family="Verdana" font-size="0.25">4</text>
<polygon points="3.3333333333333335 3.333333333333332, 3.3333333333333335 0.0, 6.666666666666667 0.0, 6.666666666666667 3.333333333333332" fill="none" style="stroke:black;stroke-width:0.001"/>
<polygon points="0 0, 0 20, 20 20, 20 0" fill="none" style="stroke:blue;stroke-width:0.1"/>
<polygon points="4.166666666666667 6.166666666666666, 4.5 5.58931639747704, 5.166666666666667 5.58931639747704, 5.5 6.166666666666666, 4.833333333333334 6.166666666666666" fill="none" style="stroke:red;stroke-width:0.001"/>
<polygon points="0 0, 0 20, 20 20, 20 0" fill="none" style="stroke:blue;stroke-width:0.1"/>
<polygon points="4.166666666666667 6.166666666666666, 3.8333333333333335 5.58931639747704, 4.5 5.58931639747704" fill="none" style="stroke:red;stroke-width:0.001"/>
<polygon points="0 0, 0 20, 20 20, 20 0" fill="none" style="stroke:blue;stroke-width:0.1"/>
<polygon points="4.166666666666667 6.166666666666666, 3.8333333333333335 5.58931639747704, 4.5 5.58931639747704, 5.166666666666667 5.58931639747704, 5.5 6.166666666666666, 4.833333333333334 6.166666666666666" fill="none" style="stroke:black;stroke-width:0.005"/>
<polygon points="0 0, 0 20, 20 20, 20 0" fill="none" style="stroke:blue;stroke-width:0.1"/>
<text x="3.3333333333333335" y="6.666666666666666" font-family="Verdana" font-size="0.25">4</text>
<polygon points="3.3333333333333335 6.666666666666666, 3.3333333333333335 3.333333333333332, 6.666666666666667 3.333333333333332, 6.666666666666667 6.666666666666666" fill="none" style="stroke:black;stroke-width:0.001"/>
<polygon points="0 0, 0 20, 20 20, 20 0" fill="none" style="stroke:blue;stroke-width:0.1"/>
<polygon points="4.833333333333333 9.5, 4.5 8.922649730810374, 3.8333333333333335 8.922649730810374, 4.166666666666667 8.34529946162075, 4.833333333333333 8.34529946162075, 5.166666666666666 8.922649730810374" fill="none" style="stroke:red;stroke-width:0.001"/>
<polygon points="0 0, 0 20, 20 20, 20 0" fill="none" style="stroke:blue;stroke-width:0.1"/>
<polygon points="4.166666666666667 9.5, 4.5 8.922649730810374, 4.833333333333333 9.5" fill="none" style="stroke:red;stroke-width:0.001"/>
<polygon points="0 0, 0 20, 20 20, 20 0" fill="none" style="stroke:blue;stroke-width:0.1"/>
<polygon points="4.166666666666667 9.5, 4.5 8.922649730810374, 3.8333333333333335 8.922649730810374, 4.166666666666667 8.34529946162075, 4.833333333333333 8.34529946162075, 5.166666666666666 8.922649730810374, 4.833333333333333 9.5" fill="none" style="stroke:black;stroke-width:0.005"/>
<polygon points="0 0, 0 20, 20 20, 20 0" fill="none" style="stroke:blue;stroke-width:0.1"/>
<text x="3.3333333333333335" y="10.0" font-family="Verdana" font-size="0.25">5</text>
<polygon points="3.3333333333333335 10.0, 3.3333333333333335 6.666666666666666, 6.666666666666667 6.666666666666666, 6.666666666666667 10.0" fill="none" style="stroke:black;stroke-width:0.001"/>
<polygon points="0 0, 0 20, 20 20, 20 0" fill="none" style="stroke:blue;stroke-width:0.1"/>
<polygon points="4.833333333333333 12.833333333333332, 4.5 12.255983064143708, 3.8333333333333335 12.255983064143708, 4.166666666666667 11.678632794954082, 4.833333333333333 11.678632794954082, 5.166666666666666 12.255983064143708" fill="none" style="stroke:red;stroke-width:0.001"/>
<polygon points="0 0, 0 20, 20 20, 20 0" fill="none" style="stroke:blue;stroke-width:0.1"/>
<polygon points="4.166666666666667 11.678632794954082, 4.5 11.101282525764457, 4.833333333333333 11.678632794954082" fill="none" style="stroke:red;stroke-width:0.001"/>
<polygon points="0 0, 0 20, 20 20, 20 0" fill="none" style="stroke:blue;stroke-width:0.1"/>
<polygon points="4.833333333333333 12.833333333333332, 4.5 12.255983064143708, 3.8333333333333335 12.255983064143708, 4.166666666666667 11.678632794954082, 4.5 11.101282525764457, 4.833333333333333 11.678632794954082, 5.166666666666666 12.255983064143708" fill="none" style="stroke:black;stroke-width:0.005"/>
<polygon points="0 0, 0 20, 20 20, 20 0" fill="none" style="stroke:blue;stroke-width:0.1"/>
<text x="3.3333333333333335" y="13.333333333333332" font-family="Verdana" font-size="0.25">5</text>
<polygon points="3.3333333333333335 13.333333333333332, 3.3333333333333335 10.0, 6.666666666666667 10.0, 6.666666666666667 13.333333333333332" fill="none" style="stroke:black;stroke-width:0.001"/>
<polygon points="0 0, 0 20, 20 20, 20 0" fill="none" style="stroke:blue;stroke-width:0.1"/>
<polygon points="8.5 2.833333333333332, 8.166666666666668 2.255983064143706, 7.500000000000001 2.255983064143706, 7.833333333333334 1.6786327949540798, 8.5 1.6786327949540798, 8.833333333333334 2.255983064143706" fill="none" style="stroke:red;stroke-width:0.001"/>
<polygon points="0 0, 0 20, 20 20, 20 0" fill="none" style="stroke:blue;stroke-width:0.1"/>
<polygon points="7.500000000000001 2.255983064143706, 7.166666666666667 1.6786327949540834, 7.833333333333334 1.6786327949540798" fill="none" style="stroke:red;stroke-width:0.001"/>
<polygon points="0 0, 0 20, 20 20, 20 0" fill="none" style="stroke:blue;stroke-width:0.1"/>
<polygon points="8.5 2.833333333333332, 8.166666666666668 2.255983064143706, 7.500000000000001 2.255983064143706, 7.166666666666667 1.6786327949540834, 7.833333333333334 1.6786327949540798, 8.5 1.6786327949540798, 8.833333333333334 2.255983064143706" fill="none" style="stroke:black;stroke-width:0.005"/>
<polygon points="0 0, 0 20, 20 20, 20 0" fill="none" style="stroke:blue;stroke-width:0.1"/>
<text x="6.666666666666667" y="3.333333333333332" font-family="Verdana" font-size="0.25">5</text>
<polygon points="6.666666666666667 3.333333333333332, 6.666666666666667 0.0, 10.0 0.0, 10.0 3.333333333333332" fill="none" style="stroke:black;stroke-width:0.001"/>
<polygon points="0 0, 0 20, 20 20, 20 0" fill="none" style="stroke:blue;stroke-width:0.1"/>
<polygon points="7.833333333333333 6.166666666666664, 7.5 5.58931639747704, 8.166666666666666 5.589316397477038, 8.833333333333332 5.58931639747704, 9.166666666666666 6.166666666666664, 8.5 6.166666666666664" fill="none" style="stroke:red;stroke-width:0.001"/>
<polygon points="0 0, 0 20, 20 20, 20 0" fill="none" style="stroke:blue;stroke-width:0.1"/>
<polygon points="7.166666666666667 6.166666666666666, 7.499999999999999 5.58931639747704, 7.833333333333333 6.166666666666664" fill="none" style="stroke:red;stroke-width:0.001"/>
<polygon points="0 0, 0 20, 20 20, 20 0" fill="none" style="stroke:blue;stroke-width:0.1"/>
<polygon points="7.166666666666667 6.166666666666666, 7.5 5.58931639747704, 8.166666666666666 5.589316397477038, 8.833333333333332 5.58931639747704, 9.166666666666666 6.166666666666664, 8.5 6.166666666666664, 7.833333333333333 6.166666666666664" fill="none" style="stroke:black;stroke-width:0.005"/>
<polygon points="0 0, 0 20, 20 20, 20 0" fill="none" style="stroke:blue;stroke-width:0.1"/>
<text x="6.666666666666667" y="6.666666666666666" font-family="Verdana" font-size="0.25">5</text>
<polygon points="6.666666666666667 6.666666666666666, 6.666666666666667 3.333333333333332, 10.0 3.333333333333332, 10.0 6.666666666666666" fill="none" style="stroke:black;stroke-width:0.001"/>
<polygon points="0 0, 0 20, 20 20, 20 0" fill="none" style="stroke:blue;stroke-width:0.1"/>
<polygon points="7.5 9.5, 7.833333333333333 8.922649730810374, 7.166666666666667 8.922649730810376, 7.5 8.34529946162075, 8.166666666666666 8.34529946162075, 8.5 8.922649730810374, 8.166666666666666 9.5" fill="none" style="stroke:red;stroke-width:0.001"/>
<polygon points="0 0, 0 20, 20 20, 20 0" fill="none" style="stroke:blue;stroke-width:0.1"/>
<polygon points="7.5 9.5, 7.166666666666667 8.922649730810374, 7.833333333333333 8.922649730810374" fill="none" style="stroke:red;stroke-width:0.001"/>
<polygon points="0 0, 0 20, 20 20, 20 0" fill="none" style="stroke:blue;stroke-width:0.1"/>
<polygon points="7.5 9.5, 7.166666666666667 8.922649730810376, 7.5 8.34529946162075, 8.166666666666666 8.34529946162075, 8.5 8.922649730810374, 8.166666666666666 9.5" fill="none" style="stroke:black;stroke-width:0.005"/>
<polygon points="0 0, 0 20, 20 20, 20 0" fill="none" style="stroke:blue;stroke-width:0.1"/>
<text x="6.666666666666667" y="10.0" font-family="Verdana" font-size="0.25">6</text>
<polygon points="6.666666666666667 10.0, 6.666666666666667 6.666666666666666, 10.0 6.666666666666666, 10.0 10.0" fill="none" style="stroke:black;stroke-width:0.001"/>
<polygon points="0 0, 0 20, 20 20, 20 0" fill="none" style="stroke:blue;stroke-width:0.1"/>
<polygon points="7.500000000000001 12.833333333333332, 7.833333333333334 12.255983064143706, 8.5 12.255983064143706, 9.166666666666668 12.255983064143706, 9.5 12.833333333333332, 8.833333333333334 12.833333333333332, 8.166666666666668 12.833333333333332" fill="none" style="stroke:red;stroke-width:0.001"/>
<polygon points="0 0, 0 20, 20 20, 20 0" fill="none" style="stroke:blue;stroke-width:0.1"/>
<polygon points="7.500000000000001 12.833333333333332, 7.166666666666667 12.255983064143708, 7.833333333333334 12.255983064143706" fill="none" style="stroke:red;stroke-width:0.001"/>
<polygon points="0 0, 0 20, 20 20, 20 0" fill="none" style="stroke:blue;stroke-width:0.1"/>
<polygon points="7.500000000000001 12.833333333333332, 7.166666666666667 12.255983064143708, 7.833333333333334 12.255983064143706, 8.5 12.255983064143706, 9.166666666666668 12.255983064143706, 9.5 12.833333333333332, 8.833333333333334 12.833333333333332, 8.166666666666668 12.833333333333332" fill="none" style="stroke:black;stroke-width:0.005"/>
<polygon points="0 0, 0 20, 20 20, 20 0" fill="none" style="stroke:blue;stroke-width:0.1"/>
<text x="6.666666666666667" y="13.333333333333332" font-family="Verdana" font-size="0.25">6</text>
<polygon points="6.666666666666667 13.333333333333332, 6.666666666666667 10.0, 10.0 10.0, 10.0 13.333333333333332" fill="none" style="stroke:black;stroke-width:0.001"/>
<polygon points="0 0, 0 20, 20 20, 20 0" fill="none" style="stroke:blue;stroke-width:0.1"/>
<polygon points="11.833333333333334 2.833333333333332, 11.5 2.255983064143706, 10.833333333333334 2.255983064143706, 11.166666666666668 1.6786327949540798, 11.5 1.1012825257644536, 11.833333333333334 1.6786327949540798, 12.166666666666668 2.255983064143706" fill="none" style="stroke:red;stroke-width:0.001"/>
<polygon points="0 0, 0 20, 20 20, 20 0" fill="none" style="stroke:blue;stroke-width:0.1"/>
<polygon points="10.833333333333334 2.255983064143706, 10.5 1.6786327949540798, 11.166666666666666 1.6786327949540798" fill="none" style="stroke:red;stroke-width:0.001"/>
<polygon points="0 0, 0 20, 20 20, 20 0" fill="none" style="stroke:blue;stroke-width:0.1"/>
<polygon points="11.833333333333334 2.833333333333332, 11.5 2.255983064143706, 10.833333333333334 2.255983064143706, 10.5 1.6786327949540798, 11.166666666666668 1.6786327949540798, 11.5 1.1012825257644536, 11.833333333333334 1.6786327949540798, 12.166666666666668 2.255983064143706" fill="none" style="stroke:black;stroke-width:0.005"/>
<polygon points="0 0, 0 20, 20 20, 20 0" fill="none" style="stroke:blue;stroke-width:0.1"/>
<text x="10.0" y="3.333333333333332" font-family="Verdana" font-size="0.25">6</text>
<polygon points="10.0 3.333333333333332, 10.0 0.0, 13.333333333333334 0.0, 13.333333333333334 3.333333333333332" fill="none" style="stroke:black;stroke-width:0.001"/>
<polygon points="0 0, 0 20, 20 20, 20 0" fill="none" style="stroke:blue;stroke-width:0.1"/>
<polygon points="11.5 6.166666666666666, 11.166666666666666 5.58931639747704, 10.5 5.589316397477042, 10.833333333333334 5.0119661282874155, 11.166666666666666 4.434615859097789, 11.5 5.0119661282874155, 11.833333333333332 5.58931639747704" fill="none" style="stroke:red;stroke-width:0.001"/>
<polygon points="0 0, 0 20, 20 20, 20 0" fill="none" style="stroke:blue;stroke-width:0.1"/>
<polygon points="10.833333333333334 5.0119661282874155, 10.5 4.434615859097789, 11.166666666666666 4.434615859097789" fill="none" style="stroke:red;stroke-width:0.001"/>
<polygon points="0 0, 0 20, 20 20, 20 0" fill="none" style="stroke:blue;stroke-width:0.1"/>
<polygon points="11.5 6.166666666666666, 11.166666666666666 5.58931639747704, 10.5 5.589316397477042, 10.833333333333334 5.0119661282874155, 10.5 4.434615859097789, 11.166666666666666 4.434615859097789, 11.5 5.0119661282874155, 11.833333333333332 5.58931639747704" fill="none" style="stroke:black;stroke-width:0.005"/>
<polygon points="0 0, 0 20, 20 20, 20 0" fill="none" style="stroke:blue;stroke-width:0.1"/>
<text x="10.0" y="6.666666666666666" font-family="Verdana" font-size="0.25">6</text>
<polygon points="10.0 6.666666666666666, 10.0 3.333333333333332, 13.333333333333334 3.333333333333332, 13.333333333333334 6.666666666666666" fill="none" style="stroke:black;stroke-width:0.001"/>
<polygon points="0 0, 0 20, 20 20, 20 0" fill="none" style="stroke:blue;stroke-width:0.1"/>
<polygon points="11.5 9.5, 11.166666666666666 8.922649730810374, 10.5 8.922649730810374, 10.833333333333334 8.345299461620748, 11.166666666666666 7.767949192431123, 11.5 8.345299461620748, 11.833333333333332 8.922649730810374" fill="none" style="stroke:red;stroke-width:0.001"/>
<polygon points="0 0, 0 20, 20 20, 20 0" fill="none" style="stroke:blue;stroke-width:0.1"/>
<polygon points="11.833333333333334 8.922649730810374, 11.5 8.345299461620748, 12.166666666666666 8.345299461620748" fill="none" style="stroke:red;stroke-width:0.001"/>
<polygon points="0 0, 0 20, 20 20, 20 0" fill="none" style="stroke:blue;stroke-width:0.1"/>
<polygon points="11.5 9.5, 11.166666666666666 8.922649730810374, 10.5 8.922649730810374, 10.833333333333334 8.345299461620748, 11.166666666666666 7.767949192431123, 11.5 8.345299461620748, 12.166666666666666 8.345299461620748, 11.833333333333332 8.922649730810374" fill="none" style="stroke:black;stroke-width:0.005"/>
<polygon points="0 0, 0 20, 20 20, 20 0" fill="none" style="stroke:blue;stroke-width:0.1"/>
<text x="10.0" y="10.0" font-family="Verdana" font-size="0.25">6</text>
<polygon points="10.0 10.0, 10.0 6.666666666666666, 13.333333333333334 6.666666666666666, 13.333333333333334 10.0" fill="none" style="stroke:black;stroke-width:0.001"/>
<polygon points="0 0, 0 20, 20 20, 20 0" fill="none" style="stroke:blue;stroke-width:0.1"/>
<polygon points="10.833333333333334 12.833333333333332, 11.166666666666666 12.255983064143706, 10.5 12.255983064143708, 10.833333333333334 11.678632794954082, 11.5 11.678632794954082, 11.833333333333332 12.255983064143706, 11.5 12.833333333333332" fill="none" style="stroke:red;stroke-width:0.001"/>
<polygon points="0 0, 0 20, 20 20, 20 0" fill="none" style="stroke:blue;stroke-width:0.1"/>
<polygon points="10.833333333333334 11.678632794954082, 11.166666666666666 11.101282525764455, 11.5 11.678632794954082" fill="none" style="stroke:red;stroke-width:0.001"/>
<polygon points="0 0, 0 20, 20 20, 20 0" fill="none" style="stroke:blue;stroke-width:0.1"/>
<polygon points="10.833333333333334 12.833333333333332, 11.166666666666666 12.255983064143706, 10.5 12.255983064143708, 10.833333333333334 11.678632794954082, 11.166666666666666 11.101282525764455, 11.5 11.678632794954082, 11.833333333333332 12.255983064143706, 11.5 12.833333333333332" fill="none" style="stroke:black;stroke-width:0.005"/>
<polygon points="0 0, 0 20, 20 20, 20 0" fill="none" style="stroke:blue;stroke-width:0.1"/>
<text x="10.0" y="13.333333333333332" font-family="Verdana" font-size="0.25">6</text>
<polygon points="10.0 13.333333333333332, 10.0 10.0, 13.333333333333334 10.0, 13.333333333333334 13.333333333333332" fill="none" style="stroke:black;stroke-width:0.001"/>
<polygon points="0 0, 0 20, 20 20, 20 0" fill="none" style="stroke:blue;stroke-width:0.1"/>
<polygon points="14.166666666666668 2.833333333333332, 14.5 2.255983064143706, 13.833333333333334 2.255983064143706, 14.166666666666668 1.6786327949540798, 14.833333333333334 1.6786327949540798, 15.166666666666668 2.255983064143706, 14.833333333333334 2.833333333333332" fill="none" style="stroke:red;stroke-width:0.001"/>
<polygon points="0 0, 0 20, 20 20, 20 0" fill="none" style="stroke:blue;stroke-width:0.1"/>
<polygon points="15.166666666666668 2.255983064143706, 14.833333333333334 1.6786327949540798, 15.5 1.6786327949540798" fill="none" style="stroke:red;stroke-width:0.001"/>
<polygon points="0 0, 0 20, 20 20, 20 0" fill="none" style="stroke:blue;stroke-width:0.1"/>
<polygon points="14.166666666666668 2.833333333333332, 14.5 2.255983064143706, 13.833333333333334 2.255983064143706, 14.166666666666668 1.6786327949540798, 14.833333333333334 1.6786327949540798, 15.5 1.6786327949540798, 15.166666666666668 2.255983064143706, 14.833333333333334 2.833333333333332" fill="none" style="stroke:black;stroke-width:0.005"/>
<polygon points="0 0, 0 20, 20 20, 20 0" fill="none" style="stroke:blue;stroke-width:0.1"/>
<text x="13.333333333333334" y="3.333333333333332" font-family="Verdana" font-size="0.25">6</text>
<polygon points="13.333333333333334 3.333333333333332, 13.333333333333334 0.0, 16.666666666666668 0.0, 16.666666666666668 3.333333333333332" fill="none" style="stroke:black;stroke-width:0.001"/>
<polygon points="0 0, 0 20, 20 20, 20 0" fill="none" style="stroke:blue;stroke-width:0.1"/>
<polygon points="14.5 6.166666666666666, 14.833333333333334 5.58931639747704, 14.166666666666668 5.58931639747704, 14.5 5.0119661282874155, 15.166666666666668 5.0119661282874155, 15.5 5.58931639747704, 15.166666666666668 6.166666666666666" fill="none" style="stroke:red;stroke-width:0.001"/>
<polygon points="0 0, 0 20, 20 20, 20 0" fill="none" style="stroke:blue;stroke-width:0.1"/>
<polygon points="14.166666666666668 5.58931639747704, 13.833333333333334 5.0119661282874155, 14.5 5.0119661282874155" fill="none" style="stroke:red;stroke-width:0.001"/>
<polygon points="0 0, 0 20, 20 20, 20 0" fill="none" style="stroke:blue;stroke-width:0.1"/>
<polygon points="14.5 6.166666666666666, 14.833333333333334 5.58931639747704, 14.166666666666668 5.58931639747704, 13.833333333333334 5.0119661282874155, 14.5 5.0119661282874155, 15.166666666666668 5.0119661282874155, 15.5 5.58931639747704, 15.166666666666668 6.166666666666666" fill="none" style="stroke:black;stroke-width:0.005"/>
<polygon points="0 0, 0 20, 20 20, 20 0" fill="none" style="stroke:blue;stroke-width:0.1"/>
<text x="13.333333333333334" y="6.666666666666666" font-family="Verdana" font-size="0.25">6</text>
<polygon points="13.333333333333334 6.666666666666666, 13.333333333333334 3.333333333333332, 16.666666666666668 3.333333333333332, 16.666666666666668 6.666666666666666" fill="none" style="stroke:black;stroke-width:0.001"/>
<polygon points="0 0, 0 20, 20 20, 20 0" fill="none" style="stroke:blue;stroke-width:0.1"/>
<polygon points="14.833333333333334 9.5, 14.5 8.922649730810374, 13.833333333333334 8.922649730810374, 14.166666666666668 8.345299461620748, 14.5 7.767949192431123, 14.833333333333334 8.345299461620748, 15.166666666666668 8.922649730810374" fill="none" style="stroke:red;stroke-width:0.001"/>
<polygon points="0 0, 0 20, 20 20, 20 0" fill="none" style="stroke:blue;stroke-width:0.1"/>
<polygon points="14.833333333333334 9.5, 15.166666666666668 8.922649730810374, 15.5 9.5" fill="none" style="stroke:red;stroke-width:0.001"/>
<polygon points="0 0, 0 20, 20 20, 20 0" fill="none" style="stroke:blue;stroke-width:0.1"/>
<polygon points="14.833333333333334 9.5, 14.5 8.922649730810374, 13.833333333333334 8.922649730810374, 14.166666666666668 8.345299461620748, 14.5 7.767949192431123, 14.833333333333334 8.345299461620748, 15.166666666666668 8.922649730810374, 15.5 9.5" fill="none" style="stroke:black;stroke-width:0.005"/>
<polygon points="0 0, 0 20, 20 20, 20 0" fill="none" style="stroke:blue;stroke-width:0.1"/>
<text x="13.333333333333334" y="10.0" font-family="Verdana" font-size="0.25">6</text>
<polygon points="13.333333333333334 10.0, 13.333333333333334 6.666666666666666, 16.666666666666668 6.666666666666666, 16.666666666666668 10.0" fill="none" style="stroke:black;stroke-width:0.001"/>
<polygon points="0 0, 0 20, 20 20, 20 0" fill="none" style="stroke:blue;stroke-width:0.1"/>
<polygon points="15.5 12.833333333333332, 15.166666666666668 12.255983064143708, 14.5 12.255983064143708, 14.166666666666666 11.678632794954082, 14.833333333333334 11.678632794954082, 15.5 11.678632794954082, 15.833333333333334 12.255983064143708" fill="none" style="stroke:red;stroke-width:0.001"/>
<polygon points="0 0, 0 20, 20 20, 20 0" fill="none" style="stroke:blue;stroke-width:0.1"/>
<polygon points="13.833333333333334 12.25598306414371, 14.166666666666666 11.678632794954083, 14.5 12.255983064143708" fill="none" style="stroke:red;stroke-width:0.001"/>
<polygon points="0 0, 0 20, 20 20, 20 0" fill="none" style="stroke:blue;stroke-width:0.1"/>
<polygon points="15.5 12.833333333333332, 15.166666666666668 12.255983064143708, 14.5 12.255983064143708, 13.833333333333334 12.25598306414371, 14.166666666666666 11.678632794954082, 14.833333333333334 11.678632794954082, 15.5 11.678632794954082, 15.833333333333334 12.255983064143708" fill="none" style="stroke:black;stroke-width:0.005"/>
<polygon points="0 0, 0 20, 20 20, 20 0" fill="none" style="stroke:blue;stroke-width:0.1"/>
<text x="13.333333333333334" y="13.333333333333332" font-family="Verdana" font-size="0.25">6</text>
<polygon points="13.333333333333334 13.333333333333332, 13.333333333333334 10.0, 16.666666666666668 10.0, 16.666666666666668 13.333333333333332" fill="none" style="stroke:black;stroke-width:0.001"/>
<polygon points="0 0, 0 20, 20 20, 20 0" fill="none" style="stroke:blue;stroke-width:0.1"/>
<polygon points="18.5 2.833333333333332, 18.166666666666668 2.255983064143706, 17.5 2.255983064143706, 17.166666666666668 1.6786327949540834, 17.833333333333336 1.6786327949540834, 18.5 1.6786327949540834, 18.833333333333332 2.255983064143706" fill="none" style="stroke:red;stroke-width:0.001"/>
<polygon points="0 0, 0 20, 20 20, 20 0" fill="none" style="stroke:blue;stroke-width:0.1"/>
<polygon points="17.166666666666668 1.6786327949540834, 17.5 1.1012825257644572, 17.833333333333332 1.6786327949540834" fill="none" style="stroke:red;stroke-width:0.001"/>
<polygon points="0 0, 0 20, 20 20, 20 0" fill="none" style="stroke:blue;stroke-width:0.1"/>
<polygon points="18.5 2.833333333333332, 18.166666666666668 2.255983064143706, 17.5 2.255983064143706, 17.166666666666668 1.6786327949540834, 17.5 1.1012825257644572, 17.833333333333336 1.6786327949540834, 18.5 1.6786327949540834, 18.833333333333332 2.255983064143706" fill="none" style="stroke:black;stroke-width:0.005"/>
<polygon points="0 0, 0 20, 20 20, 20 0" fill="none" style="stroke:blue;stroke-width:0.1"/>
<text x="16.666666666666668" y="3.333333333333332" font-family="Verdana" font-size="0.25">6</text>
<polygon points="16.666666666666668 3.333333333333332, 16.666666666666668 0.0, 20.0 0.0, 20.0 3.333333333333332" fill="none" style="stroke:black;stroke-width:0.001"/>
<polygon points="0 0, 0 20, 20 20, 20 0" fill="none" style="stroke:blue;stroke-width:0.1"/>
<polygon points="18.5 6.166666666666666, 18.166666666666668 5.589316397477042, 17.5 5.589316397477042, 17.166666666666668 5.0119661282874155, 17.833333333333336 5.0119661282874155, 18.5 5.0119661282874155, 18.833333333333332 5.589316397477042" fill="none" style="stroke:red;stroke-width:0.001"/>
<polygon points="0 0, 0 20, 20 20, 20 0" fill="none" style="stroke:blue;stroke-width:0.1"/>
<polygon points="18.5 6.166666666666666, 18.833333333333332 5.589316397477042, 19.166666666666668 6.166666666666666" fill="none" style="stroke:red;stroke-width:0.001"/>
<polygon points="0 0, 0 20, 20 20, 20 0" fill="none" style="stroke:blue;stroke-width:0.1"/>
<polygon points="18.5 6.166666666666666, 18.166666666666668 5.589316397477042, 17.5 5.589316397477042, 17.166666666666668 5.0119661282874155, 17.833333333333336 5.0119661282874155, 18.5 5.0119661282874155, 18.833333333333332 5.589316397477042, 19.166666666666668 6.166666666666666" fill="none" style="stroke:black;stroke-width:0.005"/>
<polygon points="0 0, 0 20, 20 20, 20 0" fill="none" style="stroke:blue;stroke-width:0.1"/>
<text x="16.666666666666668" y="6.666666666666666" font-family="Verdana" font-size="0.25">6</text>
<polygon points="16.666666666666668 6.666666666666666, 16.666666666666668 3.333333333333332, 20.0 3.333333333333332, 20.0 6.666666666666666" fill="none" style="stroke:black;stroke-width:0.001"/>
</svg>
